M48
METRIC,LZ,000.000
;FILE_FORMAT=3:3
;TYPE=PLATED
;Layer: PTH_Through
;EasyEDA v6.5.1, 2022-03-29 23:29:47
;6fa140fc38934b6497cce4c8c0035c65,6efad7caf7c64316809b4ed48508c700,10
;Gerber Generator version 0.2
;Holesize 1 = 0.305 mm
T01C0.305
;Holesize 2 = 0.306 mm
T02C0.306
;Holesize 3 = 0.310 mm
T03C0.310
;Holesize 4 = 0.751 mm
T04C0.751
;Holesize 5 = 0.889 mm
T05C0.889
;Holesize 6 = 0.900 mm
T06C0.900
;Holesize 7 = 0.901 mm
T07C0.901
;Holesize 8 = 0.915 mm
T08C0.915
;Holesize 9 = 1.000 mm
T09C1.000
;Holesize 10 = 1.021 mm
T10C1.021
;Holesize 11 = 1.101 mm
T11C1.101
;Holesize 12 = 1.200 mm
T12C1.200
%
G05
G90
T01
X021590Y-033782
X037592Y-033782
X065659Y-045339
X061976Y-044704
X081788Y-014097
X081661Y-016764
X091567Y-016637
X091440Y-014224
X092583Y-026924
X081280Y-026797
X070358Y-081661
X066675Y-080792
X063500Y-079629
X063500Y-078867
X063500Y-077978
X033020Y-092202
X033020Y-096647
X049911Y-052959
X094488Y-087249
X090043Y-092075
X083185Y-092075
T02
X010493Y-011619
X028194Y-025654
X045295Y-028471
X017321Y-018615
X037061Y-015829
X040880Y-030129
T03
X083057Y-062245
X082846Y-059007
X086360Y-072390
X086999Y-060023
X088569Y-067188
X086969Y-069830
X091660Y-071902
X093288Y-065923
X092198Y-059327
X089158Y-062202
X089432Y-060833
X087847Y-073099
X090527Y-068542
X083306Y-057856
X092963Y-070002
X083154Y-076584
T04
X030861Y-082042
X033401Y-082042
X035941Y-082042
T05
X055753Y-043180
X058293Y-043180
X060833Y-043180
X063373Y-043180
X065913Y-043180
X068453Y-043180
X070993Y-043180
X001397Y-098552
X003937Y-098552
X006477Y-098552
X009017Y-098552
X011557Y-098552
X014097Y-098552
X016637Y-098552
X019177Y-098552
X021717Y-098552
X024257Y-098552
X024257Y-080772
X021717Y-080772
X019177Y-080772
X016637Y-080772
X014097Y-080772
X011557Y-080772
X009017Y-080772
X006477Y-080772
X003937Y-080772
X001397Y-080772
X041529Y-075692
X041529Y-078232
X041529Y-080772
X041529Y-083312
X041529Y-085852
X041529Y-088392
X041529Y-090932
X041529Y-093472
X041529Y-096012
X041529Y-098552
X054229Y-098552
X054229Y-096012
X054229Y-093472
X054229Y-090932
X054229Y-088392
X054229Y-085852
X054229Y-083312
X054229Y-080772
X054229Y-078232
X054229Y-075692
X071755Y-098552
X071755Y-096012
X071755Y-093472
X071755Y-090932
X071755Y-088392
X071755Y-085852
X071755Y-083312
X071755Y-080772
X071755Y-078232
X071755Y-075692
X071755Y-073152
X071755Y-070612
X071755Y-068072
X071755Y-065532
X071755Y-062992
X061595Y-062992
X061595Y-065532
X061595Y-068072
X061595Y-070612
X061595Y-073152
X061595Y-075692
X061595Y-078232
X061595Y-080772
X061595Y-083312
X061595Y-085852
X061595Y-088392
X061595Y-090932
X061595Y-093472
X061595Y-096012
X061595Y-098552
X075692Y-001397
X075692Y-003937
X075692Y-006477
X075692Y-009017
X075692Y-011557
X075692Y-014097
X075692Y-016637
X075692Y-019177
X075692Y-021717
X075692Y-024257
X075692Y-026797
X075692Y-029337
X075692Y-031877
X075692Y-034417
X075692Y-036957
X075692Y-039497
X075692Y-042037
X075692Y-044577
X075692Y-047117
X075692Y-049657
X098552Y-049657
X098552Y-047117
X098552Y-044577
X098552Y-042037
X098552Y-039497
X098552Y-036957
X098552Y-034417
X098552Y-031877
X098552Y-029337
X098552Y-026797
X098552Y-024257
X098552Y-021717
X098552Y-019177
X098552Y-016637
X098552Y-014097
X098552Y-011557
X098552Y-009017
X098552Y-006477
X098552Y-003937
X098552Y-001397
T06
X037068Y-031750
X039608Y-031750
X042148Y-031750
X044688Y-031750
X047228Y-031750
X037068Y-006350
X039608Y-006350
X042148Y-006350
X044688Y-006350
X047228Y-006350
T07
X053138Y-010372G85X053138Y-012472
X058888Y-007923G85X056688Y-007923
X056688Y-013923G85X058888Y-013923
T08
X078232Y-088392
X078232Y-090932
X078232Y-093472
X078232Y-096012
X078232Y-098552
X098552Y-098552
X098552Y-096012
X098552Y-093472
X098552Y-090932
X098552Y-088392
X053975Y-062103
X053975Y-064643
X053975Y-067183
X053975Y-069723
X041275Y-069723
X041275Y-067183
X041275Y-064643
X041275Y-062103
X009223Y-027365
X011763Y-027365
X009223Y-024825
X011763Y-024825
X009223Y-022285
X011763Y-022285
X009223Y-019745
X011763Y-019745
X009223Y-017205
X011763Y-017205
X009223Y-014665
X011763Y-014665
X009223Y-012125
X011763Y-012125
X009223Y-009585
X011763Y-009585
X027003Y-027365
X029543Y-027365
X027003Y-024825
X029543Y-024825
X027003Y-022285
X029543Y-022285
X027003Y-019745
X029543Y-019745
X027003Y-017205
X029543Y-017205
X027003Y-014665
X029543Y-014665
X027003Y-012125
X029543Y-012125
X027003Y-009585
X029543Y-009585
X001651Y-014794
X004191Y-014794
X001651Y-017334
X004191Y-017334
X001651Y-019874
X004191Y-019874
X001651Y-022414
X004191Y-022414
X066278Y-014794
X068818Y-014794
X066278Y-017334
X068818Y-017334
X066278Y-019874
X068818Y-019874
X066278Y-022414
X068818Y-022414
T09
X053515Y-032130
X062074Y-032130
X053515Y-017165
X062074Y-017165
T10
X036957Y-001905
X039497Y-001905
X042037Y-001905
X044577Y-001905
X047117Y-001905
T11
X003683Y-041402
X031623Y-041402
X029083Y-041402
X006223Y-041402
X008763Y-041402
X011303Y-041402
X013843Y-041402
X016383Y-041402
X018923Y-041402
X021463Y-041402
X024003Y-041402
X026543Y-041402
X033909Y-043688
X033909Y-071628
X033909Y-069088
X033909Y-046228
X033909Y-048768
X033909Y-051308
X033909Y-053848
X033909Y-056388
X033909Y-058928
X033909Y-061468
X033909Y-064008
X033909Y-066548
X031623Y-073914
X003683Y-073914
X006223Y-073914
X029083Y-073914
X026543Y-073914
X024003Y-073914
X021463Y-073914
X018923Y-073914
X016383Y-073914
X013843Y-073914
X011303Y-073914
X008763Y-073914
X001397Y-071628
X001397Y-043688
X001397Y-046228
X001397Y-069088
X001397Y-066548
X001397Y-064008
X001397Y-061468
X001397Y-058928
X001397Y-056388
X001397Y-053848
X001397Y-051308
X001397Y-048768
X042577Y-035687
X033877Y-035687
T12
X038354Y-043307
X040894Y-043307
X043434Y-043307
X045974Y-043307
X048514Y-043307
X051054Y-043307
X045593Y-035687
X048133Y-035687
M30
