M48
METRIC,LZ,000.000
;FILE_FORMAT=3:3
;TYPE=NON_PLATED
;Layer: NPTH_Through
;EasyEDA v6.5.1, 2022-03-29 23:29:47
;6fa140fc38934b6497cce4c8c0035c65,6efad7caf7c64316809b4ed48508c700,10
;Gerber Generator version 0.2
;Holesize 1 = 0.650 mm
T01C0.650
;Holesize 2 = 0.800 mm
T02C0.800
;Holesize 3 = 1.101 mm
T03C1.101
;Holesize 4 = 1.400 mm
T04C1.400
;Holesize 5 = 1.600 mm
T05C1.600
;Holesize 6 = 2.000 mm
T06C2.000
;Holesize 7 = 2.032 mm
T07C2.032
%
G05
G90
T01
X091154Y-075624
X085374Y-075624
X066263Y-047938
X060483Y-047938
X085374Y-075624
X091154Y-075624
T02
X083728Y-067500
X083730Y-070502
T03
X083442Y-095551
X091442Y-095551
T04
X088264Y-063106
X088264Y-058106
X044704Y-048527
X044704Y-053527
T05
X033144Y-094706
X033152Y-088694
T06
X028273Y-004865
X010493Y-004865
T07
X003881Y-003584
X003881Y-033584
X066881Y-033584
X066881Y-003584
M30
