G04 Layer: BottomSilkscreenLayer*
G04 EasyEDA v6.5.1, 2022-03-29 23:29:47*
G04 6fa140fc38934b6497cce4c8c0035c65,6efad7caf7c64316809b4ed48508c700,10*
G04 Gerber Generator version 0.2*
G04 Scale: 100 percent, Rotated: No, Reflected: No *
G04 Dimensions in millimeters *
G04 leading zeros omitted , absolute positions ,4 integer and 5 decimal *
%FSLAX45Y45*%
%MOMM*%

%ADD10C,0.2540*%
%ADD56C,0.2032*%
%ADD59C,0.2000*%
%ADD62C,0.4000*%
%ADD63C,0.1524*%

%LPD*%
G36*
X4928870Y-897686D02*
G01*
X4926076Y-898347D01*
X4923028Y-900023D01*
X4919726Y-902614D01*
X4916220Y-906221D01*
X4912461Y-910691D01*
X4908550Y-916127D01*
X4904435Y-922426D01*
X4900117Y-929589D01*
X4891074Y-946403D01*
X4886350Y-956005D01*
X4876546Y-977544D01*
X4866436Y-1001928D01*
X4856022Y-1029004D01*
X4845507Y-1058672D01*
X4834940Y-1090625D01*
X4829708Y-1107389D01*
X4769510Y-1307236D01*
X4690262Y-1299616D01*
X4644898Y-1295044D01*
X4602429Y-1290472D01*
X4562856Y-1285951D01*
X4526076Y-1281328D01*
X4491888Y-1276604D01*
X4460290Y-1271676D01*
X4431131Y-1266545D01*
X4404360Y-1261160D01*
X4379823Y-1255471D01*
X4357471Y-1249375D01*
X4347057Y-1246174D01*
X4337202Y-1242872D01*
X4327804Y-1239418D01*
X4318863Y-1235862D01*
X4310430Y-1232154D01*
X4302404Y-1228344D01*
X4294835Y-1224330D01*
X4287723Y-1220216D01*
X4281017Y-1215948D01*
X4274718Y-1211478D01*
X4268825Y-1206855D01*
X4263288Y-1202080D01*
X4258106Y-1197102D01*
X4253331Y-1191920D01*
X4248861Y-1186535D01*
X4244746Y-1180947D01*
X4240936Y-1175156D01*
X4237482Y-1169162D01*
X4234281Y-1162964D01*
X4231335Y-1156512D01*
X4227474Y-1146352D01*
X4223207Y-1132027D01*
X4221429Y-1124458D01*
X4218482Y-1108506D01*
X4216298Y-1091438D01*
X4214774Y-1073251D01*
X4213860Y-1053846D01*
X4212844Y-1009446D01*
X4211929Y-988110D01*
X4210608Y-969213D01*
X4208881Y-952703D01*
X4206748Y-938631D01*
X4204208Y-926947D01*
X4202785Y-921969D01*
X4201261Y-917651D01*
X4199636Y-913942D01*
X4197908Y-910793D01*
X4196080Y-908253D01*
X4194149Y-906322D01*
X4192117Y-905002D01*
X4189984Y-904290D01*
X4187748Y-904138D01*
X4185412Y-904646D01*
X4182973Y-905713D01*
X4180433Y-907389D01*
X4177792Y-909675D01*
X4175048Y-912571D01*
X4169308Y-920191D01*
X4166260Y-924864D01*
X4159859Y-936091D01*
X4154779Y-946048D01*
X4147667Y-961491D01*
X4140149Y-979322D01*
X4132224Y-999540D01*
X4123893Y-1022197D01*
X4115155Y-1047242D01*
X4106011Y-1074724D01*
X4096461Y-1104595D01*
X4086504Y-1136904D01*
X4065320Y-1208735D01*
X4036974Y-1309268D01*
X3786936Y-1276502D01*
X3715765Y-1266393D01*
X3685032Y-1261567D01*
X3657295Y-1256792D01*
X3632352Y-1251966D01*
X3610101Y-1247038D01*
X3590340Y-1241907D01*
X3581349Y-1239266D01*
X3572916Y-1236522D01*
X3565042Y-1233678D01*
X3557676Y-1230731D01*
X3550869Y-1227683D01*
X3544468Y-1224534D01*
X3538575Y-1221232D01*
X3533140Y-1217777D01*
X3528060Y-1214221D01*
X3523437Y-1210462D01*
X3519170Y-1206550D01*
X3515258Y-1202436D01*
X3511702Y-1198118D01*
X3508501Y-1193647D01*
X3505555Y-1188923D01*
X3502914Y-1183995D01*
X3500475Y-1178864D01*
X3496360Y-1167790D01*
X3493058Y-1155649D01*
X3491636Y-1149197D01*
X3489756Y-1138936D01*
X3487623Y-1124153D01*
X3479037Y-1042619D01*
X3476853Y-1024991D01*
X3474516Y-1008583D01*
X3472078Y-993394D01*
X3469487Y-979525D01*
X3466795Y-966876D01*
X3463950Y-955446D01*
X3461054Y-945337D01*
X3458006Y-936498D01*
X3454857Y-928928D01*
X3451656Y-922629D01*
X3448304Y-917600D01*
X3446627Y-915568D01*
X3443173Y-912469D01*
X3439668Y-910691D01*
X3437890Y-910285D01*
X3434232Y-910437D01*
X3430574Y-911910D01*
X3426815Y-914704D01*
X3423005Y-918819D01*
X3419144Y-924255D01*
X3415233Y-930960D01*
X3411321Y-939037D01*
X3407359Y-948436D01*
X3403346Y-959205D01*
X3399332Y-971296D01*
X3335020Y-1194866D01*
X3316376Y-1258925D01*
X3305200Y-1295806D01*
X3304438Y-1297228D01*
X3303168Y-1298498D01*
X3301441Y-1299616D01*
X3299206Y-1300581D01*
X3293211Y-1302004D01*
X3289401Y-1302461D01*
X3280054Y-1302867D01*
X3268319Y-1302562D01*
X3254146Y-1301648D01*
X3237331Y-1300022D01*
X3217824Y-1297736D01*
X3124555Y-1284935D01*
X3088335Y-1280363D01*
X3060903Y-1277569D01*
X3050336Y-1276756D01*
X3041802Y-1276451D01*
X3035198Y-1276502D01*
X3030474Y-1277010D01*
X3027527Y-1277924D01*
X3026714Y-1278534D01*
X3026359Y-1279245D01*
X3026359Y-1280058D01*
X3027629Y-1281988D01*
X3030474Y-1284325D01*
X3034792Y-1287068D01*
X3043834Y-1291844D01*
X3053740Y-1296212D01*
X3064560Y-1300226D01*
X3076143Y-1303883D01*
X3088386Y-1307185D01*
X3101238Y-1310081D01*
X3114598Y-1312621D01*
X3128416Y-1314805D01*
X3142538Y-1316634D01*
X3156864Y-1318107D01*
X3171393Y-1319225D01*
X3185972Y-1319987D01*
X3200552Y-1320393D01*
X3215030Y-1320495D01*
X3229305Y-1320190D01*
X3243326Y-1319580D01*
X3256940Y-1318666D01*
X3270148Y-1317396D01*
X3282797Y-1315770D01*
X3294837Y-1313840D01*
X3306114Y-1311554D01*
X3316630Y-1308963D01*
X3326282Y-1306068D01*
X3334918Y-1302867D01*
X3342487Y-1299311D01*
X3348939Y-1295450D01*
X3351682Y-1293418D01*
X3356254Y-1289100D01*
X3357981Y-1286814D01*
X3359404Y-1284478D01*
X3360470Y-1282039D01*
X3361131Y-1279550D01*
X3362502Y-1264056D01*
X3363925Y-1254404D01*
X3365804Y-1244041D01*
X3368090Y-1233068D01*
X3373882Y-1210005D01*
X3380841Y-1186027D01*
X3384651Y-1174038D01*
X3390646Y-1156360D01*
X3398926Y-1134008D01*
X3407156Y-1113942D01*
X3411169Y-1105052D01*
X3415029Y-1097127D01*
X3418687Y-1090269D01*
X3422091Y-1084580D01*
X3425190Y-1080160D01*
X3427984Y-1077163D01*
X3429203Y-1076248D01*
X3430371Y-1075740D01*
X3431387Y-1075639D01*
X3432301Y-1075944D01*
X3433114Y-1076706D01*
X3433775Y-1077925D01*
X3434334Y-1079652D01*
X3435045Y-1084529D01*
X3435400Y-1104087D01*
X3436061Y-1124102D01*
X3437331Y-1142238D01*
X3438245Y-1150620D01*
X3439363Y-1158544D01*
X3440734Y-1166114D01*
X3442411Y-1173276D01*
X3444443Y-1180084D01*
X3446779Y-1186484D01*
X3449523Y-1192580D01*
X3452622Y-1198372D01*
X3456178Y-1203858D01*
X3460242Y-1209040D01*
X3464763Y-1213967D01*
X3469792Y-1218641D01*
X3475380Y-1223060D01*
X3481578Y-1227277D01*
X3488385Y-1231290D01*
X3495801Y-1235151D01*
X3503879Y-1238808D01*
X3512667Y-1242314D01*
X3522218Y-1245717D01*
X3532479Y-1249019D01*
X3555441Y-1255318D01*
X3581755Y-1261364D01*
X3611727Y-1267307D01*
X3645509Y-1273251D01*
X3683406Y-1279448D01*
X3921353Y-1315008D01*
X3948937Y-1318818D01*
X3973220Y-1321714D01*
X3994505Y-1323695D01*
X4013047Y-1324559D01*
X4021378Y-1324559D01*
X4029100Y-1324305D01*
X4036263Y-1323695D01*
X4042918Y-1322730D01*
X4049014Y-1321460D01*
X4054703Y-1319834D01*
X4059936Y-1317853D01*
X4064762Y-1315516D01*
X4069232Y-1312773D01*
X4073347Y-1309624D01*
X4077157Y-1306068D01*
X4080713Y-1302105D01*
X4083964Y-1297686D01*
X4087063Y-1292860D01*
X4089958Y-1287526D01*
X4092701Y-1281734D01*
X4097832Y-1268730D01*
X4102811Y-1253693D01*
X4107738Y-1236522D01*
X4125315Y-1171397D01*
X4134916Y-1137970D01*
X4143857Y-1109167D01*
X4147820Y-1097838D01*
X4151426Y-1088491D01*
X4154728Y-1081125D01*
X4157726Y-1075740D01*
X4160469Y-1072388D01*
X4161790Y-1071422D01*
X4163009Y-1070965D01*
X4164177Y-1070965D01*
X4165346Y-1071473D01*
X4166412Y-1072438D01*
X4168444Y-1075842D01*
X4170324Y-1081176D01*
X4172102Y-1088390D01*
X4173728Y-1097483D01*
X4175302Y-1108456D01*
X4176826Y-1121257D01*
X4178300Y-1135938D01*
X4179112Y-1142034D01*
X4180281Y-1148080D01*
X4181906Y-1154023D01*
X4183938Y-1159865D01*
X4186377Y-1165606D01*
X4189272Y-1171244D01*
X4192524Y-1176832D01*
X4196181Y-1182268D01*
X4200245Y-1187653D01*
X4204716Y-1192885D01*
X4209542Y-1198067D01*
X4214825Y-1203147D01*
X4220464Y-1208074D01*
X4226509Y-1212951D01*
X4232960Y-1217726D01*
X4247032Y-1226921D01*
X4254652Y-1231392D01*
X4262628Y-1235710D01*
X4279798Y-1244142D01*
X4298492Y-1252067D01*
X4308348Y-1255928D01*
X4329277Y-1263243D01*
X4351731Y-1270152D01*
X4375607Y-1276604D01*
X4400956Y-1282598D01*
X4427728Y-1288186D01*
X4455972Y-1293317D01*
X4485589Y-1297990D01*
X4516628Y-1302207D01*
X4549089Y-1305915D01*
X4582922Y-1309217D01*
X4618075Y-1312011D01*
X4654600Y-1314348D01*
X4692446Y-1316177D01*
X4731613Y-1317548D01*
X4817821Y-1319936D01*
X4869434Y-1136650D01*
X4878324Y-1105916D01*
X4885283Y-1083310D01*
X4888128Y-1074877D01*
X4890668Y-1068324D01*
X4892852Y-1063548D01*
X4894732Y-1060500D01*
X4895596Y-1059586D01*
X4896408Y-1059078D01*
X4897170Y-1058976D01*
X4897882Y-1059281D01*
X4899202Y-1060958D01*
X4900371Y-1064158D01*
X4901488Y-1068730D01*
X4903571Y-1081786D01*
X4909159Y-1126134D01*
X4911750Y-1144625D01*
X4914442Y-1160983D01*
X4917287Y-1175410D01*
X4920437Y-1187958D01*
X4923891Y-1198880D01*
X4925771Y-1203756D01*
X4929936Y-1212494D01*
X4934712Y-1220012D01*
X4937353Y-1223365D01*
X4940147Y-1226464D01*
X4946345Y-1232001D01*
X4953406Y-1236776D01*
X4961382Y-1240993D01*
X4970424Y-1244803D01*
X4980635Y-1248410D01*
X4986680Y-1250238D01*
X5003546Y-1254353D01*
X5025745Y-1259078D01*
X5052212Y-1264208D01*
X5081879Y-1269542D01*
X5113629Y-1274978D01*
X5162804Y-1282801D01*
X5202885Y-1288694D01*
X5232806Y-1292809D01*
X5259679Y-1296162D01*
X5282336Y-1298549D01*
X5299811Y-1299870D01*
X5306212Y-1300073D01*
X5312511Y-1299870D01*
X5318607Y-1299362D01*
X5322874Y-1298651D01*
X5325414Y-1297686D01*
X5326075Y-1297127D01*
X5326278Y-1296466D01*
X5326126Y-1295806D01*
X5324602Y-1294384D01*
X5321604Y-1292758D01*
X5317083Y-1290980D01*
X5311241Y-1289050D01*
X5295544Y-1284884D01*
X5274970Y-1280363D01*
X5250027Y-1275638D01*
X5221274Y-1270812D01*
X5189067Y-1266037D01*
X5149646Y-1260703D01*
X5109870Y-1254760D01*
X5075936Y-1248816D01*
X5061051Y-1245768D01*
X5047437Y-1242720D01*
X5035143Y-1239621D01*
X5024069Y-1236421D01*
X5014163Y-1233119D01*
X5005374Y-1229766D01*
X4997704Y-1226261D01*
X4991049Y-1222654D01*
X4985410Y-1218895D01*
X4980686Y-1214983D01*
X4976926Y-1210868D01*
X4973980Y-1206601D01*
X4971846Y-1202080D01*
X4970932Y-1198727D01*
X4968443Y-1185621D01*
X4965395Y-1165402D01*
X4961890Y-1139647D01*
X4958130Y-1109929D01*
X4949799Y-1036472D01*
X4943703Y-975258D01*
X4941620Y-950163D01*
X4940147Y-923137D01*
X4939487Y-916127D01*
X4938522Y-910285D01*
X4937201Y-905611D01*
X4935575Y-902004D01*
X4933645Y-899515D01*
X4932578Y-898652D01*
X4931410Y-898093D01*
G37*
G36*
X4396486Y-1544218D02*
G01*
X4391710Y-1544523D01*
X4386783Y-1545539D01*
X4381550Y-1547164D01*
X4375861Y-1549501D01*
X4362602Y-1556207D01*
X4357674Y-1559306D01*
X4355490Y-1561134D01*
X4353458Y-1563268D01*
X4351629Y-1565808D01*
X4349902Y-1568805D01*
X4348378Y-1572412D01*
X4346956Y-1576679D01*
X4345686Y-1581708D01*
X4343552Y-1594307D01*
X4342638Y-1602130D01*
X4341164Y-1621180D01*
X4340098Y-1645361D01*
X4339336Y-1675434D01*
X4338828Y-1712061D01*
X4338370Y-1807921D01*
X4338320Y-2167636D01*
X4451146Y-2167636D01*
X4451045Y-1784146D01*
X4450384Y-1697939D01*
X4449775Y-1664817D01*
X4448860Y-1637538D01*
X4447641Y-1615490D01*
X4446066Y-1598015D01*
X4444136Y-1584553D01*
X4442968Y-1579118D01*
X4441698Y-1574444D01*
X4440326Y-1570482D01*
X4438802Y-1567129D01*
X4437176Y-1564284D01*
X4435398Y-1561896D01*
X4433519Y-1559915D01*
X4431436Y-1558239D01*
X4422597Y-1553006D01*
X4416602Y-1549857D01*
X4411116Y-1547418D01*
X4406036Y-1545691D01*
X4401210Y-1544624D01*
G37*
G36*
X3453790Y-1552092D02*
G01*
X3422040Y-1552397D01*
X3391662Y-1553260D01*
X3363163Y-1554632D01*
X3337001Y-1556664D01*
X3313785Y-1559255D01*
X3303473Y-1560779D01*
X3294024Y-1562455D01*
X3285591Y-1564284D01*
X3278225Y-1566316D01*
X3272028Y-1568450D01*
X3264915Y-1571802D01*
X3260648Y-1574190D01*
X3252470Y-1579626D01*
X3244799Y-1585874D01*
X3237687Y-1592834D01*
X3231184Y-1600504D01*
X3225190Y-1608836D01*
X3219754Y-1617776D01*
X3214979Y-1627276D01*
X3210763Y-1637283D01*
X3207156Y-1647748D01*
X3204159Y-1658620D01*
X3201822Y-1669846D01*
X3200146Y-1681429D01*
X3199130Y-1693265D01*
X3198723Y-1705305D01*
X3199079Y-1717548D01*
X3200095Y-1729943D01*
X3201771Y-1742389D01*
X3204210Y-1754886D01*
X3207359Y-1767332D01*
X3211271Y-1779727D01*
X3215894Y-1792020D01*
X3221532Y-1806092D01*
X3225342Y-1817370D01*
X3226511Y-1822246D01*
X3227222Y-1826666D01*
X3227425Y-1830781D01*
X3227070Y-1834642D01*
X3226206Y-1838452D01*
X3224834Y-1842160D01*
X3222853Y-1845970D01*
X3220262Y-1849932D01*
X3217113Y-1854200D01*
X3208985Y-1863801D01*
X3199993Y-1873859D01*
X3192475Y-1883105D01*
X3185617Y-1892807D01*
X3179318Y-1902815D01*
X3173577Y-1913077D01*
X3168497Y-1923643D01*
X3163976Y-1934413D01*
X3160064Y-1945386D01*
X3156762Y-1956460D01*
X3154070Y-1967687D01*
X3151936Y-1978964D01*
X3150463Y-1990242D01*
X3149549Y-2001520D01*
X3149244Y-2012746D01*
X3149600Y-2023872D01*
X3150514Y-2034844D01*
X3152038Y-2045716D01*
X3153452Y-2052929D01*
X3272942Y-2052929D01*
X3272993Y-2004923D01*
X3273450Y-1994865D01*
X3274364Y-1985721D01*
X3275939Y-1977339D01*
X3278124Y-1969770D01*
X3281121Y-1962962D01*
X3282899Y-1959813D01*
X3284931Y-1956816D01*
X3289604Y-1951380D01*
X3292348Y-1948891D01*
X3298596Y-1944420D01*
X3305962Y-1940509D01*
X3314547Y-1937156D01*
X3324351Y-1934311D01*
X3335578Y-1931924D01*
X3348228Y-1929993D01*
X3362350Y-1928469D01*
X3378149Y-1927250D01*
X3395573Y-1926437D01*
X3414776Y-1925828D01*
X3458819Y-1925421D01*
X3539591Y-1925472D01*
X3551885Y-1925066D01*
X3562400Y-1924304D01*
X3571290Y-1923135D01*
X3578707Y-1921459D01*
X3581908Y-1920443D01*
X3587343Y-1917852D01*
X3589629Y-1916328D01*
X3591661Y-1914601D01*
X3593439Y-1912670D01*
X3595014Y-1910486D01*
X3596335Y-1908149D01*
X3598418Y-1902714D01*
X3599891Y-1896313D01*
X3600856Y-1888794D01*
X3601415Y-1880158D01*
X3603904Y-1804365D01*
X3460242Y-1799894D01*
X3438651Y-1798929D01*
X3419754Y-1797812D01*
X3403295Y-1796440D01*
X3389071Y-1794814D01*
X3376879Y-1792732D01*
X3366515Y-1790242D01*
X3361944Y-1788820D01*
X3357778Y-1787245D01*
X3353968Y-1785518D01*
X3350463Y-1783638D01*
X3347262Y-1781606D01*
X3344367Y-1779371D01*
X3341674Y-1776933D01*
X3339236Y-1774342D01*
X3334918Y-1768551D01*
X3331210Y-1761845D01*
X3327857Y-1754225D01*
X3324758Y-1745589D01*
X3320440Y-1731670D01*
X3318205Y-1722628D01*
X3316478Y-1713890D01*
X3315309Y-1705711D01*
X3314750Y-1698345D01*
X3314750Y-1692046D01*
X3315360Y-1687017D01*
X3316681Y-1683512D01*
X3317392Y-1682699D01*
X3318611Y-1681886D01*
X3322370Y-1680362D01*
X3327857Y-1678889D01*
X3335020Y-1677568D01*
X3343757Y-1676298D01*
X3354019Y-1675130D01*
X3378708Y-1673199D01*
X3408426Y-1671726D01*
X3442563Y-1670812D01*
X3461105Y-1670608D01*
X3636416Y-1670507D01*
X3636416Y-2052929D01*
X3153452Y-2052929D01*
X3155492Y-2061514D01*
X3158540Y-2071776D01*
X3162198Y-2081682D01*
X3166516Y-2091283D01*
X3171393Y-2100478D01*
X3176930Y-2109216D01*
X3183026Y-2117547D01*
X3189782Y-2125319D01*
X3197148Y-2132584D01*
X3235756Y-2167636D01*
X3737356Y-2167636D01*
X3750614Y-2131974D01*
X3751681Y-2127605D01*
X3753713Y-2115362D01*
X3755440Y-2098700D01*
X3756964Y-2078228D01*
X3758234Y-2054301D01*
X3759301Y-2027478D01*
X3760724Y-1966975D01*
X3761232Y-1900428D01*
X3761130Y-1866087D01*
X3760622Y-1814626D01*
X3759809Y-1772716D01*
X3758946Y-1740509D01*
X3757879Y-1710029D01*
X3756609Y-1681683D01*
X3755136Y-1656029D01*
X3753459Y-1633474D01*
X3751630Y-1614525D01*
X3749598Y-1599641D01*
X3748532Y-1593850D01*
X3747363Y-1589278D01*
X3746195Y-1585925D01*
X3744366Y-1583436D01*
X3741165Y-1580997D01*
X3736695Y-1578660D01*
X3730955Y-1576374D01*
X3724097Y-1574190D01*
X3716121Y-1572107D01*
X3707180Y-1570126D01*
X3697224Y-1568196D01*
X3674719Y-1564690D01*
X3649167Y-1561541D01*
X3621176Y-1558848D01*
X3591153Y-1556562D01*
X3559657Y-1554734D01*
X3519119Y-1553108D01*
X3486302Y-1552346D01*
G37*
G36*
X4563973Y-1555800D02*
G01*
X4563973Y-1670507D01*
X4885639Y-1670304D01*
X4914849Y-1670507D01*
X4940452Y-1671066D01*
X4962702Y-1672234D01*
X4981803Y-1674114D01*
X4990287Y-1675434D01*
X4998059Y-1676958D01*
X5005171Y-1678787D01*
X5011623Y-1680921D01*
X5017516Y-1683359D01*
X5022799Y-1686102D01*
X5027523Y-1689252D01*
X5031740Y-1692808D01*
X5035499Y-1696720D01*
X5038750Y-1701088D01*
X5041646Y-1705864D01*
X5044084Y-1711147D01*
X5046167Y-1716938D01*
X5047894Y-1723237D01*
X5049316Y-1730044D01*
X5050485Y-1737410D01*
X5051348Y-1745386D01*
X5052517Y-1763115D01*
X5052974Y-1783486D01*
X5052822Y-1924151D01*
X5052415Y-1949500D01*
X5051399Y-1971293D01*
X5050586Y-1980946D01*
X5049469Y-1989836D01*
X5048097Y-1997913D01*
X5046319Y-2005279D01*
X5044236Y-2011984D01*
X5041696Y-2018030D01*
X5038750Y-2023465D01*
X5035346Y-2028291D01*
X5031384Y-2032558D01*
X5026863Y-2036318D01*
X5021834Y-2039569D01*
X5016093Y-2042414D01*
X5009743Y-2044801D01*
X5002733Y-2046782D01*
X4994960Y-2048459D01*
X4986477Y-2049780D01*
X4977130Y-2050846D01*
X4955997Y-2052218D01*
X4931257Y-2052828D01*
X4878425Y-2052980D01*
X4676749Y-2052929D01*
X4676749Y-1925421D01*
X4965039Y-1925421D01*
X4965039Y-1797964D01*
X4707331Y-1797964D01*
X4678578Y-1798421D01*
X4653940Y-1799539D01*
X4643069Y-1800402D01*
X4633112Y-1801520D01*
X4623968Y-1802942D01*
X4615738Y-1804670D01*
X4608271Y-1806752D01*
X4601514Y-1809242D01*
X4595520Y-1812137D01*
X4590186Y-1815439D01*
X4585462Y-1819300D01*
X4581347Y-1823618D01*
X4577791Y-1828495D01*
X4574743Y-1833981D01*
X4572203Y-1840077D01*
X4570018Y-1846783D01*
X4568291Y-1854200D01*
X4566920Y-1862277D01*
X4565853Y-1871116D01*
X4565040Y-1880717D01*
X4564126Y-1902409D01*
X4563872Y-1927555D01*
X4563770Y-2062581D01*
X4564380Y-2081885D01*
X4565700Y-2098649D01*
X4566716Y-2106117D01*
X4567986Y-2113076D01*
X4569561Y-2119477D01*
X4571441Y-2125370D01*
X4573727Y-2130755D01*
X4576368Y-2135682D01*
X4579467Y-2140153D01*
X4582972Y-2144217D01*
X4586986Y-2147824D01*
X4591507Y-2151075D01*
X4596536Y-2153970D01*
X4602175Y-2156510D01*
X4608423Y-2158695D01*
X4615230Y-2160625D01*
X4622749Y-2162251D01*
X4630928Y-2163622D01*
X4639868Y-2164740D01*
X4649520Y-2165654D01*
X4671212Y-2166924D01*
X4696256Y-2167585D01*
X4724857Y-2167839D01*
X4880864Y-2167534D01*
X4915052Y-2167178D01*
X4946345Y-2166518D01*
X4974945Y-2165400D01*
X5000955Y-2163775D01*
X5012994Y-2162708D01*
X5035346Y-2160016D01*
X5045608Y-2158390D01*
X5055362Y-2156510D01*
X5064556Y-2154428D01*
X5073243Y-2152091D01*
X5081371Y-2149449D01*
X5089042Y-2146554D01*
X5096256Y-2143404D01*
X5102961Y-2139950D01*
X5109260Y-2136140D01*
X5115102Y-2132025D01*
X5120487Y-2127554D01*
X5125516Y-2122728D01*
X5130139Y-2117547D01*
X5134406Y-2111959D01*
X5138318Y-2106015D01*
X5141874Y-2099614D01*
X5145125Y-2092807D01*
X5148072Y-2085543D01*
X5150713Y-2077821D01*
X5153050Y-2069642D01*
X5155184Y-2061006D01*
X5157012Y-2051862D01*
X5158638Y-2042210D01*
X5161229Y-2021281D01*
X5163108Y-1998167D01*
X5164328Y-1972767D01*
X5165090Y-1944928D01*
X5165598Y-1881530D01*
X5165445Y-1828139D01*
X5164734Y-1785518D01*
X5164175Y-1766316D01*
X5162397Y-1731772D01*
X5161178Y-1716278D01*
X5159756Y-1701952D01*
X5158130Y-1688693D01*
X5156200Y-1676450D01*
X5154015Y-1665173D01*
X5151526Y-1654759D01*
X5148783Y-1645208D01*
X5145684Y-1636420D01*
X5142280Y-1628343D01*
X5138572Y-1620926D01*
X5134457Y-1614119D01*
X5129987Y-1607820D01*
X5125110Y-1602028D01*
X5119878Y-1596593D01*
X5114188Y-1591564D01*
X5108092Y-1586839D01*
X5101590Y-1582318D01*
X5093766Y-1577492D01*
X5084876Y-1572869D01*
X5080152Y-1570786D01*
X5075123Y-1568907D01*
X5069738Y-1567180D01*
X5063845Y-1565605D01*
X5057444Y-1564182D01*
X5050434Y-1562912D01*
X5034127Y-1560779D01*
X5014264Y-1559102D01*
X4990185Y-1557832D01*
X4961229Y-1556918D01*
X4926685Y-1556359D01*
X4885893Y-1556004D01*
G37*
G36*
X3849522Y-1555800D02*
G01*
X3849674Y-1915261D01*
X3850030Y-1964029D01*
X3850741Y-2006498D01*
X3851859Y-2043074D01*
X3853484Y-2074214D01*
X3854450Y-2087880D01*
X3855618Y-2100376D01*
X3856939Y-2111654D01*
X3858412Y-2121916D01*
X3860037Y-2131060D01*
X3861917Y-2139289D01*
X3863949Y-2146554D01*
X3866184Y-2152904D01*
X3868623Y-2158492D01*
X3871315Y-2163267D01*
X3874262Y-2167331D01*
X3877411Y-2170734D01*
X3880865Y-2173478D01*
X3884523Y-2175713D01*
X3888536Y-2177440D01*
X3892753Y-2178710D01*
X3897325Y-2179574D01*
X3902151Y-2180132D01*
X3907332Y-2180386D01*
X3920642Y-2180031D01*
X3925519Y-2179523D01*
X3930040Y-2178761D01*
X3934358Y-2177643D01*
X3938320Y-2176119D01*
X3942029Y-2174189D01*
X3945534Y-2171801D01*
X3948734Y-2168855D01*
X3951681Y-2165350D01*
X3954424Y-2161235D01*
X3956964Y-2156409D01*
X3959250Y-2150922D01*
X3961384Y-2144674D01*
X3963263Y-2137562D01*
X3964990Y-2129637D01*
X3966514Y-2120798D01*
X3967886Y-2110994D01*
X3969105Y-2100224D01*
X3971137Y-2075434D01*
X3972610Y-2046071D01*
X3973626Y-2011730D01*
X3974337Y-1972056D01*
X3974846Y-1875129D01*
X3974846Y-1555800D01*
G37*
G36*
X4312208Y-1613154D02*
G01*
X3999941Y-1940255D01*
X4000652Y-2110282D01*
X4214977Y-1882190D01*
X4238396Y-1856638D01*
X4257802Y-1834896D01*
X4273550Y-1816354D01*
X4280154Y-1808073D01*
X4285996Y-1800352D01*
X4291076Y-1793189D01*
X4295495Y-1786432D01*
X4299305Y-1779981D01*
X4302506Y-1773885D01*
X4305198Y-1767992D01*
X4307382Y-1762201D01*
X4309110Y-1756511D01*
X4310481Y-1750822D01*
X4311853Y-1742084D01*
X4312767Y-1729739D01*
X4312970Y-1716074D01*
G37*
G36*
X4024985Y-2358847D02*
G01*
X4025036Y-2479954D01*
X4118508Y-2517241D01*
X4130903Y-2521966D01*
X4141470Y-2525674D01*
X4150360Y-2528265D01*
X4157624Y-2529586D01*
X4160672Y-2529738D01*
X4163364Y-2529535D01*
X4165701Y-2528976D01*
X4167733Y-2528062D01*
X4169410Y-2526741D01*
X4170781Y-2525014D01*
X4171899Y-2522880D01*
X4172661Y-2520340D01*
X4173169Y-2517343D01*
X4173474Y-2513888D01*
X4173270Y-2505557D01*
X4172153Y-2495296D01*
X4170324Y-2482900D01*
X4147515Y-2358847D01*
G37*
G36*
X4388459Y-2537307D02*
G01*
X4388510Y-2673705D01*
X4389221Y-2710129D01*
X4389983Y-2726842D01*
X4390999Y-2742641D01*
X4392269Y-2757525D01*
X4393895Y-2771495D01*
X4395825Y-2784551D01*
X4398060Y-2796794D01*
X4400651Y-2808224D01*
X4403598Y-2818790D01*
X4406900Y-2828645D01*
X4410608Y-2837688D01*
X4414723Y-2845968D01*
X4419244Y-2853588D01*
X4424172Y-2860446D01*
X4429556Y-2866694D01*
X4435398Y-2872282D01*
X4441698Y-2877261D01*
X4448505Y-2881579D01*
X4455769Y-2885389D01*
X4463542Y-2888589D01*
X4471873Y-2891332D01*
X4480712Y-2893517D01*
X4490110Y-2895193D01*
X4500067Y-2896463D01*
X4510582Y-2897276D01*
X4521758Y-2897632D01*
X4533442Y-2897682D01*
X4544771Y-2897327D01*
X4555439Y-2896666D01*
X4565548Y-2895549D01*
X4574997Y-2894076D01*
X4583836Y-2892145D01*
X4592167Y-2889758D01*
X4599889Y-2886862D01*
X4607102Y-2883408D01*
X4613757Y-2879445D01*
X4619955Y-2874873D01*
X4625644Y-2869692D01*
X4630877Y-2863850D01*
X4635601Y-2857347D01*
X4639970Y-2850184D01*
X4643831Y-2842260D01*
X4647336Y-2833573D01*
X4650486Y-2824124D01*
X4653229Y-2813862D01*
X4655616Y-2802788D01*
X4657699Y-2790799D01*
X4659426Y-2777947D01*
X4660900Y-2764129D01*
X4662068Y-2749397D01*
X4663592Y-2716987D01*
X4664202Y-2680360D01*
X4664252Y-2537307D01*
X4577334Y-2537307D01*
X4570222Y-2811373D01*
X4482490Y-2811373D01*
X4475378Y-2537307D01*
G37*
G36*
X3674059Y-2537307D02*
G01*
X3674059Y-2894228D01*
X3749243Y-2894228D01*
X3749852Y-2658414D01*
X3854297Y-2770987D01*
X3948734Y-2659430D01*
X3956050Y-2887878D01*
X4031284Y-2887878D01*
X4038244Y-2537307D01*
X3982059Y-2537358D01*
X3970782Y-2537866D01*
X3960825Y-2539085D01*
X3956304Y-2540000D01*
X3951986Y-2541168D01*
X3947820Y-2542641D01*
X3943858Y-2544368D01*
X3939946Y-2546400D01*
X3936085Y-2548788D01*
X3928414Y-2554681D01*
X3924452Y-2558237D01*
X3916222Y-2566720D01*
X3907231Y-2577084D01*
X3897122Y-2589580D01*
X3855821Y-2641854D01*
X3803446Y-2581910D01*
X3791102Y-2568803D01*
X3785463Y-2563266D01*
X3780028Y-2558389D01*
X3774795Y-2554122D01*
X3769715Y-2550464D01*
X3764686Y-2547315D01*
X3759657Y-2544673D01*
X3754577Y-2542489D01*
X3749395Y-2540762D01*
X3744010Y-2539441D01*
X3738372Y-2538425D01*
X3732428Y-2537764D01*
X3726078Y-2537409D01*
G37*
G36*
X4224680Y-2551379D02*
G01*
X4222038Y-2551938D01*
X4219346Y-2553462D01*
X4216603Y-2556052D01*
X4213860Y-2559659D01*
X4210964Y-2564333D01*
X4207967Y-2569972D01*
X4204817Y-2576626D01*
X4198010Y-2593086D01*
X4190390Y-2613609D01*
X4149867Y-2730855D01*
X4203547Y-2730855D01*
X4203801Y-2726436D01*
X4205427Y-2720949D01*
X4209034Y-2710637D01*
X4213098Y-2697581D01*
X4217162Y-2683510D01*
X4222394Y-2663799D01*
X4224375Y-2658059D01*
X4226610Y-2652826D01*
X4228896Y-2648305D01*
X4231284Y-2644546D01*
X4233672Y-2641701D01*
X4235958Y-2639923D01*
X4238091Y-2639263D01*
X4240174Y-2639923D01*
X4242460Y-2641701D01*
X4244848Y-2644546D01*
X4247235Y-2648305D01*
X4249572Y-2652826D01*
X4251756Y-2658059D01*
X4253738Y-2663799D01*
X4261002Y-2690571D01*
X4265117Y-2704388D01*
X4268978Y-2716276D01*
X4270705Y-2720949D01*
X4272330Y-2726436D01*
X4272584Y-2730855D01*
X4271365Y-2734411D01*
X4268520Y-2737104D01*
X4263898Y-2739034D01*
X4257395Y-2740355D01*
X4248810Y-2741066D01*
X4238091Y-2741269D01*
X4227322Y-2741066D01*
X4218736Y-2740355D01*
X4212234Y-2739034D01*
X4207611Y-2737104D01*
X4204766Y-2734411D01*
X4203547Y-2730855D01*
X4149867Y-2730855D01*
X4137609Y-2765399D01*
X4125264Y-2798013D01*
X4119829Y-2811373D01*
X4114800Y-2822956D01*
X4110126Y-2832811D01*
X4105706Y-2841142D01*
X4101541Y-2848051D01*
X4097477Y-2853639D01*
X4093565Y-2858058D01*
X4089654Y-2861462D01*
X4085691Y-2863850D01*
X4081627Y-2865475D01*
X4077462Y-2866440D01*
X4065778Y-2868523D01*
X4057040Y-2870860D01*
X4053789Y-2872079D01*
X4051198Y-2873349D01*
X4049318Y-2874670D01*
X4048099Y-2875940D01*
X4047540Y-2877261D01*
X4047591Y-2878582D01*
X4048251Y-2879902D01*
X4049522Y-2881223D01*
X4051401Y-2882493D01*
X4053840Y-2883763D01*
X4060291Y-2886202D01*
X4068826Y-2888386D01*
X4079290Y-2890316D01*
X4091533Y-2891942D01*
X4105503Y-2893161D01*
X4120946Y-2893974D01*
X4137812Y-2894228D01*
X4155948Y-2893974D01*
X4172661Y-2893263D01*
X4187596Y-2892094D01*
X4200448Y-2890570D01*
X4206036Y-2889707D01*
X4215282Y-2887675D01*
X4218889Y-2886557D01*
X4221734Y-2885338D01*
X4223816Y-2884119D01*
X4225086Y-2882798D01*
X4225544Y-2881477D01*
X4224883Y-2878937D01*
X4223054Y-2876550D01*
X4220159Y-2874365D01*
X4216349Y-2872486D01*
X4211675Y-2870911D01*
X4206392Y-2869742D01*
X4200499Y-2868980D01*
X4187901Y-2868523D01*
X4182059Y-2867863D01*
X4176725Y-2866898D01*
X4172051Y-2865526D01*
X4168241Y-2863951D01*
X4165346Y-2862122D01*
X4163517Y-2860090D01*
X4162856Y-2857906D01*
X4163009Y-2852166D01*
X4163415Y-2846527D01*
X4164076Y-2841091D01*
X4166158Y-2830626D01*
X4169206Y-2820822D01*
X4171035Y-2816098D01*
X4175251Y-2807258D01*
X4180230Y-2799130D01*
X4185869Y-2791714D01*
X4192015Y-2785059D01*
X4195267Y-2782011D01*
X4202125Y-2776575D01*
X4205681Y-2774137D01*
X4213047Y-2769971D01*
X4220616Y-2766669D01*
X4228338Y-2764231D01*
X4236110Y-2762808D01*
X4243882Y-2762300D01*
X4247743Y-2762453D01*
X4251553Y-2762859D01*
X4255312Y-2763520D01*
X4259021Y-2764434D01*
X4262678Y-2765602D01*
X4266234Y-2767025D01*
X4269740Y-2768752D01*
X4273143Y-2770784D01*
X4279595Y-2775610D01*
X4282643Y-2778455D01*
X4285538Y-2781604D01*
X4288282Y-2785059D01*
X4290872Y-2788818D01*
X4293311Y-2792882D01*
X4295597Y-2797251D01*
X4297629Y-2801924D01*
X4299508Y-2806903D01*
X4303674Y-2819247D01*
X4306976Y-2829864D01*
X4309516Y-2838856D01*
X4311243Y-2846425D01*
X4312158Y-2852674D01*
X4312208Y-2857652D01*
X4311396Y-2861564D01*
X4309770Y-2864459D01*
X4307281Y-2866491D01*
X4303877Y-2867812D01*
X4299610Y-2868523D01*
X4294479Y-2868726D01*
X4287164Y-2869742D01*
X4281220Y-2872486D01*
X4277156Y-2876550D01*
X4275683Y-2881477D01*
X4276191Y-2883204D01*
X4277715Y-2884881D01*
X4280103Y-2886405D01*
X4283405Y-2887878D01*
X4287469Y-2889250D01*
X4297680Y-2891586D01*
X4303674Y-2892501D01*
X4317136Y-2893771D01*
X4324451Y-2894126D01*
X4340250Y-2894126D01*
X4354931Y-2893161D01*
X4367225Y-2891383D01*
X4372356Y-2890215D01*
X4376877Y-2888894D01*
X4380687Y-2887472D01*
X4383786Y-2885897D01*
X4386173Y-2884220D01*
X4387799Y-2882442D01*
X4388662Y-2880614D01*
X4388713Y-2878734D01*
X4388002Y-2876854D01*
X4386427Y-2874924D01*
X4384040Y-2872994D01*
X4380738Y-2871063D01*
X4376572Y-2869184D01*
X4371543Y-2867355D01*
X4363974Y-2865069D01*
X4360722Y-2863240D01*
X4357370Y-2860344D01*
X4353814Y-2856382D01*
X4350054Y-2851251D01*
X4346143Y-2845003D01*
X4341977Y-2837535D01*
X4337558Y-2828798D01*
X4327956Y-2807411D01*
X4317187Y-2780538D01*
X4305096Y-2747873D01*
X4291482Y-2709113D01*
X4260646Y-2618587D01*
X4252874Y-2597200D01*
X4246016Y-2579878D01*
X4242816Y-2572766D01*
X4239768Y-2566670D01*
X4236872Y-2561590D01*
X4234078Y-2557526D01*
X4231335Y-2554478D01*
X4228642Y-2552496D01*
X4227322Y-2551836D01*
G37*
G36*
X2345436Y-3391408D02*
G01*
X2342642Y-3392932D01*
X2343150Y-3424682D01*
X2343150Y-3464051D01*
X2339187Y-3460038D01*
X2335022Y-3456635D01*
X2330805Y-3453790D01*
X2326487Y-3451504D01*
X2322118Y-3449777D01*
X2317699Y-3448507D01*
X2313279Y-3447796D01*
X2308860Y-3447542D01*
X2303018Y-3447948D01*
X2297430Y-3449218D01*
X2292146Y-3451250D01*
X2287270Y-3454095D01*
X2282748Y-3457651D01*
X2278684Y-3461969D01*
X2275128Y-3467049D01*
X2272131Y-3472738D01*
X2269693Y-3479139D01*
X2267915Y-3486200D01*
X2266797Y-3493871D01*
X2266492Y-3503676D01*
X2286000Y-3503676D01*
X2286254Y-3496564D01*
X2286965Y-3490010D01*
X2288184Y-3484118D01*
X2289810Y-3478834D01*
X2291842Y-3474110D01*
X2294229Y-3470046D01*
X2296972Y-3466592D01*
X2300071Y-3463747D01*
X2303475Y-3461562D01*
X2307132Y-3459987D01*
X2311044Y-3459022D01*
X2315210Y-3458718D01*
X2320696Y-3459124D01*
X2327046Y-3460902D01*
X2334412Y-3464712D01*
X2342896Y-3471418D01*
X2342896Y-3535172D01*
X2336038Y-3540810D01*
X2329230Y-3544620D01*
X2322525Y-3546703D01*
X2315972Y-3547364D01*
X2312060Y-3547110D01*
X2308301Y-3546297D01*
X2304643Y-3544925D01*
X2301189Y-3542995D01*
X2297988Y-3540404D01*
X2295093Y-3537254D01*
X2292502Y-3533394D01*
X2290267Y-3528872D01*
X2288489Y-3523691D01*
X2287117Y-3517747D01*
X2286304Y-3511092D01*
X2286000Y-3503676D01*
X2266492Y-3503676D01*
X2266645Y-3508298D01*
X2267305Y-3514191D01*
X2268321Y-3519830D01*
X2269744Y-3525164D01*
X2271572Y-3530142D01*
X2273706Y-3534816D01*
X2276246Y-3539134D01*
X2279091Y-3543046D01*
X2282240Y-3546601D01*
X2285695Y-3549700D01*
X2289454Y-3552393D01*
X2293467Y-3554679D01*
X2297734Y-3556457D01*
X2302205Y-3557727D01*
X2306980Y-3558540D01*
X2311908Y-3558794D01*
X2319680Y-3558082D01*
X2327605Y-3555593D01*
X2335530Y-3550767D01*
X2343150Y-3543046D01*
X2344928Y-3558286D01*
X2378202Y-3556000D01*
X2378202Y-3549142D01*
X2361438Y-3546601D01*
X2361234Y-3527551D01*
X2361184Y-3409187D01*
X2379218Y-3407410D01*
X2379218Y-3400806D01*
G37*
G36*
X2217674Y-3391408D02*
G01*
X2214626Y-3392932D01*
X2215642Y-3424682D01*
X2215591Y-3518509D01*
X2215134Y-3546601D01*
X2197354Y-3549142D01*
X2197354Y-3556000D01*
X2251964Y-3556000D01*
X2251964Y-3549142D01*
X2234184Y-3546601D01*
X2233930Y-3509264D01*
X2233930Y-3409187D01*
X2251964Y-3407410D01*
X2251964Y-3400806D01*
G37*
G36*
X1288288Y-3391408D02*
G01*
X1285240Y-3392932D01*
X1286002Y-3424682D01*
X1286002Y-3534918D01*
X1304290Y-3534918D01*
X1304290Y-3470401D01*
X1311351Y-3464814D01*
X1317701Y-3461207D01*
X1323695Y-3459276D01*
X1329436Y-3458718D01*
X1333652Y-3458972D01*
X1337716Y-3459835D01*
X1341577Y-3461258D01*
X1345234Y-3463239D01*
X1348638Y-3465880D01*
X1351686Y-3469182D01*
X1354429Y-3473145D01*
X1356715Y-3477818D01*
X1358595Y-3483152D01*
X1360017Y-3489248D01*
X1360881Y-3496056D01*
X1361186Y-3503676D01*
X1360932Y-3510991D01*
X1360119Y-3517595D01*
X1358798Y-3523487D01*
X1357020Y-3528669D01*
X1354836Y-3533190D01*
X1352194Y-3537051D01*
X1349197Y-3540251D01*
X1345895Y-3542842D01*
X1342237Y-3544874D01*
X1338275Y-3546246D01*
X1334109Y-3547110D01*
X1329690Y-3547364D01*
X1322730Y-3546754D01*
X1316431Y-3544671D01*
X1310386Y-3540810D01*
X1304290Y-3534918D01*
X1286002Y-3534918D01*
X1286002Y-3547110D01*
X1267968Y-3549142D01*
X1267968Y-3556000D01*
X1302512Y-3558286D01*
X1303528Y-3543046D01*
X1309928Y-3549700D01*
X1317193Y-3554628D01*
X1325473Y-3557727D01*
X1335024Y-3558794D01*
X1341628Y-3558336D01*
X1347825Y-3557015D01*
X1353616Y-3554831D01*
X1358950Y-3551885D01*
X1363776Y-3548126D01*
X1368094Y-3543706D01*
X1371803Y-3538575D01*
X1374952Y-3532784D01*
X1377442Y-3526434D01*
X1379220Y-3519525D01*
X1380388Y-3512108D01*
X1380744Y-3504184D01*
X1380490Y-3497834D01*
X1379829Y-3491839D01*
X1378712Y-3486150D01*
X1377137Y-3480765D01*
X1375206Y-3475736D01*
X1372870Y-3471062D01*
X1370177Y-3466795D01*
X1367129Y-3462934D01*
X1363827Y-3459429D01*
X1360170Y-3456330D01*
X1356207Y-3453739D01*
X1352042Y-3451555D01*
X1347571Y-3449828D01*
X1342898Y-3448558D01*
X1338072Y-3447796D01*
X1332992Y-3447542D01*
X1325473Y-3448253D01*
X1318107Y-3450590D01*
X1310894Y-3455060D01*
X1303782Y-3462020D01*
X1303782Y-3409187D01*
X1322578Y-3407410D01*
X1322578Y-3400806D01*
G37*
G36*
X1696974Y-3398265D02*
G01*
X1692148Y-3399129D01*
X1688185Y-3401568D01*
X1685493Y-3405327D01*
X1684528Y-3410204D01*
X1685493Y-3415131D01*
X1688185Y-3418941D01*
X1692148Y-3421481D01*
X1696974Y-3422396D01*
X1701901Y-3421481D01*
X1706016Y-3418941D01*
X1708861Y-3415131D01*
X1709928Y-3410204D01*
X1708861Y-3405327D01*
X1706016Y-3401568D01*
X1701901Y-3399129D01*
G37*
G36*
X1743456Y-3398265D02*
G01*
X1738477Y-3399129D01*
X1734413Y-3401568D01*
X1731721Y-3405327D01*
X1730756Y-3410204D01*
X1731721Y-3415131D01*
X1734413Y-3418941D01*
X1738477Y-3421481D01*
X1743456Y-3422396D01*
X1748332Y-3421481D01*
X1752396Y-3418941D01*
X1755139Y-3415131D01*
X1756156Y-3410204D01*
X1755139Y-3405327D01*
X1752396Y-3401568D01*
X1748332Y-3399129D01*
G37*
G36*
X1955292Y-3403600D02*
G01*
X1949805Y-3403803D01*
X1944624Y-3404412D01*
X1939696Y-3405428D01*
X1935022Y-3406749D01*
X1930603Y-3408476D01*
X1926386Y-3410458D01*
X1922424Y-3412744D01*
X1918716Y-3415284D01*
X1920239Y-3444494D01*
X1931670Y-3444494D01*
X1937512Y-3417824D01*
X1941728Y-3415741D01*
X1946046Y-3414318D01*
X1950618Y-3413506D01*
X1955546Y-3413251D01*
X1961997Y-3413658D01*
X1967890Y-3414928D01*
X1973173Y-3417062D01*
X1977694Y-3419957D01*
X1981403Y-3423665D01*
X1984197Y-3428136D01*
X1985924Y-3433419D01*
X1986534Y-3439414D01*
X1986127Y-3444494D01*
X1984857Y-3449065D01*
X1982774Y-3453129D01*
X1979980Y-3456838D01*
X1976374Y-3460191D01*
X1972056Y-3463188D01*
X1967077Y-3465880D01*
X1945436Y-3474872D01*
X1939188Y-3477869D01*
X1933600Y-3480968D01*
X1928774Y-3484168D01*
X1924557Y-3487470D01*
X1921052Y-3490976D01*
X1918106Y-3494684D01*
X1915769Y-3498545D01*
X1914042Y-3502710D01*
X1912823Y-3507130D01*
X1912112Y-3511854D01*
X1911857Y-3516884D01*
X1912315Y-3523284D01*
X1913585Y-3529177D01*
X1915718Y-3534664D01*
X1918614Y-3539642D01*
X1922221Y-3544062D01*
X1926488Y-3547973D01*
X1931416Y-3551377D01*
X1936953Y-3554171D01*
X1943049Y-3556406D01*
X1949653Y-3557981D01*
X1956714Y-3558997D01*
X1964182Y-3559301D01*
X1970532Y-3559048D01*
X1976729Y-3558387D01*
X1982724Y-3557270D01*
X1988464Y-3555796D01*
X1993900Y-3554018D01*
X1998929Y-3552037D01*
X2003552Y-3549751D01*
X2007616Y-3547364D01*
X2006092Y-3516122D01*
X1994662Y-3516122D01*
X1989074Y-3544062D01*
X1983739Y-3546500D01*
X1978253Y-3548176D01*
X1972310Y-3549091D01*
X1965706Y-3549396D01*
X1957984Y-3548938D01*
X1951024Y-3547618D01*
X1944979Y-3545382D01*
X1939848Y-3542334D01*
X1935683Y-3538372D01*
X1932686Y-3533648D01*
X1930806Y-3528060D01*
X1930146Y-3521710D01*
X1930552Y-3516629D01*
X1931720Y-3512159D01*
X1933752Y-3508197D01*
X1936699Y-3504641D01*
X1940560Y-3501390D01*
X1945386Y-3498342D01*
X1951177Y-3495446D01*
X1966468Y-3488944D01*
X1977339Y-3483965D01*
X1982216Y-3481171D01*
X1986686Y-3478225D01*
X1990750Y-3475024D01*
X1994306Y-3471570D01*
X1997405Y-3467862D01*
X1999996Y-3463848D01*
X2002078Y-3459530D01*
X2003602Y-3454908D01*
X2004517Y-3449878D01*
X2004822Y-3444494D01*
X2004364Y-3438245D01*
X2003094Y-3432454D01*
X2001012Y-3427171D01*
X1998167Y-3422396D01*
X1994662Y-3418078D01*
X1990547Y-3414318D01*
X1985822Y-3411118D01*
X1980539Y-3408426D01*
X1974799Y-3406343D01*
X1968652Y-3404819D01*
X1962150Y-3403904D01*
G37*
G36*
X2559304Y-3407156D02*
G01*
X2552496Y-3407359D01*
X2546096Y-3407968D01*
X2540203Y-3408934D01*
X2534716Y-3410305D01*
X2529687Y-3412032D01*
X2525115Y-3414115D01*
X2520950Y-3416503D01*
X2517292Y-3419195D01*
X2513990Y-3422243D01*
X2511196Y-3425596D01*
X2508808Y-3429203D01*
X2506878Y-3433064D01*
X2505354Y-3437229D01*
X2504287Y-3441649D01*
X2503627Y-3446272D01*
X2503424Y-3451098D01*
X2524252Y-3451098D01*
X2524506Y-3445662D01*
X2525268Y-3440633D01*
X2526538Y-3436061D01*
X2528316Y-3431895D01*
X2530652Y-3428187D01*
X2533548Y-3424986D01*
X2537002Y-3422192D01*
X2541016Y-3419906D01*
X2545588Y-3418128D01*
X2550718Y-3416858D01*
X2556510Y-3416046D01*
X2562860Y-3415792D01*
X2577084Y-3415792D01*
X2577490Y-3438245D01*
X2577592Y-3487420D01*
X2563368Y-3487420D01*
X2556713Y-3487115D01*
X2550769Y-3486251D01*
X2545486Y-3484778D01*
X2540812Y-3482797D01*
X2536748Y-3480308D01*
X2533345Y-3477361D01*
X2530500Y-3473958D01*
X2528163Y-3470097D01*
X2526436Y-3465880D01*
X2525217Y-3461308D01*
X2524506Y-3456330D01*
X2524252Y-3451098D01*
X2503424Y-3451098D01*
X2503627Y-3455720D01*
X2504236Y-3460191D01*
X2505303Y-3464560D01*
X2506827Y-3468725D01*
X2508808Y-3472687D01*
X2511247Y-3476447D01*
X2514193Y-3479952D01*
X2517698Y-3483152D01*
X2521661Y-3486099D01*
X2526182Y-3488740D01*
X2531313Y-3491026D01*
X2536952Y-3492957D01*
X2543200Y-3494481D01*
X2550058Y-3495649D01*
X2557526Y-3496310D01*
X2565654Y-3496564D01*
X2577592Y-3496564D01*
X2577490Y-3527145D01*
X2577084Y-3545840D01*
X2556002Y-3548379D01*
X2556002Y-3556000D01*
X2618994Y-3556000D01*
X2618994Y-3548379D01*
X2598166Y-3546094D01*
X2597962Y-3516731D01*
X2597962Y-3439109D01*
X2598166Y-3417062D01*
X2618994Y-3414776D01*
X2618994Y-3407156D01*
G37*
G36*
X1626616Y-3419856D02*
G01*
X1627886Y-3450590D01*
X1598168Y-3450590D01*
X1598168Y-3460242D01*
X1628139Y-3460242D01*
X1628139Y-3532124D01*
X1627276Y-3539642D01*
X1624736Y-3544773D01*
X1620723Y-3547719D01*
X1615440Y-3548634D01*
X1611630Y-3548227D01*
X1608023Y-3547059D01*
X1604314Y-3545078D01*
X1600200Y-3542284D01*
X1595628Y-3547364D01*
X1600403Y-3552139D01*
X1606397Y-3555746D01*
X1613458Y-3558032D01*
X1621536Y-3558794D01*
X1627124Y-3558387D01*
X1632102Y-3557270D01*
X1636420Y-3555288D01*
X1640027Y-3552494D01*
X1642872Y-3548887D01*
X1644954Y-3544417D01*
X1646224Y-3539083D01*
X1646682Y-3532886D01*
X1646428Y-3514344D01*
X1646428Y-3460242D01*
X1665224Y-3460242D01*
X1665224Y-3452368D01*
X1645412Y-3449828D01*
X1639570Y-3419856D01*
G37*
G36*
X2442464Y-3447542D02*
G01*
X2436876Y-3447745D01*
X2431796Y-3448456D01*
X2427224Y-3449624D01*
X2423109Y-3451250D01*
X2419553Y-3453485D01*
X2416454Y-3456228D01*
X2413812Y-3459530D01*
X2411679Y-3463442D01*
X2410053Y-3468014D01*
X2408834Y-3473196D01*
X2408174Y-3479088D01*
X2407920Y-3485642D01*
X2407920Y-3497579D01*
X2426208Y-3497579D01*
X2437536Y-3500983D01*
X2446528Y-3504184D01*
X2453132Y-3507079D01*
X2458415Y-3510076D01*
X2462428Y-3513124D01*
X2465425Y-3516172D01*
X2467508Y-3519271D01*
X2468778Y-3522421D01*
X2469438Y-3525520D01*
X2469642Y-3528568D01*
X2468270Y-3536289D01*
X2464409Y-3541674D01*
X2458720Y-3544824D01*
X2451608Y-3545840D01*
X2445918Y-3545179D01*
X2440432Y-3542995D01*
X2434183Y-3538982D01*
X2426208Y-3532886D01*
X2426208Y-3497579D01*
X2407920Y-3497579D01*
X2407920Y-3534156D01*
X2407361Y-3540760D01*
X2405786Y-3545179D01*
X2403195Y-3547618D01*
X2399792Y-3548379D01*
X2397201Y-3548024D01*
X2394915Y-3546906D01*
X2392832Y-3545179D01*
X2390648Y-3542792D01*
X2386584Y-3547110D01*
X2390648Y-3552444D01*
X2395169Y-3555949D01*
X2400249Y-3557930D01*
X2405888Y-3558540D01*
X2413355Y-3557320D01*
X2419197Y-3553764D01*
X2423414Y-3548227D01*
X2425700Y-3541014D01*
X2434132Y-3548837D01*
X2438044Y-3551885D01*
X2441854Y-3554374D01*
X2445766Y-3556304D01*
X2449830Y-3557676D01*
X2454198Y-3558540D01*
X2458974Y-3558794D01*
X2464917Y-3558336D01*
X2470454Y-3557066D01*
X2475433Y-3554882D01*
X2479802Y-3551885D01*
X2483408Y-3548024D01*
X2486101Y-3543350D01*
X2487828Y-3537864D01*
X2488438Y-3531615D01*
X2488031Y-3526637D01*
X2486812Y-3522014D01*
X2484475Y-3517646D01*
X2480970Y-3513480D01*
X2476093Y-3509467D01*
X2469692Y-3505555D01*
X2461564Y-3501694D01*
X2451608Y-3497834D01*
X2439568Y-3493973D01*
X2432913Y-3492093D01*
X2426208Y-3490468D01*
X2426208Y-3483610D01*
X2426512Y-3476142D01*
X2427376Y-3470046D01*
X2428951Y-3465271D01*
X2431186Y-3461562D01*
X2434082Y-3458921D01*
X2437790Y-3457194D01*
X2442260Y-3456228D01*
X2447544Y-3455924D01*
X2453487Y-3456482D01*
X2459990Y-3457956D01*
X2464308Y-3473196D01*
X2466035Y-3477666D01*
X2468473Y-3480866D01*
X2471623Y-3482746D01*
X2475484Y-3483356D01*
X2479548Y-3482797D01*
X2482545Y-3481171D01*
X2484475Y-3478529D01*
X2485390Y-3474974D01*
X2483408Y-3468928D01*
X2480310Y-3463493D01*
X2476144Y-3458819D01*
X2471064Y-3454857D01*
X2465070Y-3451758D01*
X2458262Y-3449421D01*
X2450693Y-3447999D01*
G37*
G36*
X2130298Y-3447542D02*
G01*
X2125472Y-3447745D01*
X2120646Y-3448456D01*
X2115921Y-3449523D01*
X2111349Y-3451098D01*
X2106930Y-3453079D01*
X2102662Y-3455517D01*
X2098649Y-3458413D01*
X2094941Y-3461715D01*
X2091486Y-3465423D01*
X2088388Y-3469640D01*
X2085695Y-3474212D01*
X2083358Y-3479241D01*
X2081530Y-3484727D01*
X2080107Y-3490620D01*
X2079294Y-3496919D01*
X2078989Y-3503676D01*
X2099564Y-3503676D01*
X2099818Y-3496208D01*
X2100478Y-3489401D01*
X2101646Y-3483152D01*
X2103221Y-3477514D01*
X2105253Y-3472535D01*
X2107692Y-3468166D01*
X2110536Y-3464458D01*
X2113737Y-3461410D01*
X2117344Y-3459022D01*
X2121306Y-3457295D01*
X2125624Y-3456279D01*
X2130298Y-3455924D01*
X2135022Y-3456279D01*
X2139340Y-3457295D01*
X2143353Y-3459022D01*
X2146960Y-3461410D01*
X2150160Y-3464458D01*
X2153005Y-3468166D01*
X2155393Y-3472535D01*
X2157425Y-3477514D01*
X2159000Y-3483152D01*
X2160117Y-3489401D01*
X2160778Y-3496208D01*
X2161032Y-3503676D01*
X2160778Y-3510991D01*
X2160117Y-3517696D01*
X2159000Y-3523843D01*
X2157425Y-3529329D01*
X2155393Y-3534206D01*
X2153005Y-3538474D01*
X2150160Y-3542080D01*
X2146960Y-3545078D01*
X2143353Y-3547414D01*
X2139340Y-3549091D01*
X2135022Y-3550056D01*
X2130298Y-3550412D01*
X2125624Y-3550056D01*
X2121306Y-3549091D01*
X2117344Y-3547414D01*
X2113737Y-3545078D01*
X2110536Y-3542080D01*
X2107692Y-3538474D01*
X2105253Y-3534206D01*
X2103221Y-3529329D01*
X2101646Y-3523843D01*
X2100478Y-3517696D01*
X2099818Y-3510991D01*
X2099564Y-3503676D01*
X2078989Y-3503676D01*
X2079294Y-3510330D01*
X2080107Y-3516528D01*
X2081479Y-3522319D01*
X2083307Y-3527704D01*
X2085644Y-3532682D01*
X2088337Y-3537204D01*
X2091385Y-3541268D01*
X2094839Y-3544976D01*
X2098548Y-3548176D01*
X2102561Y-3551021D01*
X2106828Y-3553358D01*
X2111248Y-3555339D01*
X2115870Y-3556863D01*
X2120595Y-3557930D01*
X2125421Y-3558590D01*
X2130298Y-3558794D01*
X2135174Y-3558590D01*
X2140000Y-3557930D01*
X2144725Y-3556863D01*
X2149297Y-3555339D01*
X2153716Y-3553358D01*
X2157933Y-3551021D01*
X2161946Y-3548176D01*
X2165654Y-3544976D01*
X2169058Y-3541268D01*
X2172106Y-3537204D01*
X2174798Y-3532682D01*
X2177034Y-3527704D01*
X2178862Y-3522319D01*
X2180234Y-3516528D01*
X2181047Y-3510330D01*
X2181352Y-3503676D01*
X2181047Y-3496970D01*
X2180234Y-3490671D01*
X2178862Y-3484829D01*
X2177034Y-3479342D01*
X2174748Y-3474313D01*
X2172004Y-3469741D01*
X2168956Y-3465525D01*
X2165553Y-3461816D01*
X2161844Y-3458464D01*
X2157831Y-3455568D01*
X2153615Y-3453129D01*
X2149195Y-3451148D01*
X2144623Y-3449574D01*
X2139950Y-3448456D01*
X2135124Y-3447745D01*
G37*
G36*
X1841754Y-3447542D02*
G01*
X1836928Y-3447745D01*
X1832102Y-3448456D01*
X1827377Y-3449523D01*
X1822805Y-3451098D01*
X1818386Y-3453079D01*
X1814118Y-3455517D01*
X1810105Y-3458413D01*
X1806397Y-3461715D01*
X1802942Y-3465423D01*
X1799843Y-3469640D01*
X1797151Y-3474212D01*
X1794814Y-3479241D01*
X1792986Y-3484727D01*
X1791563Y-3490620D01*
X1790750Y-3496919D01*
X1790446Y-3503676D01*
X1811020Y-3503676D01*
X1811274Y-3496208D01*
X1811934Y-3489401D01*
X1813102Y-3483152D01*
X1814677Y-3477514D01*
X1816709Y-3472535D01*
X1819148Y-3468166D01*
X1821992Y-3464458D01*
X1825193Y-3461410D01*
X1828800Y-3459022D01*
X1832762Y-3457295D01*
X1837080Y-3456279D01*
X1841754Y-3455924D01*
X1846478Y-3456279D01*
X1850796Y-3457295D01*
X1854809Y-3459022D01*
X1858416Y-3461410D01*
X1861616Y-3464458D01*
X1864461Y-3468166D01*
X1866849Y-3472535D01*
X1868881Y-3477514D01*
X1870456Y-3483152D01*
X1871573Y-3489401D01*
X1872234Y-3496208D01*
X1872488Y-3503676D01*
X1872234Y-3510991D01*
X1871573Y-3517696D01*
X1870456Y-3523843D01*
X1868881Y-3529329D01*
X1866849Y-3534206D01*
X1864461Y-3538474D01*
X1861616Y-3542080D01*
X1858416Y-3545078D01*
X1854809Y-3547414D01*
X1850796Y-3549091D01*
X1846478Y-3550056D01*
X1841754Y-3550412D01*
X1837080Y-3550056D01*
X1832762Y-3549091D01*
X1828800Y-3547414D01*
X1825193Y-3545078D01*
X1821992Y-3542080D01*
X1819148Y-3538474D01*
X1816709Y-3534206D01*
X1814677Y-3529329D01*
X1813102Y-3523843D01*
X1811934Y-3517696D01*
X1811274Y-3510991D01*
X1811020Y-3503676D01*
X1790446Y-3503676D01*
X1790750Y-3510330D01*
X1791563Y-3516528D01*
X1792935Y-3522319D01*
X1794764Y-3527704D01*
X1797100Y-3532682D01*
X1799793Y-3537204D01*
X1802841Y-3541268D01*
X1806295Y-3544976D01*
X1810004Y-3548176D01*
X1814017Y-3551021D01*
X1818284Y-3553358D01*
X1822704Y-3555339D01*
X1827326Y-3556863D01*
X1832051Y-3557930D01*
X1836877Y-3558590D01*
X1841754Y-3558794D01*
X1846630Y-3558590D01*
X1851456Y-3557930D01*
X1856181Y-3556863D01*
X1860753Y-3555339D01*
X1865172Y-3553358D01*
X1869389Y-3551021D01*
X1873402Y-3548176D01*
X1877110Y-3544976D01*
X1880514Y-3541268D01*
X1883562Y-3537204D01*
X1886254Y-3532682D01*
X1888489Y-3527704D01*
X1890318Y-3522319D01*
X1891690Y-3516528D01*
X1892503Y-3510330D01*
X1892807Y-3503676D01*
X1892503Y-3496970D01*
X1891690Y-3490671D01*
X1890318Y-3484829D01*
X1888489Y-3479342D01*
X1886204Y-3474313D01*
X1883460Y-3469741D01*
X1880412Y-3465525D01*
X1877009Y-3461816D01*
X1873300Y-3458464D01*
X1869287Y-3455568D01*
X1865071Y-3453129D01*
X1860651Y-3451148D01*
X1856079Y-3449574D01*
X1851406Y-3448456D01*
X1846580Y-3447745D01*
G37*
G36*
X1719580Y-3447542D02*
G01*
X1713738Y-3447897D01*
X1708200Y-3448862D01*
X1703019Y-3450488D01*
X1698193Y-3452723D01*
X1693773Y-3455568D01*
X1689811Y-3458921D01*
X1686356Y-3462883D01*
X1683410Y-3467354D01*
X1681073Y-3472281D01*
X1679346Y-3477717D01*
X1678601Y-3481832D01*
X1695957Y-3481832D01*
X1696415Y-3476802D01*
X1697786Y-3471976D01*
X1699920Y-3467608D01*
X1702866Y-3463747D01*
X1706422Y-3460496D01*
X1710639Y-3458057D01*
X1715363Y-3456482D01*
X1720596Y-3455924D01*
X1725726Y-3456482D01*
X1730806Y-3458108D01*
X1735582Y-3460953D01*
X1740001Y-3464966D01*
X1743862Y-3470198D01*
X1747062Y-3476701D01*
X1749450Y-3484575D01*
X1750822Y-3493770D01*
X1707896Y-3494278D01*
X1701952Y-3493363D01*
X1698294Y-3490823D01*
X1696466Y-3486861D01*
X1695957Y-3481832D01*
X1678601Y-3481832D01*
X1678279Y-3483610D01*
X1677924Y-3489960D01*
X1678330Y-3496970D01*
X1678787Y-3499865D01*
X1679448Y-3502406D01*
X1751075Y-3502151D01*
X1750669Y-3509213D01*
X1749653Y-3515664D01*
X1748129Y-3521506D01*
X1746097Y-3526688D01*
X1743557Y-3531311D01*
X1740560Y-3535273D01*
X1737055Y-3538677D01*
X1733194Y-3541420D01*
X1728927Y-3543604D01*
X1724304Y-3545128D01*
X1719325Y-3546043D01*
X1713992Y-3546348D01*
X1704086Y-3545179D01*
X1695907Y-3541979D01*
X1688896Y-3536899D01*
X1682750Y-3530346D01*
X1678432Y-3533394D01*
X1681784Y-3538982D01*
X1685645Y-3544011D01*
X1690116Y-3548329D01*
X1695094Y-3551986D01*
X1700631Y-3554933D01*
X1706676Y-3557015D01*
X1713280Y-3558336D01*
X1720342Y-3558794D01*
X1725828Y-3558540D01*
X1731111Y-3557879D01*
X1736089Y-3556711D01*
X1740865Y-3555136D01*
X1745284Y-3553053D01*
X1749450Y-3550615D01*
X1753260Y-3547719D01*
X1756714Y-3544417D01*
X1759864Y-3540709D01*
X1762607Y-3536594D01*
X1764995Y-3532073D01*
X1766976Y-3527196D01*
X1768551Y-3521913D01*
X1769719Y-3516274D01*
X1770380Y-3510279D01*
X1770634Y-3503929D01*
X1770380Y-3497630D01*
X1769567Y-3491687D01*
X1768297Y-3485997D01*
X1766519Y-3480663D01*
X1764334Y-3475634D01*
X1761693Y-3471011D01*
X1758746Y-3466744D01*
X1755393Y-3462883D01*
X1751736Y-3459378D01*
X1747774Y-3456330D01*
X1743557Y-3453688D01*
X1739138Y-3451555D01*
X1734464Y-3449828D01*
X1729638Y-3448558D01*
X1724660Y-3447796D01*
G37*
G36*
X1538224Y-3447542D02*
G01*
X1532636Y-3447745D01*
X1527556Y-3448456D01*
X1522984Y-3449624D01*
X1518869Y-3451250D01*
X1515313Y-3453485D01*
X1512214Y-3456228D01*
X1509572Y-3459530D01*
X1507439Y-3463442D01*
X1505813Y-3468014D01*
X1504594Y-3473196D01*
X1503934Y-3479088D01*
X1503680Y-3485642D01*
X1503680Y-3497579D01*
X1521968Y-3497579D01*
X1533499Y-3500983D01*
X1542542Y-3504184D01*
X1549146Y-3507079D01*
X1554429Y-3510076D01*
X1558442Y-3513124D01*
X1561439Y-3516172D01*
X1563522Y-3519271D01*
X1564792Y-3522421D01*
X1565452Y-3525520D01*
X1565656Y-3528568D01*
X1564284Y-3536289D01*
X1560423Y-3541674D01*
X1554632Y-3544824D01*
X1547368Y-3545840D01*
X1541830Y-3545179D01*
X1536395Y-3542995D01*
X1530096Y-3538982D01*
X1521968Y-3532886D01*
X1521968Y-3497579D01*
X1503680Y-3497579D01*
X1503680Y-3534156D01*
X1503121Y-3540760D01*
X1501495Y-3545179D01*
X1498955Y-3547618D01*
X1495552Y-3548379D01*
X1493062Y-3548024D01*
X1490827Y-3546906D01*
X1488744Y-3545179D01*
X1486662Y-3542792D01*
X1482598Y-3547110D01*
X1486662Y-3552444D01*
X1491183Y-3555949D01*
X1496161Y-3557930D01*
X1501648Y-3558540D01*
X1509268Y-3557320D01*
X1515211Y-3553764D01*
X1519377Y-3548227D01*
X1521714Y-3541014D01*
X1530146Y-3548837D01*
X1534058Y-3551885D01*
X1537868Y-3554374D01*
X1541780Y-3556304D01*
X1545844Y-3557676D01*
X1550212Y-3558540D01*
X1554988Y-3558794D01*
X1560931Y-3558336D01*
X1566468Y-3557066D01*
X1571447Y-3554882D01*
X1575816Y-3551885D01*
X1579422Y-3548024D01*
X1582115Y-3543350D01*
X1583842Y-3537864D01*
X1584452Y-3531615D01*
X1584045Y-3526637D01*
X1582826Y-3522014D01*
X1580489Y-3517646D01*
X1576984Y-3513480D01*
X1572107Y-3509467D01*
X1565706Y-3505555D01*
X1557578Y-3501694D01*
X1547622Y-3497834D01*
X1535531Y-3493973D01*
X1528826Y-3492093D01*
X1521968Y-3490468D01*
X1521968Y-3483610D01*
X1522272Y-3476142D01*
X1523187Y-3470046D01*
X1524762Y-3465271D01*
X1526997Y-3461562D01*
X1529943Y-3458921D01*
X1533652Y-3457194D01*
X1538071Y-3456228D01*
X1543304Y-3455924D01*
X1549450Y-3456482D01*
X1556004Y-3457956D01*
X1560322Y-3473196D01*
X1561998Y-3477666D01*
X1564386Y-3480866D01*
X1567535Y-3482746D01*
X1571498Y-3483356D01*
X1575562Y-3482797D01*
X1578559Y-3481171D01*
X1580489Y-3478529D01*
X1581404Y-3474974D01*
X1579422Y-3468928D01*
X1576324Y-3463493D01*
X1572158Y-3458819D01*
X1567027Y-3454857D01*
X1561033Y-3451758D01*
X1554175Y-3449421D01*
X1546555Y-3447999D01*
G37*
G36*
X1405382Y-3447542D02*
G01*
X1400352Y-3448100D01*
X1395780Y-3449726D01*
X1391970Y-3452368D01*
X1389380Y-3455924D01*
X1390091Y-3462172D01*
X1392326Y-3466998D01*
X1396238Y-3470046D01*
X1402080Y-3471164D01*
X1405737Y-3470706D01*
X1409242Y-3469436D01*
X1412544Y-3467404D01*
X1415796Y-3464814D01*
X1418336Y-3462274D01*
X1424635Y-3467862D01*
X1429867Y-3474516D01*
X1434185Y-3482441D01*
X1437640Y-3491737D01*
X1437386Y-3546348D01*
X1418844Y-3549142D01*
X1418844Y-3556000D01*
X1472946Y-3556000D01*
X1472946Y-3549142D01*
X1456690Y-3546601D01*
X1456182Y-3509264D01*
X1456232Y-3488994D01*
X1456588Y-3474923D01*
X1456944Y-3468370D01*
X1474470Y-3466592D01*
X1474470Y-3459987D01*
X1443228Y-3447796D01*
X1440180Y-3449828D01*
X1437894Y-3476498D01*
X1434896Y-3469995D01*
X1431442Y-3464255D01*
X1427632Y-3459276D01*
X1423568Y-3455162D01*
X1419199Y-3451860D01*
X1414678Y-3449472D01*
X1410055Y-3448050D01*
G37*
G36*
X1680718Y-156210D02*
G01*
X1675180Y-157175D01*
X1670659Y-159918D01*
X1667611Y-164134D01*
X1666493Y-169672D01*
X1667611Y-175260D01*
X1670659Y-179679D01*
X1675180Y-182626D01*
X1680718Y-183642D01*
X1686407Y-182626D01*
X1690979Y-179730D01*
X1694078Y-175260D01*
X1695196Y-169672D01*
X1694078Y-164134D01*
X1690979Y-159918D01*
X1686407Y-157175D01*
G37*
G36*
X2885186Y-165100D02*
G01*
X2878429Y-165252D01*
X2872130Y-165760D01*
X2866186Y-166624D01*
X2860598Y-167792D01*
X2855264Y-169316D01*
X2850235Y-171196D01*
X2845409Y-173431D01*
X2840736Y-176022D01*
X2840228Y-209042D01*
X2852420Y-209042D01*
X2857754Y-181356D01*
X2863697Y-178409D01*
X2869844Y-176326D01*
X2876245Y-175158D01*
X2882900Y-174752D01*
X2888792Y-175056D01*
X2894431Y-175920D01*
X2899867Y-177342D01*
X2904998Y-179324D01*
X2909874Y-181864D01*
X2914396Y-184912D01*
X2918612Y-188468D01*
X2922473Y-192582D01*
X2925927Y-197205D01*
X2929026Y-202285D01*
X2931668Y-207924D01*
X2933903Y-213969D01*
X2935681Y-220522D01*
X2936951Y-227482D01*
X2937764Y-234950D01*
X2938018Y-242824D01*
X2937764Y-250596D01*
X2937002Y-258013D01*
X2935782Y-264972D01*
X2934106Y-271475D01*
X2931972Y-277520D01*
X2929382Y-283108D01*
X2926384Y-288239D01*
X2922981Y-292862D01*
X2919171Y-296976D01*
X2914954Y-300634D01*
X2910382Y-303682D01*
X2905455Y-306273D01*
X2900172Y-308254D01*
X2894533Y-309727D01*
X2888640Y-310591D01*
X2882392Y-310896D01*
X2875889Y-310642D01*
X2869641Y-309880D01*
X2863545Y-308559D01*
X2857500Y-306578D01*
X2857754Y-256032D01*
X2881376Y-254254D01*
X2881376Y-246634D01*
X2823464Y-246634D01*
X2823464Y-254254D01*
X2836926Y-255524D01*
X2837281Y-276301D01*
X2837434Y-307848D01*
X2843225Y-310743D01*
X2848965Y-313283D01*
X2854756Y-315518D01*
X2860649Y-317347D01*
X2866644Y-318871D01*
X2872841Y-319938D01*
X2879242Y-320598D01*
X2885948Y-320802D01*
X2892552Y-320548D01*
X2898902Y-319836D01*
X2905048Y-318668D01*
X2910941Y-317093D01*
X2916529Y-315061D01*
X2921914Y-312623D01*
X2926943Y-309778D01*
X2931718Y-306527D01*
X2936189Y-302920D01*
X2940304Y-298958D01*
X2944114Y-294640D01*
X2947517Y-290017D01*
X2950616Y-285089D01*
X2953359Y-279806D01*
X2955645Y-274320D01*
X2957626Y-268478D01*
X2959150Y-262432D01*
X2960217Y-256133D01*
X2960928Y-249580D01*
X2961132Y-242824D01*
X2960878Y-236169D01*
X2960217Y-229717D01*
X2959100Y-223469D01*
X2957525Y-217474D01*
X2955544Y-211734D01*
X2953156Y-206197D01*
X2950413Y-200964D01*
X2947263Y-196037D01*
X2943758Y-191414D01*
X2939897Y-187096D01*
X2935732Y-183134D01*
X2931210Y-179527D01*
X2926435Y-176276D01*
X2921304Y-173380D01*
X2915920Y-170942D01*
X2910230Y-168859D01*
X2904337Y-167233D01*
X2898190Y-166065D01*
X2891790Y-165354D01*
G37*
G36*
X1084580Y-165608D02*
G01*
X1080211Y-165862D01*
X1075893Y-166624D01*
X1071626Y-167894D01*
X1067460Y-169672D01*
X1063447Y-172059D01*
X1059586Y-175056D01*
X1055979Y-178612D01*
X1052576Y-182829D01*
X1049477Y-187706D01*
X1046632Y-193243D01*
X1044194Y-199491D01*
X1042060Y-206451D01*
X1040384Y-214121D01*
X1039114Y-222554D01*
X1038352Y-231800D01*
X1038098Y-241808D01*
X1058164Y-241808D01*
X1058418Y-229260D01*
X1059180Y-218287D01*
X1060348Y-208788D01*
X1061974Y-200660D01*
X1063955Y-193802D01*
X1066241Y-188163D01*
X1068832Y-183591D01*
X1071626Y-180086D01*
X1074674Y-177495D01*
X1077874Y-175768D01*
X1081176Y-174802D01*
X1084580Y-174498D01*
X1088085Y-174802D01*
X1091539Y-175768D01*
X1094841Y-177495D01*
X1097940Y-180086D01*
X1100836Y-183591D01*
X1103528Y-188163D01*
X1105865Y-193802D01*
X1107897Y-200660D01*
X1109522Y-208788D01*
X1110742Y-218287D01*
X1111504Y-229260D01*
X1111758Y-241808D01*
X1111605Y-251764D01*
X1111148Y-260807D01*
X1110488Y-268935D01*
X1109522Y-276250D01*
X1108303Y-282702D01*
X1106932Y-288442D01*
X1105306Y-293420D01*
X1103528Y-297738D01*
X1101547Y-301345D01*
X1099413Y-304393D01*
X1097178Y-306832D01*
X1094841Y-308762D01*
X1092352Y-310184D01*
X1089812Y-311200D01*
X1087221Y-311759D01*
X1084580Y-311912D01*
X1081176Y-311607D01*
X1077874Y-310540D01*
X1074674Y-308762D01*
X1071626Y-306019D01*
X1068832Y-302361D01*
X1066241Y-297637D01*
X1063955Y-291744D01*
X1061974Y-284581D01*
X1060348Y-276098D01*
X1059180Y-266242D01*
X1058418Y-254812D01*
X1058164Y-241808D01*
X1038098Y-241808D01*
X1038352Y-252171D01*
X1039114Y-261721D01*
X1040384Y-270459D01*
X1042060Y-278384D01*
X1044194Y-285546D01*
X1046632Y-291998D01*
X1049477Y-297688D01*
X1052576Y-302666D01*
X1055979Y-306984D01*
X1059586Y-310642D01*
X1063447Y-313690D01*
X1067460Y-316128D01*
X1071626Y-318008D01*
X1075893Y-319278D01*
X1080211Y-320040D01*
X1084580Y-320294D01*
X1089050Y-320040D01*
X1093419Y-319278D01*
X1097737Y-318008D01*
X1101953Y-316128D01*
X1106017Y-313690D01*
X1109878Y-310642D01*
X1113485Y-306984D01*
X1116888Y-302666D01*
X1120038Y-297688D01*
X1122832Y-291998D01*
X1125270Y-285546D01*
X1127353Y-278384D01*
X1129030Y-270459D01*
X1130300Y-261721D01*
X1131062Y-252171D01*
X1131316Y-241808D01*
X1131062Y-231800D01*
X1130300Y-222554D01*
X1129030Y-214121D01*
X1127353Y-206451D01*
X1125270Y-199491D01*
X1122832Y-193243D01*
X1120038Y-187706D01*
X1116888Y-182829D01*
X1113485Y-178612D01*
X1109878Y-175056D01*
X1106017Y-172059D01*
X1101953Y-169672D01*
X1097737Y-167894D01*
X1093419Y-166624D01*
X1089050Y-165862D01*
G37*
G36*
X1254252Y-166370D02*
G01*
X1251204Y-168656D01*
X1251966Y-200660D01*
X1251915Y-279450D01*
X1251458Y-306070D01*
X1220216Y-310642D01*
X1220216Y-317500D01*
X1302258Y-317500D01*
X1302258Y-310642D01*
X1270508Y-306070D01*
X1270254Y-183134D01*
X1299972Y-185928D01*
X1299972Y-178308D01*
G37*
G36*
X2665476Y-168656D02*
G01*
X2665476Y-176276D01*
X2684018Y-178816D01*
X2684272Y-319024D01*
X2692146Y-319024D01*
X2783078Y-194056D01*
X2782570Y-306832D01*
X2758948Y-309880D01*
X2758948Y-317500D01*
X2811526Y-317500D01*
X2811526Y-309880D01*
X2792730Y-307086D01*
X2792476Y-181102D01*
X2794508Y-178308D01*
X2810510Y-176276D01*
X2810510Y-168656D01*
X2776220Y-168656D01*
X2693924Y-282448D01*
X2694178Y-179070D01*
X2718054Y-176276D01*
X2718054Y-168656D01*
G37*
G36*
X2584958Y-168656D02*
G01*
X2577338Y-168960D01*
X2570327Y-169875D01*
X2563977Y-171348D01*
X2558288Y-173329D01*
X2553208Y-175818D01*
X2548788Y-178765D01*
X2545029Y-182168D01*
X2541981Y-185978D01*
X2539542Y-190195D01*
X2537815Y-194716D01*
X2536799Y-199593D01*
X2536511Y-205486D01*
X2556256Y-205486D01*
X2556814Y-198577D01*
X2558389Y-192735D01*
X2561082Y-187858D01*
X2564892Y-183946D01*
X2569768Y-181000D01*
X2575763Y-178917D01*
X2582824Y-177698D01*
X2591054Y-177292D01*
X2606548Y-177292D01*
X2607005Y-206298D01*
X2607056Y-235712D01*
X2595372Y-235712D01*
X2585974Y-235254D01*
X2577896Y-233934D01*
X2571140Y-231648D01*
X2565704Y-228396D01*
X2561539Y-224180D01*
X2558592Y-218998D01*
X2556814Y-212750D01*
X2556256Y-205486D01*
X2536511Y-205486D01*
X2536952Y-210464D01*
X2538425Y-216001D01*
X2540965Y-221284D01*
X2544673Y-226161D01*
X2549550Y-230530D01*
X2555646Y-234340D01*
X2563012Y-237439D01*
X2571750Y-239775D01*
X2564536Y-240995D01*
X2558084Y-242671D01*
X2552293Y-244703D01*
X2547162Y-247142D01*
X2542743Y-249885D01*
X2538933Y-252984D01*
X2535783Y-256387D01*
X2533243Y-260045D01*
X2531262Y-263906D01*
X2529890Y-268020D01*
X2529078Y-272389D01*
X2528837Y-277114D01*
X2549906Y-277114D01*
X2550210Y-271983D01*
X2551023Y-267309D01*
X2552496Y-263093D01*
X2554528Y-259283D01*
X2557221Y-255879D01*
X2560523Y-252984D01*
X2564434Y-250494D01*
X2569057Y-248462D01*
X2574340Y-246888D01*
X2580284Y-245770D01*
X2586990Y-245059D01*
X2594356Y-244856D01*
X2607056Y-244856D01*
X2606954Y-283210D01*
X2606548Y-308610D01*
X2592070Y-308610D01*
X2585364Y-308356D01*
X2579268Y-307695D01*
X2573680Y-306527D01*
X2568702Y-304952D01*
X2564333Y-302920D01*
X2560523Y-300482D01*
X2557272Y-297586D01*
X2554630Y-294335D01*
X2552547Y-290626D01*
X2551074Y-286512D01*
X2550210Y-281990D01*
X2549906Y-277114D01*
X2528837Y-277114D01*
X2529027Y-280670D01*
X2529636Y-284429D01*
X2530602Y-288137D01*
X2532075Y-291795D01*
X2533954Y-295300D01*
X2536291Y-298653D01*
X2539085Y-301853D01*
X2542387Y-304800D01*
X2546146Y-307543D01*
X2550464Y-309981D01*
X2555290Y-312166D01*
X2560624Y-313994D01*
X2566568Y-315468D01*
X2573020Y-316585D01*
X2580081Y-317246D01*
X2587752Y-317500D01*
X2648458Y-317500D01*
X2648458Y-309880D01*
X2627884Y-307594D01*
X2627426Y-277825D01*
X2627477Y-200507D01*
X2627884Y-178562D01*
X2648458Y-176276D01*
X2648458Y-168656D01*
G37*
G36*
X2312670Y-168656D02*
G01*
X2312670Y-176276D01*
X2331212Y-178816D01*
X2331466Y-319024D01*
X2339340Y-319024D01*
X2430272Y-194056D01*
X2429764Y-306832D01*
X2406142Y-309880D01*
X2406142Y-317500D01*
X2458720Y-317500D01*
X2458720Y-309880D01*
X2439924Y-307086D01*
X2439670Y-181102D01*
X2441956Y-178308D01*
X2457704Y-176276D01*
X2457704Y-168656D01*
X2423414Y-168656D01*
X2341118Y-282448D01*
X2341372Y-179070D01*
X2365248Y-176276D01*
X2365248Y-168656D01*
G37*
G36*
X1780539Y-168656D02*
G01*
X1772920Y-168960D01*
X1765909Y-169875D01*
X1759508Y-171348D01*
X1753768Y-173329D01*
X1748688Y-175818D01*
X1744268Y-178765D01*
X1740458Y-182168D01*
X1737360Y-185978D01*
X1734921Y-190195D01*
X1733194Y-194716D01*
X1732127Y-199593D01*
X1731839Y-205486D01*
X1751838Y-205486D01*
X1752396Y-198577D01*
X1753971Y-192735D01*
X1756664Y-187858D01*
X1760474Y-183946D01*
X1765350Y-181000D01*
X1771345Y-178917D01*
X1778406Y-177698D01*
X1786636Y-177292D01*
X1802130Y-177292D01*
X1802587Y-206298D01*
X1802638Y-235712D01*
X1790700Y-235712D01*
X1781352Y-235254D01*
X1773377Y-233934D01*
X1766671Y-231648D01*
X1761286Y-228396D01*
X1757121Y-224180D01*
X1754174Y-218998D01*
X1752396Y-212750D01*
X1751838Y-205486D01*
X1731839Y-205486D01*
X1732280Y-210464D01*
X1733753Y-216001D01*
X1736343Y-221284D01*
X1740052Y-226161D01*
X1744929Y-230530D01*
X1751075Y-234340D01*
X1758492Y-237439D01*
X1767332Y-239775D01*
X1760067Y-240995D01*
X1753565Y-242671D01*
X1747774Y-244703D01*
X1742643Y-247142D01*
X1738223Y-249885D01*
X1734413Y-252984D01*
X1731314Y-256387D01*
X1728774Y-260045D01*
X1726844Y-263906D01*
X1725472Y-268020D01*
X1724660Y-272389D01*
X1724419Y-277114D01*
X1745488Y-277114D01*
X1745792Y-271983D01*
X1746605Y-267309D01*
X1748078Y-263093D01*
X1750110Y-259283D01*
X1752752Y-255879D01*
X1756054Y-252984D01*
X1759966Y-250494D01*
X1764588Y-248462D01*
X1769821Y-246888D01*
X1775714Y-245770D01*
X1782368Y-245059D01*
X1789684Y-244856D01*
X1802638Y-244856D01*
X1802536Y-283210D01*
X1802130Y-308610D01*
X1787652Y-308610D01*
X1780946Y-308356D01*
X1774850Y-307695D01*
X1769262Y-306527D01*
X1764284Y-304952D01*
X1759915Y-302920D01*
X1756105Y-300482D01*
X1752854Y-297586D01*
X1750212Y-294335D01*
X1748129Y-290626D01*
X1746656Y-286512D01*
X1745792Y-281990D01*
X1745488Y-277114D01*
X1724419Y-277114D01*
X1724609Y-280670D01*
X1725218Y-284429D01*
X1726184Y-288137D01*
X1727657Y-291795D01*
X1729536Y-295300D01*
X1731873Y-298653D01*
X1734667Y-301853D01*
X1737969Y-304800D01*
X1741728Y-307543D01*
X1746046Y-309981D01*
X1750872Y-312166D01*
X1756206Y-313994D01*
X1762150Y-315468D01*
X1768602Y-316585D01*
X1775663Y-317246D01*
X1783334Y-317500D01*
X1844039Y-317500D01*
X1844039Y-309880D01*
X1823212Y-307594D01*
X1823008Y-277825D01*
X1823008Y-200507D01*
X1823212Y-178562D01*
X1844039Y-176276D01*
X1844039Y-168656D01*
G37*
G36*
X1321308Y-168656D02*
G01*
X1321308Y-176022D01*
X1340612Y-178816D01*
X1387348Y-319024D01*
X1396492Y-319024D01*
X1448562Y-178054D01*
X1465580Y-176276D01*
X1465580Y-168656D01*
X1405128Y-168656D01*
X1405128Y-177038D01*
X1426972Y-178816D01*
X1387856Y-290830D01*
X1351788Y-179070D01*
X1372108Y-177038D01*
X1372108Y-168656D01*
G37*
G36*
X2245868Y-209042D02*
G01*
X2239975Y-209397D01*
X2234387Y-210362D01*
X2229154Y-211988D01*
X2224328Y-214223D01*
X2219960Y-217068D01*
X2215997Y-220421D01*
X2212543Y-224383D01*
X2209647Y-228854D01*
X2207310Y-233781D01*
X2205634Y-239217D01*
X2204889Y-243332D01*
X2222246Y-243332D01*
X2222703Y-238302D01*
X2224074Y-233476D01*
X2226208Y-229108D01*
X2229154Y-225247D01*
X2232710Y-221996D01*
X2236927Y-219557D01*
X2241651Y-217982D01*
X2246884Y-217424D01*
X2251964Y-217982D01*
X2256942Y-219608D01*
X2261768Y-222453D01*
X2266188Y-226466D01*
X2270099Y-231698D01*
X2273300Y-238201D01*
X2275687Y-246075D01*
X2277110Y-255270D01*
X2234184Y-255778D01*
X2228240Y-254863D01*
X2224582Y-252323D01*
X2222754Y-248361D01*
X2222246Y-243332D01*
X2204889Y-243332D01*
X2204567Y-245110D01*
X2204212Y-251460D01*
X2204618Y-258470D01*
X2205075Y-261366D01*
X2205736Y-263906D01*
X2277364Y-263652D01*
X2276957Y-270713D01*
X2275941Y-277164D01*
X2274417Y-283006D01*
X2272385Y-288188D01*
X2269845Y-292811D01*
X2266848Y-296773D01*
X2263343Y-300177D01*
X2259482Y-302920D01*
X2255215Y-305104D01*
X2250592Y-306628D01*
X2245614Y-307543D01*
X2240280Y-307848D01*
X2230272Y-306679D01*
X2222093Y-303479D01*
X2215184Y-298399D01*
X2209038Y-291846D01*
X2204466Y-294894D01*
X2207818Y-300482D01*
X2211679Y-305511D01*
X2216150Y-309829D01*
X2221179Y-313486D01*
X2226716Y-316433D01*
X2232812Y-318516D01*
X2239467Y-319836D01*
X2246630Y-320294D01*
X2252065Y-320040D01*
X2257298Y-319379D01*
X2262276Y-318211D01*
X2267000Y-316636D01*
X2271420Y-314553D01*
X2275535Y-312115D01*
X2279345Y-309219D01*
X2282799Y-305917D01*
X2285898Y-302209D01*
X2288692Y-298094D01*
X2291029Y-293573D01*
X2293010Y-288696D01*
X2294585Y-283413D01*
X2295753Y-277774D01*
X2296414Y-271780D01*
X2296668Y-265430D01*
X2296414Y-259130D01*
X2295601Y-253187D01*
X2294331Y-247497D01*
X2292604Y-242163D01*
X2290419Y-237134D01*
X2287828Y-232511D01*
X2284882Y-228244D01*
X2281529Y-224383D01*
X2277922Y-220878D01*
X2274011Y-217830D01*
X2269794Y-215188D01*
X2265375Y-213055D01*
X2260752Y-211328D01*
X2255926Y-210058D01*
X2250948Y-209296D01*
G37*
G36*
X1986534Y-209042D02*
G01*
X1981504Y-209600D01*
X1976932Y-211226D01*
X1973122Y-213867D01*
X1970532Y-217424D01*
X1971243Y-223672D01*
X1973427Y-228498D01*
X1977288Y-231546D01*
X1982978Y-232664D01*
X1986788Y-232206D01*
X1990343Y-230936D01*
X1993696Y-228904D01*
X1996948Y-226314D01*
X1999488Y-223774D01*
X2005736Y-229362D01*
X2010968Y-236016D01*
X2015236Y-243941D01*
X2018792Y-253238D01*
X2018284Y-307848D01*
X1999996Y-310642D01*
X1999996Y-317500D01*
X2053843Y-317500D01*
X2053843Y-310642D01*
X2037588Y-308102D01*
X2037384Y-250494D01*
X2037842Y-229870D01*
X2055622Y-228092D01*
X2055622Y-221488D01*
X2024380Y-209296D01*
X2021332Y-211328D01*
X2019046Y-237998D01*
X2016048Y-231495D01*
X2012594Y-225755D01*
X2008784Y-220776D01*
X2004669Y-216662D01*
X2000351Y-213360D01*
X1995830Y-210972D01*
X1991207Y-209550D01*
G37*
G36*
X1910588Y-209042D02*
G01*
X1905762Y-209245D01*
X1901037Y-209956D01*
X1896364Y-211023D01*
X1891792Y-212598D01*
X1887372Y-214579D01*
X1883156Y-217017D01*
X1879193Y-219913D01*
X1875434Y-223215D01*
X1872030Y-226923D01*
X1868932Y-231140D01*
X1866188Y-235712D01*
X1863902Y-240741D01*
X1862023Y-246227D01*
X1860651Y-252120D01*
X1859838Y-258419D01*
X1859534Y-265176D01*
X1880107Y-265176D01*
X1880362Y-257708D01*
X1881022Y-250901D01*
X1882139Y-244652D01*
X1883714Y-239014D01*
X1885696Y-234035D01*
X1888134Y-229666D01*
X1890928Y-225958D01*
X1894128Y-222910D01*
X1897684Y-220522D01*
X1901647Y-218795D01*
X1905914Y-217779D01*
X1910588Y-217424D01*
X1915312Y-217779D01*
X1919630Y-218795D01*
X1923643Y-220522D01*
X1927250Y-222910D01*
X1930450Y-225958D01*
X1933295Y-229666D01*
X1935683Y-234035D01*
X1937715Y-239014D01*
X1939289Y-244652D01*
X1940407Y-250901D01*
X1941068Y-257708D01*
X1941322Y-265176D01*
X1941068Y-272491D01*
X1940407Y-279196D01*
X1939289Y-285343D01*
X1937715Y-290830D01*
X1935683Y-295706D01*
X1933295Y-299974D01*
X1930450Y-303580D01*
X1927250Y-306578D01*
X1923643Y-308914D01*
X1919630Y-310591D01*
X1915312Y-311556D01*
X1910588Y-311912D01*
X1905914Y-311556D01*
X1901647Y-310591D01*
X1897684Y-308914D01*
X1894128Y-306578D01*
X1890928Y-303580D01*
X1888134Y-299974D01*
X1885696Y-295706D01*
X1883714Y-290830D01*
X1882139Y-285343D01*
X1881022Y-279196D01*
X1880362Y-272491D01*
X1880107Y-265176D01*
X1859534Y-265176D01*
X1859838Y-271830D01*
X1860651Y-278028D01*
X1862023Y-283819D01*
X1863852Y-289204D01*
X1866138Y-294182D01*
X1868881Y-298704D01*
X1871929Y-302768D01*
X1875332Y-306476D01*
X1879041Y-309676D01*
X1883054Y-312521D01*
X1887270Y-314858D01*
X1891690Y-316839D01*
X1896262Y-318363D01*
X1900936Y-319430D01*
X1905762Y-320090D01*
X1910588Y-320294D01*
X1915515Y-320090D01*
X1920341Y-319430D01*
X1925116Y-318363D01*
X1929688Y-316839D01*
X1934159Y-314858D01*
X1938375Y-312521D01*
X1942338Y-309676D01*
X1945995Y-306476D01*
X1949399Y-302768D01*
X1952447Y-298704D01*
X1955139Y-294182D01*
X1957374Y-289204D01*
X1959203Y-283819D01*
X1960524Y-278028D01*
X1961337Y-271830D01*
X1961642Y-265176D01*
X1961337Y-258470D01*
X1960524Y-252171D01*
X1959152Y-246329D01*
X1957324Y-240842D01*
X1955088Y-235813D01*
X1952396Y-231241D01*
X1949348Y-227025D01*
X1945944Y-223316D01*
X1942236Y-219964D01*
X1938223Y-217068D01*
X1934006Y-214629D01*
X1929587Y-212648D01*
X1925015Y-211074D01*
X1920290Y-209956D01*
X1915464Y-209245D01*
G37*
G36*
X1572514Y-209042D02*
G01*
X1566722Y-209448D01*
X1561185Y-210718D01*
X1555953Y-212852D01*
X1551076Y-215696D01*
X1546606Y-219354D01*
X1542592Y-223723D01*
X1539036Y-228854D01*
X1536039Y-234645D01*
X1533601Y-241096D01*
X1531823Y-248158D01*
X1530705Y-255879D01*
X1530399Y-265684D01*
X1549654Y-265684D01*
X1549908Y-258470D01*
X1550619Y-251917D01*
X1551736Y-245922D01*
X1553311Y-240588D01*
X1555292Y-235813D01*
X1557629Y-231698D01*
X1560322Y-228193D01*
X1563370Y-225348D01*
X1566672Y-223113D01*
X1570329Y-221488D01*
X1574241Y-220522D01*
X1578356Y-220217D01*
X1583842Y-220675D01*
X1590040Y-222504D01*
X1597202Y-226212D01*
X1605534Y-232410D01*
X1605534Y-297942D01*
X1599184Y-302971D01*
X1592986Y-306374D01*
X1586738Y-308254D01*
X1580388Y-308864D01*
X1576222Y-308610D01*
X1572209Y-307797D01*
X1568399Y-306425D01*
X1564843Y-304495D01*
X1561592Y-301955D01*
X1558645Y-298805D01*
X1556054Y-294995D01*
X1553819Y-290525D01*
X1552041Y-285394D01*
X1550771Y-279552D01*
X1549958Y-272999D01*
X1549654Y-265684D01*
X1530399Y-265684D01*
X1530553Y-270459D01*
X1531264Y-276504D01*
X1532331Y-282143D01*
X1533804Y-287528D01*
X1535684Y-292506D01*
X1537919Y-297078D01*
X1540459Y-301345D01*
X1543354Y-305206D01*
X1546555Y-308610D01*
X1550060Y-311658D01*
X1553768Y-314248D01*
X1557782Y-316382D01*
X1561998Y-318058D01*
X1566418Y-319278D01*
X1571040Y-320040D01*
X1575816Y-320294D01*
X1583486Y-319582D01*
X1591208Y-317195D01*
X1598777Y-312674D01*
X1606042Y-305562D01*
X1605788Y-360934D01*
X1585468Y-363982D01*
X1585468Y-370840D01*
X1642364Y-370840D01*
X1642364Y-363982D01*
X1624076Y-361188D01*
X1623822Y-323850D01*
X1623872Y-250647D01*
X1624330Y-229870D01*
X1642364Y-228092D01*
X1642364Y-221488D01*
X1610868Y-209296D01*
X1607820Y-211328D01*
X1606550Y-225552D01*
X1602536Y-221488D01*
X1598422Y-218033D01*
X1594256Y-215188D01*
X1589989Y-212902D01*
X1585722Y-211175D01*
X1581353Y-209956D01*
X1576984Y-209296D01*
G37*
G36*
X1673860Y-209296D02*
G01*
X1670812Y-211328D01*
X1671320Y-240792D01*
X1671269Y-279400D01*
X1670812Y-308102D01*
X1655572Y-310642D01*
X1655572Y-317500D01*
X1706880Y-317500D01*
X1706880Y-310642D01*
X1689862Y-308102D01*
X1689354Y-270764D01*
X1689404Y-250596D01*
X1690116Y-229616D01*
X1708150Y-227838D01*
X1708150Y-221234D01*
G37*
G36*
X2087625Y-210312D02*
G01*
X2085593Y-212598D01*
X2086356Y-244094D01*
X2086356Y-308356D01*
X2071116Y-310896D01*
X2071116Y-317500D01*
X2101850Y-319278D01*
X2103882Y-299212D01*
X2108301Y-304139D01*
X2112924Y-308406D01*
X2117750Y-312013D01*
X2122728Y-315010D01*
X2127859Y-317296D01*
X2133041Y-318973D01*
X2138273Y-319938D01*
X2143506Y-320294D01*
X2149957Y-319786D01*
X2155698Y-318211D01*
X2160676Y-315417D01*
X2164892Y-311353D01*
X2168245Y-305917D01*
X2170684Y-298958D01*
X2172208Y-290423D01*
X2172716Y-280162D01*
X2171954Y-223520D01*
X2187956Y-220217D01*
X2187956Y-213614D01*
X2155444Y-210312D01*
X2153158Y-212598D01*
X2154174Y-244094D01*
X2154174Y-279146D01*
X2153869Y-286004D01*
X2153005Y-291693D01*
X2151532Y-296265D01*
X2149500Y-299923D01*
X2146858Y-302615D01*
X2143658Y-304444D01*
X2139950Y-305460D01*
X2135632Y-305816D01*
X2127656Y-304901D01*
X2119731Y-302209D01*
X2112060Y-297688D01*
X2104644Y-291338D01*
X2103882Y-223520D01*
X2119884Y-220471D01*
X2119884Y-213867D01*
G37*
G36*
X1173988Y-290068D02*
G01*
X1168095Y-291287D01*
X1163218Y-294589D01*
X1159967Y-299516D01*
X1158748Y-305562D01*
X1159967Y-311200D01*
X1163218Y-315874D01*
X1168095Y-319074D01*
X1173988Y-320294D01*
X1179880Y-319074D01*
X1184757Y-315874D01*
X1188008Y-311200D01*
X1189228Y-305562D01*
X1188008Y-299516D01*
X1184757Y-294589D01*
X1179880Y-291287D01*
G37*
D63*
X9182608Y-7237232D02*
G01*
X9193022Y-7242568D01*
X9203433Y-7252980D01*
X9208515Y-7263142D01*
X9208515Y-7283968D01*
X9203436Y-7294382D01*
X9193022Y-7304796D01*
X9182608Y-7310132D01*
X9166859Y-7315210D01*
X9140952Y-7315212D01*
X9125458Y-7310132D01*
X9115043Y-7304796D01*
X9104629Y-7294384D01*
X9099550Y-7283968D01*
X9099550Y-7263142D01*
X9104629Y-7252980D01*
X9115043Y-7242568D01*
X9125458Y-7237232D01*
X9208515Y-7192528D02*
G01*
X9208515Y-7135378D01*
X9166859Y-7166620D01*
X9166859Y-7151126D01*
X9161779Y-7140714D01*
X9156700Y-7135378D01*
X9140952Y-7130298D01*
X9130538Y-7130298D01*
X9115043Y-7135378D01*
X9104629Y-7145792D01*
X9099550Y-7161540D01*
X9099550Y-7177034D01*
X9104629Y-7192530D01*
X9109709Y-7197864D01*
X9120124Y-7202942D01*
X8344915Y-5880089D02*
G01*
X8235950Y-5880089D01*
X8344915Y-5880089D02*
G01*
X8344915Y-5833353D01*
X8339836Y-5817859D01*
X8334502Y-5812525D01*
X8324088Y-5807445D01*
X8313674Y-5807445D01*
X8303259Y-5812525D01*
X8298179Y-5817859D01*
X8293100Y-5833353D01*
X8293100Y-5880089D01*
X8293100Y-5843767D02*
G01*
X8235950Y-5807445D01*
X8324088Y-5773155D02*
G01*
X8329422Y-5762741D01*
X8344915Y-5746993D01*
X8235950Y-5746993D01*
X8814308Y-6957834D02*
G01*
X8824722Y-6963168D01*
X8835136Y-6973582D01*
X8840215Y-6983742D01*
X8840215Y-7004570D01*
X8835136Y-7014984D01*
X8824722Y-7025398D01*
X8814308Y-7030732D01*
X8798559Y-7035812D01*
X8772652Y-7035812D01*
X8757158Y-7030732D01*
X8746743Y-7025398D01*
X8736329Y-7014984D01*
X8731250Y-7004570D01*
X8731250Y-6983742D01*
X8736329Y-6973582D01*
X8746743Y-6963168D01*
X8757158Y-6957834D01*
X8840215Y-6871728D02*
G01*
X8767572Y-6923544D01*
X8767572Y-6845566D01*
X8840215Y-6871728D02*
G01*
X8731250Y-6871728D01*
X9017462Y-6284767D02*
G01*
X9027853Y-6289964D01*
X9038244Y-6300355D01*
X9043438Y-6310744D01*
X9043438Y-6331526D01*
X9038244Y-6341917D01*
X9027853Y-6352308D01*
X9017462Y-6357505D01*
X9001874Y-6362700D01*
X8975897Y-6362700D01*
X8960312Y-6357505D01*
X8949921Y-6352308D01*
X8939529Y-6341917D01*
X8934335Y-6331526D01*
X8934335Y-6310744D01*
X8939529Y-6300355D01*
X8949921Y-6289964D01*
X8960312Y-6284767D01*
X9043438Y-6250477D02*
G01*
X8934335Y-6250477D01*
X9043438Y-6177742D02*
G01*
X8934335Y-6177742D01*
X8991485Y-6250477D02*
G01*
X8991485Y-6177742D01*
X9043438Y-6081105D02*
G01*
X9043438Y-6133061D01*
X8996679Y-6138255D01*
X9001874Y-6133061D01*
X9007071Y-6117475D01*
X9007071Y-6101887D01*
X9001874Y-6086302D01*
X8991485Y-6075911D01*
X8975897Y-6070714D01*
X8965506Y-6070714D01*
X8949921Y-6075911D01*
X8939529Y-6086302D01*
X8934335Y-6101887D01*
X8934335Y-6117475D01*
X8939529Y-6133061D01*
X8944724Y-6138255D01*
X8955115Y-6143452D01*
X9027853Y-5974079D02*
G01*
X9038244Y-5979274D01*
X9043438Y-5994862D01*
X9043438Y-6005253D01*
X9038244Y-6020838D01*
X9022656Y-6031229D01*
X8996679Y-6036424D01*
X8970703Y-6036424D01*
X8949921Y-6031229D01*
X8939529Y-6020838D01*
X8934335Y-6005253D01*
X8934335Y-6000056D01*
X8939529Y-5984471D01*
X8949921Y-5974079D01*
X8965506Y-5968885D01*
X8970703Y-5968885D01*
X8986288Y-5974079D01*
X8996679Y-5984471D01*
X9001874Y-6000056D01*
X9001874Y-6005253D01*
X8996679Y-6020838D01*
X8986288Y-6031229D01*
X8970703Y-6036424D01*
X9043438Y-5903422D02*
G01*
X9038244Y-5919007D01*
X9022656Y-5929398D01*
X8996679Y-5934595D01*
X8981094Y-5934595D01*
X8955115Y-5929398D01*
X8939529Y-5919007D01*
X8934335Y-5903422D01*
X8934335Y-5893031D01*
X8939529Y-5877445D01*
X8955115Y-5867054D01*
X8981094Y-5861857D01*
X8996679Y-5861857D01*
X9022656Y-5867054D01*
X9038244Y-5877445D01*
X9043438Y-5893031D01*
X9043438Y-5903422D01*
X9043438Y-5827567D02*
G01*
X8934335Y-5827567D01*
X8934335Y-5827567D02*
G01*
X8934335Y-5765223D01*
X8674100Y-7786138D02*
G01*
X8674100Y-7708206D01*
X8679294Y-7692621D01*
X8689685Y-7682229D01*
X8705273Y-7677035D01*
X8715664Y-7677035D01*
X8731250Y-7682229D01*
X8741641Y-7692621D01*
X8746835Y-7708206D01*
X8746835Y-7786138D01*
X8853863Y-7770553D02*
G01*
X8843472Y-7780944D01*
X8827884Y-7786138D01*
X8807104Y-7786138D01*
X8791516Y-7780944D01*
X8781125Y-7770553D01*
X8781125Y-7760162D01*
X8786322Y-7749771D01*
X8791516Y-7744574D01*
X8801907Y-7739379D01*
X8833081Y-7728988D01*
X8843472Y-7723794D01*
X8848666Y-7718597D01*
X8853863Y-7708206D01*
X8853863Y-7692621D01*
X8843472Y-7682229D01*
X8827884Y-7677035D01*
X8807104Y-7677035D01*
X8791516Y-7682229D01*
X8781125Y-7692621D01*
X8888153Y-7786138D02*
G01*
X8888153Y-7677035D01*
X8888153Y-7786138D02*
G01*
X8934912Y-7786138D01*
X8950497Y-7780944D01*
X8955694Y-7775747D01*
X8960888Y-7765356D01*
X8960888Y-7754965D01*
X8955694Y-7744574D01*
X8950497Y-7739379D01*
X8934912Y-7734185D01*
X8888153Y-7734185D02*
G01*
X8934912Y-7734185D01*
X8950497Y-7728988D01*
X8955694Y-7723794D01*
X8960888Y-7713403D01*
X8960888Y-7697815D01*
X8955694Y-7687424D01*
X8950497Y-7682229D01*
X8934912Y-7677035D01*
X8888153Y-7677035D01*
X9067914Y-7770553D02*
G01*
X9057525Y-7780944D01*
X9041937Y-7786138D01*
X9021155Y-7786138D01*
X9005570Y-7780944D01*
X8995178Y-7770553D01*
X8995178Y-7760162D01*
X9000375Y-7749771D01*
X9005570Y-7744574D01*
X9015961Y-7739379D01*
X9047134Y-7728988D01*
X9057525Y-7723794D01*
X9062720Y-7718597D01*
X9067914Y-7708206D01*
X9067914Y-7692621D01*
X9057525Y-7682229D01*
X9041937Y-7677035D01*
X9021155Y-7677035D01*
X9005570Y-7682229D01*
X8995178Y-7692621D01*
X8383038Y-6451600D02*
G01*
X8273935Y-6451600D01*
X8383038Y-6378864D02*
G01*
X8310303Y-6451600D01*
X8336279Y-6425623D02*
G01*
X8273935Y-6378864D01*
X8383038Y-6344574D02*
G01*
X8273935Y-6344574D01*
X8383038Y-6344574D02*
G01*
X8383038Y-6277033D01*
X8331085Y-6344574D02*
G01*
X8331085Y-6303010D01*
X8273935Y-6344574D02*
G01*
X8273935Y-6277033D01*
X8383038Y-6242743D02*
G01*
X8331085Y-6201178D01*
X8273935Y-6201178D01*
X8383038Y-6159614D02*
G01*
X8331085Y-6201178D01*
X8362256Y-6125324D02*
G01*
X8367453Y-6114935D01*
X8383038Y-6099347D01*
X8273935Y-6099347D01*
X-255015Y-9753600D02*
G01*
X-146050Y-9753600D01*
X-255015Y-9753600D02*
G01*
X-255015Y-9800336D01*
X-249936Y-9815829D01*
X-244602Y-9821163D01*
X-234187Y-9826244D01*
X-218694Y-9826244D01*
X-208279Y-9821163D01*
X-203200Y-9815829D01*
X-197865Y-9800336D01*
X-197865Y-9753600D01*
X-255015Y-9912604D02*
G01*
X-182371Y-9860534D01*
X-182371Y-9938512D01*
X-255015Y-9912604D02*
G01*
X-146050Y-9912604D01*
D56*
X93471Y-9410700D02*
G01*
X87629Y-9422129D01*
X70357Y-9439655D01*
X191770Y-9439655D01*
X353313Y-9416542D02*
G01*
X347471Y-9416542D01*
X336042Y-9422129D01*
X330200Y-9427971D01*
X324357Y-9439655D01*
X324357Y-9462770D01*
X330200Y-9474200D01*
X336042Y-9480042D01*
X347471Y-9485629D01*
X359155Y-9485629D01*
X370586Y-9480042D01*
X387857Y-9468358D01*
X445770Y-9410700D01*
X445770Y-9491471D01*
X578357Y-9422129D02*
G01*
X578357Y-9485629D01*
X624586Y-9451086D01*
X624586Y-9468358D01*
X630428Y-9480042D01*
X636270Y-9485629D01*
X653542Y-9491471D01*
X664971Y-9491471D01*
X682244Y-9485629D01*
X693928Y-9474200D01*
X699770Y-9456928D01*
X699770Y-9439655D01*
X693928Y-9422129D01*
X688086Y-9416542D01*
X676655Y-9410700D01*
X832357Y-9468358D02*
G01*
X913129Y-9410700D01*
X913129Y-9497313D01*
X832357Y-9468358D02*
G01*
X953770Y-9468358D01*
X1086357Y-9480042D02*
G01*
X1086357Y-9422129D01*
X1138428Y-9416542D01*
X1132586Y-9422129D01*
X1126744Y-9439655D01*
X1126744Y-9456928D01*
X1132586Y-9474200D01*
X1144270Y-9485629D01*
X1161542Y-9491471D01*
X1172971Y-9491471D01*
X1190244Y-9485629D01*
X1201928Y-9474200D01*
X1207770Y-9456928D01*
X1207770Y-9439655D01*
X1201928Y-9422129D01*
X1196086Y-9416542D01*
X1184655Y-9410700D01*
X1357629Y-9480042D02*
G01*
X1346200Y-9474200D01*
X1340357Y-9456928D01*
X1340357Y-9445244D01*
X1346200Y-9427971D01*
X1363471Y-9416542D01*
X1392428Y-9410700D01*
X1421129Y-9410700D01*
X1444244Y-9416542D01*
X1455928Y-9427971D01*
X1461770Y-9445244D01*
X1461770Y-9451086D01*
X1455928Y-9468358D01*
X1444244Y-9480042D01*
X1426971Y-9485629D01*
X1421129Y-9485629D01*
X1403857Y-9480042D01*
X1392428Y-9468358D01*
X1386586Y-9451086D01*
X1386586Y-9445244D01*
X1392428Y-9427971D01*
X1403857Y-9416542D01*
X1421129Y-9410700D01*
X1594357Y-9491471D02*
G01*
X1715770Y-9433813D01*
X1594357Y-9410700D02*
G01*
X1594357Y-9491471D01*
X1848357Y-9439655D02*
G01*
X1854200Y-9422129D01*
X1865629Y-9416542D01*
X1877313Y-9416542D01*
X1888744Y-9422129D01*
X1894586Y-9433813D01*
X1900428Y-9456928D01*
X1906270Y-9474200D01*
X1917700Y-9485629D01*
X1929129Y-9491471D01*
X1946656Y-9491471D01*
X1958086Y-9485629D01*
X1963927Y-9480042D01*
X1969770Y-9462770D01*
X1969770Y-9439655D01*
X1963927Y-9422129D01*
X1958086Y-9416542D01*
X1946656Y-9410700D01*
X1929129Y-9410700D01*
X1917700Y-9416542D01*
X1906270Y-9427971D01*
X1900428Y-9445244D01*
X1894586Y-9468358D01*
X1888744Y-9480042D01*
X1877313Y-9485629D01*
X1865629Y-9485629D01*
X1854200Y-9480042D01*
X1848357Y-9462770D01*
X1848357Y-9439655D01*
X2142743Y-9485629D02*
G01*
X2160270Y-9480042D01*
X2171700Y-9468358D01*
X2177541Y-9451086D01*
X2177541Y-9445244D01*
X2171700Y-9427971D01*
X2160270Y-9416542D01*
X2142743Y-9410700D01*
X2137156Y-9410700D01*
X2119629Y-9416542D01*
X2108200Y-9427971D01*
X2102358Y-9445244D01*
X2102358Y-9451086D01*
X2108200Y-9468358D01*
X2119629Y-9480042D01*
X2142743Y-9485629D01*
X2171700Y-9485629D01*
X2200656Y-9480042D01*
X2217927Y-9468358D01*
X2223770Y-9451086D01*
X2223770Y-9439655D01*
X2217927Y-9422129D01*
X2206243Y-9416542D01*
X2379472Y-9347200D02*
G01*
X2373629Y-9358629D01*
X2356358Y-9376155D01*
X2477770Y-9376155D01*
X2356358Y-9448800D02*
G01*
X2362200Y-9431528D01*
X2379472Y-9419844D01*
X2408427Y-9414255D01*
X2425700Y-9414255D01*
X2454656Y-9419844D01*
X2471927Y-9431528D01*
X2477770Y-9448800D01*
X2477770Y-9460229D01*
X2471927Y-9477755D01*
X2454656Y-9489186D01*
X2425700Y-9495028D01*
X2408427Y-9495028D01*
X2379472Y-9489186D01*
X2362200Y-9477755D01*
X2356358Y-9460229D01*
X2356358Y-9448800D01*
X2471927Y-8521700D02*
G01*
X2477770Y-8510270D01*
X2495041Y-8492744D01*
X2373629Y-8492744D01*
X2212086Y-8515858D02*
G01*
X2217927Y-8515858D01*
X2229358Y-8510270D01*
X2235200Y-8504428D01*
X2241041Y-8492744D01*
X2241041Y-8469629D01*
X2235200Y-8458200D01*
X2229358Y-8452358D01*
X2217927Y-8446770D01*
X2206243Y-8446770D01*
X2194813Y-8452358D01*
X2177541Y-8464042D01*
X2119629Y-8521700D01*
X2119629Y-8440928D01*
X1987041Y-8510270D02*
G01*
X1987041Y-8446770D01*
X1940813Y-8481313D01*
X1940813Y-8464042D01*
X1934972Y-8452358D01*
X1929129Y-8446770D01*
X1911857Y-8440928D01*
X1900428Y-8440928D01*
X1883155Y-8446770D01*
X1871471Y-8458200D01*
X1865629Y-8475471D01*
X1865629Y-8492744D01*
X1871471Y-8510270D01*
X1877313Y-8515858D01*
X1888744Y-8521700D01*
X1733042Y-8464042D02*
G01*
X1652270Y-8521700D01*
X1652270Y-8435086D01*
X1733042Y-8464042D02*
G01*
X1611629Y-8464042D01*
X1479042Y-8452358D02*
G01*
X1479042Y-8510270D01*
X1426971Y-8515858D01*
X1432813Y-8510270D01*
X1438655Y-8492744D01*
X1438655Y-8475471D01*
X1432813Y-8458200D01*
X1421129Y-8446770D01*
X1403857Y-8440928D01*
X1392428Y-8440928D01*
X1375155Y-8446770D01*
X1363471Y-8458200D01*
X1357629Y-8475471D01*
X1357629Y-8492744D01*
X1363471Y-8510270D01*
X1369313Y-8515858D01*
X1380744Y-8521700D01*
X1207770Y-8452358D02*
G01*
X1219200Y-8458200D01*
X1225042Y-8475471D01*
X1225042Y-8487155D01*
X1219200Y-8504428D01*
X1201928Y-8515858D01*
X1172971Y-8521700D01*
X1144270Y-8521700D01*
X1121155Y-8515858D01*
X1109471Y-8504428D01*
X1103629Y-8487155D01*
X1103629Y-8481313D01*
X1109471Y-8464042D01*
X1121155Y-8452358D01*
X1138428Y-8446770D01*
X1144270Y-8446770D01*
X1161542Y-8452358D01*
X1172971Y-8464042D01*
X1178813Y-8481313D01*
X1178813Y-8487155D01*
X1172971Y-8504428D01*
X1161542Y-8515858D01*
X1144270Y-8521700D01*
X971042Y-8440928D02*
G01*
X849629Y-8498586D01*
X971042Y-8521700D02*
G01*
X971042Y-8440928D01*
X717042Y-8492744D02*
G01*
X711200Y-8510270D01*
X699770Y-8515858D01*
X688086Y-8515858D01*
X676655Y-8510270D01*
X670813Y-8498586D01*
X664971Y-8475471D01*
X659129Y-8458200D01*
X647700Y-8446770D01*
X636270Y-8440928D01*
X618744Y-8440928D01*
X607313Y-8446770D01*
X601471Y-8452358D01*
X595629Y-8469629D01*
X595629Y-8492744D01*
X601471Y-8510270D01*
X607313Y-8515858D01*
X618744Y-8521700D01*
X636270Y-8521700D01*
X647700Y-8515858D01*
X659129Y-8504428D01*
X664971Y-8487155D01*
X670813Y-8464042D01*
X676655Y-8452358D01*
X688086Y-8446770D01*
X699770Y-8446770D01*
X711200Y-8452358D01*
X717042Y-8469629D01*
X717042Y-8492744D01*
X422655Y-8446770D02*
G01*
X405129Y-8452358D01*
X393700Y-8464042D01*
X387857Y-8481313D01*
X387857Y-8487155D01*
X393700Y-8504428D01*
X405129Y-8515858D01*
X422655Y-8521700D01*
X428244Y-8521700D01*
X445770Y-8515858D01*
X457200Y-8504428D01*
X463042Y-8487155D01*
X463042Y-8481313D01*
X457200Y-8464042D01*
X445770Y-8452358D01*
X422655Y-8446770D01*
X393700Y-8446770D01*
X364744Y-8452358D01*
X347471Y-8464042D01*
X341629Y-8481313D01*
X341629Y-8492744D01*
X347471Y-8510270D01*
X359155Y-8515858D01*
X185928Y-8585200D02*
G01*
X191770Y-8573770D01*
X209042Y-8556244D01*
X87629Y-8556244D01*
X209042Y-8483600D02*
G01*
X203200Y-8500871D01*
X185928Y-8512555D01*
X156971Y-8518144D01*
X139700Y-8518144D01*
X110744Y-8512555D01*
X93471Y-8500871D01*
X87629Y-8483600D01*
X87629Y-8472170D01*
X93471Y-8454644D01*
X110744Y-8443213D01*
X139700Y-8437371D01*
X156971Y-8437371D01*
X185928Y-8443213D01*
X203200Y-8454644D01*
X209042Y-8472170D01*
X209042Y-8483600D01*
X4597400Y-7522971D02*
G01*
X4585970Y-7517129D01*
X4568443Y-7499858D01*
X4568443Y-7621270D01*
X4591558Y-7782813D02*
G01*
X4591558Y-7776971D01*
X4585970Y-7765542D01*
X4580127Y-7759700D01*
X4568443Y-7753858D01*
X4545329Y-7753858D01*
X4533900Y-7759700D01*
X4528058Y-7765542D01*
X4522470Y-7776971D01*
X4522470Y-7788655D01*
X4528058Y-7800086D01*
X4539741Y-7817358D01*
X4597400Y-7875270D01*
X4516627Y-7875270D01*
X4585970Y-8007858D02*
G01*
X4522470Y-8007858D01*
X4557013Y-8054086D01*
X4539741Y-8054086D01*
X4528058Y-8059928D01*
X4522470Y-8065770D01*
X4516627Y-8083042D01*
X4516627Y-8094471D01*
X4522470Y-8111744D01*
X4533900Y-8123428D01*
X4551172Y-8129270D01*
X4568443Y-8129270D01*
X4585970Y-8123428D01*
X4591558Y-8117586D01*
X4597400Y-8106155D01*
X4539741Y-8261858D02*
G01*
X4597400Y-8342629D01*
X4510786Y-8342629D01*
X4539741Y-8261858D02*
G01*
X4539741Y-8383270D01*
X4528058Y-8515858D02*
G01*
X4585970Y-8515858D01*
X4591558Y-8567928D01*
X4585970Y-8562086D01*
X4568443Y-8556244D01*
X4551172Y-8556244D01*
X4533900Y-8562086D01*
X4522470Y-8573770D01*
X4516627Y-8591042D01*
X4516627Y-8602471D01*
X4522470Y-8619744D01*
X4533900Y-8631428D01*
X4551172Y-8637270D01*
X4568443Y-8637270D01*
X4585970Y-8631428D01*
X4591558Y-8625586D01*
X4597400Y-8614155D01*
X4528058Y-8787129D02*
G01*
X4533900Y-8775700D01*
X4551172Y-8769858D01*
X4562856Y-8769858D01*
X4580127Y-8775700D01*
X4591558Y-8792971D01*
X4597400Y-8821928D01*
X4597400Y-8850629D01*
X4591558Y-8873744D01*
X4580127Y-8885428D01*
X4562856Y-8891270D01*
X4557013Y-8891270D01*
X4539741Y-8885428D01*
X4528058Y-8873744D01*
X4522470Y-8856471D01*
X4522470Y-8850629D01*
X4528058Y-8833358D01*
X4539741Y-8821928D01*
X4557013Y-8816086D01*
X4562856Y-8816086D01*
X4580127Y-8821928D01*
X4591558Y-8833358D01*
X4597400Y-8850629D01*
X4516627Y-9023858D02*
G01*
X4574286Y-9145270D01*
X4597400Y-9023858D02*
G01*
X4516627Y-9023858D01*
X4568443Y-9277858D02*
G01*
X4585970Y-9283700D01*
X4591558Y-9295129D01*
X4591558Y-9306813D01*
X4585970Y-9318244D01*
X4574286Y-9324086D01*
X4551172Y-9329928D01*
X4533900Y-9335770D01*
X4522470Y-9347200D01*
X4516627Y-9358629D01*
X4516627Y-9376155D01*
X4522470Y-9387586D01*
X4528058Y-9393428D01*
X4545329Y-9399270D01*
X4568443Y-9399270D01*
X4585970Y-9393428D01*
X4591558Y-9387586D01*
X4597400Y-9376155D01*
X4597400Y-9358629D01*
X4591558Y-9347200D01*
X4580127Y-9335770D01*
X4562856Y-9329928D01*
X4539741Y-9324086D01*
X4528058Y-9318244D01*
X4522470Y-9306813D01*
X4522470Y-9295129D01*
X4528058Y-9283700D01*
X4545329Y-9277858D01*
X4568443Y-9277858D01*
X4522470Y-9572244D02*
G01*
X4528058Y-9589770D01*
X4539741Y-9601200D01*
X4557013Y-9607042D01*
X4562856Y-9607042D01*
X4580127Y-9601200D01*
X4591558Y-9589770D01*
X4597400Y-9572244D01*
X4597400Y-9566655D01*
X4591558Y-9549129D01*
X4580127Y-9537700D01*
X4562856Y-9531858D01*
X4557013Y-9531858D01*
X4539741Y-9537700D01*
X4528058Y-9549129D01*
X4522470Y-9572244D01*
X4522470Y-9601200D01*
X4528058Y-9630155D01*
X4539741Y-9647428D01*
X4557013Y-9653270D01*
X4568443Y-9653270D01*
X4585970Y-9647428D01*
X4591558Y-9635744D01*
X4660900Y-9808971D02*
G01*
X4649470Y-9803129D01*
X4631943Y-9785858D01*
X4631943Y-9907270D01*
X4559300Y-9785858D02*
G01*
X4576572Y-9791700D01*
X4588256Y-9808971D01*
X4593843Y-9837928D01*
X4593843Y-9855200D01*
X4588256Y-9884155D01*
X4576572Y-9901428D01*
X4559300Y-9907270D01*
X4547870Y-9907270D01*
X4530343Y-9901428D01*
X4518913Y-9884155D01*
X4513072Y-9855200D01*
X4513072Y-9837928D01*
X4518913Y-9808971D01*
X4530343Y-9791700D01*
X4547870Y-9785858D01*
X4559300Y-9785858D01*
D63*
X5321300Y-10249915D02*
G01*
X5321300Y-10140950D01*
X5321300Y-10249915D02*
G01*
X5368036Y-10249915D01*
X5383529Y-10244836D01*
X5388863Y-10239502D01*
X5393943Y-10229087D01*
X5393943Y-10213594D01*
X5388863Y-10203179D01*
X5383529Y-10198100D01*
X5368036Y-10192765D01*
X5321300Y-10192765D01*
X5501131Y-10249915D02*
G01*
X5449061Y-10140950D01*
X5428234Y-10249915D02*
G01*
X5501131Y-10249915D01*
D56*
X4978400Y-9901428D02*
G01*
X4989829Y-9907270D01*
X5007356Y-9924542D01*
X5007356Y-9803129D01*
X4984241Y-9641586D02*
G01*
X4984241Y-9647428D01*
X4989829Y-9658858D01*
X4995672Y-9664700D01*
X5007356Y-9670542D01*
X5030470Y-9670542D01*
X5041900Y-9664700D01*
X5047741Y-9658858D01*
X5053329Y-9647428D01*
X5053329Y-9635744D01*
X5047741Y-9624313D01*
X5036058Y-9607042D01*
X4978400Y-9549129D01*
X5059172Y-9549129D01*
X4989829Y-9416542D02*
G01*
X5053329Y-9416542D01*
X5018786Y-9370313D01*
X5036058Y-9370313D01*
X5047741Y-9364471D01*
X5053329Y-9358629D01*
X5059172Y-9341358D01*
X5059172Y-9329928D01*
X5053329Y-9312655D01*
X5041900Y-9300971D01*
X5024627Y-9295129D01*
X5007356Y-9295129D01*
X4989829Y-9300971D01*
X4984241Y-9306813D01*
X4978400Y-9318244D01*
X5036058Y-9162542D02*
G01*
X4978400Y-9081770D01*
X5065013Y-9081770D01*
X5036058Y-9162542D02*
G01*
X5036058Y-9041129D01*
X5047741Y-8908542D02*
G01*
X4989829Y-8908542D01*
X4984241Y-8856471D01*
X4989829Y-8862313D01*
X5007356Y-8868155D01*
X5024627Y-8868155D01*
X5041900Y-8862313D01*
X5053329Y-8850629D01*
X5059172Y-8833358D01*
X5059172Y-8821928D01*
X5053329Y-8804655D01*
X5041900Y-8792971D01*
X5024627Y-8787129D01*
X5007356Y-8787129D01*
X4989829Y-8792971D01*
X4984241Y-8798813D01*
X4978400Y-8810244D01*
X5047741Y-8637270D02*
G01*
X5041900Y-8648700D01*
X5024627Y-8654542D01*
X5012943Y-8654542D01*
X4995672Y-8648700D01*
X4984241Y-8631428D01*
X4978400Y-8602471D01*
X4978400Y-8573770D01*
X4984241Y-8550655D01*
X4995672Y-8538971D01*
X5012943Y-8533129D01*
X5018786Y-8533129D01*
X5036058Y-8538971D01*
X5047741Y-8550655D01*
X5053329Y-8567928D01*
X5053329Y-8573770D01*
X5047741Y-8591042D01*
X5036058Y-8602471D01*
X5018786Y-8608313D01*
X5012943Y-8608313D01*
X4995672Y-8602471D01*
X4984241Y-8591042D01*
X4978400Y-8573770D01*
X5059172Y-8400542D02*
G01*
X5001513Y-8279129D01*
X4978400Y-8400542D02*
G01*
X5059172Y-8400542D01*
X5007356Y-8146542D02*
G01*
X4989829Y-8140700D01*
X4984241Y-8129270D01*
X4984241Y-8117586D01*
X4989829Y-8106155D01*
X5001513Y-8100313D01*
X5024627Y-8094471D01*
X5041900Y-8088629D01*
X5053329Y-8077200D01*
X5059172Y-8065770D01*
X5059172Y-8048244D01*
X5053329Y-8036813D01*
X5047741Y-8030971D01*
X5030470Y-8025129D01*
X5007356Y-8025129D01*
X4989829Y-8030971D01*
X4984241Y-8036813D01*
X4978400Y-8048244D01*
X4978400Y-8065770D01*
X4984241Y-8077200D01*
X4995672Y-8088629D01*
X5012943Y-8094471D01*
X5036058Y-8100313D01*
X5047741Y-8106155D01*
X5053329Y-8117586D01*
X5053329Y-8129270D01*
X5047741Y-8140700D01*
X5030470Y-8146542D01*
X5007356Y-8146542D01*
X5053329Y-7852155D02*
G01*
X5047741Y-7834629D01*
X5036058Y-7823200D01*
X5018786Y-7817358D01*
X5012943Y-7817358D01*
X4995672Y-7823200D01*
X4984241Y-7834629D01*
X4978400Y-7852155D01*
X4978400Y-7857744D01*
X4984241Y-7875270D01*
X4995672Y-7886700D01*
X5012943Y-7892542D01*
X5018786Y-7892542D01*
X5036058Y-7886700D01*
X5047741Y-7875270D01*
X5053329Y-7852155D01*
X5053329Y-7823200D01*
X5047741Y-7794244D01*
X5036058Y-7776971D01*
X5018786Y-7771129D01*
X5007356Y-7771129D01*
X4989829Y-7776971D01*
X4984241Y-7788655D01*
X4914900Y-7615428D02*
G01*
X4926329Y-7621270D01*
X4943856Y-7638542D01*
X4943856Y-7517129D01*
X5016500Y-7638542D02*
G01*
X4999227Y-7632700D01*
X4987543Y-7615428D01*
X4981956Y-7586471D01*
X4981956Y-7569200D01*
X4987543Y-7540244D01*
X4999227Y-7522971D01*
X5016500Y-7517129D01*
X5027929Y-7517129D01*
X5045456Y-7522971D01*
X5056886Y-7540244D01*
X5062727Y-7569200D01*
X5062727Y-7586471D01*
X5056886Y-7615428D01*
X5045456Y-7632700D01*
X5027929Y-7638542D01*
X5016500Y-7638542D01*
D63*
X7073900Y-10249915D02*
G01*
X7073900Y-10140950D01*
X7073900Y-10249915D02*
G01*
X7120636Y-10249915D01*
X7136129Y-10244836D01*
X7141463Y-10239502D01*
X7146543Y-10229087D01*
X7146543Y-10213594D01*
X7141463Y-10203179D01*
X7136129Y-10198100D01*
X7120636Y-10192765D01*
X7073900Y-10192765D01*
X7206995Y-10249915D02*
G01*
X7191247Y-10244836D01*
X7186168Y-10234421D01*
X7186168Y-10224008D01*
X7191247Y-10213594D01*
X7201661Y-10208260D01*
X7222490Y-10203179D01*
X7237984Y-10198100D01*
X7248397Y-10187686D01*
X7253731Y-10177271D01*
X7253731Y-10161524D01*
X7248397Y-10151110D01*
X7243318Y-10146029D01*
X7227570Y-10140950D01*
X7206995Y-10140950D01*
X7191247Y-10146029D01*
X7186168Y-10151110D01*
X7180834Y-10161524D01*
X7180834Y-10177271D01*
X7186168Y-10187686D01*
X7196581Y-10198100D01*
X7212075Y-10203179D01*
X7232904Y-10208260D01*
X7243318Y-10213594D01*
X7248397Y-10224008D01*
X7248397Y-10234421D01*
X7243318Y-10244836D01*
X7227570Y-10249915D01*
X7206995Y-10249915D01*
D56*
X6731000Y-9901428D02*
G01*
X6742429Y-9907270D01*
X6759956Y-9924542D01*
X6759956Y-9803129D01*
X6736841Y-9641586D02*
G01*
X6736841Y-9647428D01*
X6742429Y-9658858D01*
X6748272Y-9664700D01*
X6759956Y-9670542D01*
X6783070Y-9670542D01*
X6794500Y-9664700D01*
X6800341Y-9658858D01*
X6805929Y-9647428D01*
X6805929Y-9635744D01*
X6800341Y-9624313D01*
X6788658Y-9607042D01*
X6731000Y-9549129D01*
X6811772Y-9549129D01*
X6742429Y-9416542D02*
G01*
X6805929Y-9416542D01*
X6771386Y-9370313D01*
X6788658Y-9370313D01*
X6800341Y-9364471D01*
X6805929Y-9358629D01*
X6811772Y-9341358D01*
X6811772Y-9329928D01*
X6805929Y-9312655D01*
X6794500Y-9300971D01*
X6777227Y-9295129D01*
X6759956Y-9295129D01*
X6742429Y-9300971D01*
X6736841Y-9306813D01*
X6731000Y-9318244D01*
X6788658Y-9162542D02*
G01*
X6731000Y-9081770D01*
X6817613Y-9081770D01*
X6788658Y-9162542D02*
G01*
X6788658Y-9041129D01*
X6800341Y-8908542D02*
G01*
X6742429Y-8908542D01*
X6736841Y-8856471D01*
X6742429Y-8862313D01*
X6759956Y-8868155D01*
X6777227Y-8868155D01*
X6794500Y-8862313D01*
X6805929Y-8850629D01*
X6811772Y-8833358D01*
X6811772Y-8821928D01*
X6805929Y-8804655D01*
X6794500Y-8792971D01*
X6777227Y-8787129D01*
X6759956Y-8787129D01*
X6742429Y-8792971D01*
X6736841Y-8798813D01*
X6731000Y-8810244D01*
X6800341Y-8637270D02*
G01*
X6794500Y-8648700D01*
X6777227Y-8654542D01*
X6765543Y-8654542D01*
X6748272Y-8648700D01*
X6736841Y-8631428D01*
X6731000Y-8602471D01*
X6731000Y-8573770D01*
X6736841Y-8550655D01*
X6748272Y-8538971D01*
X6765543Y-8533129D01*
X6771386Y-8533129D01*
X6788658Y-8538971D01*
X6800341Y-8550655D01*
X6805929Y-8567928D01*
X6805929Y-8573770D01*
X6800341Y-8591042D01*
X6788658Y-8602471D01*
X6771386Y-8608313D01*
X6765543Y-8608313D01*
X6748272Y-8602471D01*
X6736841Y-8591042D01*
X6731000Y-8573770D01*
X6811772Y-8400542D02*
G01*
X6754113Y-8279129D01*
X6731000Y-8400542D02*
G01*
X6811772Y-8400542D01*
X6759956Y-8146542D02*
G01*
X6742429Y-8140700D01*
X6736841Y-8129270D01*
X6736841Y-8117586D01*
X6742429Y-8106155D01*
X6754113Y-8100313D01*
X6777227Y-8094471D01*
X6794500Y-8088629D01*
X6805929Y-8077200D01*
X6811772Y-8065770D01*
X6811772Y-8048244D01*
X6805929Y-8036813D01*
X6800341Y-8030971D01*
X6783070Y-8025129D01*
X6759956Y-8025129D01*
X6742429Y-8030971D01*
X6736841Y-8036813D01*
X6731000Y-8048244D01*
X6731000Y-8065770D01*
X6736841Y-8077200D01*
X6748272Y-8088629D01*
X6765543Y-8094471D01*
X6788658Y-8100313D01*
X6800341Y-8106155D01*
X6805929Y-8117586D01*
X6805929Y-8129270D01*
X6800341Y-8140700D01*
X6783070Y-8146542D01*
X6759956Y-8146542D01*
X6805929Y-7852155D02*
G01*
X6800341Y-7834629D01*
X6788658Y-7823200D01*
X6771386Y-7817358D01*
X6765543Y-7817358D01*
X6748272Y-7823200D01*
X6736841Y-7834629D01*
X6731000Y-7852155D01*
X6731000Y-7857744D01*
X6736841Y-7875270D01*
X6748272Y-7886700D01*
X6765543Y-7892542D01*
X6771386Y-7892542D01*
X6788658Y-7886700D01*
X6800341Y-7875270D01*
X6805929Y-7852155D01*
X6805929Y-7823200D01*
X6800341Y-7794244D01*
X6788658Y-7776971D01*
X6771386Y-7771129D01*
X6759956Y-7771129D01*
X6742429Y-7776971D01*
X6736841Y-7788655D01*
X6667500Y-7615428D02*
G01*
X6678929Y-7621270D01*
X6696456Y-7638542D01*
X6696456Y-7517129D01*
X6769100Y-7638542D02*
G01*
X6751827Y-7632700D01*
X6740143Y-7615428D01*
X6734556Y-7586471D01*
X6734556Y-7569200D01*
X6740143Y-7540244D01*
X6751827Y-7522971D01*
X6769100Y-7517129D01*
X6780529Y-7517129D01*
X6798056Y-7522971D01*
X6809486Y-7540244D01*
X6815327Y-7569200D01*
X6815327Y-7586471D01*
X6809486Y-7615428D01*
X6798056Y-7632700D01*
X6780529Y-7638542D01*
X6769100Y-7638542D01*
X6667500Y-7361428D02*
G01*
X6678929Y-7367270D01*
X6696456Y-7384542D01*
X6696456Y-7263129D01*
X6734556Y-7361428D02*
G01*
X6745986Y-7367270D01*
X6763258Y-7384542D01*
X6763258Y-7263129D01*
X6667500Y-7107428D02*
G01*
X6678929Y-7113270D01*
X6696456Y-7130542D01*
X6696456Y-7009129D01*
X6740143Y-7101586D02*
G01*
X6740143Y-7107428D01*
X6745986Y-7118858D01*
X6751827Y-7124700D01*
X6763258Y-7130542D01*
X6786372Y-7130542D01*
X6798056Y-7124700D01*
X6803643Y-7118858D01*
X6809486Y-7107428D01*
X6809486Y-7095744D01*
X6803643Y-7084313D01*
X6792213Y-7067042D01*
X6734556Y-7009129D01*
X6815327Y-7009129D01*
X6667500Y-6853428D02*
G01*
X6678929Y-6859270D01*
X6696456Y-6876542D01*
X6696456Y-6755129D01*
X6745986Y-6876542D02*
G01*
X6809486Y-6876542D01*
X6774941Y-6830313D01*
X6792213Y-6830313D01*
X6803643Y-6824471D01*
X6809486Y-6818629D01*
X6815327Y-6801358D01*
X6815327Y-6789928D01*
X6809486Y-6772655D01*
X6798056Y-6760971D01*
X6780529Y-6755129D01*
X6763258Y-6755129D01*
X6745986Y-6760971D01*
X6740143Y-6766813D01*
X6734556Y-6778244D01*
X6667500Y-6599428D02*
G01*
X6678929Y-6605270D01*
X6696456Y-6622542D01*
X6696456Y-6501129D01*
X6792213Y-6622542D02*
G01*
X6734556Y-6541770D01*
X6821170Y-6541770D01*
X6792213Y-6622542D02*
G01*
X6792213Y-6501129D01*
X6667500Y-6345428D02*
G01*
X6678929Y-6351270D01*
X6696456Y-6368542D01*
X6696456Y-6247129D01*
X6803643Y-6368542D02*
G01*
X6745986Y-6368542D01*
X6740143Y-6316471D01*
X6745986Y-6322313D01*
X6763258Y-6328155D01*
X6780529Y-6328155D01*
X6798056Y-6322313D01*
X6809486Y-6310629D01*
X6815327Y-6293357D01*
X6815327Y-6281928D01*
X6809486Y-6264655D01*
X6798056Y-6252971D01*
X6780529Y-6247129D01*
X6763258Y-6247129D01*
X6745986Y-6252971D01*
X6740143Y-6258813D01*
X6734556Y-6270244D01*
X6604000Y-6252971D02*
G01*
X6592570Y-6247129D01*
X6575043Y-6229857D01*
X6575043Y-6351270D01*
X6598158Y-6512813D02*
G01*
X6598158Y-6506971D01*
X6592570Y-6495542D01*
X6586727Y-6489700D01*
X6575043Y-6483857D01*
X6551929Y-6483857D01*
X6540500Y-6489700D01*
X6534658Y-6495542D01*
X6529070Y-6506971D01*
X6529070Y-6518655D01*
X6534658Y-6530086D01*
X6546341Y-6547357D01*
X6604000Y-6605270D01*
X6523227Y-6605270D01*
X6592570Y-6737858D02*
G01*
X6529070Y-6737858D01*
X6563613Y-6784086D01*
X6546341Y-6784086D01*
X6534658Y-6789928D01*
X6529070Y-6795770D01*
X6523227Y-6813042D01*
X6523227Y-6824471D01*
X6529070Y-6841744D01*
X6540500Y-6853428D01*
X6557772Y-6859270D01*
X6575043Y-6859270D01*
X6592570Y-6853428D01*
X6598158Y-6847586D01*
X6604000Y-6836155D01*
X6546341Y-6991858D02*
G01*
X6604000Y-7072629D01*
X6517386Y-7072629D01*
X6546341Y-6991858D02*
G01*
X6546341Y-7113270D01*
X6534658Y-7245858D02*
G01*
X6592570Y-7245858D01*
X6598158Y-7297928D01*
X6592570Y-7292086D01*
X6575043Y-7286244D01*
X6557772Y-7286244D01*
X6540500Y-7292086D01*
X6529070Y-7303770D01*
X6523227Y-7321042D01*
X6523227Y-7332471D01*
X6529070Y-7349744D01*
X6540500Y-7361428D01*
X6557772Y-7367270D01*
X6575043Y-7367270D01*
X6592570Y-7361428D01*
X6598158Y-7355586D01*
X6604000Y-7344155D01*
X6534658Y-7517129D02*
G01*
X6540500Y-7505700D01*
X6557772Y-7499858D01*
X6569456Y-7499858D01*
X6586727Y-7505700D01*
X6598158Y-7522971D01*
X6604000Y-7551928D01*
X6604000Y-7580629D01*
X6598158Y-7603744D01*
X6586727Y-7615428D01*
X6569456Y-7621270D01*
X6563613Y-7621270D01*
X6546341Y-7615428D01*
X6534658Y-7603744D01*
X6529070Y-7586471D01*
X6529070Y-7580629D01*
X6534658Y-7563358D01*
X6546341Y-7551928D01*
X6563613Y-7546086D01*
X6569456Y-7546086D01*
X6586727Y-7551928D01*
X6598158Y-7563358D01*
X6604000Y-7580629D01*
X6523227Y-7753858D02*
G01*
X6580886Y-7875270D01*
X6604000Y-7753858D02*
G01*
X6523227Y-7753858D01*
X6575043Y-8007858D02*
G01*
X6592570Y-8013700D01*
X6598158Y-8025129D01*
X6598158Y-8036813D01*
X6592570Y-8048244D01*
X6580886Y-8054086D01*
X6557772Y-8059928D01*
X6540500Y-8065770D01*
X6529070Y-8077200D01*
X6523227Y-8088629D01*
X6523227Y-8106155D01*
X6529070Y-8117586D01*
X6534658Y-8123428D01*
X6551929Y-8129270D01*
X6575043Y-8129270D01*
X6592570Y-8123428D01*
X6598158Y-8117586D01*
X6604000Y-8106155D01*
X6604000Y-8088629D01*
X6598158Y-8077200D01*
X6586727Y-8065770D01*
X6569456Y-8059928D01*
X6546341Y-8054086D01*
X6534658Y-8048244D01*
X6529070Y-8036813D01*
X6529070Y-8025129D01*
X6534658Y-8013700D01*
X6551929Y-8007858D01*
X6575043Y-8007858D01*
X6529070Y-8302244D02*
G01*
X6534658Y-8319770D01*
X6546341Y-8331200D01*
X6563613Y-8337042D01*
X6569456Y-8337042D01*
X6586727Y-8331200D01*
X6598158Y-8319770D01*
X6604000Y-8302244D01*
X6604000Y-8296655D01*
X6598158Y-8279129D01*
X6586727Y-8267700D01*
X6569456Y-8261858D01*
X6563613Y-8261858D01*
X6546341Y-8267700D01*
X6534658Y-8279129D01*
X6529070Y-8302244D01*
X6529070Y-8331200D01*
X6534658Y-8360155D01*
X6546341Y-8377428D01*
X6563613Y-8383270D01*
X6575043Y-8383270D01*
X6592570Y-8377428D01*
X6598158Y-8365744D01*
X6667500Y-8538971D02*
G01*
X6656070Y-8533129D01*
X6638543Y-8515858D01*
X6638543Y-8637270D01*
X6565900Y-8515858D02*
G01*
X6583172Y-8521700D01*
X6594856Y-8538971D01*
X6600443Y-8567928D01*
X6600443Y-8585200D01*
X6594856Y-8614155D01*
X6583172Y-8631428D01*
X6565900Y-8637270D01*
X6554470Y-8637270D01*
X6536943Y-8631428D01*
X6525513Y-8614155D01*
X6519672Y-8585200D01*
X6519672Y-8567928D01*
X6525513Y-8538971D01*
X6536943Y-8521700D01*
X6554470Y-8515858D01*
X6565900Y-8515858D01*
X6667500Y-8792971D02*
G01*
X6656070Y-8787129D01*
X6638543Y-8769858D01*
X6638543Y-8891270D01*
X6600443Y-8792971D02*
G01*
X6589013Y-8787129D01*
X6571741Y-8769858D01*
X6571741Y-8891270D01*
X6667500Y-9046971D02*
G01*
X6656070Y-9041129D01*
X6638543Y-9023858D01*
X6638543Y-9145270D01*
X6594856Y-9052813D02*
G01*
X6594856Y-9046971D01*
X6589013Y-9035542D01*
X6583172Y-9029700D01*
X6571741Y-9023858D01*
X6548627Y-9023858D01*
X6536943Y-9029700D01*
X6531356Y-9035542D01*
X6525513Y-9046971D01*
X6525513Y-9058655D01*
X6531356Y-9070086D01*
X6542786Y-9087358D01*
X6600443Y-9145270D01*
X6519672Y-9145270D01*
X6667500Y-9300971D02*
G01*
X6656070Y-9295129D01*
X6638543Y-9277858D01*
X6638543Y-9399270D01*
X6589013Y-9277858D02*
G01*
X6525513Y-9277858D01*
X6560058Y-9324086D01*
X6542786Y-9324086D01*
X6531356Y-9329928D01*
X6525513Y-9335770D01*
X6519672Y-9353042D01*
X6519672Y-9364471D01*
X6525513Y-9381744D01*
X6536943Y-9393428D01*
X6554470Y-9399270D01*
X6571741Y-9399270D01*
X6589013Y-9393428D01*
X6594856Y-9387586D01*
X6600443Y-9376155D01*
X6667500Y-9554971D02*
G01*
X6656070Y-9549129D01*
X6638543Y-9531858D01*
X6638543Y-9653270D01*
X6542786Y-9531858D02*
G01*
X6600443Y-9612629D01*
X6513829Y-9612629D01*
X6542786Y-9531858D02*
G01*
X6542786Y-9653270D01*
X6667500Y-9808971D02*
G01*
X6656070Y-9803129D01*
X6638543Y-9785858D01*
X6638543Y-9907270D01*
X6531356Y-9785858D02*
G01*
X6589013Y-9785858D01*
X6594856Y-9837928D01*
X6589013Y-9832086D01*
X6571741Y-9826244D01*
X6554470Y-9826244D01*
X6536943Y-9832086D01*
X6525513Y-9843770D01*
X6519672Y-9861042D01*
X6519672Y-9872471D01*
X6525513Y-9889744D01*
X6536943Y-9901428D01*
X6554470Y-9907270D01*
X6571741Y-9907270D01*
X6589013Y-9901428D01*
X6594856Y-9895586D01*
X6600443Y-9884155D01*
D63*
X7696200Y255015D02*
G01*
X7696200Y146050D01*
X7696200Y255015D02*
G01*
X7649463Y255015D01*
X7633970Y249936D01*
X7628636Y244602D01*
X7623556Y234187D01*
X7623556Y218694D01*
X7628636Y208279D01*
X7633970Y203200D01*
X7649463Y197865D01*
X7696200Y197865D01*
X7589265Y234187D02*
G01*
X7578852Y239521D01*
X7563104Y255015D01*
X7563104Y146050D01*
X7497825Y255015D02*
G01*
X7513320Y249936D01*
X7523734Y234187D01*
X7528813Y208279D01*
X7528813Y192786D01*
X7523734Y166623D01*
X7513320Y151129D01*
X7497825Y146050D01*
X7487411Y146050D01*
X7471663Y151129D01*
X7461250Y166623D01*
X7456170Y192786D01*
X7456170Y208279D01*
X7461250Y234187D01*
X7471663Y249936D01*
X7487411Y255015D01*
X7497825Y255015D01*
D56*
X8013700Y-93471D02*
G01*
X8002270Y-87629D01*
X7984743Y-70357D01*
X7984743Y-191770D01*
X8007858Y-353313D02*
G01*
X8007858Y-347471D01*
X8002270Y-336042D01*
X7996427Y-330200D01*
X7984743Y-324357D01*
X7961629Y-324357D01*
X7950200Y-330200D01*
X7944358Y-336042D01*
X7938770Y-347471D01*
X7938770Y-359155D01*
X7944358Y-370586D01*
X7956041Y-387857D01*
X8013700Y-445770D01*
X7932927Y-445770D01*
X8002270Y-578357D02*
G01*
X7938770Y-578357D01*
X7973313Y-624586D01*
X7956041Y-624586D01*
X7944358Y-630428D01*
X7938770Y-636270D01*
X7932927Y-653542D01*
X7932927Y-664971D01*
X7938770Y-682244D01*
X7950200Y-693928D01*
X7967472Y-699770D01*
X7984743Y-699770D01*
X8002270Y-693928D01*
X8007858Y-688086D01*
X8013700Y-676655D01*
X7956041Y-832357D02*
G01*
X8013700Y-913129D01*
X7927086Y-913129D01*
X7956041Y-832357D02*
G01*
X7956041Y-953770D01*
X7944358Y-1086357D02*
G01*
X8002270Y-1086357D01*
X8007858Y-1138428D01*
X8002270Y-1132586D01*
X7984743Y-1126744D01*
X7967472Y-1126744D01*
X7950200Y-1132586D01*
X7938770Y-1144270D01*
X7932927Y-1161542D01*
X7932927Y-1172971D01*
X7938770Y-1190244D01*
X7950200Y-1201928D01*
X7967472Y-1207770D01*
X7984743Y-1207770D01*
X8002270Y-1201928D01*
X8007858Y-1196086D01*
X8013700Y-1184655D01*
X7944358Y-1357629D02*
G01*
X7950200Y-1346200D01*
X7967472Y-1340357D01*
X7979156Y-1340357D01*
X7996427Y-1346200D01*
X8007858Y-1363471D01*
X8013700Y-1392428D01*
X8013700Y-1421129D01*
X8007858Y-1444244D01*
X7996427Y-1455928D01*
X7979156Y-1461770D01*
X7973313Y-1461770D01*
X7956041Y-1455928D01*
X7944358Y-1444244D01*
X7938770Y-1426971D01*
X7938770Y-1421129D01*
X7944358Y-1403857D01*
X7956041Y-1392428D01*
X7973313Y-1386586D01*
X7979156Y-1386586D01*
X7996427Y-1392428D01*
X8007858Y-1403857D01*
X8013700Y-1421129D01*
X7932927Y-1594357D02*
G01*
X7990586Y-1715770D01*
X8013700Y-1594357D02*
G01*
X7932927Y-1594357D01*
X7984743Y-1848357D02*
G01*
X8002270Y-1854200D01*
X8007858Y-1865629D01*
X8007858Y-1877313D01*
X8002270Y-1888744D01*
X7990586Y-1894586D01*
X7967472Y-1900428D01*
X7950200Y-1906270D01*
X7938770Y-1917700D01*
X7932927Y-1929129D01*
X7932927Y-1946655D01*
X7938770Y-1958086D01*
X7944358Y-1963928D01*
X7961629Y-1969770D01*
X7984743Y-1969770D01*
X8002270Y-1963928D01*
X8007858Y-1958086D01*
X8013700Y-1946655D01*
X8013700Y-1929129D01*
X8007858Y-1917700D01*
X7996427Y-1906270D01*
X7979156Y-1900428D01*
X7956041Y-1894586D01*
X7944358Y-1888744D01*
X7938770Y-1877313D01*
X7938770Y-1865629D01*
X7944358Y-1854200D01*
X7961629Y-1848357D01*
X7984743Y-1848357D01*
X7938770Y-2142744D02*
G01*
X7944358Y-2160270D01*
X7956041Y-2171700D01*
X7973313Y-2177542D01*
X7979156Y-2177542D01*
X7996427Y-2171700D01*
X8007858Y-2160270D01*
X8013700Y-2142744D01*
X8013700Y-2137155D01*
X8007858Y-2119629D01*
X7996427Y-2108200D01*
X7979156Y-2102357D01*
X7973313Y-2102357D01*
X7956041Y-2108200D01*
X7944358Y-2119629D01*
X7938770Y-2142744D01*
X7938770Y-2171700D01*
X7944358Y-2200655D01*
X7956041Y-2217928D01*
X7973313Y-2223770D01*
X7984743Y-2223770D01*
X8002270Y-2217928D01*
X8007858Y-2206244D01*
X8077200Y-2379471D02*
G01*
X8065770Y-2373629D01*
X8048243Y-2356357D01*
X8048243Y-2477770D01*
X7975600Y-2356357D02*
G01*
X7992872Y-2362200D01*
X8004556Y-2379471D01*
X8010143Y-2408428D01*
X8010143Y-2425700D01*
X8004556Y-2454655D01*
X7992872Y-2471928D01*
X7975600Y-2477770D01*
X7964170Y-2477770D01*
X7946643Y-2471928D01*
X7935213Y-2454655D01*
X7929372Y-2425700D01*
X7929372Y-2408428D01*
X7935213Y-2379471D01*
X7946643Y-2362200D01*
X7964170Y-2356357D01*
X7975600Y-2356357D01*
X8077200Y-2633471D02*
G01*
X8065770Y-2627629D01*
X8048243Y-2610357D01*
X8048243Y-2731770D01*
X8010143Y-2633471D02*
G01*
X7998713Y-2627629D01*
X7981441Y-2610357D01*
X7981441Y-2731770D01*
X8077200Y-2887471D02*
G01*
X8065770Y-2881629D01*
X8048243Y-2864357D01*
X8048243Y-2985770D01*
X8004556Y-2893313D02*
G01*
X8004556Y-2887471D01*
X7998713Y-2876042D01*
X7992872Y-2870200D01*
X7981441Y-2864357D01*
X7958327Y-2864357D01*
X7946643Y-2870200D01*
X7941056Y-2876042D01*
X7935213Y-2887471D01*
X7935213Y-2899155D01*
X7941056Y-2910586D01*
X7952486Y-2927857D01*
X8010143Y-2985770D01*
X7929372Y-2985770D01*
X8077200Y-3141471D02*
G01*
X8065770Y-3135629D01*
X8048243Y-3118357D01*
X8048243Y-3239770D01*
X7998713Y-3118357D02*
G01*
X7935213Y-3118357D01*
X7969758Y-3164586D01*
X7952486Y-3164586D01*
X7941056Y-3170428D01*
X7935213Y-3176270D01*
X7929372Y-3193542D01*
X7929372Y-3204971D01*
X7935213Y-3222244D01*
X7946643Y-3233928D01*
X7964170Y-3239770D01*
X7981441Y-3239770D01*
X7998713Y-3233928D01*
X8004556Y-3228086D01*
X8010143Y-3216655D01*
X8077200Y-3395471D02*
G01*
X8065770Y-3389629D01*
X8048243Y-3372357D01*
X8048243Y-3493770D01*
X7952486Y-3372357D02*
G01*
X8010143Y-3453129D01*
X7923529Y-3453129D01*
X7952486Y-3372357D02*
G01*
X7952486Y-3493770D01*
X8077200Y-3649471D02*
G01*
X8065770Y-3643629D01*
X8048243Y-3626357D01*
X8048243Y-3747770D01*
X7941056Y-3626357D02*
G01*
X7998713Y-3626357D01*
X8004556Y-3678428D01*
X7998713Y-3672586D01*
X7981441Y-3666744D01*
X7964170Y-3666744D01*
X7946643Y-3672586D01*
X7935213Y-3684270D01*
X7929372Y-3701542D01*
X7929372Y-3712971D01*
X7935213Y-3730244D01*
X7946643Y-3741928D01*
X7964170Y-3747770D01*
X7981441Y-3747770D01*
X7998713Y-3741928D01*
X8004556Y-3736086D01*
X8010143Y-3724655D01*
X8077200Y-3903471D02*
G01*
X8065770Y-3897629D01*
X8048243Y-3880357D01*
X8048243Y-4001770D01*
X7941056Y-3897629D02*
G01*
X7946643Y-3886200D01*
X7964170Y-3880357D01*
X7975600Y-3880357D01*
X7992872Y-3886200D01*
X8004556Y-3903471D01*
X8010143Y-3932428D01*
X8010143Y-3961129D01*
X8004556Y-3984244D01*
X7992872Y-3995928D01*
X7975600Y-4001770D01*
X7969758Y-4001770D01*
X7952486Y-3995928D01*
X7941056Y-3984244D01*
X7935213Y-3966971D01*
X7935213Y-3961129D01*
X7941056Y-3943857D01*
X7952486Y-3932428D01*
X7969758Y-3926586D01*
X7975600Y-3926586D01*
X7992872Y-3932428D01*
X8004556Y-3943857D01*
X8010143Y-3961129D01*
X8077200Y-4157471D02*
G01*
X8065770Y-4151629D01*
X8048243Y-4134357D01*
X8048243Y-4255770D01*
X7929372Y-4134357D02*
G01*
X7987029Y-4255770D01*
X8010143Y-4134357D02*
G01*
X7929372Y-4134357D01*
X8077200Y-4411471D02*
G01*
X8065770Y-4405629D01*
X8048243Y-4388357D01*
X8048243Y-4509770D01*
X7981441Y-4388357D02*
G01*
X7998713Y-4394200D01*
X8004556Y-4405629D01*
X8004556Y-4417313D01*
X7998713Y-4428744D01*
X7987029Y-4434586D01*
X7964170Y-4440428D01*
X7946643Y-4446270D01*
X7935213Y-4457700D01*
X7929372Y-4469129D01*
X7929372Y-4486655D01*
X7935213Y-4498086D01*
X7941056Y-4503928D01*
X7958327Y-4509770D01*
X7981441Y-4509770D01*
X7998713Y-4503928D01*
X8004556Y-4498086D01*
X8010143Y-4486655D01*
X8010143Y-4469129D01*
X8004556Y-4457700D01*
X7992872Y-4446270D01*
X7975600Y-4440428D01*
X7952486Y-4434586D01*
X7941056Y-4428744D01*
X7935213Y-4417313D01*
X7935213Y-4405629D01*
X7941056Y-4394200D01*
X7958327Y-4388357D01*
X7981441Y-4388357D01*
X8077200Y-4665471D02*
G01*
X8065770Y-4659629D01*
X8048243Y-4642357D01*
X8048243Y-4763770D01*
X7935213Y-4682744D02*
G01*
X7941056Y-4700270D01*
X7952486Y-4711700D01*
X7969758Y-4717542D01*
X7975600Y-4717542D01*
X7992872Y-4711700D01*
X8004556Y-4700270D01*
X8010143Y-4682744D01*
X8010143Y-4677155D01*
X8004556Y-4659629D01*
X7992872Y-4648200D01*
X7975600Y-4642357D01*
X7969758Y-4642357D01*
X7952486Y-4648200D01*
X7941056Y-4659629D01*
X7935213Y-4682744D01*
X7935213Y-4711700D01*
X7941056Y-4740655D01*
X7952486Y-4757928D01*
X7969758Y-4763770D01*
X7981441Y-4763770D01*
X7998713Y-4757928D01*
X8004556Y-4746244D01*
X8134858Y-4925313D02*
G01*
X8134858Y-4919471D01*
X8129270Y-4908042D01*
X8123427Y-4902200D01*
X8111743Y-4896357D01*
X8088629Y-4896357D01*
X8077200Y-4902200D01*
X8071358Y-4908042D01*
X8065770Y-4919471D01*
X8065770Y-4931155D01*
X8071358Y-4942586D01*
X8083041Y-4959857D01*
X8140700Y-5017770D01*
X8059927Y-5017770D01*
X7987029Y-4896357D02*
G01*
X8004556Y-4902200D01*
X8015986Y-4919471D01*
X8021827Y-4948428D01*
X8021827Y-4965700D01*
X8015986Y-4994655D01*
X8004556Y-5011928D01*
X7987029Y-5017770D01*
X7975600Y-5017770D01*
X7958327Y-5011928D01*
X7946643Y-4994655D01*
X7941056Y-4965700D01*
X7941056Y-4948428D01*
X7946643Y-4919471D01*
X7958327Y-4902200D01*
X7975600Y-4896357D01*
X7987029Y-4896357D01*
X9410700Y-5011928D02*
G01*
X9422129Y-5017770D01*
X9439656Y-5035042D01*
X9439656Y-4913629D01*
X9416541Y-4752086D02*
G01*
X9416541Y-4757928D01*
X9422129Y-4769357D01*
X9427972Y-4775200D01*
X9439656Y-4781042D01*
X9462770Y-4781042D01*
X9474200Y-4775200D01*
X9480041Y-4769357D01*
X9485629Y-4757928D01*
X9485629Y-4746244D01*
X9480041Y-4734813D01*
X9468358Y-4717542D01*
X9410700Y-4659629D01*
X9491472Y-4659629D01*
X9422129Y-4527042D02*
G01*
X9485629Y-4527042D01*
X9451086Y-4480813D01*
X9468358Y-4480813D01*
X9480041Y-4474971D01*
X9485629Y-4469129D01*
X9491472Y-4451857D01*
X9491472Y-4440428D01*
X9485629Y-4423155D01*
X9474200Y-4411471D01*
X9456927Y-4405629D01*
X9439656Y-4405629D01*
X9422129Y-4411471D01*
X9416541Y-4417313D01*
X9410700Y-4428744D01*
X9468358Y-4273042D02*
G01*
X9410700Y-4192270D01*
X9497313Y-4192270D01*
X9468358Y-4273042D02*
G01*
X9468358Y-4151629D01*
X9480041Y-4019042D02*
G01*
X9422129Y-4019042D01*
X9416541Y-3966971D01*
X9422129Y-3972813D01*
X9439656Y-3978655D01*
X9456927Y-3978655D01*
X9474200Y-3972813D01*
X9485629Y-3961129D01*
X9491472Y-3943857D01*
X9491472Y-3932428D01*
X9485629Y-3915155D01*
X9474200Y-3903471D01*
X9456927Y-3897629D01*
X9439656Y-3897629D01*
X9422129Y-3903471D01*
X9416541Y-3909313D01*
X9410700Y-3920744D01*
X9480041Y-3747770D02*
G01*
X9474200Y-3759200D01*
X9456927Y-3765042D01*
X9445243Y-3765042D01*
X9427972Y-3759200D01*
X9416541Y-3741928D01*
X9410700Y-3712971D01*
X9410700Y-3684270D01*
X9416541Y-3661155D01*
X9427972Y-3649471D01*
X9445243Y-3643629D01*
X9451086Y-3643629D01*
X9468358Y-3649471D01*
X9480041Y-3661155D01*
X9485629Y-3678428D01*
X9485629Y-3684270D01*
X9480041Y-3701542D01*
X9468358Y-3712971D01*
X9451086Y-3718813D01*
X9445243Y-3718813D01*
X9427972Y-3712971D01*
X9416541Y-3701542D01*
X9410700Y-3684270D01*
X9491472Y-3511042D02*
G01*
X9433813Y-3389629D01*
X9410700Y-3511042D02*
G01*
X9491472Y-3511042D01*
X9439656Y-3257042D02*
G01*
X9422129Y-3251200D01*
X9416541Y-3239770D01*
X9416541Y-3228086D01*
X9422129Y-3216655D01*
X9433813Y-3210813D01*
X9456927Y-3204971D01*
X9474200Y-3199129D01*
X9485629Y-3187700D01*
X9491472Y-3176270D01*
X9491472Y-3158744D01*
X9485629Y-3147313D01*
X9480041Y-3141471D01*
X9462770Y-3135629D01*
X9439656Y-3135629D01*
X9422129Y-3141471D01*
X9416541Y-3147313D01*
X9410700Y-3158744D01*
X9410700Y-3176270D01*
X9416541Y-3187700D01*
X9427972Y-3199129D01*
X9445243Y-3204971D01*
X9468358Y-3210813D01*
X9480041Y-3216655D01*
X9485629Y-3228086D01*
X9485629Y-3239770D01*
X9480041Y-3251200D01*
X9462770Y-3257042D01*
X9439656Y-3257042D01*
X9485629Y-2962655D02*
G01*
X9480041Y-2945129D01*
X9468358Y-2933700D01*
X9451086Y-2927857D01*
X9445243Y-2927857D01*
X9427972Y-2933700D01*
X9416541Y-2945129D01*
X9410700Y-2962655D01*
X9410700Y-2968244D01*
X9416541Y-2985770D01*
X9427972Y-2997200D01*
X9445243Y-3003042D01*
X9451086Y-3003042D01*
X9468358Y-2997200D01*
X9480041Y-2985770D01*
X9485629Y-2962655D01*
X9485629Y-2933700D01*
X9480041Y-2904744D01*
X9468358Y-2887471D01*
X9451086Y-2881629D01*
X9439656Y-2881629D01*
X9422129Y-2887471D01*
X9416541Y-2899155D01*
X9347200Y-2725928D02*
G01*
X9358629Y-2731770D01*
X9376156Y-2749042D01*
X9376156Y-2627629D01*
X9448800Y-2749042D02*
G01*
X9431527Y-2743200D01*
X9419843Y-2725928D01*
X9414256Y-2696971D01*
X9414256Y-2679700D01*
X9419843Y-2650744D01*
X9431527Y-2633471D01*
X9448800Y-2627629D01*
X9460229Y-2627629D01*
X9477756Y-2633471D01*
X9489186Y-2650744D01*
X9495027Y-2679700D01*
X9495027Y-2696971D01*
X9489186Y-2725928D01*
X9477756Y-2743200D01*
X9460229Y-2749042D01*
X9448800Y-2749042D01*
X9347200Y-2471928D02*
G01*
X9358629Y-2477770D01*
X9376156Y-2495042D01*
X9376156Y-2373629D01*
X9414256Y-2471928D02*
G01*
X9425686Y-2477770D01*
X9442958Y-2495042D01*
X9442958Y-2373629D01*
X9347200Y-2217928D02*
G01*
X9358629Y-2223770D01*
X9376156Y-2241042D01*
X9376156Y-2119629D01*
X9419843Y-2212086D02*
G01*
X9419843Y-2217928D01*
X9425686Y-2229357D01*
X9431527Y-2235200D01*
X9442958Y-2241042D01*
X9466072Y-2241042D01*
X9477756Y-2235200D01*
X9483343Y-2229357D01*
X9489186Y-2217928D01*
X9489186Y-2206244D01*
X9483343Y-2194813D01*
X9471913Y-2177542D01*
X9414256Y-2119629D01*
X9495027Y-2119629D01*
X9347200Y-1963928D02*
G01*
X9358629Y-1969770D01*
X9376156Y-1987042D01*
X9376156Y-1865629D01*
X9425686Y-1987042D02*
G01*
X9489186Y-1987042D01*
X9454641Y-1940813D01*
X9471913Y-1940813D01*
X9483343Y-1934971D01*
X9489186Y-1929129D01*
X9495027Y-1911857D01*
X9495027Y-1900428D01*
X9489186Y-1883155D01*
X9477756Y-1871471D01*
X9460229Y-1865629D01*
X9442958Y-1865629D01*
X9425686Y-1871471D01*
X9419843Y-1877313D01*
X9414256Y-1888744D01*
X9347200Y-1709928D02*
G01*
X9358629Y-1715770D01*
X9376156Y-1733042D01*
X9376156Y-1611629D01*
X9471913Y-1733042D02*
G01*
X9414256Y-1652270D01*
X9500870Y-1652270D01*
X9471913Y-1733042D02*
G01*
X9471913Y-1611629D01*
X9347200Y-1455928D02*
G01*
X9358629Y-1461770D01*
X9376156Y-1479042D01*
X9376156Y-1357629D01*
X9483343Y-1479042D02*
G01*
X9425686Y-1479042D01*
X9419843Y-1426971D01*
X9425686Y-1432813D01*
X9442958Y-1438655D01*
X9460229Y-1438655D01*
X9477756Y-1432813D01*
X9489186Y-1421129D01*
X9495027Y-1403857D01*
X9495027Y-1392428D01*
X9489186Y-1375155D01*
X9477756Y-1363471D01*
X9460229Y-1357629D01*
X9442958Y-1357629D01*
X9425686Y-1363471D01*
X9419843Y-1369313D01*
X9414256Y-1380744D01*
X9347200Y-1201928D02*
G01*
X9358629Y-1207770D01*
X9376156Y-1225042D01*
X9376156Y-1103629D01*
X9483343Y-1207770D02*
G01*
X9477756Y-1219200D01*
X9460229Y-1225042D01*
X9448800Y-1225042D01*
X9431527Y-1219200D01*
X9419843Y-1201928D01*
X9414256Y-1172971D01*
X9414256Y-1144270D01*
X9419843Y-1121155D01*
X9431527Y-1109471D01*
X9448800Y-1103629D01*
X9454641Y-1103629D01*
X9471913Y-1109471D01*
X9483343Y-1121155D01*
X9489186Y-1138428D01*
X9489186Y-1144270D01*
X9483343Y-1161542D01*
X9471913Y-1172971D01*
X9454641Y-1178813D01*
X9448800Y-1178813D01*
X9431527Y-1172971D01*
X9419843Y-1161542D01*
X9414256Y-1144270D01*
X9347200Y-947928D02*
G01*
X9358629Y-953770D01*
X9376156Y-971042D01*
X9376156Y-849629D01*
X9495027Y-971042D02*
G01*
X9437370Y-849629D01*
X9414256Y-971042D02*
G01*
X9495027Y-971042D01*
X9347200Y-693928D02*
G01*
X9358629Y-699770D01*
X9376156Y-717042D01*
X9376156Y-595629D01*
X9442958Y-717042D02*
G01*
X9425686Y-711200D01*
X9419843Y-699770D01*
X9419843Y-688086D01*
X9425686Y-676655D01*
X9437370Y-670813D01*
X9460229Y-664971D01*
X9477756Y-659129D01*
X9489186Y-647700D01*
X9495027Y-636270D01*
X9495027Y-618744D01*
X9489186Y-607313D01*
X9483343Y-601471D01*
X9466072Y-595629D01*
X9442958Y-595629D01*
X9425686Y-601471D01*
X9419843Y-607313D01*
X9414256Y-618744D01*
X9414256Y-636270D01*
X9419843Y-647700D01*
X9431527Y-659129D01*
X9448800Y-664971D01*
X9471913Y-670813D01*
X9483343Y-676655D01*
X9489186Y-688086D01*
X9489186Y-699770D01*
X9483343Y-711200D01*
X9466072Y-717042D01*
X9442958Y-717042D01*
X9347200Y-439928D02*
G01*
X9358629Y-445770D01*
X9376156Y-463042D01*
X9376156Y-341629D01*
X9489186Y-422655D02*
G01*
X9483343Y-405129D01*
X9471913Y-393700D01*
X9454641Y-387857D01*
X9448800Y-387857D01*
X9431527Y-393700D01*
X9419843Y-405129D01*
X9414256Y-422655D01*
X9414256Y-428244D01*
X9419843Y-445770D01*
X9431527Y-457200D01*
X9448800Y-463042D01*
X9454641Y-463042D01*
X9471913Y-457200D01*
X9483343Y-445770D01*
X9489186Y-422655D01*
X9489186Y-393700D01*
X9483343Y-364744D01*
X9471913Y-347471D01*
X9454641Y-341629D01*
X9442958Y-341629D01*
X9425686Y-347471D01*
X9419843Y-359155D01*
X9289541Y-180086D02*
G01*
X9289541Y-185928D01*
X9295129Y-197357D01*
X9300972Y-203200D01*
X9312656Y-209042D01*
X9335770Y-209042D01*
X9347200Y-203200D01*
X9353041Y-197357D01*
X9358629Y-185928D01*
X9358629Y-174244D01*
X9353041Y-162813D01*
X9341358Y-145542D01*
X9283700Y-87629D01*
X9364472Y-87629D01*
X9437370Y-209042D02*
G01*
X9419843Y-203200D01*
X9408413Y-185928D01*
X9402572Y-156971D01*
X9402572Y-139700D01*
X9408413Y-110744D01*
X9419843Y-93471D01*
X9437370Y-87629D01*
X9448800Y-87629D01*
X9466072Y-93471D01*
X9477756Y-110744D01*
X9483343Y-139700D01*
X9483343Y-156971D01*
X9477756Y-185928D01*
X9466072Y-203200D01*
X9448800Y-209042D01*
X9437370Y-209042D01*
D10*
X9213799Y-6918032D02*
G01*
X9213799Y-6838030D01*
X9102818Y-6807050D02*
G01*
X9182818Y-6807050D01*
X9071836Y-6918032D02*
G01*
X9071833Y-6838030D01*
X9214383Y-6975622D02*
G01*
X9214383Y-7055619D01*
X9072420Y-6975622D02*
G01*
X9072420Y-7055619D01*
X9103400Y-7086597D02*
G01*
X9183403Y-7086600D01*
X8450092Y-5713801D02*
G01*
X8560198Y-5713801D01*
X8450094Y-5563798D02*
G01*
X8560198Y-5563798D01*
X8390034Y-5713290D02*
G01*
X8280001Y-5713290D01*
X8390034Y-5563288D02*
G01*
X8280001Y-5563288D01*
X8280001Y-5563798D02*
G01*
X8280036Y-5713801D01*
X8560097Y-5563798D02*
G01*
X8560097Y-5713801D01*
X8997899Y-6918032D02*
G01*
X8997899Y-6838030D01*
X8886918Y-6807050D02*
G01*
X8966918Y-6807050D01*
X8855936Y-6918032D02*
G01*
X8855936Y-6838030D01*
X8998483Y-6975622D02*
G01*
X8998483Y-7055617D01*
X8856520Y-6975622D02*
G01*
X8856520Y-7055617D01*
X8887500Y-7086600D02*
G01*
X8967503Y-7086600D01*
D59*
X9249308Y-6347460D02*
G01*
X9249308Y-5727700D01*
X8583828Y-5727700D01*
X8583828Y-6390639D01*
X9249308Y-6390639D01*
X9249308Y-6314439D01*
D10*
X9291218Y-7632700D02*
G01*
X9291218Y-7785100D01*
X8361578Y-7632700D02*
G01*
X8361578Y-7785100D01*
X8455558Y-7439660D02*
G01*
X8445398Y-7439660D01*
X9207398Y-7439660D02*
G01*
X9197238Y-7439660D01*
X8222513Y-7129830D02*
G01*
X8072500Y-7129830D01*
X8072500Y-6979843D01*
X8222513Y-6979843D01*
X8222513Y-6979843D01*
X8438413Y-7279843D02*
G01*
X8306003Y-7279843D01*
X8252510Y-7196023D02*
G01*
X8252510Y-6621779D01*
X8502522Y-7195108D02*
G01*
X8502522Y-7181179D01*
X8502522Y-7078482D02*
G01*
X8502522Y-6881180D01*
X8502522Y-6778482D02*
G01*
X8502522Y-6731193D01*
X8502522Y-6628495D02*
G01*
X8502522Y-6622999D01*
X8439277Y-6529831D02*
G01*
X8314588Y-6529831D01*
X-114300Y-9537700D02*
G01*
X2679700Y-9537700D01*
X-114300Y-9537700D02*
G01*
X-114300Y-10172700D01*
X-114300Y-10172700D02*
G01*
X2679700Y-10172700D01*
X2679700Y-9537700D02*
G01*
X2679700Y-10172700D01*
X2679700Y-8394700D02*
G01*
X-114300Y-8394700D01*
X2679700Y-8394700D02*
G01*
X2679700Y-7759700D01*
X2679700Y-7759700D02*
G01*
X-114300Y-7759700D01*
X-114300Y-8394700D02*
G01*
X-114300Y-7759700D01*
X4470400Y-7315200D02*
G01*
X4470400Y-10109200D01*
X4470400Y-7315200D02*
G01*
X3835400Y-7315200D01*
X3835400Y-7315200D02*
G01*
X3835400Y-10109200D01*
X4470400Y-10109200D02*
G01*
X3835400Y-10109200D01*
X5105400Y-10109200D02*
G01*
X5105400Y-7315200D01*
X5105400Y-10109200D02*
G01*
X5740400Y-10109200D01*
X5740400Y-10109200D02*
G01*
X5740400Y-7315200D01*
X5105400Y-7315200D02*
G01*
X5740400Y-7315200D01*
X6858000Y-10109200D02*
G01*
X6858000Y-6045200D01*
X6858000Y-10109200D02*
G01*
X7493000Y-10109200D01*
X7493000Y-10109200D02*
G01*
X7493000Y-6045200D01*
X6858000Y-6045200D02*
G01*
X7493000Y-6045200D01*
X6477000Y-6045200D02*
G01*
X6477000Y-10109200D01*
X6477000Y-6045200D02*
G01*
X5842000Y-6045200D01*
X5842000Y-6045200D02*
G01*
X5842000Y-10109200D01*
X6477000Y-10109200D02*
G01*
X5842000Y-10109200D01*
X7886700Y114300D02*
G01*
X7886700Y-5219700D01*
X7886700Y114300D02*
G01*
X7251700Y114300D01*
X7251700Y114300D02*
G01*
X7251700Y-5219700D01*
X7886700Y-5219700D02*
G01*
X7251700Y-5219700D01*
X9537700Y-5219700D02*
G01*
X9537700Y114300D01*
X9537700Y-5219700D02*
G01*
X10172700Y-5219700D01*
X10172700Y-5219700D02*
G01*
X10172700Y114300D01*
X9537700Y114300D02*
G01*
X10172700Y114300D01*
G75*
G01*
X9102819Y-6807048D02*
G03*
X9071834Y-6838031I-3J-30983D01*
G75*
G01*
X9213802Y-6838031D02*
G03*
X9182819Y-6807048I-30983J0D01*
G75*
G01*
X9072418Y-7055617D02*
G03*
X9103401Y-7086597I30983J2D01*
G75*
G01*
X9183403Y-7086600D02*
G03*
X9214383Y-7055620I-3J30983D01*
G75*
G01*
X8886919Y-6807048D02*
G03*
X8855936Y-6838031I0J-30983D01*
G75*
G01*
X8997902Y-6838031D02*
G03*
X8966919Y-6807048I-30983J0D01*
G75*
G01*
X8856518Y-7055617D02*
G03*
X8887501Y-7086600I30983J0D01*
G75*
G01*
X8967500Y-7086600D02*
G03*
X8998483Y-7055617I0J30983D01*
D62*
G75*
G01*
X8672728Y-6322060D02*
G02*
X8672728Y-6321806I-19999J127D01*
M02*
