G04 Layer: BottomLayer*
G04 EasyEDA v6.5.1, 2022-03-29 23:29:47*
G04 6fa140fc38934b6497cce4c8c0035c65,6efad7caf7c64316809b4ed48508c700,10*
G04 Gerber Generator version 0.2*
G04 Scale: 100 percent, Rotated: No, Reflected: No *
G04 Dimensions in millimeters *
G04 leading zeros omitted , absolute positions ,4 integer and 5 decimal *
%FSLAX45Y45*%
%MOMM*%

%ADD10C,0.2540*%
%ADD11C,0.6840*%
%ADD12C,0.2600*%
%ADD14C,0.6100*%
%ADD15C,0.6096*%
%ADD38C,1.5240*%
%ADD39C,1.8000*%
%ADD40R,1.8000X1.8000*%
%ADD41C,1.7780*%
%ADD42C,1.7000*%
%ADD43R,2.0000X2.0000*%
%ADD44C,2.0000*%
%ADD45R,1.5240X1.5240*%
%ADD47C,1.7500*%
%ADD48C,1.8796*%
%ADD50C,1.5748*%
%ADD51C,1.5000*%
%ADD52C,0.3000*%

%LPD*%
G36*
X-129641Y-3740150D02*
G01*
X-133502Y-3739387D01*
X-136804Y-3737203D01*
X-138988Y-3733952D01*
X-139801Y-3730091D01*
X-177698Y199288D01*
X-176936Y203200D01*
X-174752Y206552D01*
X-171450Y208788D01*
X-167538Y209550D01*
X7101840Y209550D01*
X7105751Y208788D01*
X7109002Y206552D01*
X7111238Y203301D01*
X7112000Y199390D01*
X7112000Y-3608933D01*
X7111238Y-3612845D01*
X7109002Y-3616147D01*
X6987997Y-3737152D01*
X6984695Y-3739387D01*
X6980783Y-3740150D01*
G37*

%LPC*%
G36*
X4723892Y-3684625D02*
G01*
X4902708Y-3684625D01*
X4909058Y-3683914D01*
X4914493Y-3681984D01*
X4919421Y-3678885D01*
X4923485Y-3674821D01*
X4926584Y-3669893D01*
X4928514Y-3664458D01*
X4929225Y-3658108D01*
X4929225Y-3479292D01*
X4928717Y-3475024D01*
X4929124Y-3470757D01*
X4931257Y-3467100D01*
X4934661Y-3464610D01*
X4938826Y-3463696D01*
X6349695Y-3463696D01*
X6357620Y-3463239D01*
X6359702Y-3462934D01*
X6367373Y-3461156D01*
X6376568Y-3457498D01*
X6385102Y-3452368D01*
X6386728Y-3451148D01*
X6392722Y-3445865D01*
X6471767Y-3366820D01*
X6477050Y-3360826D01*
X6478270Y-3359200D01*
X6482435Y-3352546D01*
X6483400Y-3350666D01*
X6487058Y-3341471D01*
X6488836Y-3333800D01*
X6489598Y-3323793D01*
X6489598Y-1960778D01*
X6490360Y-1956866D01*
X6492595Y-1953615D01*
X6525971Y-1920189D01*
X6529476Y-1917954D01*
X6533540Y-1917242D01*
X6537604Y-1918258D01*
X6540906Y-1920798D01*
X6542887Y-1924456D01*
X6543243Y-1928622D01*
X6541871Y-1932584D01*
X6536690Y-1941372D01*
X6531356Y-1953920D01*
X6527749Y-1967077D01*
X6525920Y-1980590D01*
X6525920Y-1994204D01*
X6527749Y-2007717D01*
X6531356Y-2020874D01*
X6536690Y-2033422D01*
X6543649Y-2045157D01*
X6552082Y-2055875D01*
X6561886Y-2065375D01*
X6572859Y-2073452D01*
X6584848Y-2080006D01*
X6597548Y-2084882D01*
X6610807Y-2088083D01*
X6624370Y-2089404D01*
X6638036Y-2088997D01*
X6651447Y-2086711D01*
X6664502Y-2082647D01*
X6676847Y-2076907D01*
X6688378Y-2069592D01*
X6698792Y-2060803D01*
X6707936Y-2050643D01*
X6715658Y-2039416D01*
X6721805Y-2027275D01*
X6726275Y-2014372D01*
X6728968Y-2001012D01*
X6729882Y-1987397D01*
X6728968Y-1973783D01*
X6726275Y-1960422D01*
X6721805Y-1947570D01*
X6715658Y-1935378D01*
X6707936Y-1924151D01*
X6698792Y-1914042D01*
X6688378Y-1905203D01*
X6676847Y-1897888D01*
X6664502Y-1892147D01*
X6651447Y-1888083D01*
X6638036Y-1885848D01*
X6624370Y-1885391D01*
X6610807Y-1886712D01*
X6597548Y-1889912D01*
X6584848Y-1894789D01*
X6573113Y-1901240D01*
X6569202Y-1902409D01*
X6565087Y-1901952D01*
X6561531Y-1899920D01*
X6559042Y-1896618D01*
X6558076Y-1892604D01*
X6558788Y-1888540D01*
X6561074Y-1885137D01*
X6608572Y-1837588D01*
X6612381Y-1835200D01*
X6616801Y-1834642D01*
X6624370Y-1835404D01*
X6638036Y-1834997D01*
X6651447Y-1832711D01*
X6664502Y-1828647D01*
X6676847Y-1822907D01*
X6688378Y-1815592D01*
X6698792Y-1806803D01*
X6707936Y-1796643D01*
X6715658Y-1785416D01*
X6721805Y-1773275D01*
X6726275Y-1760372D01*
X6728968Y-1747012D01*
X6729882Y-1733397D01*
X6728968Y-1719783D01*
X6726275Y-1706422D01*
X6721805Y-1693570D01*
X6715658Y-1681378D01*
X6707936Y-1670151D01*
X6698792Y-1660042D01*
X6688378Y-1651203D01*
X6676847Y-1643888D01*
X6664502Y-1638147D01*
X6651447Y-1634083D01*
X6638036Y-1631848D01*
X6624370Y-1631391D01*
X6610807Y-1632712D01*
X6597548Y-1635912D01*
X6584848Y-1640789D01*
X6572859Y-1647342D01*
X6561886Y-1655419D01*
X6552082Y-1664919D01*
X6543649Y-1675638D01*
X6536690Y-1687372D01*
X6531356Y-1699920D01*
X6527749Y-1713077D01*
X6525920Y-1726590D01*
X6525920Y-1740204D01*
X6526479Y-1744065D01*
X6526377Y-1747164D01*
X6525412Y-1750110D01*
X6523583Y-1752600D01*
X6387236Y-1888947D01*
X6380683Y-1896567D01*
X6376517Y-1903272D01*
X6372606Y-1912366D01*
X6371945Y-1914296D01*
X6370167Y-1921967D01*
X6369862Y-1924050D01*
X6369405Y-1931974D01*
X6369405Y-3294989D01*
X6368643Y-3298901D01*
X6366408Y-3302203D01*
X6350609Y-3317951D01*
X6347358Y-3320186D01*
X6343446Y-3320948D01*
X6339535Y-3320186D01*
X6336284Y-3317951D01*
X6334048Y-3314649D01*
X6333286Y-3310788D01*
X6333286Y-3269386D01*
X6263741Y-3269386D01*
X6263741Y-3333343D01*
X6262979Y-3337204D01*
X6260744Y-3340506D01*
X6257442Y-3342741D01*
X6253581Y-3343503D01*
X6161176Y-3343503D01*
X6157315Y-3342741D01*
X6154013Y-3340506D01*
X6151778Y-3337204D01*
X6151016Y-3333343D01*
X6151016Y-3269386D01*
X6081471Y-3269386D01*
X6081471Y-3312464D01*
X6082182Y-3318764D01*
X6084112Y-3324199D01*
X6086398Y-3327908D01*
X6087872Y-3331972D01*
X6087567Y-3336239D01*
X6085484Y-3339998D01*
X6082030Y-3342589D01*
X6077813Y-3343503D01*
X5481066Y-3343503D01*
X5476849Y-3342589D01*
X5473395Y-3339998D01*
X5471312Y-3336239D01*
X5471007Y-3331972D01*
X5472480Y-3327908D01*
X5474766Y-3324199D01*
X5476697Y-3318764D01*
X5477408Y-3312464D01*
X5477408Y-3113582D01*
X5476697Y-3107283D01*
X5474766Y-3101797D01*
X5471718Y-3096920D01*
X5467604Y-3092805D01*
X5462727Y-3089706D01*
X5457240Y-3087827D01*
X5450941Y-3087116D01*
X5252059Y-3087116D01*
X5245760Y-3087827D01*
X5240274Y-3089706D01*
X5235397Y-3092805D01*
X5231282Y-3096920D01*
X5228234Y-3101797D01*
X5226304Y-3107283D01*
X5225592Y-3113582D01*
X5225592Y-3312464D01*
X5226304Y-3318764D01*
X5228234Y-3324199D01*
X5230520Y-3327908D01*
X5231993Y-3331972D01*
X5231688Y-3336239D01*
X5229606Y-3339998D01*
X5226151Y-3342589D01*
X5221935Y-3343503D01*
X4724704Y-3343503D01*
X4714697Y-3344265D01*
X4707026Y-3346043D01*
X4697831Y-3349701D01*
X4689297Y-3354832D01*
X4687671Y-3356051D01*
X4681677Y-3361334D01*
X4590796Y-3452215D01*
X4587900Y-3454247D01*
X4584547Y-3455162D01*
X4566564Y-3453028D01*
X4552035Y-3453028D01*
X4537608Y-3454857D01*
X4523486Y-3458464D01*
X4509973Y-3463848D01*
X4497222Y-3470859D01*
X4485436Y-3479393D01*
X4474819Y-3489350D01*
X4465523Y-3500577D01*
X4457750Y-3512870D01*
X4451553Y-3526028D01*
X4447032Y-3539896D01*
X4444339Y-3554171D01*
X4443425Y-3568700D01*
X4444339Y-3583228D01*
X4447032Y-3597503D01*
X4451553Y-3611372D01*
X4457750Y-3624529D01*
X4465523Y-3636822D01*
X4474819Y-3648049D01*
X4485436Y-3658006D01*
X4497222Y-3666540D01*
X4509973Y-3673551D01*
X4523486Y-3678936D01*
X4537608Y-3682542D01*
X4552035Y-3684371D01*
X4566564Y-3684371D01*
X4580991Y-3682542D01*
X4595114Y-3678936D01*
X4608626Y-3673551D01*
X4621377Y-3666540D01*
X4633163Y-3658006D01*
X4643780Y-3648049D01*
X4653076Y-3636822D01*
X4660849Y-3624529D01*
X4667046Y-3611372D01*
X4671568Y-3597503D01*
X4674260Y-3583228D01*
X4675174Y-3568700D01*
X4674260Y-3554171D01*
X4672787Y-3546500D01*
X4672736Y-3543198D01*
X4673701Y-3540048D01*
X4675581Y-3537407D01*
X4680051Y-3532936D01*
X4683353Y-3530752D01*
X4687214Y-3529990D01*
X4691126Y-3530752D01*
X4694428Y-3532936D01*
X4696612Y-3536238D01*
X4697374Y-3540150D01*
X4697374Y-3658108D01*
X4698085Y-3664458D01*
X4700016Y-3669893D01*
X4703114Y-3674821D01*
X4707178Y-3678885D01*
X4712106Y-3681984D01*
X4717542Y-3683914D01*
G37*
G36*
X4250436Y-3684371D02*
G01*
X4264964Y-3684371D01*
X4279442Y-3682542D01*
X4293514Y-3678936D01*
X4307027Y-3673551D01*
X4319778Y-3666540D01*
X4331563Y-3658006D01*
X4342180Y-3648049D01*
X4351477Y-3636822D01*
X4359249Y-3624529D01*
X4365447Y-3611372D01*
X4369968Y-3597503D01*
X4372660Y-3583228D01*
X4373575Y-3568700D01*
X4372660Y-3554171D01*
X4369968Y-3539896D01*
X4365447Y-3526028D01*
X4359249Y-3512870D01*
X4351477Y-3500577D01*
X4342180Y-3489350D01*
X4331563Y-3479393D01*
X4319778Y-3470859D01*
X4307027Y-3463848D01*
X4293514Y-3458464D01*
X4279442Y-3454857D01*
X4264964Y-3453028D01*
X4250436Y-3453028D01*
X4236008Y-3454857D01*
X4221886Y-3458464D01*
X4208373Y-3463848D01*
X4195622Y-3470859D01*
X4183837Y-3479393D01*
X4173220Y-3489350D01*
X4163974Y-3500577D01*
X4156151Y-3512870D01*
X4149953Y-3526028D01*
X4145483Y-3539896D01*
X4142740Y-3554171D01*
X4141825Y-3568700D01*
X4142740Y-3583228D01*
X4145483Y-3597503D01*
X4149953Y-3611372D01*
X4156151Y-3624529D01*
X4163974Y-3636822D01*
X4173220Y-3648049D01*
X4183837Y-3658006D01*
X4195622Y-3666540D01*
X4208373Y-3673551D01*
X4221886Y-3678936D01*
X4236008Y-3682542D01*
G37*
G36*
X3380435Y-3684371D02*
G01*
X3394964Y-3684371D01*
X3409391Y-3682542D01*
X3423513Y-3678936D01*
X3437026Y-3673551D01*
X3449777Y-3666540D01*
X3461562Y-3658006D01*
X3472179Y-3648049D01*
X3481425Y-3636822D01*
X3489248Y-3624529D01*
X3495446Y-3611372D01*
X3499916Y-3597503D01*
X3502660Y-3583228D01*
X3503574Y-3568700D01*
X3502660Y-3554171D01*
X3499916Y-3539896D01*
X3495446Y-3526028D01*
X3489248Y-3512870D01*
X3481425Y-3500577D01*
X3472179Y-3489350D01*
X3461562Y-3479393D01*
X3449777Y-3470859D01*
X3437026Y-3463848D01*
X3423513Y-3458464D01*
X3409391Y-3454857D01*
X3394964Y-3453028D01*
X3380435Y-3453028D01*
X3372612Y-3454044D01*
X3369310Y-3453892D01*
X3366262Y-3452774D01*
X3363722Y-3450691D01*
X3016910Y-3057702D01*
X3015030Y-3054604D01*
X3014370Y-3050997D01*
X3014370Y-2823870D01*
X3014878Y-2820771D01*
X3016300Y-2817977D01*
X3029966Y-2805023D01*
X3038449Y-2794304D01*
X3041294Y-2789478D01*
X3044291Y-2786278D01*
X3048355Y-2784652D01*
X3052724Y-2784856D01*
X3056585Y-2786888D01*
X3059226Y-2790393D01*
X3060192Y-2794660D01*
X3060192Y-2844342D01*
X3060903Y-2851912D01*
X3063036Y-2859176D01*
X3066542Y-2865882D01*
X3071571Y-2872181D01*
X3693160Y-3506470D01*
X3699357Y-3511651D01*
X3705961Y-3515258D01*
X3713175Y-3517544D01*
X3721608Y-3518408D01*
X3961892Y-3518408D01*
X3969918Y-3517595D01*
X3977132Y-3515410D01*
X3983888Y-3511804D01*
X3988866Y-3507892D01*
X4139692Y-3368700D01*
X4142892Y-3366719D01*
X4146550Y-3366008D01*
X4491228Y-3366008D01*
X4499254Y-3365195D01*
X4506468Y-3363010D01*
X4513173Y-3359454D01*
X4519371Y-3354324D01*
X4619040Y-3254705D01*
X4622393Y-3252470D01*
X4626305Y-3251708D01*
X4630216Y-3252520D01*
X4633518Y-3254806D01*
X4642053Y-3263595D01*
X4653534Y-3272840D01*
X4666081Y-3280613D01*
X4679492Y-3286760D01*
X4693564Y-3291230D01*
X4708093Y-3293973D01*
X4722825Y-3294887D01*
X4737506Y-3293973D01*
X4752035Y-3291230D01*
X4766106Y-3286760D01*
X4779518Y-3280613D01*
X4792065Y-3272840D01*
X4803546Y-3263595D01*
X4813808Y-3252978D01*
X4822698Y-3241192D01*
X4830114Y-3228441D01*
X4835855Y-3214827D01*
X4839868Y-3200654D01*
X4842154Y-3186074D01*
X4842611Y-3171291D01*
X4841240Y-3156610D01*
X4838090Y-3142183D01*
X4833162Y-3128264D01*
X4826609Y-3115056D01*
X4818481Y-3102762D01*
X4808880Y-3091535D01*
X4797958Y-3081629D01*
X4785918Y-3073095D01*
X4772914Y-3066084D01*
X4759147Y-3060750D01*
X4744821Y-3057194D01*
X4730191Y-3055366D01*
X4715408Y-3055366D01*
X4700778Y-3057194D01*
X4686452Y-3060750D01*
X4672685Y-3066084D01*
X4659680Y-3073095D01*
X4650536Y-3079597D01*
X4646422Y-3081274D01*
X4642053Y-3081121D01*
X4638141Y-3079089D01*
X4635449Y-3075584D01*
X4634484Y-3071317D01*
X4634484Y-738733D01*
X4635195Y-734974D01*
X4637227Y-731774D01*
X4640275Y-729538D01*
X4643932Y-728573D01*
X4647692Y-729030D01*
X4650994Y-730808D01*
X4653534Y-732840D01*
X4666081Y-740613D01*
X4669485Y-742137D01*
X4669485Y-688340D01*
X4644644Y-688340D01*
X4640732Y-687578D01*
X4637481Y-685342D01*
X4635246Y-682091D01*
X4634484Y-678180D01*
X4634484Y-591820D01*
X4635246Y-587908D01*
X4637481Y-584657D01*
X4640732Y-582422D01*
X4644644Y-581660D01*
X4669485Y-581660D01*
X4669485Y-527862D01*
X4659680Y-533095D01*
X4650536Y-539597D01*
X4646422Y-541274D01*
X4642053Y-541121D01*
X4638141Y-539089D01*
X4635449Y-535584D01*
X4634484Y-531317D01*
X4634484Y-326542D01*
X4635246Y-322630D01*
X4637481Y-319328D01*
X4658868Y-297942D01*
X4662220Y-295706D01*
X4666183Y-294995D01*
X4670145Y-295859D01*
X4672533Y-296926D01*
X4686452Y-301040D01*
X4700828Y-303377D01*
X4715357Y-303834D01*
X4729784Y-302412D01*
X4743958Y-299212D01*
X4757572Y-294182D01*
X4770475Y-287477D01*
X4782413Y-279146D01*
X4793132Y-269392D01*
X4802581Y-258317D01*
X4810506Y-246125D01*
X4816805Y-233070D01*
X4821377Y-219252D01*
X4824171Y-204978D01*
X4825085Y-190500D01*
X4824171Y-176022D01*
X4821377Y-161747D01*
X4816805Y-147929D01*
X4810506Y-134874D01*
X4802581Y-122682D01*
X4793132Y-111607D01*
X4782413Y-101854D01*
X4770475Y-93522D01*
X4757572Y-86817D01*
X4743958Y-81788D01*
X4729784Y-78587D01*
X4715357Y-77165D01*
X4700828Y-77622D01*
X4686452Y-79959D01*
X4672533Y-84074D01*
X4659274Y-89966D01*
X4646828Y-97485D01*
X4635449Y-106578D01*
X4625340Y-116992D01*
X4616653Y-128625D01*
X4609541Y-141325D01*
X4604105Y-154787D01*
X4600397Y-168808D01*
X4598568Y-183235D01*
X4598568Y-197764D01*
X4600397Y-212191D01*
X4604105Y-226212D01*
X4606544Y-232308D01*
X4607306Y-236169D01*
X4606493Y-240029D01*
X4604308Y-243281D01*
X4568901Y-278688D01*
X4563821Y-284886D01*
X4560265Y-291592D01*
X4558080Y-298805D01*
X4557268Y-306832D01*
X4557268Y-531418D01*
X4556302Y-535686D01*
X4553610Y-539191D01*
X4549698Y-541223D01*
X4545279Y-541375D01*
X4541215Y-539699D01*
X4531918Y-533095D01*
X4522165Y-527862D01*
X4522165Y-581660D01*
X4547108Y-581660D01*
X4550968Y-582422D01*
X4554270Y-584657D01*
X4556506Y-587908D01*
X4557268Y-591820D01*
X4557268Y-678180D01*
X4556506Y-682091D01*
X4554270Y-685342D01*
X4550968Y-687578D01*
X4547108Y-688340D01*
X4522165Y-688340D01*
X4522165Y-742137D01*
X4525518Y-740613D01*
X4538065Y-732840D01*
X4540758Y-730656D01*
X4544060Y-728878D01*
X4547819Y-728472D01*
X4551476Y-729437D01*
X4554524Y-731672D01*
X4556556Y-734872D01*
X4557268Y-738581D01*
X4557268Y-976121D01*
X4556506Y-980033D01*
X4554270Y-983335D01*
X4550968Y-985519D01*
X4547108Y-986282D01*
X4543196Y-985519D01*
X4539945Y-983335D01*
X4383379Y-826769D01*
X4381195Y-823468D01*
X4380433Y-819607D01*
X4380433Y-738632D01*
X4381093Y-734923D01*
X4383125Y-731723D01*
X4386173Y-729488D01*
X4389831Y-728522D01*
X4393590Y-728980D01*
X4396943Y-730758D01*
X4399534Y-732840D01*
X4412081Y-740613D01*
X4415485Y-742137D01*
X4415485Y-688340D01*
X4390593Y-688340D01*
X4386681Y-687578D01*
X4383379Y-685342D01*
X4381195Y-682091D01*
X4380433Y-678180D01*
X4380433Y-591820D01*
X4381195Y-587908D01*
X4383379Y-584657D01*
X4386681Y-582422D01*
X4390593Y-581660D01*
X4415485Y-581660D01*
X4415485Y-527862D01*
X4405680Y-533095D01*
X4396435Y-539648D01*
X4392371Y-541324D01*
X4387951Y-541172D01*
X4384040Y-539140D01*
X4381347Y-535635D01*
X4380433Y-531368D01*
X4380433Y-326593D01*
X4381195Y-322732D01*
X4383379Y-319430D01*
X4404868Y-297942D01*
X4408220Y-295706D01*
X4412183Y-294995D01*
X4416145Y-295859D01*
X4418533Y-296926D01*
X4432452Y-301040D01*
X4446828Y-303377D01*
X4461357Y-303834D01*
X4475784Y-302412D01*
X4489958Y-299212D01*
X4503572Y-294182D01*
X4516475Y-287477D01*
X4528413Y-279146D01*
X4539132Y-269392D01*
X4548581Y-258317D01*
X4556506Y-246125D01*
X4562805Y-233070D01*
X4567377Y-219252D01*
X4570171Y-204978D01*
X4571085Y-190500D01*
X4570171Y-176022D01*
X4567377Y-161747D01*
X4562805Y-147929D01*
X4556506Y-134874D01*
X4548581Y-122682D01*
X4539132Y-111607D01*
X4528413Y-101854D01*
X4516475Y-93522D01*
X4503572Y-86817D01*
X4489958Y-81788D01*
X4475784Y-78587D01*
X4461357Y-77165D01*
X4446828Y-77622D01*
X4432452Y-79959D01*
X4418533Y-84074D01*
X4405274Y-89966D01*
X4392828Y-97485D01*
X4381449Y-106578D01*
X4371340Y-116992D01*
X4362653Y-128625D01*
X4355541Y-141325D01*
X4350105Y-154787D01*
X4346397Y-168808D01*
X4344568Y-183235D01*
X4344568Y-197764D01*
X4346397Y-212191D01*
X4350105Y-226212D01*
X4352544Y-232308D01*
X4353306Y-236169D01*
X4352493Y-240029D01*
X4350308Y-243281D01*
X4314850Y-278739D01*
X4309719Y-284988D01*
X4306163Y-291642D01*
X4303979Y-298856D01*
X4303217Y-306882D01*
X4303217Y-531368D01*
X4302252Y-535635D01*
X4299559Y-539140D01*
X4295648Y-541172D01*
X4291228Y-541324D01*
X4287164Y-539648D01*
X4277918Y-533095D01*
X4268165Y-527862D01*
X4268165Y-581660D01*
X4293057Y-581660D01*
X4296918Y-582422D01*
X4300220Y-584657D01*
X4302404Y-587908D01*
X4303217Y-591820D01*
X4303217Y-678180D01*
X4302404Y-682091D01*
X4300220Y-685342D01*
X4296918Y-687578D01*
X4293057Y-688340D01*
X4268165Y-688340D01*
X4268165Y-742137D01*
X4271518Y-740613D01*
X4284065Y-732840D01*
X4286656Y-730758D01*
X4290009Y-728980D01*
X4293768Y-728522D01*
X4297426Y-729488D01*
X4300474Y-731723D01*
X4302506Y-734923D01*
X4303217Y-738632D01*
X4303217Y-839317D01*
X4303979Y-847344D01*
X4306163Y-854557D01*
X4309719Y-861212D01*
X4314850Y-867460D01*
X4487926Y-1040536D01*
X4490110Y-1043838D01*
X4490923Y-1047699D01*
X4490923Y-1085951D01*
X4490110Y-1089863D01*
X4487926Y-1093165D01*
X4484624Y-1095349D01*
X4480763Y-1096111D01*
X4476851Y-1095349D01*
X4473549Y-1093165D01*
X4073144Y-692759D01*
X4070959Y-689457D01*
X4070197Y-685546D01*
X4071010Y-681634D01*
X4073855Y-674827D01*
X4077868Y-660654D01*
X4080154Y-646074D01*
X4080611Y-631291D01*
X4079240Y-616610D01*
X4076090Y-602183D01*
X4071162Y-588264D01*
X4064609Y-575056D01*
X4056481Y-562762D01*
X4046880Y-551535D01*
X4035958Y-541629D01*
X4023918Y-533095D01*
X4010914Y-526084D01*
X3997147Y-520750D01*
X3982821Y-517194D01*
X3968191Y-515366D01*
X3953408Y-515366D01*
X3938778Y-517194D01*
X3924452Y-520750D01*
X3910685Y-526084D01*
X3897680Y-533095D01*
X3885641Y-541629D01*
X3874770Y-551535D01*
X3865118Y-562762D01*
X3856990Y-575056D01*
X3850436Y-588264D01*
X3845509Y-602183D01*
X3843731Y-610311D01*
X3842156Y-613918D01*
X3839362Y-616661D01*
X3835755Y-618134D01*
X3831844Y-618134D01*
X3828237Y-616661D01*
X3825443Y-613918D01*
X3823868Y-610311D01*
X3822090Y-602183D01*
X3817162Y-588264D01*
X3810609Y-575056D01*
X3802481Y-562762D01*
X3792880Y-551535D01*
X3781958Y-541629D01*
X3769918Y-533095D01*
X3756914Y-526084D01*
X3743147Y-520750D01*
X3728821Y-517194D01*
X3714191Y-515366D01*
X3699408Y-515366D01*
X3684778Y-517194D01*
X3670452Y-520750D01*
X3656685Y-526084D01*
X3643680Y-533095D01*
X3631641Y-541629D01*
X3620770Y-551535D01*
X3611118Y-562762D01*
X3602990Y-575056D01*
X3596436Y-588264D01*
X3591509Y-602183D01*
X3588359Y-616610D01*
X3586987Y-631291D01*
X3587445Y-646074D01*
X3589731Y-660654D01*
X3593744Y-674827D01*
X3599484Y-688441D01*
X3606901Y-701192D01*
X3615791Y-712978D01*
X3626053Y-723595D01*
X3637534Y-732840D01*
X3650081Y-740613D01*
X3663492Y-746760D01*
X3677564Y-751230D01*
X3692093Y-753973D01*
X3706825Y-754888D01*
X3721506Y-753973D01*
X3736035Y-751230D01*
X3750106Y-746760D01*
X3763518Y-740613D01*
X3776065Y-732840D01*
X3787546Y-723595D01*
X3797808Y-712978D01*
X3806698Y-701192D01*
X3814114Y-688441D01*
X3819855Y-674827D01*
X3824020Y-660196D01*
X3826103Y-656336D01*
X3829558Y-653745D01*
X3833825Y-652780D01*
X3838041Y-653745D01*
X3841496Y-656336D01*
X3843578Y-660196D01*
X3847744Y-674827D01*
X3853484Y-688441D01*
X3860901Y-701192D01*
X3869791Y-712978D01*
X3880053Y-723595D01*
X3891534Y-732840D01*
X3904081Y-740613D01*
X3917492Y-746760D01*
X3931564Y-751230D01*
X3946093Y-753973D01*
X3960825Y-754888D01*
X3975506Y-753973D01*
X3990035Y-751230D01*
X4004106Y-746760D01*
X4007154Y-745337D01*
X4011168Y-744423D01*
X4015181Y-745134D01*
X4018584Y-747420D01*
X4427220Y-1156004D01*
X4429404Y-1159306D01*
X4430217Y-1163218D01*
X4430217Y-3054705D01*
X4429404Y-3058668D01*
X4427118Y-3061970D01*
X4423714Y-3064154D01*
X4418685Y-3066084D01*
X4405680Y-3073095D01*
X4393641Y-3081629D01*
X4382770Y-3091535D01*
X4373118Y-3102762D01*
X4364990Y-3115056D01*
X4358436Y-3128264D01*
X4353509Y-3142183D01*
X4351731Y-3150311D01*
X4350156Y-3153918D01*
X4347362Y-3156661D01*
X4343755Y-3158134D01*
X4339844Y-3158134D01*
X4336237Y-3156661D01*
X4333443Y-3153918D01*
X4331868Y-3150311D01*
X4330090Y-3142183D01*
X4325162Y-3128264D01*
X4318609Y-3115056D01*
X4310481Y-3102762D01*
X4300880Y-3091535D01*
X4289958Y-3081629D01*
X4277918Y-3073095D01*
X4264914Y-3066084D01*
X4251147Y-3060750D01*
X4236821Y-3057194D01*
X4222191Y-3055366D01*
X4207408Y-3055366D01*
X4192778Y-3057194D01*
X4178452Y-3060750D01*
X4164685Y-3066084D01*
X4151680Y-3073095D01*
X4139641Y-3081629D01*
X4128770Y-3091535D01*
X4119118Y-3102762D01*
X4110990Y-3115056D01*
X4104436Y-3128264D01*
X4099509Y-3142183D01*
X4097731Y-3150311D01*
X4096156Y-3153918D01*
X4093362Y-3156661D01*
X4089755Y-3158134D01*
X4085844Y-3158134D01*
X4082237Y-3156661D01*
X4079443Y-3153918D01*
X4077868Y-3150311D01*
X4076090Y-3142183D01*
X4071162Y-3128264D01*
X4064609Y-3115056D01*
X4056481Y-3102762D01*
X4046880Y-3091535D01*
X4035958Y-3081629D01*
X4023918Y-3073095D01*
X4010914Y-3066084D01*
X3997147Y-3060750D01*
X3982821Y-3057194D01*
X3968191Y-3055366D01*
X3953408Y-3055366D01*
X3938778Y-3057194D01*
X3924452Y-3060750D01*
X3910685Y-3066084D01*
X3897680Y-3073095D01*
X3885641Y-3081629D01*
X3874770Y-3091535D01*
X3865118Y-3102762D01*
X3856990Y-3115056D01*
X3850436Y-3128264D01*
X3845509Y-3142183D01*
X3843731Y-3150311D01*
X3842156Y-3153918D01*
X3839362Y-3156661D01*
X3835755Y-3158134D01*
X3831844Y-3158134D01*
X3828237Y-3156661D01*
X3825443Y-3153918D01*
X3823868Y-3150311D01*
X3822090Y-3142183D01*
X3817162Y-3128264D01*
X3810609Y-3115056D01*
X3802481Y-3102762D01*
X3792880Y-3091535D01*
X3781958Y-3081629D01*
X3769918Y-3073095D01*
X3756914Y-3066084D01*
X3743147Y-3060750D01*
X3728821Y-3057194D01*
X3714191Y-3055366D01*
X3699408Y-3055366D01*
X3684778Y-3057194D01*
X3670452Y-3060750D01*
X3656685Y-3066084D01*
X3643680Y-3073095D01*
X3631641Y-3081629D01*
X3620770Y-3091535D01*
X3611118Y-3102762D01*
X3602990Y-3115056D01*
X3596436Y-3128264D01*
X3591509Y-3142183D01*
X3588359Y-3156610D01*
X3586987Y-3171291D01*
X3587445Y-3186074D01*
X3589731Y-3200654D01*
X3593744Y-3214827D01*
X3599484Y-3228441D01*
X3606901Y-3241192D01*
X3615791Y-3252978D01*
X3626053Y-3263595D01*
X3637534Y-3272840D01*
X3650081Y-3280613D01*
X3663492Y-3286760D01*
X3677564Y-3291230D01*
X3692093Y-3293973D01*
X3706825Y-3294887D01*
X3721506Y-3293973D01*
X3736035Y-3291230D01*
X3750106Y-3286760D01*
X3763518Y-3280613D01*
X3776065Y-3272840D01*
X3787546Y-3263595D01*
X3797808Y-3252978D01*
X3806698Y-3241192D01*
X3814114Y-3228441D01*
X3819855Y-3214827D01*
X3824020Y-3200196D01*
X3826103Y-3196336D01*
X3829558Y-3193745D01*
X3833825Y-3192780D01*
X3838041Y-3193745D01*
X3841496Y-3196336D01*
X3843578Y-3200196D01*
X3847744Y-3214827D01*
X3850843Y-3222142D01*
X3851605Y-3226003D01*
X3850894Y-3229914D01*
X3848658Y-3233216D01*
X3763518Y-3319068D01*
X3760571Y-3321100D01*
X3757168Y-3322015D01*
X3749395Y-3322726D01*
X3739946Y-3325266D01*
X3731006Y-3329381D01*
X3722979Y-3335020D01*
X3716020Y-3341979D01*
X3710381Y-3350006D01*
X3706266Y-3358946D01*
X3703726Y-3368395D01*
X3702862Y-3378200D01*
X3703065Y-3380486D01*
X3702558Y-3384600D01*
X3700475Y-3388156D01*
X3697173Y-3390595D01*
X3693160Y-3391560D01*
X3689096Y-3390798D01*
X3685692Y-3388512D01*
X3140303Y-2831998D01*
X3138170Y-2828747D01*
X3137408Y-2824886D01*
X3137408Y-2713736D01*
X3136595Y-2705709D01*
X3134410Y-2698496D01*
X3130854Y-2691790D01*
X3125724Y-2685592D01*
X3043123Y-2602992D01*
X3036925Y-2597861D01*
X3030270Y-2594305D01*
X3023006Y-2592120D01*
X3014980Y-2591308D01*
X3007410Y-2591308D01*
X3003042Y-2590342D01*
X2999587Y-2587599D01*
X2997962Y-2585059D01*
X2995726Y-2588310D01*
X2992475Y-2590546D01*
X2988564Y-2591308D01*
X2919984Y-2591308D01*
X2916123Y-2590546D01*
X2912821Y-2588310D01*
X2910586Y-2585059D01*
X2910382Y-2584043D01*
X2908401Y-2587802D01*
X2904947Y-2590393D01*
X2900680Y-2591308D01*
X2896616Y-2591308D01*
X2888589Y-2592120D01*
X2886252Y-2592781D01*
X2881985Y-2593136D01*
X2877972Y-2591714D01*
X2874873Y-2588717D01*
X2873298Y-2584754D01*
X2873502Y-2580436D01*
X2874924Y-2575204D01*
X2875330Y-2570175D01*
X2876702Y-2565958D01*
X2879648Y-2562707D01*
X2883712Y-2561031D01*
X2888132Y-2561234D01*
X2892044Y-2563266D01*
X2893720Y-2564688D01*
X2906115Y-2572562D01*
X2909214Y-2575610D01*
X2909824Y-2577236D01*
X2909824Y-2526995D01*
X2868168Y-2526995D01*
X2864256Y-2526182D01*
X2861005Y-2523998D01*
X2858770Y-2520696D01*
X2858008Y-2516835D01*
X2858008Y-2475839D01*
X2858770Y-2471978D01*
X2861005Y-2468676D01*
X2888589Y-2441041D01*
X2891891Y-2438857D01*
X2895803Y-2438095D01*
X2909824Y-2438095D01*
X2909824Y-2424023D01*
X2910586Y-2420162D01*
X2912821Y-2416860D01*
X2943860Y-2385822D01*
X2947162Y-2383586D01*
X2951022Y-2382824D01*
X2986582Y-2382824D01*
X2991764Y-2383180D01*
X2995371Y-2385314D01*
X2997860Y-2388717D01*
X2998724Y-2392832D01*
X2998724Y-2438095D01*
X3046069Y-2438095D01*
X3045409Y-2436469D01*
X3038449Y-2424734D01*
X3029966Y-2414066D01*
X3020161Y-2404567D01*
X3009188Y-2396490D01*
X3006648Y-2395067D01*
X3003397Y-2392222D01*
X3001619Y-2388311D01*
X3001619Y-2383942D01*
X3003448Y-2380030D01*
X3006750Y-2377236D01*
X3008528Y-2376271D01*
X3014726Y-2371140D01*
X3430219Y-1955698D01*
X3435350Y-1949450D01*
X3438906Y-1942795D01*
X3441090Y-1935581D01*
X3441852Y-1927555D01*
X3441852Y-284886D01*
X3442665Y-281025D01*
X3444849Y-277723D01*
X3579164Y-143357D01*
X3582466Y-141173D01*
X3586378Y-140411D01*
X3645611Y-140411D01*
X3645611Y-110794D01*
X3646373Y-106883D01*
X3648557Y-103632D01*
X3651859Y-101396D01*
X3655771Y-100634D01*
X3735628Y-100634D01*
X3739540Y-101396D01*
X3742842Y-103632D01*
X3745026Y-106883D01*
X3745788Y-110794D01*
X3745788Y-140411D01*
X3809085Y-140411D01*
X3809085Y-110794D01*
X3809898Y-106883D01*
X3812082Y-103632D01*
X3815384Y-101396D01*
X3819245Y-100634D01*
X3855313Y-100634D01*
X3859682Y-101600D01*
X3863187Y-104343D01*
X3865168Y-108356D01*
X3865270Y-112776D01*
X3863441Y-116890D01*
X3854653Y-128625D01*
X3847541Y-141325D01*
X3842105Y-154787D01*
X3838397Y-168808D01*
X3836568Y-183235D01*
X3836568Y-197764D01*
X3838397Y-212191D01*
X3842105Y-226212D01*
X3847541Y-239674D01*
X3854653Y-252374D01*
X3863340Y-264007D01*
X3873449Y-274421D01*
X3884828Y-283514D01*
X3897274Y-291033D01*
X3910533Y-296926D01*
X3924452Y-301040D01*
X3938828Y-303377D01*
X3953357Y-303834D01*
X3967784Y-302412D01*
X3981958Y-299212D01*
X3995572Y-294182D01*
X4008475Y-287477D01*
X4020413Y-279146D01*
X4031132Y-269392D01*
X4040581Y-258317D01*
X4048506Y-246125D01*
X4054805Y-233070D01*
X4059377Y-219252D01*
X4062171Y-204978D01*
X4063085Y-190500D01*
X4062171Y-176022D01*
X4059377Y-161747D01*
X4054805Y-147929D01*
X4048506Y-134874D01*
X4040581Y-122682D01*
X4036060Y-117398D01*
X4034180Y-114046D01*
X4033621Y-110235D01*
X4034586Y-106527D01*
X4036822Y-103428D01*
X4040022Y-101346D01*
X4043781Y-100634D01*
X4055008Y-100634D01*
X4058920Y-101396D01*
X4062222Y-103632D01*
X4096308Y-137718D01*
X4098493Y-140970D01*
X4099306Y-144830D01*
X4098544Y-148691D01*
X4096105Y-154787D01*
X4092397Y-168808D01*
X4090568Y-183235D01*
X4090568Y-197764D01*
X4092397Y-212191D01*
X4096105Y-226212D01*
X4101541Y-239674D01*
X4108653Y-252374D01*
X4117340Y-264007D01*
X4127449Y-274421D01*
X4138828Y-283514D01*
X4151274Y-291033D01*
X4164533Y-296926D01*
X4178452Y-301040D01*
X4192828Y-303377D01*
X4207357Y-303834D01*
X4221784Y-302412D01*
X4235958Y-299212D01*
X4249572Y-294182D01*
X4262475Y-287477D01*
X4274413Y-279146D01*
X4285132Y-269392D01*
X4294581Y-258317D01*
X4302506Y-246125D01*
X4308805Y-233070D01*
X4313377Y-219252D01*
X4316171Y-204978D01*
X4317085Y-190500D01*
X4316171Y-176022D01*
X4313377Y-161747D01*
X4308805Y-147929D01*
X4302506Y-134874D01*
X4294581Y-122682D01*
X4285132Y-111607D01*
X4274413Y-101854D01*
X4262475Y-93522D01*
X4249572Y-86817D01*
X4235958Y-81788D01*
X4221784Y-78587D01*
X4207357Y-77165D01*
X4192828Y-77622D01*
X4178452Y-79959D01*
X4164533Y-84074D01*
X4162145Y-85140D01*
X4158183Y-86004D01*
X4154220Y-85293D01*
X4150868Y-83058D01*
X4102862Y-35052D01*
X4096664Y-29971D01*
X4089958Y-26416D01*
X4082745Y-24231D01*
X4074718Y-23418D01*
X3606444Y-23418D01*
X3598418Y-24231D01*
X3591153Y-26416D01*
X3584498Y-29971D01*
X3578301Y-35052D01*
X3376320Y-237032D01*
X3371189Y-243281D01*
X3367633Y-249936D01*
X3365449Y-257149D01*
X3364636Y-265176D01*
X3364636Y-1907844D01*
X3363874Y-1911705D01*
X3361690Y-1915007D01*
X3069742Y-2206955D01*
X3066186Y-2209292D01*
X3062020Y-2209952D01*
X3057956Y-2208834D01*
X3054705Y-2206244D01*
X3052775Y-2202484D01*
X3050692Y-2195017D01*
X3045409Y-2182469D01*
X3038449Y-2170734D01*
X3029966Y-2160066D01*
X3020161Y-2150567D01*
X3009188Y-2142490D01*
X2997250Y-2135936D01*
X2984500Y-2131009D01*
X2971241Y-2127859D01*
X2957677Y-2126488D01*
X2944063Y-2126945D01*
X2930601Y-2129231D01*
X2917596Y-2133244D01*
X2905201Y-2138984D01*
X2893720Y-2146350D01*
X2883306Y-2155139D01*
X2874162Y-2165248D01*
X2866440Y-2176475D01*
X2860294Y-2188667D01*
X2855823Y-2201570D01*
X2853080Y-2214930D01*
X2852216Y-2228545D01*
X2853080Y-2242108D01*
X2855823Y-2255469D01*
X2860294Y-2268372D01*
X2866440Y-2280564D01*
X2874162Y-2291791D01*
X2883306Y-2301900D01*
X2893974Y-2310892D01*
X2896514Y-2314194D01*
X2897581Y-2318258D01*
X2896870Y-2322372D01*
X2894584Y-2325878D01*
X2797505Y-2422956D01*
X2793898Y-2425293D01*
X2789732Y-2425903D01*
X2785618Y-2424785D01*
X2782316Y-2422093D01*
X2775966Y-2414066D01*
X2766161Y-2404567D01*
X2755188Y-2396490D01*
X2744724Y-2390749D01*
X2744724Y-2438095D01*
X2771343Y-2438095D01*
X2775458Y-2438958D01*
X2778912Y-2441397D01*
X2780995Y-2445054D01*
X2781452Y-2449220D01*
X2780792Y-2456129D01*
X2780792Y-2516835D01*
X2780030Y-2520696D01*
X2777794Y-2523998D01*
X2774543Y-2526182D01*
X2770632Y-2526995D01*
X2744724Y-2526995D01*
X2744724Y-2574290D01*
X2749905Y-2571496D01*
X2753360Y-2570327D01*
X2757017Y-2570480D01*
X2760370Y-2571902D01*
X2763012Y-2574442D01*
X2764586Y-2577744D01*
X2766415Y-2584704D01*
X2770581Y-2593594D01*
X2776220Y-2601620D01*
X2783179Y-2608580D01*
X2791206Y-2614218D01*
X2800096Y-2618384D01*
X2809595Y-2620924D01*
X2819400Y-2621788D01*
X2824734Y-2621280D01*
X2828848Y-2621788D01*
X2832404Y-2623820D01*
X2834843Y-2627122D01*
X2835808Y-2631135D01*
X2835097Y-2635199D01*
X2832811Y-2638602D01*
X2796133Y-2675280D01*
X2792577Y-2677566D01*
X2788361Y-2678226D01*
X2784246Y-2677109D01*
X2780995Y-2674366D01*
X2775966Y-2668066D01*
X2766161Y-2658567D01*
X2755188Y-2650490D01*
X2743250Y-2643936D01*
X2730500Y-2639009D01*
X2717241Y-2635859D01*
X2703677Y-2634488D01*
X2690063Y-2634945D01*
X2676601Y-2637231D01*
X2663596Y-2641244D01*
X2651201Y-2646984D01*
X2639720Y-2654350D01*
X2629306Y-2663139D01*
X2620162Y-2673248D01*
X2612440Y-2684475D01*
X2606294Y-2696667D01*
X2601823Y-2709570D01*
X2599080Y-2722930D01*
X2598216Y-2736545D01*
X2599080Y-2750108D01*
X2601823Y-2763469D01*
X2606294Y-2776372D01*
X2612440Y-2788564D01*
X2620162Y-2799791D01*
X2629306Y-2809900D01*
X2639720Y-2818688D01*
X2651201Y-2826054D01*
X2663596Y-2831795D01*
X2676601Y-2835808D01*
X2690063Y-2838094D01*
X2703677Y-2838551D01*
X2717241Y-2837180D01*
X2730500Y-2834030D01*
X2743250Y-2829102D01*
X2755188Y-2822549D01*
X2766161Y-2814472D01*
X2775966Y-2805023D01*
X2784449Y-2794304D01*
X2791409Y-2782570D01*
X2792679Y-2779522D01*
X2795219Y-2775915D01*
X2799080Y-2773781D01*
X2804160Y-2772206D01*
X2810865Y-2768650D01*
X2817063Y-2763520D01*
X2835910Y-2744724D01*
X2839567Y-2742387D01*
X2843885Y-2741777D01*
X2848051Y-2742996D01*
X2851302Y-2745892D01*
X2853029Y-2749854D01*
X2855823Y-2763469D01*
X2860294Y-2776372D01*
X2866440Y-2788564D01*
X2874162Y-2799791D01*
X2883306Y-2809900D01*
X2890570Y-2816047D01*
X2893212Y-2819501D01*
X2894177Y-2823819D01*
X2894279Y-3081172D01*
X2894990Y-3087573D01*
X2895701Y-3090976D01*
X2897479Y-3097174D01*
X2898698Y-3100425D01*
X2901492Y-3106267D01*
X2903220Y-3109264D01*
X2906928Y-3114548D01*
X3273399Y-3530041D01*
X3275076Y-3532632D01*
X3275888Y-3535629D01*
X3275736Y-3538677D01*
X3272739Y-3554222D01*
X3271824Y-3568700D01*
X3272739Y-3583228D01*
X3275431Y-3597503D01*
X3279952Y-3611372D01*
X3286150Y-3624529D01*
X3293922Y-3636822D01*
X3303219Y-3648049D01*
X3313836Y-3658006D01*
X3325622Y-3666540D01*
X3338372Y-3673551D01*
X3351885Y-3678936D01*
X3365957Y-3682542D01*
G37*
G36*
X6688124Y-3485896D02*
G01*
X6703466Y-3484981D01*
X6718604Y-3482187D01*
X6733286Y-3477615D01*
X6747357Y-3471316D01*
X6760514Y-3463340D01*
X6772656Y-3453841D01*
X6783527Y-3442970D01*
X6793026Y-3430828D01*
X6801002Y-3417671D01*
X6807301Y-3403600D01*
X6811873Y-3388918D01*
X6814667Y-3373780D01*
X6815581Y-3358438D01*
X6814667Y-3343046D01*
X6811873Y-3327908D01*
X6807301Y-3313226D01*
X6801002Y-3299155D01*
X6793026Y-3285998D01*
X6783527Y-3273856D01*
X6772656Y-3262985D01*
X6760514Y-3253486D01*
X6747357Y-3245510D01*
X6733286Y-3239211D01*
X6718604Y-3234639D01*
X6703466Y-3231845D01*
X6688124Y-3230930D01*
X6672732Y-3231845D01*
X6657594Y-3234639D01*
X6642912Y-3239211D01*
X6628841Y-3245510D01*
X6615684Y-3253486D01*
X6603542Y-3262985D01*
X6592671Y-3273856D01*
X6583172Y-3285998D01*
X6575196Y-3299155D01*
X6568897Y-3313226D01*
X6564325Y-3327908D01*
X6561531Y-3343046D01*
X6560616Y-3358438D01*
X6561531Y-3373780D01*
X6564325Y-3388918D01*
X6568897Y-3403600D01*
X6575196Y-3417671D01*
X6583172Y-3430828D01*
X6592671Y-3442970D01*
X6603542Y-3453841D01*
X6615684Y-3463340D01*
X6628841Y-3471316D01*
X6642912Y-3477615D01*
X6657594Y-3482187D01*
X6672732Y-3484981D01*
G37*
G36*
X388112Y-3485896D02*
G01*
X403504Y-3484981D01*
X418642Y-3482187D01*
X433324Y-3477615D01*
X447344Y-3471316D01*
X460552Y-3463340D01*
X472643Y-3453841D01*
X483514Y-3442970D01*
X493014Y-3430828D01*
X500989Y-3417671D01*
X507339Y-3403600D01*
X511911Y-3388918D01*
X514654Y-3373780D01*
X515620Y-3358438D01*
X514654Y-3343046D01*
X511911Y-3327908D01*
X507339Y-3313226D01*
X500989Y-3299155D01*
X493014Y-3285998D01*
X483514Y-3273856D01*
X472643Y-3262985D01*
X460552Y-3253486D01*
X447344Y-3245510D01*
X433324Y-3239211D01*
X418642Y-3234639D01*
X403504Y-3231845D01*
X388112Y-3230930D01*
X372719Y-3231845D01*
X357581Y-3234639D01*
X342900Y-3239211D01*
X328879Y-3245510D01*
X315671Y-3253486D01*
X303580Y-3262985D01*
X292709Y-3273856D01*
X283210Y-3285998D01*
X275234Y-3299155D01*
X268884Y-3313226D01*
X264312Y-3327908D01*
X261569Y-3343046D01*
X260604Y-3358438D01*
X261569Y-3373780D01*
X264312Y-3388918D01*
X268884Y-3403600D01*
X275234Y-3417671D01*
X283210Y-3430828D01*
X292709Y-3442970D01*
X303580Y-3453841D01*
X315671Y-3463340D01*
X328879Y-3471316D01*
X342900Y-3477615D01*
X357581Y-3482187D01*
X372719Y-3484981D01*
G37*
G36*
X2159000Y-3434537D02*
G01*
X2168804Y-3433673D01*
X2178253Y-3431133D01*
X2187194Y-3427018D01*
X2195220Y-3421379D01*
X2202180Y-3414420D01*
X2207818Y-3406394D01*
X2211933Y-3397453D01*
X2214473Y-3388004D01*
X2215337Y-3378200D01*
X2214473Y-3368395D01*
X2211933Y-3358946D01*
X2207818Y-3350006D01*
X2202180Y-3341979D01*
X2200605Y-3340404D01*
X2198370Y-3337102D01*
X2197608Y-3333191D01*
X2197608Y-1486408D01*
X2196795Y-1478381D01*
X2194610Y-1471168D01*
X2191054Y-1464462D01*
X2185924Y-1458264D01*
X1913280Y-1185570D01*
X1907032Y-1180439D01*
X1900377Y-1176883D01*
X1893163Y-1174699D01*
X1885137Y-1173937D01*
X1277264Y-1173937D01*
X1273403Y-1173175D01*
X1270101Y-1170990D01*
X1260449Y-1154734D01*
X1251966Y-1144066D01*
X1242161Y-1134567D01*
X1231188Y-1126490D01*
X1219250Y-1119936D01*
X1206500Y-1115009D01*
X1193241Y-1111859D01*
X1179677Y-1110488D01*
X1166063Y-1110945D01*
X1152601Y-1113231D01*
X1139596Y-1117244D01*
X1127201Y-1122984D01*
X1115720Y-1130350D01*
X1111656Y-1133754D01*
X1107998Y-1135735D01*
X1103782Y-1136091D01*
X1099870Y-1134668D01*
X1096772Y-1131824D01*
X1092454Y-1125626D01*
X1085494Y-1118666D01*
X1077468Y-1113078D01*
X1068578Y-1108913D01*
X1059078Y-1106373D01*
X1049274Y-1105509D01*
X1039469Y-1106373D01*
X1029969Y-1108913D01*
X1021080Y-1113078D01*
X1013053Y-1118666D01*
X1006094Y-1125626D01*
X1001826Y-1131722D01*
X998931Y-1134465D01*
X995171Y-1135888D01*
X991158Y-1135735D01*
X987501Y-1134059D01*
X977188Y-1126490D01*
X965250Y-1119936D01*
X952500Y-1115009D01*
X939241Y-1111859D01*
X925677Y-1110488D01*
X912063Y-1110945D01*
X898601Y-1113231D01*
X885596Y-1117244D01*
X873201Y-1122984D01*
X861720Y-1130350D01*
X851306Y-1139139D01*
X842162Y-1149248D01*
X834440Y-1160475D01*
X828294Y-1172667D01*
X823823Y-1185570D01*
X821080Y-1198930D01*
X820216Y-1212545D01*
X821080Y-1226108D01*
X823823Y-1239469D01*
X828294Y-1252372D01*
X834440Y-1264564D01*
X842162Y-1275791D01*
X851306Y-1285900D01*
X861720Y-1294688D01*
X869289Y-1299514D01*
X872083Y-1302156D01*
X873658Y-1305661D01*
X873861Y-1309471D01*
X872642Y-1313129D01*
X870153Y-1316024D01*
X866749Y-1317802D01*
X860298Y-1319784D01*
X853643Y-1323340D01*
X847394Y-1328470D01*
X586282Y-1589582D01*
X581152Y-1595831D01*
X577596Y-1602486D01*
X575411Y-1609699D01*
X574598Y-1617726D01*
X574598Y-1941322D01*
X573836Y-1945182D01*
X571601Y-1948484D01*
X537718Y-1982368D01*
X534517Y-1984552D01*
X530758Y-1985365D01*
X526999Y-1984705D01*
X523697Y-1982724D01*
X521411Y-1979625D01*
X520395Y-1975866D01*
X520293Y-1973783D01*
X517550Y-1960422D01*
X513080Y-1947519D01*
X506933Y-1935378D01*
X499211Y-1924151D01*
X490067Y-1913991D01*
X479653Y-1905203D01*
X468172Y-1897888D01*
X455777Y-1892147D01*
X442772Y-1888083D01*
X429310Y-1885848D01*
X415696Y-1885391D01*
X402132Y-1886712D01*
X388874Y-1889912D01*
X376123Y-1894789D01*
X364185Y-1901342D01*
X353212Y-1909419D01*
X343408Y-1918919D01*
X334924Y-1929638D01*
X327964Y-1941372D01*
X322681Y-1953920D01*
X319074Y-1967077D01*
X317246Y-1980590D01*
X317246Y-1994204D01*
X319074Y-2007717D01*
X322681Y-2020874D01*
X327964Y-2033422D01*
X334924Y-2045157D01*
X343408Y-2055875D01*
X345897Y-2058314D01*
X348183Y-2061616D01*
X348996Y-2065528D01*
X348284Y-2069439D01*
X346100Y-2072792D01*
X342747Y-2075027D01*
X338836Y-2075789D01*
X292608Y-2075789D01*
X284581Y-2076602D01*
X277368Y-2078786D01*
X270662Y-2082342D01*
X264464Y-2087422D01*
X209143Y-2142744D01*
X206146Y-2144826D01*
X202590Y-2145690D01*
X198983Y-2145284D01*
X188772Y-2142083D01*
X175310Y-2139848D01*
X161696Y-2139391D01*
X148132Y-2140712D01*
X134874Y-2143912D01*
X122123Y-2148789D01*
X110185Y-2155342D01*
X99212Y-2163419D01*
X89408Y-2172919D01*
X80924Y-2183638D01*
X73964Y-2195372D01*
X68681Y-2207920D01*
X65074Y-2221077D01*
X63246Y-2234590D01*
X63246Y-2248204D01*
X65074Y-2261717D01*
X68681Y-2274874D01*
X73964Y-2287422D01*
X80924Y-2299157D01*
X89408Y-2309876D01*
X99212Y-2319375D01*
X110185Y-2327452D01*
X122123Y-2334006D01*
X134874Y-2338882D01*
X148132Y-2342083D01*
X161696Y-2343404D01*
X175310Y-2342997D01*
X188772Y-2340711D01*
X201777Y-2336647D01*
X214172Y-2330907D01*
X225653Y-2323592D01*
X236067Y-2314803D01*
X245211Y-2304643D01*
X252933Y-2293416D01*
X259079Y-2281275D01*
X263550Y-2268372D01*
X266293Y-2255012D01*
X267208Y-2241397D01*
X266293Y-2227783D01*
X263550Y-2214422D01*
X261315Y-2207920D01*
X260756Y-2204161D01*
X261569Y-2200503D01*
X263702Y-2197404D01*
X305104Y-2156002D01*
X308406Y-2153767D01*
X312318Y-2153005D01*
X338836Y-2153005D01*
X342798Y-2153767D01*
X346100Y-2156002D01*
X348284Y-2159355D01*
X348996Y-2163267D01*
X348183Y-2167178D01*
X345948Y-2170480D01*
X343408Y-2172919D01*
X334924Y-2183638D01*
X327964Y-2195372D01*
X322681Y-2207920D01*
X319074Y-2221077D01*
X317246Y-2234590D01*
X317246Y-2248204D01*
X319074Y-2261717D01*
X322681Y-2274874D01*
X327964Y-2287422D01*
X334924Y-2299157D01*
X343408Y-2309876D01*
X353212Y-2319375D01*
X364185Y-2327452D01*
X376123Y-2334006D01*
X388874Y-2338882D01*
X402132Y-2342083D01*
X415696Y-2343404D01*
X429310Y-2342946D01*
X442772Y-2340711D01*
X455777Y-2336647D01*
X468172Y-2330907D01*
X479653Y-2323592D01*
X490067Y-2314803D01*
X499211Y-2304643D01*
X506933Y-2293416D01*
X513080Y-2281275D01*
X517550Y-2268372D01*
X520293Y-2255012D01*
X521208Y-2241397D01*
X520293Y-2227783D01*
X517550Y-2214422D01*
X515315Y-2207920D01*
X514756Y-2204161D01*
X515569Y-2200503D01*
X517702Y-2197404D01*
X757428Y-1957679D01*
X760679Y-1955495D01*
X764590Y-1954733D01*
X768502Y-1955495D01*
X771753Y-1957679D01*
X773988Y-1960981D01*
X774750Y-1964893D01*
X774750Y-2373122D01*
X775563Y-2381148D01*
X777748Y-2388362D01*
X781304Y-2395016D01*
X786434Y-2401265D01*
X823671Y-2438501D01*
X825804Y-2441651D01*
X826617Y-2445308D01*
X826058Y-2449017D01*
X823823Y-2455570D01*
X821080Y-2468930D01*
X820216Y-2482545D01*
X821080Y-2496108D01*
X823823Y-2509469D01*
X828294Y-2522372D01*
X834440Y-2534564D01*
X842162Y-2545791D01*
X851306Y-2555900D01*
X861720Y-2564688D01*
X873201Y-2572054D01*
X885596Y-2577795D01*
X898601Y-2581808D01*
X912063Y-2584094D01*
X925677Y-2584551D01*
X939241Y-2583180D01*
X952500Y-2580030D01*
X965250Y-2575102D01*
X977188Y-2568549D01*
X988161Y-2560472D01*
X997966Y-2550972D01*
X1006449Y-2540304D01*
X1013409Y-2528570D01*
X1018692Y-2516022D01*
X1022299Y-2502865D01*
X1024128Y-2489352D01*
X1024128Y-2475687D01*
X1022299Y-2462174D01*
X1018692Y-2449017D01*
X1013409Y-2436469D01*
X1006449Y-2424734D01*
X997966Y-2414066D01*
X988161Y-2404567D01*
X977188Y-2396490D01*
X965250Y-2389936D01*
X952500Y-2385009D01*
X939241Y-2381859D01*
X925677Y-2380488D01*
X912063Y-2380945D01*
X898601Y-2383231D01*
X888390Y-2386380D01*
X884783Y-2386838D01*
X881227Y-2385923D01*
X878230Y-2383840D01*
X854964Y-2360574D01*
X852728Y-2357272D01*
X851966Y-2353411D01*
X851966Y-2323033D01*
X852881Y-2318816D01*
X855471Y-2315362D01*
X859231Y-2313279D01*
X863549Y-2312974D01*
X867613Y-2314448D01*
X873201Y-2318054D01*
X885596Y-2323795D01*
X898601Y-2327808D01*
X912063Y-2330094D01*
X925677Y-2330551D01*
X939241Y-2329180D01*
X952500Y-2326030D01*
X965250Y-2321102D01*
X977188Y-2314549D01*
X988161Y-2306472D01*
X997966Y-2296972D01*
X1006449Y-2286304D01*
X1013409Y-2274570D01*
X1018692Y-2262022D01*
X1022299Y-2248865D01*
X1024128Y-2235352D01*
X1024128Y-2221687D01*
X1022299Y-2208174D01*
X1018438Y-2194204D01*
X1018133Y-2190699D01*
X1019048Y-2187244D01*
X1021080Y-2184349D01*
X1062278Y-2143099D01*
X1065580Y-2140915D01*
X1069492Y-2140153D01*
X1096010Y-2140153D01*
X1099820Y-2140864D01*
X1103071Y-2142998D01*
X1105255Y-2146147D01*
X1106170Y-2149957D01*
X1105509Y-2153767D01*
X1103528Y-2157120D01*
X1096162Y-2165248D01*
X1088440Y-2176475D01*
X1082294Y-2188667D01*
X1077823Y-2201570D01*
X1075080Y-2214930D01*
X1074216Y-2228545D01*
X1075080Y-2242108D01*
X1077823Y-2255469D01*
X1082294Y-2268372D01*
X1088440Y-2280564D01*
X1096162Y-2291791D01*
X1105306Y-2301900D01*
X1115720Y-2310688D01*
X1127201Y-2318054D01*
X1139596Y-2323795D01*
X1152601Y-2327808D01*
X1166063Y-2330094D01*
X1179677Y-2330551D01*
X1193241Y-2329180D01*
X1206500Y-2326030D01*
X1219250Y-2321102D01*
X1231188Y-2314549D01*
X1242161Y-2306472D01*
X1251966Y-2296972D01*
X1260449Y-2286304D01*
X1267409Y-2274570D01*
X1272692Y-2262022D01*
X1276299Y-2248865D01*
X1278128Y-2235352D01*
X1278128Y-2221687D01*
X1276299Y-2208174D01*
X1272692Y-2195017D01*
X1267409Y-2182469D01*
X1260449Y-2170734D01*
X1251966Y-2160066D01*
X1249476Y-2157577D01*
X1247190Y-2154326D01*
X1246378Y-2150414D01*
X1247089Y-2146503D01*
X1249273Y-2143150D01*
X1252626Y-2140915D01*
X1256538Y-2140153D01*
X1491589Y-2140153D01*
X1499616Y-2139340D01*
X1506829Y-2137156D01*
X1513484Y-2133600D01*
X1519732Y-2128469D01*
X1727555Y-1920595D01*
X1730451Y-1918614D01*
X1733854Y-1917700D01*
X1741932Y-1916988D01*
X1751431Y-1914448D01*
X1760321Y-1910283D01*
X1768348Y-1904644D01*
X1775307Y-1897684D01*
X1780946Y-1889658D01*
X1785112Y-1880768D01*
X1787652Y-1871268D01*
X1788515Y-1861464D01*
X1787652Y-1851660D01*
X1785112Y-1842160D01*
X1780946Y-1833270D01*
X1775307Y-1825243D01*
X1768348Y-1818284D01*
X1760321Y-1812645D01*
X1751431Y-1808480D01*
X1741932Y-1805939D01*
X1732127Y-1805076D01*
X1722323Y-1805939D01*
X1712823Y-1808480D01*
X1703933Y-1812645D01*
X1695907Y-1818284D01*
X1688947Y-1825243D01*
X1683308Y-1833270D01*
X1679143Y-1842160D01*
X1676603Y-1851660D01*
X1675892Y-1859737D01*
X1674977Y-1863140D01*
X1672996Y-1866036D01*
X1479042Y-2059939D01*
X1475740Y-2062124D01*
X1471879Y-2062937D01*
X1256538Y-2062937D01*
X1252575Y-2062124D01*
X1249273Y-2059889D01*
X1247089Y-2056587D01*
X1246378Y-2052624D01*
X1247190Y-2048713D01*
X1249426Y-2045462D01*
X1251966Y-2042972D01*
X1260449Y-2032304D01*
X1267409Y-2020570D01*
X1272692Y-2008022D01*
X1276299Y-1994865D01*
X1278128Y-1981352D01*
X1278128Y-1967687D01*
X1276299Y-1954174D01*
X1272692Y-1941017D01*
X1267409Y-1928469D01*
X1260449Y-1916734D01*
X1251966Y-1906066D01*
X1242161Y-1896567D01*
X1231188Y-1888489D01*
X1219250Y-1881936D01*
X1206500Y-1877009D01*
X1193241Y-1873859D01*
X1179677Y-1872488D01*
X1166063Y-1872945D01*
X1152601Y-1875231D01*
X1139596Y-1879244D01*
X1127201Y-1884984D01*
X1115720Y-1892350D01*
X1105306Y-1901139D01*
X1096162Y-1911248D01*
X1088440Y-1922475D01*
X1082294Y-1934667D01*
X1077823Y-1947570D01*
X1075080Y-1960930D01*
X1074216Y-1974545D01*
X1075080Y-1988108D01*
X1077823Y-2001469D01*
X1082294Y-2014372D01*
X1088440Y-2026564D01*
X1096162Y-2037791D01*
X1103528Y-2045919D01*
X1105560Y-2049272D01*
X1106170Y-2053082D01*
X1105306Y-2056892D01*
X1103071Y-2060041D01*
X1099820Y-2062175D01*
X1096010Y-2062937D01*
X1049782Y-2062937D01*
X1041755Y-2063699D01*
X1034542Y-2065883D01*
X1027836Y-2069439D01*
X1021638Y-2074570D01*
X966317Y-2129891D01*
X963117Y-2132025D01*
X959307Y-2132838D01*
X955497Y-2132177D01*
X952500Y-2131009D01*
X939241Y-2127859D01*
X925677Y-2126488D01*
X912063Y-2126945D01*
X898601Y-2129231D01*
X885596Y-2133244D01*
X873201Y-2138984D01*
X867613Y-2142591D01*
X863549Y-2144064D01*
X859231Y-2143760D01*
X855471Y-2141677D01*
X852881Y-2138222D01*
X851966Y-2134006D01*
X851966Y-2069033D01*
X852881Y-2064816D01*
X855471Y-2061362D01*
X859231Y-2059279D01*
X863549Y-2058974D01*
X867613Y-2060448D01*
X873201Y-2064054D01*
X885596Y-2069795D01*
X898601Y-2073808D01*
X912063Y-2076094D01*
X925677Y-2076551D01*
X939241Y-2075180D01*
X952500Y-2072030D01*
X965250Y-2067102D01*
X977188Y-2060549D01*
X988161Y-2052472D01*
X997966Y-2042972D01*
X1006449Y-2032304D01*
X1013409Y-2020570D01*
X1018692Y-2008022D01*
X1022299Y-1994865D01*
X1024128Y-1981352D01*
X1024128Y-1967687D01*
X1022299Y-1954174D01*
X1018692Y-1941017D01*
X1013409Y-1928469D01*
X1006449Y-1916734D01*
X997966Y-1906066D01*
X988161Y-1896567D01*
X983640Y-1893214D01*
X981151Y-1890522D01*
X979728Y-1887118D01*
X979627Y-1883460D01*
X980846Y-1880006D01*
X983234Y-1877161D01*
X986536Y-1874469D01*
X1053490Y-1807464D01*
X1058621Y-1801266D01*
X1062177Y-1794560D01*
X1064361Y-1787347D01*
X1065174Y-1779320D01*
X1065174Y-1769110D01*
X1066190Y-1764741D01*
X1068933Y-1761236D01*
X1072997Y-1759254D01*
X1077468Y-1759204D01*
X1081532Y-1761083D01*
X1084427Y-1764538D01*
X1088440Y-1772564D01*
X1096162Y-1783791D01*
X1105306Y-1793900D01*
X1115720Y-1802688D01*
X1127201Y-1810054D01*
X1139596Y-1815795D01*
X1152601Y-1819808D01*
X1166063Y-1822094D01*
X1179677Y-1822551D01*
X1193241Y-1821180D01*
X1206500Y-1818030D01*
X1219250Y-1813102D01*
X1231188Y-1806549D01*
X1242161Y-1798472D01*
X1251966Y-1788972D01*
X1260449Y-1778304D01*
X1267409Y-1766570D01*
X1272692Y-1754022D01*
X1276299Y-1740865D01*
X1278128Y-1727352D01*
X1278128Y-1713687D01*
X1276299Y-1700174D01*
X1272692Y-1687017D01*
X1267409Y-1674469D01*
X1260449Y-1662734D01*
X1251966Y-1652066D01*
X1242161Y-1642567D01*
X1240180Y-1641093D01*
X1237640Y-1638401D01*
X1236268Y-1634998D01*
X1236167Y-1631340D01*
X1237386Y-1627835D01*
X1239774Y-1625041D01*
X1245311Y-1620469D01*
X1307490Y-1558290D01*
X1312621Y-1552041D01*
X1316177Y-1545386D01*
X1318361Y-1538173D01*
X1319174Y-1530146D01*
X1319174Y-1414170D01*
X1318361Y-1406144D01*
X1316177Y-1398930D01*
X1312621Y-1392224D01*
X1307490Y-1386027D01*
X1233170Y-1311656D01*
X1230833Y-1307998D01*
X1230223Y-1303680D01*
X1231442Y-1299565D01*
X1234287Y-1296263D01*
X1242161Y-1290472D01*
X1251966Y-1280972D01*
X1260449Y-1270304D01*
X1270101Y-1254048D01*
X1273403Y-1251915D01*
X1277264Y-1251153D01*
X1865426Y-1251153D01*
X1869287Y-1251915D01*
X1872589Y-1254099D01*
X2117394Y-1498904D01*
X2119630Y-1502206D01*
X2120392Y-1506118D01*
X2120392Y-3333191D01*
X2119630Y-3337102D01*
X2117394Y-3340404D01*
X2115820Y-3341979D01*
X2110181Y-3350006D01*
X2106066Y-3358946D01*
X2103526Y-3368395D01*
X2102662Y-3378200D01*
X2103526Y-3388004D01*
X2106066Y-3397453D01*
X2110181Y-3406394D01*
X2115820Y-3414420D01*
X2122779Y-3421379D01*
X2130806Y-3427018D01*
X2139746Y-3431133D01*
X2149195Y-3433673D01*
G37*
G36*
X6081471Y-3156661D02*
G01*
X6151016Y-3156661D01*
X6151016Y-3087116D01*
X6107938Y-3087116D01*
X6101638Y-3087827D01*
X6096152Y-3089706D01*
X6091275Y-3092805D01*
X6087160Y-3096920D01*
X6084112Y-3101797D01*
X6082182Y-3107283D01*
X6081471Y-3113582D01*
G37*
G36*
X6263741Y-3156661D02*
G01*
X6333286Y-3156661D01*
X6333286Y-3113582D01*
X6332575Y-3107283D01*
X6330645Y-3101797D01*
X6327597Y-3096920D01*
X6323482Y-3092805D01*
X6318605Y-3089706D01*
X6313119Y-3087827D01*
X6306820Y-3087116D01*
X6263741Y-3087116D01*
G37*
G36*
X4087977Y-3069234D02*
G01*
X4097782Y-3068370D01*
X4107281Y-3065830D01*
X4116171Y-3061665D01*
X4124248Y-3056077D01*
X4131208Y-3049117D01*
X4136796Y-3041040D01*
X4140962Y-3032150D01*
X4143501Y-3022650D01*
X4144365Y-3012897D01*
X4143501Y-3003092D01*
X4140962Y-2993593D01*
X4136796Y-2984703D01*
X4131208Y-2976626D01*
X4129582Y-2975051D01*
X4127398Y-2971749D01*
X4126585Y-2967837D01*
X4126585Y-1965299D01*
X4125823Y-1957273D01*
X4123639Y-1950059D01*
X4120083Y-1943354D01*
X4114952Y-1937156D01*
X3765296Y-1587500D01*
X3763264Y-1584604D01*
X3762349Y-1581200D01*
X3761638Y-1573123D01*
X3759098Y-1563624D01*
X3754932Y-1554734D01*
X3749344Y-1546707D01*
X3742385Y-1539748D01*
X3734308Y-1534109D01*
X3725418Y-1529943D01*
X3715918Y-1527403D01*
X3706164Y-1526540D01*
X3696360Y-1527403D01*
X3686860Y-1529943D01*
X3677970Y-1534109D01*
X3669893Y-1539748D01*
X3662934Y-1546707D01*
X3657346Y-1554734D01*
X3653180Y-1563624D01*
X3650640Y-1573123D01*
X3649776Y-1582928D01*
X3650640Y-1592732D01*
X3653180Y-1602232D01*
X3657346Y-1611122D01*
X3662934Y-1619148D01*
X3669893Y-1626107D01*
X3677970Y-1631746D01*
X3686860Y-1635912D01*
X3696360Y-1638452D01*
X3704386Y-1639163D01*
X3707790Y-1640078D01*
X3710686Y-1642059D01*
X4046423Y-1977796D01*
X4048607Y-1981098D01*
X4049369Y-1985010D01*
X4049369Y-2967837D01*
X4048607Y-2971749D01*
X4046423Y-2975051D01*
X4044797Y-2976626D01*
X4039209Y-2984703D01*
X4035044Y-2993593D01*
X4032504Y-3003092D01*
X4031640Y-3012897D01*
X4032504Y-3022650D01*
X4035044Y-3032150D01*
X4039209Y-3041040D01*
X4044797Y-3049117D01*
X4051757Y-3056077D01*
X4059834Y-3061665D01*
X4068724Y-3065830D01*
X4078224Y-3068370D01*
G37*
G36*
X1179677Y-2838551D02*
G01*
X1193241Y-2837180D01*
X1206500Y-2834030D01*
X1219250Y-2829102D01*
X1231188Y-2822549D01*
X1242161Y-2814472D01*
X1251966Y-2804972D01*
X1260449Y-2794304D01*
X1267409Y-2782570D01*
X1272692Y-2770022D01*
X1276299Y-2756865D01*
X1278128Y-2743352D01*
X1278128Y-2729687D01*
X1276299Y-2716174D01*
X1272692Y-2703017D01*
X1267409Y-2690469D01*
X1260449Y-2678734D01*
X1251966Y-2668066D01*
X1242161Y-2658567D01*
X1231188Y-2650490D01*
X1219250Y-2643936D01*
X1206500Y-2639009D01*
X1193241Y-2635859D01*
X1179677Y-2634488D01*
X1166063Y-2634945D01*
X1152601Y-2637231D01*
X1139596Y-2641244D01*
X1127201Y-2646984D01*
X1115720Y-2654350D01*
X1105306Y-2663139D01*
X1096162Y-2673248D01*
X1088440Y-2684475D01*
X1082294Y-2696667D01*
X1077823Y-2709570D01*
X1075080Y-2722930D01*
X1074216Y-2736545D01*
X1075080Y-2750108D01*
X1077823Y-2763469D01*
X1082294Y-2776372D01*
X1088440Y-2788564D01*
X1096162Y-2799791D01*
X1105306Y-2809900D01*
X1115720Y-2818688D01*
X1127201Y-2826054D01*
X1139596Y-2831795D01*
X1152601Y-2835808D01*
X1166063Y-2838094D01*
G37*
G36*
X925677Y-2838551D02*
G01*
X939241Y-2837180D01*
X952500Y-2834030D01*
X965250Y-2829102D01*
X977188Y-2822549D01*
X988161Y-2814472D01*
X997966Y-2804972D01*
X1006449Y-2794304D01*
X1013409Y-2782570D01*
X1018692Y-2770022D01*
X1022299Y-2756865D01*
X1024128Y-2743352D01*
X1024128Y-2729687D01*
X1022299Y-2716174D01*
X1018692Y-2703017D01*
X1013409Y-2690469D01*
X1006449Y-2678734D01*
X997966Y-2668066D01*
X988161Y-2658567D01*
X977188Y-2650490D01*
X965250Y-2643936D01*
X952500Y-2639009D01*
X939241Y-2635859D01*
X925677Y-2634488D01*
X912063Y-2634945D01*
X898601Y-2637231D01*
X885596Y-2641244D01*
X873201Y-2646984D01*
X861720Y-2654350D01*
X851306Y-2663139D01*
X842162Y-2673248D01*
X834440Y-2684475D01*
X828294Y-2696667D01*
X823823Y-2709570D01*
X821080Y-2722930D01*
X820216Y-2736545D01*
X821080Y-2750108D01*
X823823Y-2763469D01*
X828294Y-2776372D01*
X834440Y-2788564D01*
X842162Y-2799791D01*
X851306Y-2809900D01*
X861720Y-2818688D01*
X873201Y-2826054D01*
X885596Y-2831795D01*
X898601Y-2835808D01*
X912063Y-2838094D01*
G37*
G36*
X1179677Y-2584551D02*
G01*
X1193241Y-2583180D01*
X1206500Y-2580030D01*
X1219250Y-2575102D01*
X1231188Y-2568549D01*
X1242161Y-2560472D01*
X1251966Y-2550972D01*
X1260449Y-2540304D01*
X1267409Y-2528570D01*
X1272692Y-2516022D01*
X1276299Y-2502865D01*
X1278128Y-2489352D01*
X1278128Y-2475687D01*
X1276299Y-2462174D01*
X1272692Y-2449017D01*
X1267409Y-2436469D01*
X1260449Y-2424734D01*
X1251966Y-2414066D01*
X1242161Y-2404567D01*
X1231188Y-2396490D01*
X1219250Y-2389936D01*
X1206500Y-2385009D01*
X1193241Y-2381859D01*
X1179677Y-2380488D01*
X1166063Y-2380945D01*
X1152601Y-2383231D01*
X1139596Y-2387244D01*
X1127201Y-2392984D01*
X1115720Y-2400350D01*
X1105306Y-2409139D01*
X1096162Y-2419248D01*
X1088440Y-2430475D01*
X1082294Y-2442667D01*
X1077823Y-2455570D01*
X1075080Y-2468930D01*
X1074216Y-2482545D01*
X1075080Y-2496108D01*
X1077823Y-2509469D01*
X1082294Y-2522372D01*
X1088440Y-2534564D01*
X1096162Y-2545791D01*
X1105306Y-2555900D01*
X1115720Y-2564688D01*
X1127201Y-2572054D01*
X1139596Y-2577795D01*
X1152601Y-2581808D01*
X1166063Y-2584094D01*
G37*
G36*
X2998724Y-2576220D02*
G01*
X2999181Y-2575153D01*
X3002534Y-2572258D01*
X3009188Y-2568549D01*
X3020161Y-2560472D01*
X3029966Y-2551023D01*
X3038449Y-2540304D01*
X3045409Y-2528570D01*
X3046069Y-2526995D01*
X2998724Y-2526995D01*
G37*
G36*
X2655824Y-2574188D02*
G01*
X2655824Y-2526995D01*
X2608630Y-2526995D01*
X2612440Y-2534564D01*
X2620162Y-2545791D01*
X2629306Y-2555900D01*
X2639720Y-2564688D01*
X2651201Y-2572054D01*
G37*
G36*
X2608630Y-2438095D02*
G01*
X2655824Y-2438095D01*
X2655824Y-2390851D01*
X2651201Y-2392984D01*
X2639720Y-2400350D01*
X2629306Y-2409139D01*
X2620162Y-2419248D01*
X2612440Y-2430475D01*
G37*
G36*
X6624370Y-2343404D02*
G01*
X6638036Y-2342997D01*
X6651447Y-2340711D01*
X6664502Y-2336647D01*
X6676847Y-2330907D01*
X6688378Y-2323592D01*
X6698792Y-2314803D01*
X6707936Y-2304643D01*
X6715658Y-2293416D01*
X6721805Y-2281275D01*
X6726275Y-2268372D01*
X6728968Y-2255012D01*
X6729882Y-2241397D01*
X6728968Y-2227783D01*
X6726275Y-2214422D01*
X6721805Y-2201570D01*
X6715658Y-2189378D01*
X6707936Y-2178151D01*
X6698792Y-2168042D01*
X6688378Y-2159203D01*
X6676847Y-2151888D01*
X6664502Y-2146147D01*
X6651447Y-2142083D01*
X6638036Y-2139848D01*
X6624370Y-2139391D01*
X6610807Y-2140712D01*
X6597548Y-2143912D01*
X6584848Y-2148789D01*
X6572859Y-2155342D01*
X6561886Y-2163419D01*
X6552082Y-2172919D01*
X6543649Y-2183638D01*
X6536690Y-2195372D01*
X6531356Y-2207920D01*
X6527749Y-2221077D01*
X6525920Y-2234590D01*
X6525920Y-2248204D01*
X6527749Y-2261717D01*
X6531356Y-2274874D01*
X6536690Y-2287422D01*
X6543649Y-2299157D01*
X6552082Y-2309876D01*
X6561886Y-2319375D01*
X6572859Y-2327452D01*
X6584848Y-2334006D01*
X6597548Y-2338882D01*
X6610807Y-2342083D01*
G37*
G36*
X6878370Y-2343404D02*
G01*
X6892036Y-2342946D01*
X6905447Y-2340711D01*
X6918502Y-2336647D01*
X6930847Y-2330907D01*
X6942328Y-2323592D01*
X6952742Y-2314803D01*
X6961936Y-2304643D01*
X6969607Y-2293416D01*
X6975805Y-2281275D01*
X6980275Y-2268372D01*
X6982968Y-2255012D01*
X6983882Y-2241397D01*
X6982968Y-2227783D01*
X6980275Y-2214422D01*
X6975805Y-2201519D01*
X6969607Y-2189378D01*
X6961936Y-2178151D01*
X6952742Y-2167991D01*
X6942328Y-2159203D01*
X6930847Y-2151888D01*
X6918502Y-2146147D01*
X6905447Y-2142083D01*
X6892036Y-2139848D01*
X6878370Y-2139391D01*
X6864807Y-2140712D01*
X6851548Y-2143912D01*
X6838848Y-2148789D01*
X6826859Y-2155342D01*
X6815886Y-2163419D01*
X6806082Y-2172919D01*
X6797649Y-2183638D01*
X6790690Y-2195372D01*
X6785356Y-2207920D01*
X6781749Y-2221077D01*
X6779920Y-2234590D01*
X6779920Y-2248204D01*
X6781749Y-2261717D01*
X6785356Y-2274874D01*
X6790690Y-2287422D01*
X6797649Y-2299157D01*
X6806082Y-2309876D01*
X6815886Y-2319375D01*
X6826859Y-2327452D01*
X6838848Y-2334006D01*
X6851548Y-2338882D01*
X6864807Y-2342083D01*
G37*
G36*
X2703677Y-2330551D02*
G01*
X2717241Y-2329180D01*
X2730500Y-2326030D01*
X2743250Y-2321102D01*
X2755188Y-2314549D01*
X2766161Y-2306472D01*
X2775966Y-2297023D01*
X2784449Y-2286304D01*
X2791409Y-2274570D01*
X2796692Y-2262022D01*
X2800299Y-2248865D01*
X2802128Y-2235352D01*
X2802128Y-2221687D01*
X2800299Y-2208174D01*
X2796692Y-2195017D01*
X2791409Y-2182469D01*
X2784449Y-2170734D01*
X2775966Y-2160066D01*
X2766161Y-2150567D01*
X2755188Y-2142490D01*
X2743250Y-2135936D01*
X2730500Y-2131009D01*
X2717241Y-2127859D01*
X2703677Y-2126488D01*
X2690063Y-2126945D01*
X2676601Y-2129231D01*
X2663596Y-2133244D01*
X2651201Y-2138984D01*
X2639720Y-2146350D01*
X2629306Y-2155139D01*
X2620162Y-2165248D01*
X2612440Y-2176475D01*
X2606294Y-2188667D01*
X2601823Y-2201570D01*
X2599080Y-2214930D01*
X2598216Y-2228545D01*
X2599080Y-2242108D01*
X2601823Y-2255469D01*
X2606294Y-2268372D01*
X2612440Y-2280564D01*
X2620162Y-2291791D01*
X2629306Y-2301900D01*
X2639720Y-2310688D01*
X2651201Y-2318054D01*
X2663596Y-2323795D01*
X2676601Y-2327808D01*
X2690063Y-2330094D01*
G37*
G36*
X161696Y-2089404D02*
G01*
X175310Y-2088997D01*
X188772Y-2086711D01*
X201777Y-2082647D01*
X214172Y-2076907D01*
X225653Y-2069592D01*
X236067Y-2060803D01*
X245211Y-2050643D01*
X252933Y-2039416D01*
X259079Y-2027275D01*
X263550Y-2014372D01*
X266293Y-2001012D01*
X267208Y-1987397D01*
X266293Y-1973783D01*
X263550Y-1960422D01*
X259079Y-1947570D01*
X252933Y-1935378D01*
X245211Y-1924151D01*
X236067Y-1914042D01*
X225653Y-1905203D01*
X214172Y-1897888D01*
X201777Y-1892147D01*
X188772Y-1888083D01*
X175310Y-1885848D01*
X161696Y-1885391D01*
X148132Y-1886712D01*
X134874Y-1889912D01*
X122123Y-1894789D01*
X110185Y-1901342D01*
X99212Y-1909419D01*
X89408Y-1918919D01*
X80924Y-1929638D01*
X73964Y-1941372D01*
X68681Y-1953920D01*
X65074Y-1967077D01*
X63246Y-1980590D01*
X63246Y-1994204D01*
X65074Y-2007717D01*
X68681Y-2020874D01*
X73964Y-2033422D01*
X80924Y-2045157D01*
X89408Y-2055875D01*
X99212Y-2065375D01*
X110185Y-2073452D01*
X122123Y-2080006D01*
X134874Y-2084882D01*
X148132Y-2088083D01*
G37*
G36*
X6878370Y-2089404D02*
G01*
X6892036Y-2088946D01*
X6905447Y-2086711D01*
X6918502Y-2082647D01*
X6930847Y-2076907D01*
X6942328Y-2069592D01*
X6952742Y-2060803D01*
X6961936Y-2050643D01*
X6969607Y-2039416D01*
X6975805Y-2027275D01*
X6980275Y-2014372D01*
X6982968Y-2001012D01*
X6983882Y-1987397D01*
X6982968Y-1973783D01*
X6980275Y-1960422D01*
X6975805Y-1947519D01*
X6969607Y-1935378D01*
X6961936Y-1924151D01*
X6952742Y-1913991D01*
X6942328Y-1905203D01*
X6930847Y-1897888D01*
X6918502Y-1892147D01*
X6905447Y-1888083D01*
X6892036Y-1885848D01*
X6878370Y-1885391D01*
X6864807Y-1886712D01*
X6851548Y-1889912D01*
X6838848Y-1894789D01*
X6826859Y-1901342D01*
X6815886Y-1909419D01*
X6806082Y-1918919D01*
X6797649Y-1929638D01*
X6790690Y-1941372D01*
X6785356Y-1953920D01*
X6781749Y-1967077D01*
X6779920Y-1980590D01*
X6779920Y-1994204D01*
X6781749Y-2007717D01*
X6785356Y-2020874D01*
X6790690Y-2033422D01*
X6797649Y-2045157D01*
X6806082Y-2055875D01*
X6815886Y-2065375D01*
X6826859Y-2073452D01*
X6838848Y-2080006D01*
X6851548Y-2084882D01*
X6864807Y-2088083D01*
G37*
G36*
X2703677Y-2076551D02*
G01*
X2717241Y-2075180D01*
X2730500Y-2072030D01*
X2743250Y-2067102D01*
X2755188Y-2060549D01*
X2766161Y-2052472D01*
X2775966Y-2043023D01*
X2784449Y-2032304D01*
X2791409Y-2020570D01*
X2796692Y-2008022D01*
X2800299Y-1994865D01*
X2802128Y-1981352D01*
X2802128Y-1967687D01*
X2800299Y-1954174D01*
X2796692Y-1941017D01*
X2791409Y-1928469D01*
X2784449Y-1916734D01*
X2775966Y-1906066D01*
X2766161Y-1896567D01*
X2755188Y-1888489D01*
X2743250Y-1881936D01*
X2730500Y-1877009D01*
X2717241Y-1873859D01*
X2703677Y-1872488D01*
X2690063Y-1872945D01*
X2676601Y-1875231D01*
X2663596Y-1879244D01*
X2651201Y-1884984D01*
X2639720Y-1892350D01*
X2629306Y-1901139D01*
X2620162Y-1911248D01*
X2612440Y-1922475D01*
X2606294Y-1934667D01*
X2601823Y-1947570D01*
X2599080Y-1960930D01*
X2598216Y-1974545D01*
X2599080Y-1988108D01*
X2601823Y-2001469D01*
X2606294Y-2014372D01*
X2612440Y-2026564D01*
X2620162Y-2037791D01*
X2629306Y-2047900D01*
X2639720Y-2056688D01*
X2651201Y-2064054D01*
X2663596Y-2069795D01*
X2676601Y-2073808D01*
X2690063Y-2076094D01*
G37*
G36*
X2957677Y-2076551D02*
G01*
X2971241Y-2075180D01*
X2984500Y-2072030D01*
X2997250Y-2067102D01*
X3009188Y-2060549D01*
X3020161Y-2052472D01*
X3029966Y-2043023D01*
X3038449Y-2032304D01*
X3045409Y-2020570D01*
X3050692Y-2008022D01*
X3054299Y-1994865D01*
X3056128Y-1981352D01*
X3056128Y-1967687D01*
X3054299Y-1954174D01*
X3050692Y-1941017D01*
X3045409Y-1928469D01*
X3038449Y-1916734D01*
X3029966Y-1906066D01*
X3020161Y-1896567D01*
X3009188Y-1888489D01*
X2997250Y-1881936D01*
X2984500Y-1877009D01*
X2971241Y-1873859D01*
X2957677Y-1872488D01*
X2944063Y-1872945D01*
X2930601Y-1875231D01*
X2917596Y-1879244D01*
X2905201Y-1884984D01*
X2893720Y-1892350D01*
X2883306Y-1901139D01*
X2874162Y-1911248D01*
X2866440Y-1922475D01*
X2860294Y-1934667D01*
X2855823Y-1947570D01*
X2853080Y-1960930D01*
X2852216Y-1974545D01*
X2853080Y-1988108D01*
X2855823Y-2001469D01*
X2860294Y-2014372D01*
X2866440Y-2026564D01*
X2874162Y-2037791D01*
X2883306Y-2047900D01*
X2893720Y-2056688D01*
X2905201Y-2064054D01*
X2917596Y-2069795D01*
X2930601Y-2073808D01*
X2944063Y-2076094D01*
G37*
G36*
X6107938Y-1842414D02*
G01*
X6151016Y-1842414D01*
X6151016Y-1772818D01*
X6081471Y-1772818D01*
X6081471Y-1815896D01*
X6082182Y-1822246D01*
X6084112Y-1827682D01*
X6087160Y-1832610D01*
X6091275Y-1836674D01*
X6096152Y-1839772D01*
X6101638Y-1841703D01*
G37*
G36*
X6263741Y-1842414D02*
G01*
X6306820Y-1842414D01*
X6313119Y-1841703D01*
X6318605Y-1839772D01*
X6323482Y-1836674D01*
X6327597Y-1832610D01*
X6330645Y-1827682D01*
X6332575Y-1822246D01*
X6333286Y-1815896D01*
X6333286Y-1772818D01*
X6263741Y-1772818D01*
G37*
G36*
X5252059Y-1842414D02*
G01*
X5450941Y-1842414D01*
X5457240Y-1841703D01*
X5462727Y-1839772D01*
X5467604Y-1836674D01*
X5471718Y-1832610D01*
X5474766Y-1827682D01*
X5476697Y-1822246D01*
X5477408Y-1815896D01*
X5477408Y-1786128D01*
X5478018Y-1782622D01*
X5479796Y-1779524D01*
X5482539Y-1777288D01*
X5485892Y-1776069D01*
X5494172Y-1774698D01*
X5503570Y-1771497D01*
X5512257Y-1766773D01*
X5520080Y-1760677D01*
X5526836Y-1753362D01*
X5532272Y-1745081D01*
X5536234Y-1735988D01*
X5538673Y-1726387D01*
X5539181Y-1720240D01*
X5540095Y-1716786D01*
X5542127Y-1713890D01*
X5759907Y-1496110D01*
X5763158Y-1493926D01*
X5767070Y-1493164D01*
X5893511Y-1493164D01*
X5907024Y-1492250D01*
X5919927Y-1489710D01*
X5932424Y-1485442D01*
X5944260Y-1479600D01*
X5955233Y-1472285D01*
X5965190Y-1463598D01*
X5973876Y-1453642D01*
X5981192Y-1442669D01*
X5987034Y-1430832D01*
X5991301Y-1418386D01*
X5993841Y-1405432D01*
X5994704Y-1392275D01*
X5993841Y-1379067D01*
X5991301Y-1366164D01*
X5987034Y-1353667D01*
X5981192Y-1341831D01*
X5973876Y-1330858D01*
X5965190Y-1320901D01*
X5955233Y-1312214D01*
X5944260Y-1304899D01*
X5932424Y-1299057D01*
X5919927Y-1294790D01*
X5907024Y-1292250D01*
X5893511Y-1291336D01*
X5664149Y-1291336D01*
X5650687Y-1292250D01*
X5637733Y-1294790D01*
X5625236Y-1299057D01*
X5613400Y-1304899D01*
X5602427Y-1312214D01*
X5592521Y-1320901D01*
X5583783Y-1330858D01*
X5576468Y-1341831D01*
X5570626Y-1353667D01*
X5566410Y-1366164D01*
X5563819Y-1379067D01*
X5562955Y-1392275D01*
X5563819Y-1405432D01*
X5566410Y-1418386D01*
X5570626Y-1430832D01*
X5576468Y-1442669D01*
X5583783Y-1453642D01*
X5592521Y-1463598D01*
X5600293Y-1470406D01*
X5602782Y-1473708D01*
X5603748Y-1477721D01*
X5603036Y-1481785D01*
X5600750Y-1485239D01*
X5485841Y-1600149D01*
X5482539Y-1602333D01*
X5478678Y-1603146D01*
X5474766Y-1602333D01*
X5471464Y-1600149D01*
X5467604Y-1596288D01*
X5462727Y-1593189D01*
X5457240Y-1591310D01*
X5450941Y-1590598D01*
X5252059Y-1590598D01*
X5245760Y-1591310D01*
X5240274Y-1593189D01*
X5235397Y-1596288D01*
X5231282Y-1600352D01*
X5228234Y-1605280D01*
X5226304Y-1610715D01*
X5225592Y-1617065D01*
X5225592Y-1815896D01*
X5226304Y-1822246D01*
X5228234Y-1827682D01*
X5231282Y-1832610D01*
X5235397Y-1836674D01*
X5240274Y-1839772D01*
X5245760Y-1841703D01*
G37*
G36*
X161696Y-1835404D02*
G01*
X175310Y-1834997D01*
X188772Y-1832711D01*
X201777Y-1828647D01*
X214172Y-1822907D01*
X225653Y-1815592D01*
X236067Y-1806803D01*
X245211Y-1796643D01*
X252933Y-1785416D01*
X259079Y-1773275D01*
X263550Y-1760372D01*
X266293Y-1747012D01*
X267208Y-1733397D01*
X266293Y-1719783D01*
X263550Y-1706422D01*
X259079Y-1693570D01*
X252933Y-1681378D01*
X245211Y-1670151D01*
X236067Y-1660042D01*
X225653Y-1651203D01*
X214172Y-1643888D01*
X201777Y-1638147D01*
X188772Y-1634083D01*
X175310Y-1631848D01*
X161696Y-1631391D01*
X148132Y-1632712D01*
X134874Y-1635912D01*
X122123Y-1640789D01*
X110185Y-1647342D01*
X99212Y-1655419D01*
X89408Y-1664919D01*
X80924Y-1675638D01*
X73964Y-1687372D01*
X68681Y-1699920D01*
X65074Y-1713077D01*
X63246Y-1726590D01*
X63246Y-1740204D01*
X65074Y-1753717D01*
X68681Y-1766874D01*
X73964Y-1779422D01*
X80924Y-1791157D01*
X89408Y-1801875D01*
X99212Y-1811375D01*
X110185Y-1819452D01*
X122123Y-1826006D01*
X134874Y-1830882D01*
X148132Y-1834083D01*
G37*
G36*
X415696Y-1835404D02*
G01*
X429310Y-1834946D01*
X442772Y-1832711D01*
X455777Y-1828647D01*
X468172Y-1822907D01*
X479653Y-1815592D01*
X490067Y-1806803D01*
X499211Y-1796643D01*
X506933Y-1785416D01*
X513080Y-1773275D01*
X517550Y-1760372D01*
X520293Y-1747012D01*
X521208Y-1733397D01*
X520293Y-1719783D01*
X517550Y-1706422D01*
X513080Y-1693519D01*
X506933Y-1681378D01*
X499211Y-1670151D01*
X490067Y-1659991D01*
X479653Y-1651203D01*
X468172Y-1643888D01*
X455777Y-1638147D01*
X442772Y-1634083D01*
X429310Y-1631848D01*
X415696Y-1631391D01*
X402132Y-1632712D01*
X388874Y-1635912D01*
X376123Y-1640789D01*
X364185Y-1647342D01*
X353212Y-1655419D01*
X343408Y-1664919D01*
X334924Y-1675638D01*
X327964Y-1687372D01*
X322681Y-1699920D01*
X319074Y-1713077D01*
X317246Y-1726590D01*
X317246Y-1740204D01*
X319074Y-1753717D01*
X322681Y-1766874D01*
X327964Y-1779422D01*
X334924Y-1791157D01*
X343408Y-1801875D01*
X353212Y-1811375D01*
X364185Y-1819452D01*
X376123Y-1826006D01*
X388874Y-1830882D01*
X402132Y-1834083D01*
G37*
G36*
X6878370Y-1835404D02*
G01*
X6892036Y-1834946D01*
X6905447Y-1832711D01*
X6918502Y-1828647D01*
X6930847Y-1822907D01*
X6942328Y-1815592D01*
X6952742Y-1806803D01*
X6961936Y-1796643D01*
X6969607Y-1785416D01*
X6975805Y-1773275D01*
X6980275Y-1760372D01*
X6982968Y-1747012D01*
X6983882Y-1733397D01*
X6982968Y-1719783D01*
X6980275Y-1706422D01*
X6975805Y-1693519D01*
X6969607Y-1681378D01*
X6961936Y-1670151D01*
X6952742Y-1659991D01*
X6942328Y-1651203D01*
X6930847Y-1643888D01*
X6918502Y-1638147D01*
X6905447Y-1634083D01*
X6892036Y-1631848D01*
X6878370Y-1631391D01*
X6864807Y-1632712D01*
X6851548Y-1635912D01*
X6838848Y-1640789D01*
X6826859Y-1647342D01*
X6815886Y-1655419D01*
X6806082Y-1664919D01*
X6797649Y-1675638D01*
X6790690Y-1687372D01*
X6785356Y-1699920D01*
X6781749Y-1713077D01*
X6779920Y-1726590D01*
X6779920Y-1740204D01*
X6781749Y-1753717D01*
X6785356Y-1766874D01*
X6790690Y-1779422D01*
X6797649Y-1791157D01*
X6806082Y-1801875D01*
X6815886Y-1811375D01*
X6826859Y-1819452D01*
X6838848Y-1826006D01*
X6851548Y-1830882D01*
X6864807Y-1834083D01*
G37*
G36*
X2703677Y-1822551D02*
G01*
X2717241Y-1821180D01*
X2730500Y-1818030D01*
X2743250Y-1813102D01*
X2755188Y-1806549D01*
X2766161Y-1798472D01*
X2775966Y-1789023D01*
X2784449Y-1778304D01*
X2791409Y-1766570D01*
X2796692Y-1754022D01*
X2800299Y-1740865D01*
X2802128Y-1727352D01*
X2802128Y-1713687D01*
X2800299Y-1700174D01*
X2796692Y-1687017D01*
X2791409Y-1674469D01*
X2784449Y-1662734D01*
X2775966Y-1652066D01*
X2766161Y-1642567D01*
X2755188Y-1634489D01*
X2743250Y-1627936D01*
X2730500Y-1623009D01*
X2717241Y-1619859D01*
X2703677Y-1618488D01*
X2690063Y-1618945D01*
X2676601Y-1621231D01*
X2663596Y-1625244D01*
X2651201Y-1630984D01*
X2639720Y-1638350D01*
X2629306Y-1647139D01*
X2620162Y-1657248D01*
X2612440Y-1668475D01*
X2606294Y-1680667D01*
X2601823Y-1693570D01*
X2599080Y-1706930D01*
X2598216Y-1720545D01*
X2599080Y-1734108D01*
X2601823Y-1747469D01*
X2606294Y-1760372D01*
X2612440Y-1772564D01*
X2620162Y-1783791D01*
X2629306Y-1793900D01*
X2639720Y-1802688D01*
X2651201Y-1810054D01*
X2663596Y-1815795D01*
X2676601Y-1819808D01*
X2690063Y-1822094D01*
G37*
G36*
X2957677Y-1822551D02*
G01*
X2971241Y-1821180D01*
X2984500Y-1818030D01*
X2997250Y-1813102D01*
X3009188Y-1806549D01*
X3020161Y-1798472D01*
X3029966Y-1789023D01*
X3038449Y-1778304D01*
X3045409Y-1766570D01*
X3050692Y-1754022D01*
X3054299Y-1740865D01*
X3056128Y-1727352D01*
X3056128Y-1713687D01*
X3054299Y-1700174D01*
X3050692Y-1687017D01*
X3045409Y-1674469D01*
X3038449Y-1662734D01*
X3029966Y-1652066D01*
X3020161Y-1642567D01*
X3009188Y-1634489D01*
X2997250Y-1627936D01*
X2984500Y-1623009D01*
X2971241Y-1619859D01*
X2957677Y-1618488D01*
X2944063Y-1618945D01*
X2930601Y-1621231D01*
X2917596Y-1625244D01*
X2905201Y-1630984D01*
X2893720Y-1638350D01*
X2883306Y-1647139D01*
X2874162Y-1657248D01*
X2866440Y-1668475D01*
X2860294Y-1680667D01*
X2855823Y-1693570D01*
X2853080Y-1706930D01*
X2852216Y-1720545D01*
X2853080Y-1734108D01*
X2855823Y-1747469D01*
X2860294Y-1760372D01*
X2866440Y-1772564D01*
X2874162Y-1783791D01*
X2883306Y-1793900D01*
X2893720Y-1802688D01*
X2905201Y-1810054D01*
X2917596Y-1815795D01*
X2930601Y-1819808D01*
X2944063Y-1822094D01*
G37*
G36*
X6263741Y-1660143D02*
G01*
X6333286Y-1660143D01*
X6333286Y-1617065D01*
X6332575Y-1610715D01*
X6330645Y-1605280D01*
X6327597Y-1600352D01*
X6323482Y-1596288D01*
X6318605Y-1593189D01*
X6313119Y-1591310D01*
X6306820Y-1590598D01*
X6263741Y-1590598D01*
G37*
G36*
X6081471Y-1660143D02*
G01*
X6151016Y-1660143D01*
X6151016Y-1590598D01*
X6107938Y-1590598D01*
X6101638Y-1591310D01*
X6096152Y-1593189D01*
X6091275Y-1596288D01*
X6087160Y-1600352D01*
X6084112Y-1605280D01*
X6082182Y-1610715D01*
X6081471Y-1617065D01*
G37*
G36*
X374650Y-1571193D02*
G01*
X374650Y-1523847D01*
X327304Y-1523847D01*
X327964Y-1525422D01*
X334924Y-1537157D01*
X343408Y-1547876D01*
X353212Y-1557375D01*
X364185Y-1565452D01*
G37*
G36*
X120650Y-1571193D02*
G01*
X120650Y-1523847D01*
X73304Y-1523847D01*
X73964Y-1525422D01*
X80924Y-1537157D01*
X89408Y-1547876D01*
X99212Y-1557375D01*
X110185Y-1565452D01*
G37*
G36*
X6583375Y-1571193D02*
G01*
X6583375Y-1523847D01*
X6536029Y-1523847D01*
X6536690Y-1525422D01*
X6543649Y-1537157D01*
X6552082Y-1547876D01*
X6561886Y-1557375D01*
X6572859Y-1565452D01*
G37*
G36*
X6837324Y-1571193D02*
G01*
X6837324Y-1523847D01*
X6790029Y-1523847D01*
X6790690Y-1525422D01*
X6797649Y-1537157D01*
X6806082Y-1547876D01*
X6815886Y-1557375D01*
X6826859Y-1565452D01*
G37*
G36*
X6926224Y-1571040D02*
G01*
X6930847Y-1568907D01*
X6942328Y-1561592D01*
X6952742Y-1552803D01*
X6961936Y-1542643D01*
X6969607Y-1531416D01*
X6973468Y-1523847D01*
X6926224Y-1523847D01*
G37*
G36*
X6672275Y-1571040D02*
G01*
X6676847Y-1568907D01*
X6688378Y-1561592D01*
X6698792Y-1552803D01*
X6707936Y-1542643D01*
X6715658Y-1531416D01*
X6719468Y-1523847D01*
X6672275Y-1523847D01*
G37*
G36*
X209550Y-1571040D02*
G01*
X214172Y-1568907D01*
X225653Y-1561592D01*
X236067Y-1552803D01*
X245211Y-1542643D01*
X252933Y-1531416D01*
X256743Y-1523847D01*
X209550Y-1523847D01*
G37*
G36*
X463550Y-1571040D02*
G01*
X468172Y-1568907D01*
X479653Y-1561592D01*
X490067Y-1552803D01*
X499211Y-1542643D01*
X506933Y-1531416D01*
X510743Y-1523847D01*
X463550Y-1523847D01*
G37*
G36*
X2703677Y-1568551D02*
G01*
X2717241Y-1567180D01*
X2730500Y-1564030D01*
X2743250Y-1559102D01*
X2755188Y-1552549D01*
X2766161Y-1544472D01*
X2775966Y-1535023D01*
X2784449Y-1524304D01*
X2791409Y-1512570D01*
X2796692Y-1500022D01*
X2800299Y-1486865D01*
X2802128Y-1473352D01*
X2802128Y-1459687D01*
X2800299Y-1446174D01*
X2796692Y-1433017D01*
X2791409Y-1420469D01*
X2784449Y-1408734D01*
X2775966Y-1398066D01*
X2766161Y-1388567D01*
X2755188Y-1380490D01*
X2743250Y-1373936D01*
X2730500Y-1369009D01*
X2717241Y-1365859D01*
X2703677Y-1364488D01*
X2690063Y-1364945D01*
X2676601Y-1367231D01*
X2663596Y-1371244D01*
X2651201Y-1376984D01*
X2639720Y-1384350D01*
X2629306Y-1393139D01*
X2620162Y-1403248D01*
X2612440Y-1414475D01*
X2606294Y-1426667D01*
X2601823Y-1439570D01*
X2599080Y-1452930D01*
X2598216Y-1466545D01*
X2599080Y-1480108D01*
X2601823Y-1493469D01*
X2606294Y-1506372D01*
X2612440Y-1518564D01*
X2620162Y-1529791D01*
X2629306Y-1539900D01*
X2639720Y-1548688D01*
X2651201Y-1556054D01*
X2663596Y-1561795D01*
X2676601Y-1565808D01*
X2690063Y-1568094D01*
G37*
G36*
X2957677Y-1568551D02*
G01*
X2971241Y-1567180D01*
X2984500Y-1564030D01*
X2997250Y-1559102D01*
X3009188Y-1552549D01*
X3020161Y-1544472D01*
X3029966Y-1535023D01*
X3038449Y-1524304D01*
X3045409Y-1512570D01*
X3050692Y-1500022D01*
X3054299Y-1486865D01*
X3056128Y-1473352D01*
X3056128Y-1459687D01*
X3054299Y-1446174D01*
X3050692Y-1433017D01*
X3045409Y-1420469D01*
X3038449Y-1408734D01*
X3029966Y-1398066D01*
X3020161Y-1388567D01*
X3009188Y-1380490D01*
X2997250Y-1373936D01*
X2984500Y-1369009D01*
X2971241Y-1365859D01*
X2957677Y-1364488D01*
X2944063Y-1364945D01*
X2930601Y-1367231D01*
X2917596Y-1371244D01*
X2905201Y-1376984D01*
X2893720Y-1384350D01*
X2883306Y-1393139D01*
X2874162Y-1403248D01*
X2866440Y-1414475D01*
X2860294Y-1426667D01*
X2855823Y-1439570D01*
X2853080Y-1452930D01*
X2852216Y-1466545D01*
X2853080Y-1480108D01*
X2855823Y-1493469D01*
X2860294Y-1506372D01*
X2866440Y-1518564D01*
X2874162Y-1529791D01*
X2883306Y-1539900D01*
X2893720Y-1548688D01*
X2905201Y-1556054D01*
X2917596Y-1561795D01*
X2930601Y-1565808D01*
X2944063Y-1568094D01*
G37*
G36*
X6672275Y-1434947D02*
G01*
X6719468Y-1434947D01*
X6715658Y-1427378D01*
X6707936Y-1416151D01*
X6698792Y-1406042D01*
X6688378Y-1397203D01*
X6676847Y-1389888D01*
X6672275Y-1387754D01*
G37*
G36*
X6926224Y-1434947D02*
G01*
X6973468Y-1434947D01*
X6969607Y-1427378D01*
X6961936Y-1416151D01*
X6952742Y-1405991D01*
X6942328Y-1397203D01*
X6930847Y-1389888D01*
X6926224Y-1387754D01*
G37*
G36*
X209550Y-1434947D02*
G01*
X256743Y-1434947D01*
X252933Y-1427378D01*
X245211Y-1416151D01*
X236067Y-1406042D01*
X225653Y-1397203D01*
X214172Y-1389888D01*
X209550Y-1387754D01*
G37*
G36*
X463550Y-1434947D02*
G01*
X510743Y-1434947D01*
X506933Y-1427378D01*
X499211Y-1416151D01*
X490067Y-1405991D01*
X479653Y-1397203D01*
X468172Y-1389888D01*
X463550Y-1387754D01*
G37*
G36*
X327304Y-1434947D02*
G01*
X374650Y-1434947D01*
X374650Y-1387602D01*
X364185Y-1393342D01*
X353212Y-1401419D01*
X343408Y-1410919D01*
X334924Y-1421638D01*
X327964Y-1433372D01*
G37*
G36*
X73304Y-1434947D02*
G01*
X120650Y-1434947D01*
X120650Y-1387602D01*
X110185Y-1393342D01*
X99212Y-1401419D01*
X89408Y-1410919D01*
X80924Y-1421638D01*
X73964Y-1433372D01*
G37*
G36*
X6536029Y-1434947D02*
G01*
X6583375Y-1434947D01*
X6583375Y-1387602D01*
X6572859Y-1393342D01*
X6561886Y-1401419D01*
X6552082Y-1410919D01*
X6543649Y-1421638D01*
X6536690Y-1433372D01*
G37*
G36*
X6790029Y-1434947D02*
G01*
X6837324Y-1434947D01*
X6837324Y-1387602D01*
X6826859Y-1393342D01*
X6815886Y-1401419D01*
X6806082Y-1410919D01*
X6797649Y-1421638D01*
X6790690Y-1433372D01*
G37*
G36*
X5313832Y-1353108D02*
G01*
X5326989Y-1352245D01*
X5339943Y-1349705D01*
X5352440Y-1345438D01*
X5364276Y-1339596D01*
X5375249Y-1332280D01*
X5385155Y-1323594D01*
X5393893Y-1313637D01*
X5401208Y-1302664D01*
X5407050Y-1290828D01*
X5411266Y-1278331D01*
X5413857Y-1265428D01*
X5414772Y-1251915D01*
X5414772Y-1032560D01*
X5413857Y-1019048D01*
X5411266Y-1006144D01*
X5407050Y-993648D01*
X5401208Y-981811D01*
X5393893Y-970838D01*
X5385155Y-960882D01*
X5375249Y-952195D01*
X5364276Y-944880D01*
X5352440Y-939037D01*
X5339943Y-934770D01*
X5326989Y-932230D01*
X5313832Y-931367D01*
X5300675Y-932230D01*
X5287721Y-934770D01*
X5275224Y-939037D01*
X5263388Y-944880D01*
X5252415Y-952195D01*
X5242509Y-960882D01*
X5233822Y-970838D01*
X5226456Y-981811D01*
X5220614Y-993648D01*
X5216398Y-1006144D01*
X5213807Y-1019048D01*
X5212943Y-1032560D01*
X5212943Y-1251915D01*
X5213807Y-1265428D01*
X5216398Y-1278331D01*
X5220614Y-1290828D01*
X5226456Y-1302664D01*
X5233822Y-1313637D01*
X5242509Y-1323594D01*
X5252415Y-1332280D01*
X5263388Y-1339596D01*
X5275224Y-1345438D01*
X5287721Y-1349705D01*
X5300675Y-1352245D01*
G37*
G36*
X2703677Y-1314551D02*
G01*
X2717241Y-1313180D01*
X2730500Y-1310030D01*
X2743250Y-1305102D01*
X2755188Y-1298549D01*
X2766161Y-1290472D01*
X2775966Y-1281023D01*
X2784449Y-1270304D01*
X2791409Y-1258570D01*
X2796692Y-1246022D01*
X2800299Y-1232865D01*
X2802128Y-1219352D01*
X2802128Y-1205687D01*
X2800299Y-1192174D01*
X2796692Y-1179017D01*
X2791409Y-1166469D01*
X2784449Y-1154734D01*
X2775966Y-1144066D01*
X2766161Y-1134567D01*
X2755188Y-1126490D01*
X2743250Y-1119936D01*
X2730500Y-1115009D01*
X2717241Y-1111859D01*
X2703677Y-1110488D01*
X2690063Y-1110945D01*
X2676601Y-1113231D01*
X2663596Y-1117244D01*
X2651201Y-1122984D01*
X2639720Y-1130350D01*
X2629306Y-1139139D01*
X2620162Y-1149248D01*
X2612440Y-1160475D01*
X2606294Y-1172667D01*
X2601823Y-1185570D01*
X2599080Y-1198930D01*
X2598216Y-1212545D01*
X2599080Y-1226108D01*
X2601823Y-1239469D01*
X2606294Y-1252372D01*
X2612440Y-1264564D01*
X2620162Y-1275791D01*
X2629306Y-1285900D01*
X2639720Y-1294688D01*
X2651201Y-1302054D01*
X2663596Y-1307795D01*
X2676601Y-1311808D01*
X2690063Y-1314094D01*
G37*
G36*
X2957677Y-1314551D02*
G01*
X2971241Y-1313180D01*
X2984500Y-1310030D01*
X2997250Y-1305102D01*
X3009188Y-1298549D01*
X3020161Y-1290472D01*
X3029966Y-1281023D01*
X3038449Y-1270304D01*
X3045409Y-1258570D01*
X3050692Y-1246022D01*
X3054299Y-1232865D01*
X3056128Y-1219352D01*
X3056128Y-1205687D01*
X3054299Y-1192174D01*
X3050692Y-1179017D01*
X3045409Y-1166469D01*
X3038449Y-1154734D01*
X3029966Y-1144066D01*
X3020161Y-1134567D01*
X3009188Y-1126490D01*
X2997250Y-1119936D01*
X2984500Y-1115009D01*
X2971241Y-1111859D01*
X2957677Y-1110488D01*
X2944063Y-1110945D01*
X2930601Y-1113231D01*
X2917596Y-1117244D01*
X2905201Y-1122984D01*
X2893720Y-1130350D01*
X2883306Y-1139139D01*
X2874162Y-1149248D01*
X2866440Y-1160475D01*
X2860294Y-1172667D01*
X2855823Y-1185570D01*
X2853080Y-1198930D01*
X2852216Y-1212545D01*
X2853080Y-1226108D01*
X2855823Y-1239469D01*
X2860294Y-1252372D01*
X2866440Y-1264564D01*
X2874162Y-1275791D01*
X2883306Y-1285900D01*
X2893720Y-1294688D01*
X2905201Y-1302054D01*
X2917596Y-1307795D01*
X2930601Y-1311808D01*
X2944063Y-1314094D01*
G37*
G36*
X925677Y-1060551D02*
G01*
X939241Y-1059180D01*
X952500Y-1056030D01*
X965250Y-1051102D01*
X977188Y-1044549D01*
X988161Y-1036472D01*
X997966Y-1026972D01*
X1006449Y-1016304D01*
X1013409Y-1004569D01*
X1018692Y-992022D01*
X1022299Y-978865D01*
X1024128Y-965352D01*
X1024128Y-951687D01*
X1022299Y-938174D01*
X1018692Y-925017D01*
X1013409Y-912469D01*
X1006449Y-900734D01*
X997966Y-890066D01*
X988161Y-880567D01*
X977188Y-872490D01*
X965250Y-865936D01*
X952500Y-861009D01*
X939241Y-857859D01*
X925677Y-856487D01*
X912063Y-856945D01*
X898601Y-859231D01*
X885596Y-863244D01*
X873201Y-868984D01*
X861720Y-876350D01*
X851306Y-885139D01*
X842162Y-895248D01*
X834440Y-906475D01*
X828294Y-918667D01*
X823823Y-931570D01*
X821080Y-944930D01*
X820216Y-958545D01*
X821080Y-972108D01*
X823823Y-985469D01*
X828294Y-998372D01*
X834440Y-1010564D01*
X842162Y-1021791D01*
X851306Y-1031900D01*
X861720Y-1040688D01*
X873201Y-1048054D01*
X885596Y-1053795D01*
X898601Y-1057808D01*
X912063Y-1060094D01*
G37*
G36*
X1179677Y-1060551D02*
G01*
X1193241Y-1059180D01*
X1206500Y-1056030D01*
X1219250Y-1051102D01*
X1231188Y-1044549D01*
X1242161Y-1036472D01*
X1251966Y-1026972D01*
X1260449Y-1016304D01*
X1267409Y-1004569D01*
X1272692Y-992022D01*
X1276299Y-978865D01*
X1278128Y-965352D01*
X1278128Y-951687D01*
X1276299Y-938174D01*
X1272692Y-925017D01*
X1267409Y-912469D01*
X1260449Y-900734D01*
X1251966Y-890066D01*
X1242161Y-880567D01*
X1231188Y-872490D01*
X1219250Y-865936D01*
X1206500Y-861009D01*
X1193241Y-857859D01*
X1179677Y-856487D01*
X1166063Y-856945D01*
X1152601Y-859231D01*
X1139596Y-863244D01*
X1127201Y-868984D01*
X1115720Y-876350D01*
X1105306Y-885139D01*
X1096162Y-895248D01*
X1088440Y-906475D01*
X1082294Y-918667D01*
X1077823Y-931570D01*
X1075080Y-944930D01*
X1074216Y-958545D01*
X1075080Y-972108D01*
X1077823Y-985469D01*
X1082294Y-998372D01*
X1088440Y-1010564D01*
X1096162Y-1021791D01*
X1105306Y-1031900D01*
X1115720Y-1040688D01*
X1127201Y-1048054D01*
X1139596Y-1053795D01*
X1152601Y-1057808D01*
X1166063Y-1060094D01*
G37*
G36*
X2957677Y-1060551D02*
G01*
X2971241Y-1059180D01*
X2984500Y-1056030D01*
X2997250Y-1051102D01*
X3009188Y-1044549D01*
X3020161Y-1036472D01*
X3029966Y-1027023D01*
X3038449Y-1016304D01*
X3045409Y-1004569D01*
X3050692Y-992022D01*
X3054299Y-978865D01*
X3056128Y-965352D01*
X3056128Y-951687D01*
X3054299Y-938174D01*
X3050692Y-925017D01*
X3045409Y-912469D01*
X3038449Y-900734D01*
X3029966Y-890066D01*
X3020161Y-880567D01*
X3009188Y-872490D01*
X2997250Y-865936D01*
X2984500Y-861009D01*
X2971241Y-857859D01*
X2957677Y-856487D01*
X2944063Y-856945D01*
X2930601Y-859231D01*
X2917596Y-863244D01*
X2905201Y-868984D01*
X2893720Y-876350D01*
X2883306Y-885139D01*
X2874162Y-895248D01*
X2866440Y-906475D01*
X2860294Y-918667D01*
X2855823Y-931570D01*
X2853080Y-944930D01*
X2852216Y-958545D01*
X2853080Y-972108D01*
X2855823Y-985469D01*
X2860294Y-998372D01*
X2866440Y-1010564D01*
X2874162Y-1021791D01*
X2883306Y-1031900D01*
X2893720Y-1040688D01*
X2905201Y-1048054D01*
X2917596Y-1053795D01*
X2930601Y-1057808D01*
X2944063Y-1060094D01*
G37*
G36*
X2703677Y-1060551D02*
G01*
X2717241Y-1059180D01*
X2730500Y-1056030D01*
X2743250Y-1051102D01*
X2755188Y-1044549D01*
X2766161Y-1036472D01*
X2775966Y-1027023D01*
X2784449Y-1016304D01*
X2791409Y-1004569D01*
X2796692Y-992022D01*
X2800299Y-978865D01*
X2802128Y-965352D01*
X2802128Y-951687D01*
X2800299Y-938174D01*
X2796692Y-925017D01*
X2791409Y-912469D01*
X2784449Y-900734D01*
X2775966Y-890066D01*
X2766161Y-880567D01*
X2755188Y-872490D01*
X2743250Y-865936D01*
X2730500Y-861009D01*
X2717241Y-857859D01*
X2703677Y-856487D01*
X2690063Y-856945D01*
X2676601Y-859231D01*
X2663596Y-863244D01*
X2651201Y-868984D01*
X2639720Y-876350D01*
X2629306Y-885139D01*
X2620162Y-895248D01*
X2612440Y-906475D01*
X2606294Y-918667D01*
X2601823Y-931570D01*
X2599080Y-944930D01*
X2598216Y-958545D01*
X2599080Y-972108D01*
X2601823Y-985469D01*
X2606294Y-998372D01*
X2612440Y-1010564D01*
X2620162Y-1021791D01*
X2629306Y-1031900D01*
X2639720Y-1040688D01*
X2651201Y-1048054D01*
X2663596Y-1053795D01*
X2676601Y-1057808D01*
X2690063Y-1060094D01*
G37*
G36*
X5664149Y-893165D02*
G01*
X5677509Y-893165D01*
X5677509Y-836117D01*
X5573217Y-836117D01*
X5576468Y-842670D01*
X5583783Y-853643D01*
X5592521Y-863600D01*
X5602427Y-872286D01*
X5613400Y-879602D01*
X5625236Y-885444D01*
X5637733Y-889711D01*
X5650687Y-892251D01*
G37*
G36*
X5880201Y-893165D02*
G01*
X5893511Y-893165D01*
X5907024Y-892251D01*
X5919927Y-889711D01*
X5932424Y-885444D01*
X5944260Y-879602D01*
X5955233Y-872286D01*
X5965190Y-863600D01*
X5973876Y-853643D01*
X5981192Y-842670D01*
X5984443Y-836117D01*
X5880201Y-836117D01*
G37*
G36*
X5573217Y-748385D02*
G01*
X5677509Y-748385D01*
X5677509Y-691337D01*
X5664149Y-691337D01*
X5650687Y-692251D01*
X5637733Y-694791D01*
X5625236Y-699058D01*
X5613400Y-704900D01*
X5602427Y-712216D01*
X5592521Y-720902D01*
X5583783Y-730859D01*
X5576468Y-741832D01*
G37*
G36*
X5880201Y-748385D02*
G01*
X5984443Y-748385D01*
X5981192Y-741832D01*
X5973876Y-730859D01*
X5965190Y-720902D01*
X5955233Y-712216D01*
X5944260Y-704900D01*
X5932424Y-699058D01*
X5919927Y-694791D01*
X5907024Y-692251D01*
X5893511Y-691337D01*
X5880201Y-691337D01*
G37*
G36*
X4776165Y-742137D02*
G01*
X4779518Y-740613D01*
X4792065Y-732840D01*
X4803546Y-723595D01*
X4813808Y-712978D01*
X4822698Y-701192D01*
X4830114Y-688340D01*
X4776165Y-688340D01*
G37*
G36*
X4161485Y-742137D02*
G01*
X4161485Y-688340D01*
X4107484Y-688340D01*
X4114901Y-701192D01*
X4123791Y-712978D01*
X4134053Y-723595D01*
X4145534Y-732840D01*
X4158081Y-740613D01*
G37*
G36*
X2827274Y-612394D02*
G01*
X2842463Y-611479D01*
X2857398Y-608736D01*
X2871927Y-604215D01*
X2885795Y-597966D01*
X2898800Y-590092D01*
X2910738Y-580745D01*
X2921508Y-569976D01*
X2930855Y-558038D01*
X2938729Y-545033D01*
X2944977Y-531164D01*
X2949498Y-516635D01*
X2952242Y-501700D01*
X2953156Y-486511D01*
X2952242Y-471322D01*
X2949498Y-456387D01*
X2944977Y-441858D01*
X2938729Y-427990D01*
X2930855Y-414985D01*
X2921508Y-403047D01*
X2910738Y-392277D01*
X2898800Y-382930D01*
X2885795Y-375056D01*
X2871927Y-368808D01*
X2857398Y-364286D01*
X2842463Y-361543D01*
X2827274Y-360629D01*
X2812084Y-361543D01*
X2797149Y-364286D01*
X2782620Y-368808D01*
X2768752Y-375056D01*
X2755747Y-382930D01*
X2743809Y-392277D01*
X2733040Y-403047D01*
X2723692Y-414985D01*
X2715818Y-427990D01*
X2709570Y-441858D01*
X2705049Y-456387D01*
X2702306Y-471322D01*
X2701391Y-486511D01*
X2702306Y-501700D01*
X2705049Y-516635D01*
X2709570Y-531164D01*
X2715818Y-545033D01*
X2723692Y-558038D01*
X2733040Y-569976D01*
X2743809Y-580745D01*
X2755747Y-590092D01*
X2768752Y-597966D01*
X2782620Y-604215D01*
X2797149Y-608736D01*
X2812084Y-611479D01*
G37*
G36*
X1049274Y-612394D02*
G01*
X1064463Y-611479D01*
X1079398Y-608736D01*
X1093927Y-604215D01*
X1107795Y-597966D01*
X1120800Y-590092D01*
X1132738Y-580745D01*
X1143508Y-569976D01*
X1152855Y-558038D01*
X1160729Y-545033D01*
X1166977Y-531164D01*
X1171498Y-516635D01*
X1174242Y-501700D01*
X1175156Y-486511D01*
X1174242Y-471322D01*
X1171498Y-456387D01*
X1166977Y-441858D01*
X1160729Y-427990D01*
X1152855Y-414985D01*
X1143508Y-403047D01*
X1132738Y-392277D01*
X1120800Y-382930D01*
X1107795Y-375056D01*
X1093927Y-368808D01*
X1079398Y-364286D01*
X1064463Y-361543D01*
X1049274Y-360629D01*
X1034084Y-361543D01*
X1019149Y-364286D01*
X1004620Y-368808D01*
X990752Y-375056D01*
X977747Y-382930D01*
X965809Y-392277D01*
X955040Y-403047D01*
X945692Y-414985D01*
X937818Y-427990D01*
X931570Y-441858D01*
X927049Y-456387D01*
X924306Y-471322D01*
X923391Y-486511D01*
X924306Y-501700D01*
X927049Y-516635D01*
X931570Y-531164D01*
X937818Y-545033D01*
X945692Y-558038D01*
X955040Y-569976D01*
X965809Y-580745D01*
X977747Y-590092D01*
X990752Y-597966D01*
X1004620Y-604215D01*
X1019149Y-608736D01*
X1034084Y-611479D01*
G37*
G36*
X4776165Y-581660D02*
G01*
X4829911Y-581660D01*
X4826609Y-575056D01*
X4818481Y-562762D01*
X4808880Y-551535D01*
X4797958Y-541629D01*
X4785918Y-533095D01*
X4776165Y-527862D01*
G37*
G36*
X4107687Y-581660D02*
G01*
X4161485Y-581660D01*
X4161485Y-527862D01*
X4151680Y-533095D01*
X4139641Y-541629D01*
X4128770Y-551535D01*
X4119118Y-562762D01*
X4110990Y-575056D01*
G37*
G36*
X388112Y-485901D02*
G01*
X403504Y-484936D01*
X418642Y-482193D01*
X433324Y-477621D01*
X447344Y-471271D01*
X460552Y-463296D01*
X472643Y-453796D01*
X483514Y-442925D01*
X493014Y-430834D01*
X500989Y-417626D01*
X507339Y-403606D01*
X511911Y-388924D01*
X514654Y-373786D01*
X515620Y-358394D01*
X514654Y-343001D01*
X511911Y-327863D01*
X507339Y-313182D01*
X500989Y-299161D01*
X493014Y-285953D01*
X483514Y-273862D01*
X472643Y-262991D01*
X460552Y-253492D01*
X447344Y-245516D01*
X433324Y-239166D01*
X418642Y-234594D01*
X403504Y-231851D01*
X388112Y-230886D01*
X372719Y-231851D01*
X357581Y-234594D01*
X342900Y-239166D01*
X328879Y-245516D01*
X315671Y-253492D01*
X303580Y-262991D01*
X292709Y-273862D01*
X283210Y-285953D01*
X275234Y-299161D01*
X268884Y-313182D01*
X264312Y-327863D01*
X261569Y-343001D01*
X260604Y-358394D01*
X261569Y-373786D01*
X264312Y-388924D01*
X268884Y-403606D01*
X275234Y-417626D01*
X283210Y-430834D01*
X292709Y-442925D01*
X303580Y-453796D01*
X315671Y-463296D01*
X328879Y-471271D01*
X342900Y-477621D01*
X357581Y-482193D01*
X372719Y-484936D01*
G37*
G36*
X6688124Y-485901D02*
G01*
X6703466Y-484936D01*
X6718604Y-482193D01*
X6733286Y-477621D01*
X6747357Y-471271D01*
X6760514Y-463296D01*
X6772656Y-453796D01*
X6783527Y-442925D01*
X6793026Y-430834D01*
X6801002Y-417626D01*
X6807301Y-403606D01*
X6811873Y-388924D01*
X6814667Y-373786D01*
X6815581Y-358394D01*
X6814667Y-343001D01*
X6811873Y-327863D01*
X6807301Y-313182D01*
X6801002Y-299161D01*
X6793026Y-285953D01*
X6783527Y-273862D01*
X6772656Y-262991D01*
X6760514Y-253492D01*
X6747357Y-245516D01*
X6733286Y-239166D01*
X6718604Y-234594D01*
X6703466Y-231851D01*
X6688124Y-230886D01*
X6672732Y-231851D01*
X6657594Y-234594D01*
X6642912Y-239166D01*
X6628841Y-245516D01*
X6615684Y-253492D01*
X6603542Y-262991D01*
X6592671Y-273862D01*
X6583172Y-285953D01*
X6575196Y-299161D01*
X6568897Y-313182D01*
X6564325Y-327863D01*
X6561531Y-343001D01*
X6560616Y-358394D01*
X6561531Y-373786D01*
X6564325Y-388924D01*
X6568897Y-403606D01*
X6575196Y-417626D01*
X6583172Y-430834D01*
X6592671Y-442925D01*
X6603542Y-453796D01*
X6615684Y-463296D01*
X6628841Y-471271D01*
X6642912Y-477621D01*
X6657594Y-482193D01*
X6672732Y-484936D01*
G37*
G36*
X3745788Y-303885D02*
G01*
X3782618Y-303885D01*
X3788968Y-303174D01*
X3794404Y-301294D01*
X3799332Y-298196D01*
X3803396Y-294132D01*
X3806494Y-289204D01*
X3808374Y-283768D01*
X3809085Y-277418D01*
X3809085Y-240588D01*
X3745788Y-240588D01*
G37*
G36*
X3608781Y-303885D02*
G01*
X3645611Y-303885D01*
X3645611Y-240588D01*
X3582314Y-240588D01*
X3582314Y-277418D01*
X3583025Y-283768D01*
X3584905Y-289204D01*
X3588004Y-294132D01*
X3592068Y-298196D01*
X3596995Y-301294D01*
X3602431Y-303174D01*
G37*

%LPD*%
G36*
X7807959Y-8128000D02*
G01*
X7804048Y-8127238D01*
X7800797Y-8125002D01*
X7798562Y-8121751D01*
X7797800Y-8117840D01*
X7797800Y-5344160D01*
X7798562Y-5340248D01*
X7800797Y-5336997D01*
X7804048Y-5334762D01*
X7807959Y-5334000D01*
X9819640Y-5334000D01*
X9823551Y-5334762D01*
X9826802Y-5336997D01*
X9829038Y-5340248D01*
X9829800Y-5344160D01*
X9829800Y-8117840D01*
X9829038Y-8121751D01*
X9826802Y-8125002D01*
X9823551Y-8127238D01*
X9819640Y-8128000D01*
G37*

%LPC*%
G36*
X9398254Y-8031327D02*
G01*
X9445853Y-8031327D01*
X9452152Y-8030616D01*
X9457639Y-8028686D01*
X9462516Y-8025587D01*
X9466630Y-8021523D01*
X9469678Y-8016595D01*
X9471609Y-8011159D01*
X9472320Y-8004809D01*
X9472320Y-7961731D01*
X9398254Y-7961731D01*
G37*
G36*
X8376259Y-8031327D02*
G01*
X8423808Y-8031327D01*
X8430158Y-8030565D01*
X8435594Y-8028686D01*
X8440521Y-8025587D01*
X8444585Y-8021523D01*
X8447684Y-8016595D01*
X8449614Y-8011159D01*
X8450326Y-8004809D01*
X8450326Y-7961731D01*
X8376259Y-7961731D01*
G37*
G36*
X9228988Y-8031327D02*
G01*
X9276537Y-8031327D01*
X9276537Y-7961731D01*
X9202521Y-7961731D01*
X9202521Y-8004809D01*
X9203232Y-8011159D01*
X9205112Y-8016595D01*
X9208211Y-8021523D01*
X9212275Y-8025587D01*
X9217202Y-8028686D01*
X9222638Y-8030616D01*
G37*
G36*
X8206994Y-8031327D02*
G01*
X8254542Y-8031327D01*
X8254542Y-7961731D01*
X8180476Y-7961731D01*
X8180476Y-8004809D01*
X8181187Y-8011159D01*
X8183118Y-8016595D01*
X8186216Y-8021523D01*
X8190280Y-8025587D01*
X8195208Y-8028686D01*
X8200644Y-8030565D01*
G37*
G36*
X9202521Y-7849057D02*
G01*
X9276537Y-7849057D01*
X9276537Y-7779512D01*
X9228988Y-7779512D01*
X9222638Y-7780223D01*
X9217202Y-7782102D01*
X9212275Y-7785201D01*
X9208211Y-7789265D01*
X9205112Y-7794193D01*
X9203232Y-7799628D01*
X9202521Y-7805978D01*
G37*
G36*
X8180476Y-7849057D02*
G01*
X8254542Y-7849057D01*
X8254542Y-7779512D01*
X8206994Y-7779512D01*
X8200644Y-7780223D01*
X8195208Y-7782102D01*
X8190280Y-7785201D01*
X8186216Y-7789265D01*
X8183118Y-7794193D01*
X8181187Y-7799628D01*
X8180476Y-7805978D01*
G37*
G36*
X8376259Y-7849057D02*
G01*
X8450326Y-7849057D01*
X8450326Y-7805978D01*
X8449614Y-7799628D01*
X8447684Y-7794193D01*
X8444585Y-7789265D01*
X8440521Y-7785201D01*
X8435594Y-7782102D01*
X8430158Y-7780223D01*
X8423808Y-7779512D01*
X8376259Y-7779512D01*
G37*
G36*
X9398254Y-7849057D02*
G01*
X9472320Y-7849057D01*
X9472320Y-7805978D01*
X9471609Y-7799628D01*
X9469678Y-7794193D01*
X9466630Y-7789265D01*
X9462516Y-7785201D01*
X9457639Y-7782102D01*
X9452152Y-7780223D01*
X9445853Y-7779512D01*
X9398254Y-7779512D01*
G37*
G36*
X8376259Y-7638288D02*
G01*
X8423808Y-7638288D01*
X8430158Y-7637576D01*
X8435594Y-7635697D01*
X8440521Y-7632598D01*
X8444585Y-7628534D01*
X8447684Y-7623606D01*
X8449614Y-7618171D01*
X8450326Y-7611821D01*
X8450326Y-7568742D01*
X8376259Y-7568742D01*
G37*
G36*
X9398254Y-7638288D02*
G01*
X9445853Y-7638288D01*
X9452152Y-7637576D01*
X9457639Y-7635697D01*
X9462516Y-7632598D01*
X9466630Y-7628483D01*
X9469678Y-7623606D01*
X9471609Y-7618120D01*
X9472320Y-7611821D01*
X9472320Y-7568742D01*
X9398254Y-7568742D01*
G37*
G36*
X9228988Y-7638288D02*
G01*
X9276588Y-7638288D01*
X9276588Y-7568742D01*
X9202521Y-7568742D01*
X9202521Y-7611821D01*
X9203232Y-7618120D01*
X9205112Y-7623606D01*
X9208211Y-7628483D01*
X9212275Y-7632598D01*
X9217202Y-7635697D01*
X9222638Y-7637576D01*
G37*
G36*
X8206994Y-7638288D02*
G01*
X8254542Y-7638288D01*
X8254542Y-7568742D01*
X8180476Y-7568742D01*
X8180476Y-7611821D01*
X8181187Y-7618171D01*
X8183118Y-7623606D01*
X8186216Y-7628534D01*
X8190280Y-7632598D01*
X8195208Y-7635697D01*
X8200644Y-7637576D01*
G37*
G36*
X8661806Y-7629702D02*
G01*
X8978544Y-7629702D01*
X8986621Y-7628890D01*
X8993936Y-7626705D01*
X9000642Y-7623098D01*
X9006941Y-7617968D01*
X9044584Y-7580274D01*
X9047988Y-7578039D01*
X9052001Y-7577277D01*
X9055963Y-7578191D01*
X9059265Y-7580579D01*
X9061348Y-7584084D01*
X9062212Y-7586421D01*
X9067038Y-7595057D01*
X9073235Y-7602778D01*
X9080703Y-7609331D01*
X9089136Y-7614513D01*
X9098330Y-7618222D01*
X9107982Y-7620304D01*
X9117888Y-7620711D01*
X9127693Y-7619441D01*
X9137142Y-7616545D01*
X9145981Y-7612075D01*
X9153956Y-7606233D01*
X9160814Y-7599070D01*
X9166352Y-7590840D01*
X9170416Y-7581849D01*
X9172956Y-7572248D01*
X9173768Y-7562392D01*
X9172956Y-7552537D01*
X9172346Y-7550353D01*
X9172194Y-7546035D01*
X9173819Y-7542072D01*
X9176969Y-7539075D01*
X9182201Y-7537551D01*
X9182201Y-7490002D01*
X9167774Y-7490002D01*
X9167774Y-7508646D01*
X9166809Y-7512964D01*
X9164066Y-7516469D01*
X9160103Y-7518501D01*
X9155633Y-7518603D01*
X9151569Y-7516825D01*
X9145981Y-7512710D01*
X9137142Y-7508240D01*
X9132265Y-7506716D01*
X9128506Y-7504633D01*
X9125966Y-7501178D01*
X9125051Y-7497013D01*
X9125051Y-7486751D01*
X9123019Y-7483551D01*
X9122308Y-7479842D01*
X9122308Y-7429957D01*
X9123019Y-7426198D01*
X9125051Y-7422997D01*
X9125051Y-7371486D01*
X9116974Y-7371486D01*
X9110675Y-7372197D01*
X9106408Y-7373061D01*
X9102191Y-7372197D01*
X9095841Y-7371486D01*
X9037015Y-7371486D01*
X9030665Y-7372197D01*
X9026448Y-7373061D01*
X9022181Y-7372197D01*
X9015882Y-7371486D01*
X8987028Y-7371486D01*
X8980881Y-7372146D01*
X8976715Y-7371791D01*
X8973108Y-7369759D01*
X8970568Y-7366457D01*
X8969552Y-7362444D01*
X8970264Y-7358380D01*
X8972550Y-7354874D01*
X9105239Y-7222185D01*
X9108948Y-7219797D01*
X9113316Y-7219238D01*
X9117533Y-7220559D01*
X9120784Y-7223556D01*
X9122816Y-7226452D01*
X9129776Y-7233412D01*
X9137802Y-7239050D01*
X9146692Y-7243216D01*
X9156192Y-7245756D01*
X9165996Y-7246620D01*
X9175800Y-7245756D01*
X9185300Y-7243216D01*
X9194190Y-7239050D01*
X9202216Y-7233412D01*
X9203537Y-7232142D01*
X9206839Y-7229906D01*
X9210700Y-7229144D01*
X9266834Y-7229144D01*
X9274911Y-7228331D01*
X9282226Y-7226147D01*
X9288932Y-7222540D01*
X9295231Y-7217409D01*
X9433966Y-7078624D01*
X9439097Y-7072375D01*
X9442704Y-7065670D01*
X9444888Y-7058355D01*
X9445701Y-7050278D01*
X9445701Y-6670548D01*
X9444888Y-6662470D01*
X9442704Y-6655155D01*
X9439097Y-6648450D01*
X9433966Y-6642201D01*
X9387941Y-6596329D01*
X9385909Y-6593433D01*
X9384995Y-6589979D01*
X9384334Y-6582511D01*
X9381794Y-6573012D01*
X9377629Y-6564122D01*
X9371990Y-6556095D01*
X9365030Y-6549135D01*
X9357004Y-6543497D01*
X9348114Y-6539331D01*
X9338614Y-6536791D01*
X9328810Y-6535928D01*
X9319006Y-6536791D01*
X9309506Y-6539331D01*
X9300616Y-6543497D01*
X9292590Y-6549135D01*
X9290304Y-6551371D01*
X9287002Y-6553606D01*
X9283141Y-6554368D01*
X9279229Y-6553606D01*
X9275927Y-6551371D01*
X9273743Y-6548120D01*
X9272981Y-6544208D01*
X9272981Y-6383985D01*
X9273743Y-6380073D01*
X9275927Y-6376771D01*
X9279229Y-6374587D01*
X9283141Y-6373825D01*
X9399778Y-6373825D01*
X9408261Y-6372961D01*
X9415932Y-6370624D01*
X9422993Y-6366865D01*
X9429191Y-6361785D01*
X9434271Y-6355588D01*
X9438030Y-6348526D01*
X9440367Y-6340856D01*
X9441180Y-6332880D01*
X9440367Y-6324904D01*
X9438030Y-6317284D01*
X9435592Y-6312712D01*
X9434525Y-6309563D01*
X9434525Y-6306261D01*
X9435592Y-6303111D01*
X9438030Y-6298539D01*
X9440367Y-6290868D01*
X9441180Y-6282893D01*
X9440367Y-6274917D01*
X9438030Y-6267246D01*
X9435592Y-6262674D01*
X9434525Y-6259576D01*
X9434525Y-6256223D01*
X9435592Y-6253124D01*
X9438030Y-6248552D01*
X9440367Y-6240881D01*
X9441180Y-6232906D01*
X9440367Y-6224930D01*
X9438030Y-6217259D01*
X9435592Y-6212687D01*
X9434525Y-6209538D01*
X9434525Y-6206236D01*
X9435592Y-6203086D01*
X9438030Y-6198514D01*
X9440367Y-6190894D01*
X9441180Y-6182918D01*
X9440367Y-6174943D01*
X9438030Y-6167272D01*
X9435592Y-6162700D01*
X9434525Y-6159550D01*
X9434525Y-6156248D01*
X9435592Y-6153099D01*
X9438030Y-6148527D01*
X9440367Y-6140856D01*
X9441180Y-6132880D01*
X9440367Y-6124905D01*
X9438030Y-6117285D01*
X9435592Y-6112713D01*
X9434525Y-6109563D01*
X9434525Y-6106261D01*
X9435592Y-6103112D01*
X9438030Y-6098540D01*
X9440367Y-6090869D01*
X9441180Y-6082893D01*
X9440367Y-6074918D01*
X9438030Y-6067247D01*
X9435592Y-6062675D01*
X9434525Y-6059576D01*
X9434525Y-6056223D01*
X9435592Y-6053124D01*
X9438030Y-6048552D01*
X9440367Y-6040882D01*
X9441180Y-6032906D01*
X9440367Y-6024930D01*
X9438030Y-6017260D01*
X9435592Y-6012688D01*
X9434525Y-6009538D01*
X9434525Y-6006236D01*
X9435592Y-6003086D01*
X9438030Y-5998514D01*
X9440367Y-5990894D01*
X9441180Y-5982919D01*
X9440367Y-5974943D01*
X9438030Y-5967272D01*
X9435592Y-5962700D01*
X9434525Y-5959551D01*
X9434525Y-5956249D01*
X9435592Y-5953099D01*
X9438030Y-5948527D01*
X9440367Y-5940856D01*
X9441180Y-5932881D01*
X9440367Y-5924905D01*
X9438030Y-5917285D01*
X9435592Y-5912713D01*
X9434525Y-5909564D01*
X9434525Y-5906262D01*
X9435592Y-5903112D01*
X9438030Y-5898540D01*
X9440367Y-5890869D01*
X9441180Y-5882894D01*
X9440367Y-5874918D01*
X9438030Y-5867247D01*
X9435592Y-5862675D01*
X9434525Y-5859576D01*
X9434525Y-5856224D01*
X9435592Y-5853125D01*
X9438030Y-5848553D01*
X9440367Y-5840882D01*
X9441180Y-5832906D01*
X9440367Y-5824931D01*
X9438030Y-5817260D01*
X9435592Y-5812688D01*
X9434525Y-5809538D01*
X9434525Y-5806236D01*
X9435592Y-5803087D01*
X9438030Y-5798515D01*
X9440367Y-5790895D01*
X9441180Y-5782919D01*
X9440367Y-5774944D01*
X9438030Y-5767273D01*
X9434271Y-5760212D01*
X9429191Y-5754014D01*
X9422993Y-5748934D01*
X9415932Y-5745175D01*
X9408261Y-5742838D01*
X9399778Y-5741974D01*
X9280804Y-5741974D01*
X9272320Y-5742838D01*
X9264650Y-5745175D01*
X9257588Y-5748934D01*
X9251391Y-5754014D01*
X9246311Y-5760212D01*
X9242552Y-5767273D01*
X9240215Y-5774944D01*
X9239453Y-5782919D01*
X9240215Y-5790895D01*
X9242552Y-5798515D01*
X9244990Y-5803087D01*
X9246057Y-5806236D01*
X9246057Y-5809538D01*
X9244990Y-5812688D01*
X9242552Y-5817260D01*
X9240215Y-5824931D01*
X9239453Y-5832906D01*
X9240215Y-5840882D01*
X9242552Y-5848553D01*
X9244990Y-5853125D01*
X9246057Y-5856224D01*
X9246057Y-5859576D01*
X9244990Y-5862675D01*
X9242552Y-5867247D01*
X9241637Y-5870194D01*
X9240113Y-5873292D01*
X9237573Y-5875680D01*
X9234424Y-5877102D01*
X9230969Y-5877356D01*
X9219793Y-5876290D01*
X9210040Y-5877153D01*
X9200540Y-5879693D01*
X9191650Y-5883859D01*
X9183624Y-5889498D01*
X9176664Y-5896457D01*
X9171025Y-5904484D01*
X9166860Y-5913374D01*
X9164320Y-5922873D01*
X9163456Y-5932678D01*
X9164320Y-5942482D01*
X9166860Y-5951982D01*
X9171025Y-5960872D01*
X9176664Y-5968898D01*
X9177883Y-5970168D01*
X9180118Y-5973470D01*
X9180880Y-5977331D01*
X9180118Y-5981242D01*
X9177883Y-5984544D01*
X9174632Y-5986729D01*
X9170720Y-5987491D01*
X8920378Y-5987491D01*
X8912301Y-5988304D01*
X8904986Y-5990488D01*
X8898280Y-5994095D01*
X8891981Y-5999226D01*
X8845448Y-6045809D01*
X8840317Y-6052058D01*
X8836710Y-6058763D01*
X8834526Y-6066078D01*
X8833713Y-6074156D01*
X8833713Y-6176264D01*
X8834475Y-6184239D01*
X8836660Y-6191554D01*
X8842146Y-6201714D01*
X8842603Y-6205474D01*
X8841638Y-6209131D01*
X8839403Y-6212230D01*
X8836202Y-6214211D01*
X8832443Y-6214922D01*
X8819845Y-6214922D01*
X8806891Y-6216700D01*
X8794292Y-6220256D01*
X8782304Y-6225489D01*
X8771128Y-6232245D01*
X8760968Y-6240526D01*
X8752027Y-6250076D01*
X8744458Y-6260795D01*
X8738463Y-6272428D01*
X8734094Y-6284722D01*
X8731402Y-6297523D01*
X8730538Y-6310630D01*
X8731402Y-6323685D01*
X8734094Y-6336487D01*
X8738463Y-6348780D01*
X8744458Y-6360414D01*
X8748420Y-6366002D01*
X8750046Y-6369862D01*
X8749995Y-6374079D01*
X8748268Y-6377889D01*
X8745118Y-6380683D01*
X8741105Y-6381953D01*
X8732316Y-6382816D01*
X8724646Y-6385153D01*
X8720074Y-6387592D01*
X8716975Y-6388658D01*
X8713622Y-6388658D01*
X8710523Y-6387592D01*
X8705951Y-6385153D01*
X8698280Y-6382816D01*
X8690305Y-6382054D01*
X8682329Y-6382816D01*
X8674658Y-6385153D01*
X8670086Y-6387592D01*
X8666937Y-6388658D01*
X8663635Y-6388658D01*
X8660485Y-6387592D01*
X8655913Y-6385153D01*
X8648293Y-6382816D01*
X8640318Y-6382054D01*
X8632342Y-6382816D01*
X8624671Y-6385153D01*
X8617610Y-6388912D01*
X8611412Y-6393992D01*
X8606332Y-6400190D01*
X8602573Y-6407251D01*
X8600236Y-6414922D01*
X8599373Y-6423406D01*
X8599373Y-6542379D01*
X8600236Y-6550863D01*
X8602573Y-6558534D01*
X8606332Y-6565595D01*
X8611412Y-6571792D01*
X8617610Y-6576872D01*
X8624671Y-6580631D01*
X8632342Y-6582968D01*
X8640318Y-6583781D01*
X8648293Y-6582968D01*
X8655913Y-6580631D01*
X8660485Y-6578193D01*
X8663635Y-6577126D01*
X8666937Y-6577126D01*
X8670086Y-6578193D01*
X8674658Y-6580631D01*
X8682329Y-6582968D01*
X8690305Y-6583781D01*
X8698280Y-6582968D01*
X8705951Y-6580631D01*
X8710523Y-6578193D01*
X8713622Y-6577126D01*
X8716975Y-6577126D01*
X8720074Y-6578193D01*
X8724646Y-6580631D01*
X8732316Y-6582968D01*
X8740292Y-6583781D01*
X8748268Y-6582968D01*
X8755938Y-6580631D01*
X8760510Y-6578193D01*
X8763660Y-6577126D01*
X8766962Y-6577126D01*
X8770112Y-6578193D01*
X8774684Y-6580631D01*
X8782304Y-6582968D01*
X8790279Y-6583781D01*
X8798255Y-6582968D01*
X8805926Y-6580631D01*
X8810498Y-6578193D01*
X8813647Y-6577126D01*
X8816949Y-6577126D01*
X8820099Y-6578193D01*
X8824671Y-6580631D01*
X8832342Y-6582968D01*
X8840317Y-6583781D01*
X8848293Y-6582968D01*
X8855913Y-6580631D01*
X8860485Y-6578193D01*
X8863634Y-6577126D01*
X8866936Y-6577126D01*
X8870086Y-6578193D01*
X8874658Y-6580631D01*
X8882329Y-6582968D01*
X8894419Y-6584289D01*
X8898026Y-6586423D01*
X8900414Y-6589826D01*
X8901277Y-6593890D01*
X8901277Y-6661810D01*
X8900312Y-6666128D01*
X8897670Y-6669633D01*
X8893759Y-6671665D01*
X8889339Y-6671818D01*
X8876182Y-6665823D01*
X8866682Y-6663283D01*
X8856878Y-6662420D01*
X8847074Y-6663283D01*
X8837574Y-6665823D01*
X8828684Y-6669989D01*
X8820658Y-6675628D01*
X8813698Y-6682587D01*
X8808059Y-6690614D01*
X8803894Y-6699503D01*
X8801354Y-6709003D01*
X8800795Y-6715302D01*
X8799830Y-6718909D01*
X8797544Y-6721906D01*
X8794394Y-6723888D01*
X8790686Y-6724599D01*
X8758580Y-6724599D01*
X8754668Y-6723837D01*
X8751417Y-6721602D01*
X8749182Y-6718350D01*
X8748420Y-6714439D01*
X8748420Y-6640423D01*
X8747709Y-6634073D01*
X8745778Y-6628638D01*
X8742730Y-6623710D01*
X8738616Y-6619646D01*
X8733739Y-6616547D01*
X8728252Y-6614668D01*
X8721953Y-6613956D01*
X8578037Y-6613956D01*
X8573871Y-6613042D01*
X8570468Y-6610553D01*
X8568334Y-6606844D01*
X8567928Y-6602628D01*
X8568283Y-6599326D01*
X8568283Y-6460439D01*
X8567572Y-6454140D01*
X8565692Y-6448653D01*
X8562594Y-6443776D01*
X8558530Y-6439662D01*
X8553602Y-6436614D01*
X8548166Y-6434683D01*
X8541816Y-6433972D01*
X8462975Y-6433972D01*
X8456625Y-6434683D01*
X8451189Y-6436614D01*
X8446262Y-6439662D01*
X8442198Y-6443776D01*
X8439099Y-6448653D01*
X8437219Y-6454140D01*
X8436508Y-6460439D01*
X8436508Y-6599326D01*
X8437219Y-6605625D01*
X8439099Y-6611112D01*
X8442198Y-6615988D01*
X8446262Y-6620103D01*
X8451189Y-6623151D01*
X8456625Y-6625081D01*
X8462975Y-6625793D01*
X8486902Y-6625793D01*
X8491016Y-6626656D01*
X8494471Y-6629196D01*
X8496554Y-6632854D01*
X8496960Y-6637070D01*
X8496604Y-6640423D01*
X8496604Y-6717741D01*
X8495690Y-6721957D01*
X8493150Y-6725412D01*
X8482228Y-6731203D01*
X8475980Y-6736334D01*
X8469020Y-6743293D01*
X8463889Y-6749542D01*
X8460282Y-6756247D01*
X8458098Y-6763562D01*
X8457285Y-6771640D01*
X8457285Y-6880098D01*
X8458098Y-6888124D01*
X8460282Y-6895439D01*
X8463838Y-6902145D01*
X8469020Y-6908444D01*
X8570417Y-7010095D01*
X8576665Y-7015225D01*
X8583371Y-7018832D01*
X8590686Y-7021068D01*
X8598763Y-7021880D01*
X8652154Y-7021880D01*
X8656015Y-7022642D01*
X8659317Y-7024827D01*
X8660638Y-7026148D01*
X8668664Y-7031786D01*
X8677554Y-7035952D01*
X8687054Y-7038492D01*
X8696858Y-7039356D01*
X8698738Y-7039152D01*
X8702852Y-7039660D01*
X8706459Y-7041794D01*
X8708898Y-7045198D01*
X8709761Y-7049312D01*
X8709761Y-7053783D01*
X8708999Y-7057644D01*
X8706764Y-7060946D01*
X8703513Y-7063130D01*
X8699601Y-7063943D01*
X8523071Y-7063943D01*
X8516772Y-7064654D01*
X8511286Y-7066534D01*
X8506409Y-7069632D01*
X8502294Y-7073696D01*
X8499246Y-7078624D01*
X8497316Y-7084059D01*
X8496604Y-7090409D01*
X8496604Y-7169251D01*
X8497316Y-7175601D01*
X8498433Y-7178802D01*
X8498992Y-7182612D01*
X8498128Y-7186371D01*
X8495893Y-7189520D01*
X8492642Y-7191603D01*
X8488832Y-7192314D01*
X8462111Y-7192314D01*
X8455761Y-7193025D01*
X8450326Y-7194956D01*
X8445398Y-7198004D01*
X8441334Y-7202119D01*
X8438235Y-7206996D01*
X8436356Y-7212482D01*
X8435644Y-7218781D01*
X8435644Y-7357668D01*
X8436356Y-7363968D01*
X8438235Y-7369454D01*
X8439658Y-7371689D01*
X8441029Y-7375194D01*
X8441029Y-7378953D01*
X8439658Y-7382509D01*
X8437067Y-7385253D01*
X8433663Y-7386878D01*
X8429904Y-7387183D01*
X8423808Y-7386472D01*
X8376259Y-7386472D01*
X8376259Y-7456068D01*
X8430209Y-7456068D01*
X8430209Y-7429906D01*
X8430971Y-7426045D01*
X8433155Y-7422743D01*
X8436457Y-7420559D01*
X8440369Y-7419746D01*
X8485073Y-7419746D01*
X8485073Y-7394295D01*
X8485835Y-7390384D01*
X8488070Y-7387132D01*
X8491372Y-7384897D01*
X8495233Y-7384135D01*
X8517636Y-7384135D01*
X8521496Y-7384897D01*
X8524798Y-7387132D01*
X8526983Y-7390384D01*
X8527796Y-7394295D01*
X8527796Y-7422946D01*
X8529828Y-7426198D01*
X8530539Y-7429906D01*
X8530539Y-7479792D01*
X8529828Y-7483551D01*
X8527796Y-7486751D01*
X8527796Y-7496759D01*
X8526983Y-7500721D01*
X8524748Y-7504023D01*
X8521344Y-7506208D01*
X8511082Y-7510272D01*
X8498636Y-7518044D01*
X8494826Y-7518653D01*
X8491067Y-7517739D01*
X8487918Y-7515504D01*
X8485784Y-7512253D01*
X8485073Y-7508494D01*
X8485073Y-7489952D01*
X8470646Y-7489952D01*
X8470646Y-7537551D01*
X8475624Y-7538974D01*
X8478723Y-7541666D01*
X8480450Y-7545374D01*
X8480602Y-7549489D01*
X8479231Y-7557465D01*
X8479231Y-7567320D01*
X8480907Y-7577124D01*
X8484209Y-7586421D01*
X8489035Y-7595057D01*
X8495233Y-7602778D01*
X8502700Y-7609331D01*
X8511133Y-7614513D01*
X8520328Y-7618222D01*
X8529980Y-7620304D01*
X8539886Y-7620711D01*
X8549690Y-7619441D01*
X8559139Y-7616545D01*
X8567978Y-7612075D01*
X8575954Y-7606233D01*
X8582812Y-7599070D01*
X8588705Y-7590332D01*
X8591956Y-7587284D01*
X8596172Y-7585913D01*
X8600592Y-7586472D01*
X8604300Y-7588808D01*
X8633409Y-7617968D01*
X8639708Y-7623098D01*
X8646414Y-7626705D01*
X8653729Y-7628890D01*
G37*
G36*
X8180476Y-7456068D02*
G01*
X8254542Y-7456068D01*
X8254542Y-7395209D01*
X8255304Y-7391298D01*
X8257540Y-7388047D01*
X8260842Y-7385812D01*
X8264702Y-7385050D01*
X8282330Y-7385050D01*
X8288629Y-7384338D01*
X8294116Y-7382408D01*
X8298992Y-7379360D01*
X8303107Y-7375245D01*
X8306155Y-7370368D01*
X8308086Y-7364882D01*
X8308797Y-7358583D01*
X8308797Y-7219696D01*
X8308086Y-7213396D01*
X8306155Y-7207910D01*
X8303107Y-7203033D01*
X8298992Y-7198918D01*
X8294116Y-7195870D01*
X8288629Y-7193940D01*
X8282330Y-7193229D01*
X8203438Y-7193229D01*
X8197138Y-7193940D01*
X8191652Y-7195870D01*
X8186775Y-7198918D01*
X8182660Y-7203033D01*
X8179612Y-7207910D01*
X8177682Y-7213396D01*
X8176971Y-7219696D01*
X8176971Y-7358583D01*
X8177682Y-7364882D01*
X8179612Y-7370368D01*
X8182660Y-7375245D01*
X8187740Y-7380274D01*
X8189975Y-7383525D01*
X8190788Y-7387437D01*
X8190026Y-7391349D01*
X8187791Y-7394651D01*
X8186216Y-7396276D01*
X8183118Y-7401204D01*
X8181187Y-7406640D01*
X8180476Y-7412990D01*
G37*
G36*
X9398254Y-7456017D02*
G01*
X9472320Y-7456017D01*
X9472320Y-7412939D01*
X9471609Y-7406640D01*
X9469678Y-7401153D01*
X9466630Y-7396276D01*
X9462516Y-7392162D01*
X9457639Y-7389114D01*
X9452152Y-7387183D01*
X9445853Y-7386472D01*
X9398254Y-7386472D01*
G37*
G36*
X9222638Y-7456017D02*
G01*
X9276588Y-7456017D01*
X9276588Y-7386472D01*
X9228988Y-7386472D01*
X9222638Y-7387183D01*
X9217202Y-7389114D01*
X9214459Y-7390790D01*
X9210751Y-7392212D01*
X9206738Y-7392111D01*
X9203131Y-7390434D01*
X9200388Y-7387488D01*
X9196578Y-7381240D01*
X9192514Y-7377175D01*
X9187637Y-7374128D01*
X9182150Y-7372197D01*
X9175851Y-7371486D01*
X9167774Y-7371486D01*
X9167774Y-7419797D01*
X9212478Y-7419797D01*
X9216390Y-7420559D01*
X9219692Y-7422743D01*
X9221876Y-7426045D01*
X9222638Y-7429957D01*
G37*
G36*
X8370366Y-7116064D02*
G01*
X8380933Y-7115606D01*
X8391347Y-7113524D01*
X8401253Y-7109764D01*
X8410448Y-7104430D01*
X8418626Y-7097725D01*
X8425688Y-7089800D01*
X8431326Y-7080859D01*
X8435492Y-7071106D01*
X8438032Y-7060793D01*
X8438896Y-7050227D01*
X8438032Y-7039660D01*
X8435492Y-7029348D01*
X8431326Y-7019594D01*
X8425688Y-7010653D01*
X8418626Y-7002729D01*
X8410448Y-6996023D01*
X8401253Y-6990689D01*
X8391347Y-6986930D01*
X8380933Y-6984847D01*
X8370366Y-6984390D01*
X8359851Y-6985660D01*
X8349640Y-6988657D01*
X8340090Y-6993178D01*
X8331352Y-6999224D01*
X8323681Y-7006539D01*
X8317331Y-7015022D01*
X8312403Y-7024420D01*
X8309051Y-7034479D01*
X8307324Y-7044944D01*
X8307324Y-7055510D01*
X8309051Y-7065975D01*
X8312403Y-7076033D01*
X8317331Y-7085431D01*
X8323681Y-7093915D01*
X8331352Y-7101230D01*
X8340090Y-7107275D01*
X8349640Y-7111796D01*
X8359851Y-7114794D01*
G37*
G36*
X8370112Y-6815836D02*
G01*
X8380679Y-6815378D01*
X8391093Y-6813296D01*
X8400999Y-6809536D01*
X8410194Y-6804202D01*
X8418372Y-6797497D01*
X8425434Y-6789572D01*
X8431072Y-6780631D01*
X8435238Y-6770878D01*
X8437778Y-6760565D01*
X8438642Y-6749999D01*
X8437778Y-6739432D01*
X8435238Y-6729120D01*
X8431072Y-6719366D01*
X8425434Y-6710425D01*
X8418372Y-6702501D01*
X8410194Y-6695795D01*
X8400999Y-6690461D01*
X8391093Y-6686702D01*
X8380679Y-6684619D01*
X8370112Y-6684162D01*
X8359597Y-6685432D01*
X8349386Y-6688429D01*
X8339836Y-6692950D01*
X8331098Y-6698996D01*
X8323427Y-6706311D01*
X8317077Y-6714794D01*
X8312150Y-6724192D01*
X8308797Y-6734251D01*
X8307070Y-6744716D01*
X8307070Y-6755282D01*
X8308797Y-6765747D01*
X8312150Y-6775805D01*
X8317077Y-6785203D01*
X8323427Y-6793687D01*
X8331098Y-6801002D01*
X8339836Y-6807047D01*
X8349386Y-6811568D01*
X8359597Y-6814566D01*
G37*
G36*
X8212023Y-6624574D02*
G01*
X8290915Y-6624574D01*
X8297214Y-6623862D01*
X8302701Y-6621932D01*
X8307578Y-6618884D01*
X8311692Y-6614769D01*
X8314740Y-6609892D01*
X8316671Y-6604406D01*
X8317382Y-6598107D01*
X8317382Y-6459220D01*
X8316671Y-6452920D01*
X8314740Y-6447434D01*
X8311692Y-6442557D01*
X8307578Y-6438442D01*
X8302701Y-6435394D01*
X8297214Y-6433464D01*
X8290915Y-6432753D01*
X8212023Y-6432753D01*
X8205724Y-6433464D01*
X8200237Y-6435394D01*
X8195360Y-6438442D01*
X8191246Y-6442557D01*
X8188198Y-6447434D01*
X8186267Y-6452920D01*
X8185556Y-6459220D01*
X8185556Y-6598107D01*
X8186267Y-6604406D01*
X8188198Y-6609892D01*
X8191246Y-6614769D01*
X8195360Y-6618884D01*
X8200237Y-6621932D01*
X8205724Y-6623862D01*
G37*
G36*
X8430818Y-6373825D02*
G01*
X8549792Y-6373825D01*
X8558276Y-6372961D01*
X8565946Y-6370624D01*
X8573008Y-6366865D01*
X8579205Y-6361785D01*
X8584285Y-6355588D01*
X8588044Y-6348526D01*
X8590381Y-6340856D01*
X8591143Y-6332880D01*
X8590381Y-6324904D01*
X8588044Y-6317284D01*
X8585606Y-6312712D01*
X8584539Y-6309563D01*
X8584539Y-6306261D01*
X8585606Y-6303111D01*
X8588044Y-6298539D01*
X8590381Y-6290868D01*
X8591143Y-6282893D01*
X8590381Y-6274917D01*
X8588044Y-6267246D01*
X8585606Y-6262674D01*
X8584539Y-6259576D01*
X8584539Y-6256223D01*
X8585606Y-6253124D01*
X8588044Y-6248552D01*
X8590381Y-6240881D01*
X8591143Y-6232906D01*
X8590381Y-6224930D01*
X8588044Y-6217259D01*
X8585606Y-6212687D01*
X8584539Y-6209538D01*
X8584539Y-6206236D01*
X8585606Y-6203086D01*
X8588044Y-6198514D01*
X8590381Y-6190894D01*
X8591143Y-6182918D01*
X8590381Y-6174943D01*
X8588044Y-6167272D01*
X8585606Y-6162700D01*
X8584539Y-6159550D01*
X8584539Y-6156248D01*
X8585606Y-6153099D01*
X8588044Y-6148527D01*
X8590381Y-6140856D01*
X8591143Y-6132880D01*
X8590381Y-6124905D01*
X8588044Y-6117285D01*
X8585606Y-6112713D01*
X8584539Y-6109563D01*
X8584539Y-6106261D01*
X8585606Y-6103112D01*
X8588044Y-6098540D01*
X8590381Y-6090869D01*
X8591143Y-6082893D01*
X8590381Y-6074918D01*
X8588044Y-6067247D01*
X8585606Y-6062675D01*
X8584539Y-6059576D01*
X8584539Y-6056223D01*
X8585606Y-6053124D01*
X8588044Y-6048552D01*
X8590381Y-6045606D01*
X8593683Y-6043726D01*
X8597392Y-6043168D01*
X8601049Y-6044031D01*
X8604199Y-6046165D01*
X8653729Y-6095746D01*
X8660028Y-6100876D01*
X8666734Y-6104483D01*
X8674049Y-6106668D01*
X8682126Y-6107480D01*
X8730640Y-6107480D01*
X8738616Y-6106718D01*
X8745880Y-6104534D01*
X8752636Y-6100927D01*
X8758936Y-6095796D01*
X8796324Y-6058662D01*
X8801506Y-6052413D01*
X8805113Y-6045708D01*
X8807348Y-6038443D01*
X8808161Y-6030366D01*
X8808161Y-5947664D01*
X8807348Y-5939586D01*
X8805164Y-5932271D01*
X8801557Y-5925566D01*
X8797848Y-5920994D01*
X8795918Y-5917438D01*
X8795562Y-5913424D01*
X8796832Y-5909614D01*
X8799423Y-5906566D01*
X8803030Y-5904738D01*
X8807043Y-5904484D01*
X8819845Y-5906262D01*
X8832951Y-5906262D01*
X8845905Y-5904484D01*
X8858504Y-5900978D01*
X8870492Y-5895746D01*
X8881668Y-5888939D01*
X8891828Y-5880658D01*
X8900769Y-5871108D01*
X8908338Y-5860440D01*
X8914333Y-5848807D01*
X8918702Y-5836462D01*
X8921394Y-5823661D01*
X8922258Y-5810605D01*
X8921394Y-5797550D01*
X8918702Y-5784748D01*
X8914333Y-5772404D01*
X8908338Y-5760770D01*
X8900769Y-5750102D01*
X8898890Y-5748070D01*
X8896756Y-5744565D01*
X8896197Y-5740552D01*
X8896299Y-5739079D01*
X8891778Y-5739079D01*
X8887714Y-5737148D01*
X8880348Y-5731357D01*
X8878214Y-5729122D01*
X8876893Y-5726379D01*
X8876436Y-5723382D01*
X8876436Y-5714085D01*
X8876741Y-5711596D01*
X8878062Y-5708548D01*
X8880551Y-5700217D01*
X8882684Y-5696458D01*
X8886088Y-5693867D01*
X8890304Y-5693003D01*
X8894470Y-5693867D01*
X8897924Y-5696458D01*
X8900007Y-5700217D01*
X8902547Y-5708548D01*
X8903817Y-5711596D01*
X8904122Y-5714085D01*
X8904122Y-5729173D01*
X8903665Y-5731357D01*
X8905951Y-5730646D01*
X8910523Y-5728208D01*
X8913622Y-5727141D01*
X8916974Y-5727141D01*
X8920073Y-5728208D01*
X8924645Y-5730646D01*
X8932316Y-5732983D01*
X8940292Y-5733745D01*
X8948267Y-5732983D01*
X8955938Y-5730646D01*
X8960510Y-5728208D01*
X8963660Y-5727141D01*
X8966962Y-5727141D01*
X8970111Y-5728208D01*
X8974683Y-5730646D01*
X8982303Y-5732983D01*
X8990279Y-5733745D01*
X8998254Y-5732983D01*
X9005925Y-5730646D01*
X9010497Y-5728208D01*
X9013647Y-5727141D01*
X9016949Y-5727141D01*
X9020098Y-5728208D01*
X9024670Y-5730646D01*
X9032341Y-5732983D01*
X9040317Y-5733745D01*
X9048292Y-5732983D01*
X9055912Y-5730646D01*
X9060484Y-5728208D01*
X9063634Y-5727141D01*
X9066936Y-5727141D01*
X9070086Y-5728208D01*
X9074658Y-5730646D01*
X9082328Y-5732983D01*
X9090304Y-5733745D01*
X9098280Y-5732983D01*
X9105950Y-5730646D01*
X9110522Y-5728208D01*
X9113621Y-5727141D01*
X9116974Y-5727141D01*
X9120073Y-5728208D01*
X9124645Y-5730646D01*
X9132316Y-5732983D01*
X9140291Y-5733745D01*
X9148267Y-5732983D01*
X9155938Y-5730646D01*
X9160510Y-5728208D01*
X9163659Y-5727141D01*
X9166961Y-5727141D01*
X9170111Y-5728208D01*
X9174683Y-5730646D01*
X9182303Y-5732983D01*
X9190278Y-5733745D01*
X9198254Y-5732983D01*
X9205925Y-5730646D01*
X9212986Y-5726887D01*
X9219184Y-5721807D01*
X9224264Y-5715609D01*
X9228023Y-5708548D01*
X9230360Y-5700877D01*
X9231223Y-5692394D01*
X9231223Y-5573420D01*
X9230360Y-5564936D01*
X9228023Y-5557266D01*
X9224264Y-5550204D01*
X9219184Y-5544007D01*
X9212986Y-5538927D01*
X9205925Y-5535168D01*
X9198254Y-5532831D01*
X9190278Y-5532018D01*
X9182303Y-5532831D01*
X9174683Y-5535168D01*
X9170111Y-5537606D01*
X9166961Y-5538673D01*
X9163659Y-5538673D01*
X9160510Y-5537606D01*
X9155938Y-5535168D01*
X9148267Y-5532831D01*
X9140291Y-5532018D01*
X9132316Y-5532831D01*
X9124645Y-5535168D01*
X9120073Y-5537606D01*
X9116974Y-5538673D01*
X9113621Y-5538673D01*
X9110522Y-5537606D01*
X9105950Y-5535168D01*
X9098280Y-5532831D01*
X9090304Y-5532018D01*
X9082328Y-5532831D01*
X9074658Y-5535168D01*
X9070086Y-5537606D01*
X9066936Y-5538673D01*
X9063634Y-5538673D01*
X9060484Y-5537606D01*
X9055912Y-5535168D01*
X9048292Y-5532831D01*
X9040317Y-5532018D01*
X9032341Y-5532831D01*
X9024670Y-5535168D01*
X9020098Y-5537606D01*
X9016949Y-5538673D01*
X9013647Y-5538673D01*
X9010497Y-5537606D01*
X9005925Y-5535168D01*
X8998254Y-5532831D01*
X8990279Y-5532018D01*
X8982303Y-5532831D01*
X8974683Y-5535168D01*
X8970111Y-5537606D01*
X8966962Y-5538673D01*
X8963660Y-5538673D01*
X8960510Y-5537606D01*
X8955938Y-5535168D01*
X8948267Y-5532831D01*
X8940292Y-5532018D01*
X8932316Y-5532831D01*
X8924645Y-5535168D01*
X8920073Y-5537606D01*
X8916974Y-5538673D01*
X8913622Y-5538673D01*
X8910523Y-5537606D01*
X8905951Y-5535168D01*
X8904122Y-5534609D01*
X8904122Y-5551728D01*
X8903817Y-5554218D01*
X8902547Y-5557266D01*
X8900007Y-5565597D01*
X8897924Y-5569356D01*
X8894470Y-5571896D01*
X8890304Y-5572810D01*
X8886088Y-5571896D01*
X8882684Y-5569356D01*
X8880551Y-5565597D01*
X8878062Y-5557266D01*
X8876741Y-5554218D01*
X8876436Y-5551728D01*
X8876436Y-5534609D01*
X8874658Y-5535168D01*
X8870086Y-5537606D01*
X8866936Y-5538673D01*
X8863634Y-5538673D01*
X8860485Y-5537606D01*
X8855913Y-5535168D01*
X8848293Y-5532831D01*
X8840317Y-5532018D01*
X8832342Y-5532831D01*
X8824671Y-5535168D01*
X8820099Y-5537606D01*
X8816949Y-5538673D01*
X8813647Y-5538673D01*
X8810498Y-5537606D01*
X8805926Y-5535168D01*
X8798255Y-5532831D01*
X8790279Y-5532018D01*
X8782304Y-5532831D01*
X8774684Y-5535168D01*
X8770112Y-5537606D01*
X8766962Y-5538673D01*
X8763660Y-5538673D01*
X8760510Y-5537606D01*
X8755938Y-5535168D01*
X8748268Y-5532831D01*
X8740292Y-5532018D01*
X8732316Y-5532831D01*
X8724646Y-5535168D01*
X8720074Y-5537606D01*
X8716975Y-5538673D01*
X8713622Y-5538673D01*
X8710523Y-5537606D01*
X8705951Y-5535168D01*
X8698280Y-5532831D01*
X8690305Y-5532018D01*
X8682329Y-5532831D01*
X8674658Y-5535168D01*
X8670086Y-5537606D01*
X8666937Y-5538673D01*
X8663635Y-5538673D01*
X8660485Y-5537606D01*
X8655913Y-5535168D01*
X8648293Y-5532831D01*
X8640318Y-5532018D01*
X8632342Y-5532831D01*
X8624671Y-5535168D01*
X8617610Y-5538927D01*
X8611412Y-5544007D01*
X8607958Y-5548172D01*
X8604707Y-5550814D01*
X8600592Y-5551881D01*
X8596477Y-5551220D01*
X8592921Y-5548934D01*
X8584285Y-5540248D01*
X8577986Y-5535117D01*
X8571280Y-5531510D01*
X8563965Y-5529326D01*
X8555888Y-5528513D01*
X8388756Y-5528513D01*
X8380679Y-5529326D01*
X8373364Y-5531510D01*
X8366658Y-5535117D01*
X8360359Y-5540248D01*
X8335721Y-5564936D01*
X8332419Y-5567121D01*
X8328558Y-5567883D01*
X8310676Y-5567883D01*
X8304326Y-5568594D01*
X8298891Y-5570524D01*
X8293963Y-5573572D01*
X8289899Y-5577687D01*
X8286800Y-5582564D01*
X8284921Y-5588050D01*
X8284464Y-5591810D01*
X8283295Y-5595569D01*
X8280806Y-5598566D01*
X8277301Y-5600395D01*
X8268970Y-5602884D01*
X8262264Y-5606491D01*
X8256016Y-5611622D01*
X8242706Y-5624880D01*
X8237575Y-5631180D01*
X8233968Y-5637885D01*
X8231784Y-5645200D01*
X8230971Y-5653278D01*
X8230971Y-5804662D01*
X8231784Y-5812739D01*
X8233968Y-5820054D01*
X8237575Y-5826760D01*
X8242706Y-5833008D01*
X8250885Y-5841187D01*
X8253272Y-5844895D01*
X8253831Y-5849264D01*
X8252510Y-5853430D01*
X8249513Y-5856681D01*
X8248396Y-5857494D01*
X8241436Y-5864453D01*
X8235797Y-5872480D01*
X8231631Y-5881370D01*
X8229092Y-5890869D01*
X8228228Y-5900674D01*
X8229092Y-5910478D01*
X8231631Y-5919978D01*
X8235797Y-5928868D01*
X8241436Y-5936894D01*
X8248396Y-5943854D01*
X8256422Y-5949492D01*
X8265312Y-5953658D01*
X8274812Y-5956198D01*
X8282381Y-5956858D01*
X8285835Y-5957773D01*
X8288680Y-5959805D01*
X8339023Y-6010148D01*
X8345322Y-6015278D01*
X8352028Y-6018885D01*
X8359343Y-6021070D01*
X8367420Y-6021882D01*
X8379307Y-6021882D01*
X8383422Y-6022746D01*
X8386775Y-6025184D01*
X8388908Y-6028740D01*
X8390229Y-6040882D01*
X8392566Y-6048552D01*
X8395004Y-6053124D01*
X8396071Y-6056223D01*
X8396071Y-6059576D01*
X8395004Y-6062675D01*
X8392566Y-6067247D01*
X8390229Y-6074918D01*
X8389416Y-6082893D01*
X8390229Y-6090869D01*
X8392566Y-6098540D01*
X8395004Y-6103112D01*
X8396071Y-6106261D01*
X8396071Y-6109563D01*
X8395004Y-6112713D01*
X8392566Y-6117285D01*
X8390229Y-6124905D01*
X8389416Y-6132880D01*
X8390229Y-6140856D01*
X8392566Y-6148527D01*
X8395004Y-6153099D01*
X8396071Y-6156248D01*
X8396071Y-6159550D01*
X8395004Y-6162700D01*
X8392566Y-6167272D01*
X8390229Y-6174943D01*
X8388959Y-6187084D01*
X8386825Y-6190691D01*
X8383422Y-6193129D01*
X8379307Y-6193993D01*
X8358174Y-6193993D01*
X8354974Y-6193485D01*
X8352078Y-6191961D01*
X8348878Y-6188303D01*
X8341918Y-6181344D01*
X8333892Y-6175705D01*
X8325002Y-6171539D01*
X8315502Y-6168999D01*
X8305698Y-6168136D01*
X8295894Y-6168999D01*
X8286394Y-6171539D01*
X8277504Y-6175705D01*
X8269478Y-6181344D01*
X8262518Y-6188303D01*
X8256879Y-6196330D01*
X8252714Y-6205220D01*
X8250174Y-6214719D01*
X8249310Y-6224524D01*
X8250174Y-6234328D01*
X8252714Y-6243828D01*
X8256879Y-6252718D01*
X8262518Y-6260744D01*
X8269478Y-6267704D01*
X8277504Y-6273342D01*
X8286394Y-6277508D01*
X8295894Y-6280048D01*
X8305698Y-6280912D01*
X8315502Y-6280048D01*
X8324951Y-6277508D01*
X8334908Y-6272784D01*
X8339277Y-6271818D01*
X8379307Y-6271818D01*
X8383422Y-6272682D01*
X8386825Y-6275120D01*
X8388959Y-6278727D01*
X8390229Y-6290868D01*
X8392566Y-6298539D01*
X8395004Y-6303111D01*
X8396071Y-6306261D01*
X8396071Y-6309563D01*
X8395004Y-6312712D01*
X8392566Y-6317284D01*
X8390229Y-6324904D01*
X8389416Y-6332880D01*
X8390229Y-6340856D01*
X8392566Y-6348526D01*
X8396325Y-6355588D01*
X8401405Y-6361785D01*
X8407603Y-6366865D01*
X8414664Y-6370624D01*
X8422335Y-6372961D01*
G37*

%LPD*%
G36*
X8382558Y-5857392D02*
G01*
X8378139Y-5856884D01*
X8374380Y-5854496D01*
X8311794Y-5792012D01*
X8309559Y-5788710D01*
X8308797Y-5784799D01*
X8308797Y-5719876D01*
X8309559Y-5715965D01*
X8311794Y-5712663D01*
X8315045Y-5710478D01*
X8318957Y-5709716D01*
X8389518Y-5709716D01*
X8395868Y-5709005D01*
X8401304Y-5707075D01*
X8406231Y-5704027D01*
X8410295Y-5699912D01*
X8411514Y-5698032D01*
X8414308Y-5695086D01*
X8418068Y-5693460D01*
X8422132Y-5693460D01*
X8425891Y-5695086D01*
X8428685Y-5698032D01*
X8429904Y-5699912D01*
X8433968Y-5704027D01*
X8438896Y-5707075D01*
X8444331Y-5709005D01*
X8450681Y-5709716D01*
X8463737Y-5709716D01*
X8463737Y-5667654D01*
X8426145Y-5667654D01*
X8422284Y-5666892D01*
X8418982Y-5664657D01*
X8416798Y-5661355D01*
X8415985Y-5657494D01*
X8415985Y-5620105D01*
X8416798Y-5616244D01*
X8418982Y-5612942D01*
X8422284Y-5610707D01*
X8426145Y-5609945D01*
X8466124Y-5609945D01*
X8469630Y-5607304D01*
X8473897Y-5606338D01*
X8506307Y-5606338D01*
X8510574Y-5607304D01*
X8514080Y-5609945D01*
X8539683Y-5609945D01*
X8543594Y-5610707D01*
X8546896Y-5612942D01*
X8552383Y-5618429D01*
X8554567Y-5621731D01*
X8555329Y-5625592D01*
X8555329Y-5657494D01*
X8554567Y-5661355D01*
X8552383Y-5664657D01*
X8549081Y-5666892D01*
X8545169Y-5667654D01*
X8516467Y-5667654D01*
X8516467Y-5709716D01*
X8529523Y-5709716D01*
X8535822Y-5709005D01*
X8541816Y-5706922D01*
X8545626Y-5706364D01*
X8549386Y-5707227D01*
X8552535Y-5709462D01*
X8554618Y-5712714D01*
X8555329Y-5716473D01*
X8555329Y-5731814D01*
X8554567Y-5735726D01*
X8552383Y-5739028D01*
X8549081Y-5741212D01*
X8545169Y-5741974D01*
X8430818Y-5741974D01*
X8422335Y-5742838D01*
X8414664Y-5745175D01*
X8407603Y-5748934D01*
X8401405Y-5754014D01*
X8396325Y-5760212D01*
X8392566Y-5767273D01*
X8390229Y-5774944D01*
X8389416Y-5782919D01*
X8390229Y-5790895D01*
X8392566Y-5798515D01*
X8395004Y-5803087D01*
X8396071Y-5806236D01*
X8396071Y-5809538D01*
X8395004Y-5812688D01*
X8392566Y-5817260D01*
X8390229Y-5824931D01*
X8389416Y-5832906D01*
X8390229Y-5840882D01*
X8391296Y-5844336D01*
X8391601Y-5848807D01*
X8390026Y-5852922D01*
X8386775Y-5856020D01*
G37*

%LPD*%
G36*
X8850122Y-7332167D02*
G01*
X8846007Y-7331303D01*
X8842603Y-7328865D01*
X8840520Y-7325207D01*
X8840012Y-7321042D01*
X8841130Y-7309815D01*
X8840266Y-7300061D01*
X8837726Y-7290562D01*
X8833561Y-7281672D01*
X8827922Y-7273645D01*
X8816949Y-7262825D01*
X8815527Y-7258913D01*
X8815832Y-7254748D01*
X8817762Y-7251090D01*
X8820353Y-7247890D01*
X8823960Y-7241184D01*
X8826144Y-7233869D01*
X8826957Y-7225792D01*
X8826957Y-7047738D01*
X8827719Y-7043877D01*
X8829903Y-7040575D01*
X8839860Y-7030618D01*
X8842705Y-7028738D01*
X8844584Y-7025894D01*
X8876944Y-6993534D01*
X8880246Y-6991299D01*
X8884158Y-6990537D01*
X8905138Y-6990537D01*
X8909405Y-6989622D01*
X8946794Y-6989622D01*
X8951061Y-6990537D01*
X9000032Y-6990537D01*
X9001861Y-6987946D01*
X9004401Y-6986066D01*
X9010040Y-6983018D01*
X9016339Y-6977888D01*
X9062974Y-6931202D01*
X9065971Y-6929120D01*
X9069476Y-6928256D01*
X9073083Y-6928662D01*
X9076334Y-6930288D01*
X9082887Y-6937095D01*
X9084767Y-6938314D01*
X9087713Y-6941108D01*
X9089339Y-6944868D01*
X9089339Y-6948931D01*
X9087713Y-6952691D01*
X9084767Y-6955485D01*
X9082887Y-6956704D01*
X9078772Y-6960768D01*
X9075724Y-6965696D01*
X9073794Y-6971131D01*
X9073083Y-6977481D01*
X9073083Y-6990537D01*
X9115145Y-6990537D01*
X9115145Y-6952996D01*
X9115907Y-6949084D01*
X9118142Y-6945782D01*
X9121444Y-6943598D01*
X9125305Y-6942836D01*
X9162694Y-6942836D01*
X9166555Y-6943598D01*
X9169857Y-6945782D01*
X9172092Y-6949084D01*
X9172854Y-6952996D01*
X9172854Y-6990537D01*
X9214916Y-6990537D01*
X9214916Y-6977481D01*
X9214205Y-6971131D01*
X9212275Y-6965696D01*
X9209227Y-6960768D01*
X9205112Y-6956704D01*
X9203232Y-6955485D01*
X9200286Y-6952691D01*
X9198660Y-6948931D01*
X9198660Y-6944868D01*
X9200286Y-6941108D01*
X9203232Y-6938314D01*
X9205112Y-6937095D01*
X9209227Y-6933031D01*
X9212275Y-6928103D01*
X9214205Y-6922668D01*
X9214916Y-6916318D01*
X9214916Y-6895795D01*
X9215678Y-6891883D01*
X9217863Y-6888581D01*
X9221165Y-6886397D01*
X9225076Y-6885635D01*
X9228937Y-6886397D01*
X9232239Y-6888581D01*
X9325559Y-6981901D01*
X9327743Y-6985203D01*
X9328505Y-6989064D01*
X9328505Y-7014209D01*
X9327743Y-7018121D01*
X9325559Y-7021372D01*
X9255455Y-7091425D01*
X9252153Y-7093661D01*
X9248292Y-7094423D01*
X9212326Y-7094423D01*
X9208414Y-7093661D01*
X9205112Y-7091425D01*
X9202928Y-7088174D01*
X9202166Y-7084263D01*
X9202928Y-7080351D01*
X9205112Y-7077100D01*
X9209227Y-7072985D01*
X9212275Y-7068108D01*
X9214205Y-7062622D01*
X9214916Y-7056323D01*
X9214916Y-7043267D01*
X9172854Y-7043267D01*
X9172854Y-7084263D01*
X9172092Y-7088174D01*
X9169857Y-7091425D01*
X9166555Y-7093661D01*
X9162694Y-7094423D01*
X9139580Y-7094423D01*
X9131503Y-7095236D01*
X9128252Y-7096201D01*
X9124492Y-7096607D01*
X9120886Y-7095642D01*
X9120327Y-7097623D01*
X9117736Y-7100824D01*
X9111183Y-7106158D01*
X8888171Y-7329220D01*
X8884869Y-7331405D01*
X8881008Y-7332167D01*
G37*

%LPC*%
G36*
X9115145Y-7083602D02*
G01*
X9115145Y-7043267D01*
X9073083Y-7043267D01*
X9073083Y-7056323D01*
X9073794Y-7062622D01*
X9075724Y-7068108D01*
X9078772Y-7072985D01*
X9082887Y-7077100D01*
X9087764Y-7080199D01*
X9093250Y-7082078D01*
X9099550Y-7082790D01*
X9111284Y-7082790D01*
G37*
G36*
X8956954Y-7082790D02*
G01*
X8972550Y-7082790D01*
X8978849Y-7082078D01*
X8984335Y-7080199D01*
X8989212Y-7077100D01*
X8993327Y-7072985D01*
X8996375Y-7068108D01*
X8998305Y-7062673D01*
X8999016Y-7056323D01*
X8999016Y-7043267D01*
X8956954Y-7043267D01*
G37*
G36*
X8883650Y-7082790D02*
G01*
X8899245Y-7082790D01*
X8899245Y-7043267D01*
X8857183Y-7043267D01*
X8857183Y-7056323D01*
X8857894Y-7062673D01*
X8859824Y-7068108D01*
X8862872Y-7072985D01*
X8866987Y-7077100D01*
X8871864Y-7080199D01*
X8877350Y-7082078D01*
G37*

%LPD*%
D11*
X4991100Y-5295900D02*
G01*
X4813300Y-5118100D01*
X4470400Y-5118100D01*
X3835400Y-4483100D01*
X3835400Y-4330700D01*
X3302000Y-9664700D02*
G01*
X3086100Y-9448800D01*
X3086100Y-8204200D01*
X3302000Y-9220200D02*
G01*
X3467100Y-9055100D01*
X3467100Y-8775700D01*
X3340100Y-8648700D01*
X3340100Y-8204200D01*
X6667474Y-8079181D02*
G01*
X6667474Y-6807225D01*
X7175500Y-6299200D01*
D10*
X6350000Y-7797800D02*
G01*
X6159500Y-7988300D01*
X6159500Y-8077200D01*
X6350000Y-7886700D02*
G01*
X6324600Y-7886700D01*
X6286500Y-7924800D01*
X6286500Y-8204200D01*
X6159500Y-8331200D01*
X6350000Y-7962900D02*
G01*
X6350000Y-8394700D01*
X6159500Y-8585200D01*
X7035800Y-8166100D02*
G01*
X7035800Y-7962900D01*
X7175500Y-7823200D01*
X9258300Y-2692400D02*
G01*
X9753600Y-3187700D01*
X9855200Y-3187700D01*
X8128000Y-2679700D02*
G01*
X7620000Y-3187700D01*
X7569200Y-3187700D01*
X9156700Y-1663700D02*
G01*
X9664700Y-1155700D01*
X9855200Y-1155700D01*
X9144000Y-1422400D02*
G01*
X9855200Y-711200D01*
X9855200Y-647700D01*
X8166100Y-1676400D02*
G01*
X7645400Y-1155700D01*
X7569200Y-1155700D01*
X8178800Y-1409700D02*
G01*
X8178800Y-1257300D01*
X7569200Y-647700D01*
X6337300Y-4318000D02*
G01*
X6197600Y-4457700D01*
X6197600Y-4470400D01*
X6565900Y-4533900D02*
G01*
X6045200Y-4533900D01*
X5829300Y-4318000D01*
D11*
X3387699Y-3568700D02*
G01*
X2954276Y-3077568D01*
X2954276Y-2736522D01*
X6627873Y-1733295D02*
G01*
X6429499Y-1931670D01*
X6429499Y-3324100D01*
X6350000Y-3403600D01*
X4724400Y-3403600D01*
X4559300Y-3568700D01*
D10*
X2700276Y-2736595D02*
G01*
X2789422Y-2736595D01*
X2896108Y-2629915D01*
X3015493Y-2629915D01*
X3098800Y-2713230D01*
X3098800Y-2844800D01*
X3721100Y-3479800D01*
X3962400Y-3479800D01*
X4127500Y-3327400D01*
X4491730Y-3327400D01*
X4595873Y-3223257D01*
X4595873Y-306326D01*
X4711700Y-190500D01*
X1176276Y-1212522D02*
G01*
X1885622Y-1212522D01*
X2159000Y-1485900D01*
X2159000Y-3378200D01*
X3960873Y-3175000D02*
G01*
X3960627Y-3265680D01*
X5351500Y-1716478D02*
G01*
X5479417Y-1716478D01*
X4087997Y-3012869D02*
G01*
X4087997Y-1964791D01*
X3706141Y-1582930D01*
X165100Y-2241395D02*
G01*
X292100Y-2114395D01*
X460324Y-2114395D01*
X613209Y-1961517D01*
X613209Y-1617240D01*
X875052Y-1355397D01*
X1065151Y-1355397D01*
X1176276Y-1466522D01*
X419100Y-2241395D02*
G01*
X772566Y-1887928D01*
X772566Y-1616229D01*
X922276Y-1466522D01*
X922276Y-2228522D02*
G01*
X1049276Y-2101522D01*
X1492069Y-2101522D01*
X1732130Y-1861461D01*
X3960799Y-635000D02*
G01*
X4468799Y-1143000D01*
X4468799Y-3175000D01*
X4457700Y-190500D02*
G01*
X4341799Y-306400D01*
X4341799Y-839800D01*
X4529508Y-1027503D01*
X4529508Y-2847113D01*
X2819400Y-2565400D02*
G01*
X2819400Y-2455651D01*
X2930834Y-2344216D01*
X2987093Y-2344216D01*
X3403264Y-1928037D01*
X3403264Y-264690D01*
X3605931Y-62024D01*
X4075224Y-62024D01*
X4203700Y-190500D01*
X922276Y-2482522D02*
G01*
X813358Y-2373604D01*
X813358Y-1925320D01*
X891159Y-1847522D01*
X958875Y-1847522D01*
X1026566Y-1779828D01*
X1026566Y-1721711D01*
X1154757Y-1593522D01*
X1217673Y-1593522D01*
X1280566Y-1530629D01*
X1280566Y-1413662D01*
X1201849Y-1334945D01*
X1139037Y-1334945D01*
X1049276Y-1245181D01*
X1049276Y-1161869D01*
X6207373Y-1716478D02*
G01*
X6335290Y-1716478D01*
X3695700Y-190500D02*
G01*
X3695700Y-305915D01*
X3960873Y-3175000D02*
G01*
X3759200Y-3378200D01*
D11*
X5778835Y-1392176D02*
G01*
X5479417Y-1691586D01*
X5479417Y-1716478D01*
X9448800Y-8724900D02*
G01*
X9448800Y-8763000D01*
X9004300Y-9207500D01*
X9004300Y-9207500D02*
G01*
X8318500Y-9207500D01*
X7823200Y-8839200D02*
G01*
X7950200Y-8839200D01*
X8318500Y-9207500D01*
D12*
X9067444Y-6871715D02*
G01*
X8988452Y-6950707D01*
X8864752Y-6950707D01*
X8788044Y-7027415D01*
X8788044Y-7226300D01*
X8688222Y-7326127D01*
X8586368Y-7326127D01*
X8748671Y-6829808D02*
G01*
X8773060Y-6854192D01*
X8773060Y-6986772D01*
X8748671Y-7011156D01*
X8748671Y-7196076D01*
X8705748Y-7239000D01*
X8636002Y-7239000D01*
X8586368Y-7326127D02*
G01*
X8572398Y-7312149D01*
X8572398Y-7129785D01*
X8622515Y-7129833D01*
X8489594Y-6232903D02*
G01*
X8314336Y-6232903D01*
X8305698Y-6224526D01*
X8489594Y-5982970D02*
G01*
X8366909Y-5982970D01*
X8284613Y-5900676D01*
X8622433Y-6829808D02*
G01*
X8748671Y-6829808D01*
X8856875Y-6718808D02*
G01*
X8812425Y-6763506D01*
X8503818Y-6763506D01*
X8496198Y-6771134D01*
X8496198Y-6880608D01*
X8598306Y-6982965D01*
X8696860Y-6982965D01*
X8699906Y-6002276D02*
G01*
X8690256Y-5992873D01*
X8690256Y-5633465D01*
X9328810Y-6592315D02*
G01*
X9406790Y-6670042D01*
X9406790Y-7050780D01*
X9267344Y-7190234D01*
X9165998Y-7190234D01*
X9339729Y-5982970D02*
G01*
X9270133Y-5982970D01*
X9219844Y-5932680D01*
X9339729Y-6033007D02*
G01*
X9333125Y-6026404D01*
X8919867Y-6026404D01*
X8872626Y-6073650D01*
X8872626Y-6176769D01*
X8915806Y-6220203D01*
X8901325Y-7371085D02*
G01*
X9139072Y-7133330D01*
X9268609Y-7133330D01*
X9367418Y-7034535D01*
X9367418Y-6968741D01*
X9234068Y-6835391D01*
X9234068Y-6164323D01*
X9265564Y-6133084D01*
X9339729Y-6133084D01*
X8901325Y-7454900D02*
G01*
X8901325Y-7371085D01*
X8901325Y-7371085D02*
G01*
X8801252Y-7371085D01*
X8801252Y-7454900D02*
G01*
X8801252Y-7371085D01*
X8943240Y-6083300D02*
G01*
X9339475Y-6083300D01*
X9339729Y-6083045D01*
X8751468Y-7454900D02*
G01*
X8751468Y-7343391D01*
X8784744Y-7309865D01*
X8751468Y-7496807D02*
G01*
X8751468Y-7454900D01*
X8751468Y-7496807D02*
G01*
X8751468Y-7538714D01*
X8851290Y-7496807D02*
G01*
X8851290Y-7454900D01*
X8851290Y-7496807D02*
G01*
X8851290Y-7538714D01*
X8851290Y-7538714D02*
G01*
X8751468Y-7538714D01*
X9067444Y-6871715D02*
G01*
X9067444Y-6868927D01*
X9052709Y-6854192D01*
X9067444Y-6871715D02*
G01*
X9072775Y-6876801D01*
X9052709Y-6854192D02*
G01*
X8990225Y-6791708D01*
X8990225Y-6483604D01*
X9143898Y-6876801D02*
G01*
X9072775Y-6876801D01*
X8586368Y-7454900D02*
G01*
X8586368Y-7326127D01*
X9066425Y-7454900D02*
G01*
X9066425Y-7503419D01*
X8979052Y-7590792D01*
X8661298Y-7590792D01*
X8586368Y-7515857D01*
X8586368Y-7454900D01*
X8490102Y-5638800D02*
G01*
X8423810Y-5638800D01*
X8330590Y-5785612D02*
G01*
X8423810Y-5692396D01*
X8423810Y-5638800D01*
X9143898Y-7016998D02*
G01*
X9279790Y-7016998D01*
X9296298Y-7000242D01*
X8927998Y-7016998D02*
G01*
X9143898Y-7016998D01*
X8315352Y-7731508D02*
G01*
X8315352Y-7658348D01*
X8315352Y-7512298D02*
G01*
X8315352Y-7658348D01*
X8506360Y-7454900D02*
G01*
X8450729Y-7510785D01*
X8450729Y-7512298D01*
X9337448Y-7731508D02*
G01*
X9337448Y-7512298D01*
X9337448Y-7905501D02*
G01*
X9337448Y-7731508D01*
X9337448Y-7731508D02*
G01*
X8315352Y-7731508D01*
X8315352Y-7905501D02*
G01*
X8315352Y-7731508D01*
X9337448Y-7512298D02*
G01*
X9202064Y-7512298D01*
X9146440Y-7454900D02*
G01*
X9202064Y-7510785D01*
X9202064Y-7512298D01*
X8315352Y-7512298D02*
G01*
X8450729Y-7512298D01*
X8489594Y-5932934D02*
G01*
X8397902Y-5932934D01*
X8269886Y-5805170D01*
X8269886Y-5652770D01*
X8283856Y-5638800D01*
X8316871Y-5638800D02*
G01*
X8388248Y-5567423D01*
X8556398Y-5567423D01*
X8594244Y-5605269D01*
X8594244Y-5981192D01*
X8681618Y-6068565D01*
X8731148Y-6068565D01*
X8769248Y-6030719D01*
X8769248Y-5947153D01*
X8729621Y-5907534D01*
X8729621Y-5766307D01*
X8790330Y-5705599D01*
X8790330Y-5633465D01*
X8316871Y-5638800D02*
G01*
X8283856Y-5638800D01*
X8350148Y-5638800D02*
G01*
X8316871Y-5638800D01*
X8927998Y-6810758D02*
G01*
X8940190Y-6798569D01*
X8940190Y-6483604D01*
X8927998Y-6876801D02*
G01*
X8927998Y-6810758D01*
D52*
X8430305Y-6332905D02*
G01*
X8550305Y-6332905D01*
X8430305Y-6282893D02*
G01*
X8550305Y-6282893D01*
X8430305Y-6232905D02*
G01*
X8550305Y-6232905D01*
X8430305Y-6182893D02*
G01*
X8550305Y-6182893D01*
X8430305Y-6132906D02*
G01*
X8550305Y-6132906D01*
X8430305Y-6082893D02*
G01*
X8550305Y-6082893D01*
X8430305Y-6032906D02*
G01*
X8550305Y-6032906D01*
X8430305Y-5982893D02*
G01*
X8550305Y-5982893D01*
X8430305Y-5932906D02*
G01*
X8550305Y-5932906D01*
X8430305Y-5882894D02*
G01*
X8550305Y-5882894D01*
X8430305Y-5832906D02*
G01*
X8550305Y-5832906D01*
X8430305Y-5782894D02*
G01*
X8550305Y-5782894D01*
X8640292Y-5692907D02*
G01*
X8640292Y-5572907D01*
X8690305Y-5692907D02*
G01*
X8690305Y-5572907D01*
X8740292Y-5692907D02*
G01*
X8740292Y-5572907D01*
X8790304Y-5692907D02*
G01*
X8790304Y-5572907D01*
X8840292Y-5692907D02*
G01*
X8840292Y-5572907D01*
X8890304Y-5692907D02*
G01*
X8890304Y-5572907D01*
X8940291Y-5692907D02*
G01*
X8940291Y-5572907D01*
X8990304Y-5692907D02*
G01*
X8990304Y-5572907D01*
X9040291Y-5692907D02*
G01*
X9040291Y-5572907D01*
X9090304Y-5692907D02*
G01*
X9090304Y-5572907D01*
X9140291Y-5692907D02*
G01*
X9140291Y-5572907D01*
X9190304Y-5692907D02*
G01*
X9190304Y-5572907D01*
X9280291Y-5782894D02*
G01*
X9400291Y-5782894D01*
X9280291Y-5832906D02*
G01*
X9400291Y-5832906D01*
X9280291Y-5882894D02*
G01*
X9400291Y-5882894D01*
X9280291Y-5932906D02*
G01*
X9400291Y-5932906D01*
X9280291Y-5982893D02*
G01*
X9400291Y-5982893D01*
X9280291Y-6032906D02*
G01*
X9400291Y-6032906D01*
X9280291Y-6082893D02*
G01*
X9400291Y-6082893D01*
X9280291Y-6132906D02*
G01*
X9400291Y-6132906D01*
X9280291Y-6182893D02*
G01*
X9400291Y-6182893D01*
X9280291Y-6232905D02*
G01*
X9400291Y-6232905D01*
X9280291Y-6282893D02*
G01*
X9400291Y-6282893D01*
X9280291Y-6332905D02*
G01*
X9400291Y-6332905D01*
X9190304Y-6542892D02*
G01*
X9190304Y-6422892D01*
X9140291Y-6542892D02*
G01*
X9140291Y-6422892D01*
X9090304Y-6542892D02*
G01*
X9090304Y-6422892D01*
X9040291Y-6542892D02*
G01*
X9040291Y-6422892D01*
X8990304Y-6542892D02*
G01*
X8990304Y-6422892D01*
X8940291Y-6542892D02*
G01*
X8940291Y-6422892D01*
X8890304Y-6542892D02*
G01*
X8890304Y-6422892D01*
X8840292Y-6542892D02*
G01*
X8840292Y-6422892D01*
X8790304Y-6542892D02*
G01*
X8790304Y-6422892D01*
X8740292Y-6542892D02*
G01*
X8740292Y-6422892D01*
X8690305Y-6542892D02*
G01*
X8690305Y-6422892D01*
X8640292Y-6542892D02*
G01*
X8640292Y-6422892D01*
G36*
X9098998Y-6836900D02*
G01*
X9098998Y-6916900D01*
X9189001Y-6916900D01*
X9189001Y-6836900D01*
G37*
G36*
X9098998Y-6976899D02*
G01*
X9098998Y-7056899D01*
X9189001Y-7056899D01*
X9189001Y-6976899D01*
G37*
G36*
X8390100Y-5593798D02*
G01*
X8310100Y-5593798D01*
X8310100Y-5683801D01*
X8390100Y-5683801D01*
G37*
G36*
X8530099Y-5593798D02*
G01*
X8450099Y-5593798D01*
X8450099Y-5683801D01*
X8530099Y-5683801D01*
G37*
G36*
X8883098Y-6836900D02*
G01*
X8883098Y-6916900D01*
X8973101Y-6916900D01*
X8973101Y-6836900D01*
G37*
G36*
X8883098Y-6976899D02*
G01*
X8883098Y-7056899D01*
X8973101Y-7056899D01*
X8973101Y-6976899D01*
G37*
G36*
X8424397Y-7412400D02*
G01*
X8206399Y-7412400D01*
X8206399Y-7612400D01*
X8424397Y-7612400D01*
G37*
G36*
X9446397Y-7412398D02*
G01*
X9228399Y-7412398D01*
X9228399Y-7612400D01*
X9446397Y-7612400D01*
G37*
G36*
X8424397Y-7805394D02*
G01*
X8206399Y-7805394D01*
X8206399Y-8005396D01*
X8424397Y-8005396D01*
G37*
G36*
X9446399Y-7805404D02*
G01*
X9228399Y-7805404D01*
X9228399Y-8005399D01*
X9446399Y-8005399D01*
G37*
G36*
X9176397Y-7397399D02*
G01*
X9116397Y-7397399D01*
X9116397Y-7512400D01*
X9176397Y-7512400D01*
G37*
G36*
X9096397Y-7397399D02*
G01*
X9036397Y-7397399D01*
X9036397Y-7512400D01*
X9096397Y-7512400D01*
G37*
G36*
X8616398Y-7397399D02*
G01*
X8556398Y-7397399D01*
X8556398Y-7512400D01*
X8616398Y-7512400D01*
G37*
G36*
X8536398Y-7397399D02*
G01*
X8476399Y-7397399D01*
X8476399Y-7512400D01*
X8536398Y-7512400D01*
G37*
G36*
X8666398Y-7397402D02*
G01*
X8636396Y-7397402D01*
X8636396Y-7512400D01*
X8666398Y-7512400D01*
G37*
G36*
X8966400Y-7397399D02*
G01*
X8936398Y-7397399D01*
X8936398Y-7512400D01*
X8966400Y-7512400D01*
G37*
G36*
X8716398Y-7397399D02*
G01*
X8686396Y-7397399D01*
X8686396Y-7512400D01*
X8716398Y-7512400D01*
G37*
G36*
X9016400Y-7397399D02*
G01*
X8986398Y-7397399D01*
X8986398Y-7512400D01*
X9016400Y-7512400D01*
G37*
G36*
X8916400Y-7397399D02*
G01*
X8886398Y-7397399D01*
X8886398Y-7512400D01*
X8916400Y-7512400D01*
G37*
G36*
X8766398Y-7397399D02*
G01*
X8736396Y-7397399D01*
X8736396Y-7512400D01*
X8766398Y-7512400D01*
G37*
G36*
X8866400Y-7397399D02*
G01*
X8836398Y-7397399D01*
X8836398Y-7512400D01*
X8866400Y-7512400D01*
G37*
G36*
X8816398Y-7397399D02*
G01*
X8786395Y-7397399D01*
X8786395Y-7512400D01*
X8816398Y-7512400D01*
G37*
G36*
X8722512Y-7169835D02*
G01*
X8722512Y-7089825D01*
X8522512Y-7089825D01*
X8522512Y-7169835D01*
G37*
G36*
X8722512Y-6869836D02*
G01*
X8722512Y-6789826D01*
X8522512Y-6789826D01*
X8522512Y-6869836D01*
G37*
G36*
X8722512Y-6719849D02*
G01*
X8722512Y-6639839D01*
X8522512Y-6639839D01*
X8522512Y-6719849D01*
G37*
G36*
X8461527Y-7358227D02*
G01*
X8541537Y-7358227D01*
X8541537Y-7218222D01*
X8461527Y-7218222D01*
G37*
G36*
X8462390Y-6599885D02*
G01*
X8542400Y-6599885D01*
X8542400Y-6459880D01*
X8462390Y-6459880D01*
G37*
G36*
X8211464Y-6598665D02*
G01*
X8291474Y-6598665D01*
X8291474Y-6458661D01*
X8211464Y-6458661D01*
G37*
G36*
X8202879Y-7359142D02*
G01*
X8282889Y-7359142D01*
X8282889Y-7219137D01*
X8202879Y-7219137D01*
G37*
D38*
G01*
X7823200Y-8839200D03*
G01*
X7823200Y-9093200D03*
G01*
X7823200Y-9347200D03*
G01*
X7823200Y-9601200D03*
G01*
X7823200Y-9855200D03*
G01*
X9855200Y-9855200D03*
G01*
X9855200Y-9601200D03*
G01*
X9855200Y-9347200D03*
G01*
X9855200Y-9093200D03*
G01*
X9855200Y-8839200D03*
D39*
G01*
X3835400Y-4330700D03*
G01*
X4089400Y-4330700D03*
G01*
X4343400Y-4330700D03*
G01*
X4597400Y-4330700D03*
G01*
X4851400Y-4330700D03*
D40*
G01*
X5105400Y-4330700D03*
D41*
G01*
X5397500Y-6210300D03*
G01*
X5397500Y-6464300D03*
G01*
X5397500Y-6718300D03*
G01*
X5397500Y-6972300D03*
G01*
X4127500Y-6972300D03*
G01*
X4127500Y-6718300D03*
G01*
X4127500Y-6464300D03*
G01*
X4127500Y-6210300D03*
D42*
G01*
X368300Y-4140200D03*
G01*
X3162300Y-4140200D03*
G01*
X2908300Y-4140200D03*
G01*
X622300Y-4140200D03*
G01*
X876300Y-4140200D03*
G01*
X1130300Y-4140200D03*
G01*
X1384300Y-4140200D03*
G01*
X1638300Y-4140200D03*
G01*
X1892300Y-4140200D03*
G01*
X2146300Y-4140200D03*
G01*
X2400300Y-4140200D03*
G01*
X2654300Y-4140200D03*
G01*
X3390900Y-4368800D03*
G01*
X3390900Y-7162800D03*
G01*
X3390900Y-6908800D03*
G01*
X3390900Y-4622800D03*
G01*
X3390900Y-4876800D03*
G01*
X3390900Y-5130800D03*
G01*
X3390900Y-5384800D03*
G01*
X3390900Y-5638800D03*
G01*
X3390900Y-5892800D03*
G01*
X3390900Y-6146800D03*
G01*
X3390900Y-6400800D03*
G01*
X3390900Y-6654800D03*
G01*
X3162300Y-7391400D03*
G01*
X368300Y-7391400D03*
G01*
X622300Y-7391400D03*
G01*
X2908300Y-7391400D03*
G01*
X2654300Y-7391400D03*
G01*
X2400300Y-7391400D03*
G01*
X2146300Y-7391400D03*
G01*
X1892300Y-7391400D03*
G01*
X1638300Y-7391400D03*
G01*
X1384300Y-7391400D03*
G01*
X1130300Y-7391400D03*
G01*
X876300Y-7391400D03*
G01*
X139700Y-7162800D03*
G01*
X139700Y-4368800D03*
G01*
X139700Y-4622800D03*
G01*
X139700Y-6908800D03*
G01*
X139700Y-6654800D03*
G01*
X139700Y-6400800D03*
G01*
X139700Y-6146800D03*
G01*
X139700Y-5892800D03*
G01*
X139700Y-5638800D03*
G01*
X139700Y-5384800D03*
G01*
X139700Y-5130800D03*
G01*
X139700Y-4876800D03*
G36*
X2986100Y-8104200D02*
G01*
X3186099Y-8104200D01*
X3186099Y-8304199D01*
X2986100Y-8304199D01*
G37*
D44*
G01*
X3340100Y-8204200D03*
G01*
X3594100Y-8204200D03*
D38*
G01*
X5575300Y-4318000D03*
G01*
X5829300Y-4318000D03*
G01*
X6083300Y-4318000D03*
G01*
X6337300Y-4318000D03*
G01*
X6591300Y-4318000D03*
G01*
X6845300Y-4318000D03*
D45*
G01*
X7099300Y-4318000D03*
G36*
X3608199Y-102999D02*
G01*
X3783200Y-102999D01*
X3783200Y-278000D01*
X3608199Y-278000D01*
G37*
D47*
G01*
X3949700Y-190500D03*
G01*
X4203700Y-190500D03*
G01*
X4457700Y-190500D03*
G01*
X4711700Y-190500D03*
D39*
G01*
X4559300Y-3568700D03*
D40*
G01*
X4813300Y-3568700D03*
D38*
G01*
X922273Y-2736519D03*
G01*
X1176273Y-2736519D03*
G01*
X922273Y-2482519D03*
G01*
X1176273Y-2482519D03*
G01*
X922273Y-2228519D03*
G01*
X1176273Y-2228519D03*
G01*
X922273Y-1974519D03*
G01*
X1176273Y-1974519D03*
G01*
X922273Y-1720519D03*
G01*
X1176273Y-1720519D03*
G01*
X922273Y-1466519D03*
G01*
X1176273Y-1466519D03*
G01*
X922273Y-1212519D03*
G01*
X1176273Y-1212519D03*
G01*
X922273Y-958519D03*
G01*
X1176273Y-958519D03*
G01*
X2700274Y-2736519D03*
G01*
X2954274Y-2736519D03*
G01*
X2700274Y-2482519D03*
G01*
X2954274Y-2482519D03*
G01*
X2700274Y-2228519D03*
G01*
X2954274Y-2228519D03*
G01*
X2700274Y-1974519D03*
G01*
X2954274Y-1974519D03*
G01*
X2700274Y-1720519D03*
G01*
X2954274Y-1720519D03*
G01*
X2700274Y-1466519D03*
G01*
X2954274Y-1466519D03*
G01*
X2700274Y-1212519D03*
G01*
X2954274Y-1212519D03*
G01*
X2700274Y-958519D03*
G01*
X2954274Y-958519D03*
D39*
G01*
X4257700Y-3568700D03*
G01*
X3387699Y-3568700D03*
D48*
G01*
X3706799Y-3175000D03*
G01*
X3960799Y-3175000D03*
G01*
X4214799Y-3175000D03*
G01*
X4468799Y-3175000D03*
G01*
X4722799Y-3175000D03*
G01*
X3706799Y-635000D03*
G01*
X3960799Y-635000D03*
G01*
X4214799Y-635000D03*
G01*
X4468799Y-635000D03*
G01*
X4722799Y-635000D03*
D38*
G01*
X165100Y-1479397D03*
G01*
X419100Y-1479397D03*
G01*
X165100Y-1733397D03*
G01*
X419100Y-1733397D03*
G01*
X165100Y-1987397D03*
G01*
X419100Y-1987397D03*
G01*
X165100Y-2241397D03*
G01*
X419100Y-2241397D03*
G01*
X6627799Y-1479397D03*
G01*
X6881799Y-1479397D03*
G01*
X6627799Y-1733397D03*
G01*
X6881799Y-1733397D03*
G01*
X6627799Y-1987397D03*
G01*
X6881799Y-1987397D03*
G01*
X6627799Y-2241397D03*
G01*
X6881799Y-2241397D03*
D43*
G01*
X5351500Y-3213023D03*
G01*
X6207379Y-3213023D03*
G01*
X5351500Y-1716481D03*
G01*
X6207379Y-1716481D03*
G36*
X60960Y-9776460D02*
G01*
X60960Y-9933939D01*
X218439Y-9933939D01*
X218439Y-9776460D01*
G37*
D50*
G01*
X393700Y-9855200D03*
G01*
X647700Y-9855200D03*
G01*
X901700Y-9855200D03*
G01*
X1155700Y-9855200D03*
G01*
X1409700Y-9855200D03*
G01*
X1663700Y-9855200D03*
G01*
X1917700Y-9855200D03*
G01*
X2171700Y-9855200D03*
G01*
X2425700Y-9855200D03*
G36*
X2504440Y-8155939D02*
G01*
X2504440Y-7998460D01*
X2346959Y-7998460D01*
X2346959Y-8155939D01*
G37*
G01*
X2171700Y-8077200D03*
G01*
X1917700Y-8077200D03*
G01*
X1663700Y-8077200D03*
G01*
X1409700Y-8077200D03*
G01*
X1155700Y-8077200D03*
G01*
X901700Y-8077200D03*
G01*
X647700Y-8077200D03*
G01*
X393700Y-8077200D03*
G01*
X139700Y-8077200D03*
G36*
X4231640Y-7490460D02*
G01*
X4074159Y-7490460D01*
X4074159Y-7647939D01*
X4231640Y-7647939D01*
G37*
G01*
X4152900Y-7823200D03*
G01*
X4152900Y-8077200D03*
G01*
X4152900Y-8331200D03*
G01*
X4152900Y-8585200D03*
G01*
X4152900Y-8839200D03*
G01*
X4152900Y-9093200D03*
G01*
X4152900Y-9347200D03*
G01*
X4152900Y-9601200D03*
G01*
X4152900Y-9855200D03*
G36*
X5344159Y-9933939D02*
G01*
X5501640Y-9933939D01*
X5501640Y-9776460D01*
X5344159Y-9776460D01*
G37*
G01*
X5422900Y-9601200D03*
G01*
X5422900Y-9347200D03*
G01*
X5422900Y-9093200D03*
G01*
X5422900Y-8839200D03*
G01*
X5422900Y-8585200D03*
G01*
X5422900Y-8331200D03*
G01*
X5422900Y-8077200D03*
G01*
X5422900Y-7823200D03*
G01*
X5422900Y-7569200D03*
G36*
X7096759Y-9933939D02*
G01*
X7254240Y-9933939D01*
X7254240Y-9776460D01*
X7096759Y-9776460D01*
G37*
G01*
X7175500Y-9601200D03*
G01*
X7175500Y-9347200D03*
G01*
X7175500Y-9093200D03*
G01*
X7175500Y-8839200D03*
G01*
X7175500Y-8585200D03*
G01*
X7175500Y-8331200D03*
G01*
X7175500Y-8077200D03*
G01*
X7175500Y-7823200D03*
G01*
X7175500Y-7569200D03*
G01*
X7175500Y-7315200D03*
G01*
X7175500Y-7061200D03*
G01*
X7175500Y-6807200D03*
G01*
X7175500Y-6553200D03*
G01*
X7175500Y-6299200D03*
G36*
X6238240Y-6220460D02*
G01*
X6080759Y-6220460D01*
X6080759Y-6377939D01*
X6238240Y-6377939D01*
G37*
G01*
X6159500Y-6553200D03*
G01*
X6159500Y-6807200D03*
G01*
X6159500Y-7061200D03*
G01*
X6159500Y-7315200D03*
G01*
X6159500Y-7569200D03*
G01*
X6159500Y-7823200D03*
G01*
X6159500Y-8077200D03*
G01*
X6159500Y-8331200D03*
G01*
X6159500Y-8585200D03*
G01*
X6159500Y-8839200D03*
G01*
X6159500Y-9093200D03*
G01*
X6159500Y-9347200D03*
G01*
X6159500Y-9601200D03*
G01*
X6159500Y-9855200D03*
G36*
X7647940Y-60960D02*
G01*
X7490459Y-60960D01*
X7490459Y-218439D01*
X7647940Y-218439D01*
G37*
G01*
X7569200Y-393700D03*
G01*
X7569200Y-647700D03*
G01*
X7569200Y-901700D03*
G01*
X7569200Y-1155700D03*
G01*
X7569200Y-1409700D03*
G01*
X7569200Y-1663700D03*
G01*
X7569200Y-1917700D03*
G01*
X7569200Y-2171700D03*
G01*
X7569200Y-2425700D03*
G01*
X7569200Y-2679700D03*
G01*
X7569200Y-2933700D03*
G01*
X7569200Y-3187700D03*
G01*
X7569200Y-3441700D03*
G01*
X7569200Y-3695700D03*
G01*
X7569200Y-3949700D03*
G01*
X7569200Y-4203700D03*
G01*
X7569200Y-4457700D03*
G01*
X7569200Y-4711700D03*
G01*
X7569200Y-4965700D03*
G36*
X9776459Y-5044439D02*
G01*
X9933940Y-5044439D01*
X9933940Y-4886960D01*
X9776459Y-4886960D01*
G37*
G01*
X9855200Y-4711700D03*
G01*
X9855200Y-4457700D03*
G01*
X9855200Y-4203700D03*
G01*
X9855200Y-3949700D03*
G01*
X9855200Y-3695700D03*
G01*
X9855200Y-3441700D03*
G01*
X9855200Y-3187700D03*
G01*
X9855200Y-2933700D03*
G01*
X9855200Y-2679700D03*
G01*
X9855200Y-2425700D03*
G01*
X9855200Y-2171700D03*
G01*
X9855200Y-1917700D03*
G01*
X9855200Y-1663700D03*
G01*
X9855200Y-1409700D03*
G01*
X9855200Y-1155700D03*
G01*
X9855200Y-901700D03*
G01*
X9855200Y-647700D03*
G01*
X9855200Y-393700D03*
G01*
X9855200Y-139700D03*
D14*
G01*
X1049273Y-1161872D03*
G01*
X2819400Y-2565400D03*
G01*
X4529505Y-2847111D03*
G01*
X1732127Y-1861464D03*
G01*
X3706139Y-1582928D03*
G01*
X4088002Y-3012871D03*
D15*
G01*
X2159000Y-3378200D03*
G01*
X3759200Y-3378200D03*
G01*
X6565900Y-4533900D03*
G01*
X6197600Y-4470400D03*
G01*
X8178800Y-1409700D03*
G01*
X8166100Y-1676400D03*
G01*
X9156700Y-1663700D03*
G01*
X9144000Y-1422400D03*
G01*
X9258300Y-2692400D03*
G01*
X8128000Y-2679700D03*
G01*
X7035800Y-8166100D03*
G01*
X6667474Y-8079181D03*
G01*
X6350000Y-7962900D03*
G01*
X6350000Y-7886700D03*
G01*
X6350000Y-7797800D03*
G01*
X3302000Y-9220200D03*
G01*
X3302000Y-9664700D03*
G01*
X4991100Y-5295900D03*
G01*
X9448800Y-8724900D03*
G01*
X9004300Y-9207500D03*
G01*
X8318500Y-9207500D03*
D14*
G01*
X8305698Y-6224523D03*
G01*
X8284616Y-5900673D03*
G01*
X8636000Y-7239000D03*
G01*
X8699906Y-6002273D03*
G01*
X8856878Y-6718808D03*
G01*
X8696858Y-6982968D03*
G01*
X9165996Y-7190231D03*
G01*
X9328810Y-6592315D03*
G01*
X9219844Y-5932678D03*
G01*
X8915806Y-6220205D03*
G01*
X8943238Y-6083300D03*
G01*
X8784742Y-7309865D03*
G01*
X9052712Y-6854189D03*
G01*
X8330590Y-5785612D03*
G01*
X9296298Y-7000239D03*
G01*
X8315350Y-7658354D03*
D51*
X5313756Y-1252237D02*
G01*
X5313756Y-1032238D01*
X5663831Y-792226D02*
G01*
X5893831Y-792226D01*
X5893831Y-1392173D02*
G01*
X5663831Y-1392173D01*
M02*
