<?xml version="1.0" encoding="UTF-8" standalone="no"?>
<!DOCTYPE svg PUBLIC "-//W3C//DTD SVG 1.1//EN"
 "http://www.w3.org/Graphics/SVG/1.1/DTD/svg11.dtd">
<!-- Generated by graphviz version 2.43.0 (0)
 -->
<!-- Title: %3 Pages: 1 -->
<svg width="374pt" height="569pt"
 viewBox="0.00 0.00 373.95 569.50" xmlns="http://www.w3.org/2000/svg" xmlns:xlink="http://www.w3.org/1999/xlink">
<g id="graph0" class="graph" transform="scale(1 1) rotate(0) translate(4 565.5)">
<title>%3</title>
<polygon fill="white" stroke="transparent" points="-4,4 -4,-565.5 369.95,-565.5 369.95,4 -4,4"/>
<!-- fake -->
<g id="node1" class="node">
<title>fake</title>
</g>
<!-- LP -->
<g id="node10" class="node">
<title>LP</title>
<ellipse fill="none" stroke="black" cx="206.95" cy="-461.75" rx="22.96" ry="22.96"/>
<ellipse fill="none" stroke="black" cx="206.95" cy="-461.75" rx="27" ry="27"/>
<text text-anchor="middle" x="206.95" y="-458.05" font-family="Times,serif" font-size="14.00">LP</text>
</g>
<!-- fake&#45;&gt;LP -->
<g id="edge1" class="edge">
<title>fake&#45;&gt;LP</title>
<path fill="none" stroke="black" stroke-width="2" d="M206.95,-525.19C206.95,-517.4 206.95,-507.9 206.95,-498.68"/>
<polygon fill="black" stroke="black" stroke-width="2" points="210.45,-498.5 206.95,-488.5 203.45,-498.5 210.45,-498.5"/>
</g>
<!-- DPY1 -->
<g id="node2" class="node">
<title>DPY1</title>
<ellipse fill="none" stroke="black" cx="99.95" cy="-366" rx="36.29" ry="18"/>
<text text-anchor="middle" x="99.95" y="-362.3" font-family="Times,serif" font-size="14.00">DPY1</text>
</g>
<!-- PY -->
<g id="node5" class="node">
<title>PY</title>
<ellipse fill="none" stroke="black" cx="62.95" cy="-279" rx="27" ry="18"/>
<text text-anchor="middle" x="62.95" y="-275.3" font-family="Times,serif" font-size="14.00">PY</text>
</g>
<!-- DPY1&#45;&gt;PY -->
<g id="edge8" class="edge">
<title>DPY1&#45;&gt;PY</title>
<path fill="none" stroke="black" d="M92.64,-348.21C87.39,-336.14 80.2,-319.64 74.22,-305.89"/>
<polygon fill="black" stroke="black" points="77.32,-304.24 70.12,-296.47 70.9,-307.04 77.32,-304.24"/>
<text text-anchor="middle" x="98.45" y="-318.8" font-family="Times,serif" font-size="14.00">Dpy</text>
</g>
<!-- DPY1&#45;&gt;LP -->
<g id="edge6" class="edge">
<title>DPY1&#45;&gt;LP</title>
<path fill="none" stroke="black" d="M115.89,-382.64C126.27,-392.66 140.19,-405.84 152.95,-417 160.99,-424.03 169.92,-431.43 178.17,-438.1"/>
<polygon fill="black" stroke="black" points="176.14,-440.96 186.13,-444.49 180.52,-435.5 176.14,-440.96"/>
<text text-anchor="middle" x="164.95" y="-405.8" font-family="Times,serif" font-size="14.00">ND</text>
</g>
<!-- DLP1 -->
<g id="node3" class="node">
<title>DLP1</title>
<ellipse fill="none" stroke="black" cx="225.95" cy="-18" rx="36.29" ry="18"/>
<text text-anchor="middle" x="225.95" y="-14.3" font-family="Times,serif" font-size="14.00">DLP1</text>
</g>
<!-- PD -->
<g id="node9" class="node">
<title>PD</title>
<ellipse fill="none" stroke="black" cx="153.95" cy="-105" rx="27" ry="18"/>
<text text-anchor="middle" x="153.95" y="-101.3" font-family="Times,serif" font-size="14.00">PD</text>
</g>
<!-- DLP1&#45;&gt;PD -->
<g id="edge16" class="edge">
<title>DLP1&#45;&gt;PD</title>
<path fill="none" stroke="black" d="M221.06,-36.02C217.49,-46.33 211.89,-59.32 203.95,-69 198.15,-76.06 190.58,-82.34 183.1,-87.56"/>
<polygon fill="black" stroke="black" points="180.93,-84.79 174.46,-93.18 184.75,-90.66 180.93,-84.79"/>
<text text-anchor="middle" x="223.95" y="-57.8" font-family="Times,serif" font-size="14.00">ND</text>
</g>
<!-- DLP1&#45;&gt;LP -->
<g id="edge18" class="edge">
<title>DLP1&#45;&gt;LP</title>
<path fill="none" stroke="black" d="M257.07,-27.34C291.13,-38.58 340.95,-62.17 340.95,-104 340.95,-367 340.95,-367 340.95,-367 340.95,-415.03 282.44,-440.52 242.74,-452.28"/>
<polygon fill="black" stroke="black" points="241.79,-448.92 233.1,-454.99 243.68,-455.66 241.79,-448.92"/>
<text text-anchor="middle" x="353.45" y="-231.8" font-family="Times,serif" font-size="14.00">Dlp</text>
</g>
<!-- DPD1 -->
<g id="node4" class="node">
<title>DPD1</title>
<ellipse fill="none" stroke="black" cx="50.95" cy="-192" rx="37.89" ry="18"/>
<text text-anchor="middle" x="50.95" y="-188.3" font-family="Times,serif" font-size="14.00">DPD1</text>
</g>
<!-- DPD1&#45;&gt;PY -->
<g id="edge11" class="edge">
<title>DPD1&#45;&gt;PY</title>
<path fill="none" stroke="black" d="M33.79,-208.41C25.14,-218.12 17.52,-231.04 22.95,-243 25.82,-249.32 30.46,-254.95 35.58,-259.75"/>
<polygon fill="black" stroke="black" points="33.35,-262.45 43.27,-266.17 37.83,-257.08 33.35,-262.45"/>
<text text-anchor="middle" x="34.95" y="-231.8" font-family="Times,serif" font-size="14.00">ND</text>
</g>
<!-- DPD1&#45;&gt;PD -->
<g id="edge13" class="edge">
<title>DPD1&#45;&gt;PD</title>
<path fill="none" stroke="black" d="M69.36,-175.8C86.12,-161.97 110.99,-141.45 129.43,-126.24"/>
<polygon fill="black" stroke="black" points="131.91,-128.73 137.4,-119.66 127.45,-123.33 131.91,-128.73"/>
<text text-anchor="middle" x="123.95" y="-144.8" font-family="Times,serif" font-size="14.00">Dpd</text>
</g>
<!-- PY&#45;&gt;DPD1 -->
<g id="edge3" class="edge">
<title>PY&#45;&gt;DPD1</title>
<path fill="none" stroke="black" d="M56.59,-261.15C54.73,-255.46 52.94,-249.03 51.95,-243 50.76,-235.75 50.25,-227.82 50.1,-220.46"/>
<polygon fill="black" stroke="black" points="53.6,-220.23 50.09,-210.23 46.6,-220.24 53.6,-220.23"/>
<text text-anchor="middle" x="66.95" y="-231.8" font-family="Times,serif" font-size="14.00">Dpd</text>
</g>
<!-- DWLP1 -->
<g id="node7" class="node">
<title>DWLP1</title>
<ellipse fill="none" stroke="black" cx="151.95" cy="-192" rx="45.49" ry="18"/>
<text text-anchor="middle" x="151.95" y="-188.3" font-family="Times,serif" font-size="14.00">DWLP1</text>
</g>
<!-- PY&#45;&gt;DWLP1 -->
<g id="edge10" class="edge">
<title>PY&#45;&gt;DWLP1</title>
<path fill="none" stroke="black" d="M74.59,-262.31C82.58,-252.03 93.73,-238.58 104.95,-228 110.02,-223.22 115.75,-218.49 121.41,-214.12"/>
<polygon fill="black" stroke="black" points="123.66,-216.81 129.58,-208.03 119.47,-211.2 123.66,-216.81"/>
<text text-anchor="middle" x="117.45" y="-231.8" font-family="Times,serif" font-size="14.00">Dlp</text>
</g>
<!-- DWPD1 -->
<g id="node6" class="node">
<title>DWPD1</title>
<ellipse fill="none" stroke="black" cx="265.95" cy="-366" rx="46.59" ry="18"/>
<text text-anchor="middle" x="265.95" y="-362.3" font-family="Times,serif" font-size="14.00">DWPD1</text>
</g>
<!-- DWPD1&#45;&gt;PD -->
<g id="edge9" class="edge">
<title>DWPD1&#45;&gt;PD</title>
<path fill="none" stroke="black" d="M262.67,-347.88C255.64,-313.49 237.16,-234.16 205.95,-174 197.42,-157.55 184.86,-140.99 174.22,-128.34"/>
<polygon fill="black" stroke="black" points="176.75,-125.91 167.57,-120.62 171.45,-130.48 176.75,-125.91"/>
<text text-anchor="middle" x="248.95" y="-231.8" font-family="Times,serif" font-size="14.00">Dpd</text>
</g>
<!-- DWPD1&#45;&gt;LP -->
<g id="edge7" class="edge">
<title>DWPD1&#45;&gt;LP</title>
<path fill="none" stroke="black" d="M264.78,-384.14C263.48,-394.26 260.73,-407 254.95,-417 250.33,-425 243.74,-432.36 236.93,-438.67"/>
<polygon fill="black" stroke="black" points="234.22,-436.39 228.93,-445.57 238.79,-441.69 234.22,-436.39"/>
<text text-anchor="middle" x="271.95" y="-405.8" font-family="Times,serif" font-size="14.00">ND</text>
</g>
<!-- DWLP1&#45;&gt;PY -->
<g id="edge12" class="edge">
<title>DWLP1&#45;&gt;PY</title>
<path fill="none" stroke="black" d="M147.64,-209.92C144.25,-220.45 138.63,-233.72 129.95,-243 120.61,-252.98 107.78,-260.64 95.85,-266.2"/>
<polygon fill="black" stroke="black" points="94.34,-263.04 86.55,-270.23 97.12,-269.47 94.34,-263.04"/>
<text text-anchor="middle" x="152.95" y="-231.8" font-family="Times,serif" font-size="14.00">ND</text>
</g>
<!-- DWLP1&#45;&gt;LP -->
<g id="edge14" class="edge">
<title>DWLP1&#45;&gt;LP</title>
<path fill="none" stroke="black" d="M161.27,-209.68C164.11,-215.35 166.99,-221.82 168.95,-228 190.41,-295.71 200.24,-378.54 204.34,-424.9"/>
<polygon fill="black" stroke="black" points="200.87,-425.37 205.2,-435.04 207.84,-424.78 200.87,-425.37"/>
<text text-anchor="middle" x="204.45" y="-318.8" font-family="Times,serif" font-size="14.00">Dlp</text>
</g>
<!-- DWPY1 -->
<g id="node8" class="node">
<title>DWPY1</title>
<ellipse fill="none" stroke="black" cx="78.95" cy="-18" rx="45.49" ry="18"/>
<text text-anchor="middle" x="78.95" y="-14.3" font-family="Times,serif" font-size="14.00">DWPY1</text>
</g>
<!-- DWPY1&#45;&gt;PY -->
<g id="edge19" class="edge">
<title>DWPY1&#45;&gt;PY</title>
<path fill="none" stroke="black" d="M67.69,-35.71C49.97,-63.15 16.31,-120.09 3.95,-174 -3.04,-204.5 -1.12,-218.19 17.95,-243 22.76,-249.26 28.94,-255.01 35.17,-259.97"/>
<polygon fill="black" stroke="black" points="33.46,-263.06 43.57,-266.21 37.63,-257.44 33.46,-263.06"/>
<text text-anchor="middle" x="28.45" y="-144.8" font-family="Times,serif" font-size="14.00">Dpy</text>
</g>
<!-- DWPY1&#45;&gt;PD -->
<g id="edge17" class="edge">
<title>DWPY1&#45;&gt;PD</title>
<path fill="none" stroke="black" d="M93.4,-35.38C104.99,-48.51 121.39,-67.1 134.19,-81.61"/>
<polygon fill="black" stroke="black" points="131.64,-84.01 140.89,-89.19 136.89,-79.38 131.64,-84.01"/>
<text text-anchor="middle" x="132.95" y="-57.8" font-family="Times,serif" font-size="14.00">ND</text>
</g>
<!-- PD&#45;&gt;DLP1 -->
<g id="edge4" class="edge">
<title>PD&#45;&gt;DLP1</title>
<path fill="none" stroke="black" d="M160.07,-87.08C164.33,-76.81 170.72,-63.82 178.95,-54 183.71,-48.32 189.57,-43.03 195.51,-38.38"/>
<polygon fill="black" stroke="black" points="197.6,-41.19 203.58,-32.45 193.45,-35.55 197.6,-41.19"/>
<text text-anchor="middle" x="191.45" y="-57.8" font-family="Times,serif" font-size="14.00">Dlp</text>
</g>
<!-- PD&#45;&gt;DWPY1 -->
<g id="edge15" class="edge">
<title>PD&#45;&gt;DWPY1</title>
<path fill="none" stroke="black" d="M128.07,-99.04C111.28,-94.35 90.61,-85.46 79.95,-69 75.62,-62.31 74.27,-53.99 74.31,-46.07"/>
<polygon fill="black" stroke="black" points="77.8,-46.29 75.04,-36.06 70.82,-45.77 77.8,-46.29"/>
<text text-anchor="middle" x="94.45" y="-57.8" font-family="Times,serif" font-size="14.00">Dpy</text>
</g>
<!-- LP&#45;&gt;DPY1 -->
<g id="edge2" class="edge">
<title>LP&#45;&gt;DPY1</title>
<path fill="none" stroke="black" d="M180.05,-457.84C154.92,-453.55 118.7,-442.97 100.95,-417 96.45,-410.42 95.05,-402.13 95.1,-394.21"/>
<polygon fill="black" stroke="black" points="98.6,-394.41 95.87,-384.17 91.62,-393.87 98.6,-394.41"/>
<text text-anchor="middle" x="115.45" y="-405.8" font-family="Times,serif" font-size="14.00">Dpy</text>
</g>
<!-- LP&#45;&gt;DWPD1 -->
<g id="edge5" class="edge">
<title>LP&#45;&gt;DWPD1</title>
<path fill="none" stroke="black" d="M211.48,-435.08C214.21,-424.26 218.45,-411.9 224.95,-402 228.03,-397.31 231.92,-392.89 236.07,-388.88"/>
<polygon fill="black" stroke="black" points="238.53,-391.37 243.7,-382.12 233.89,-386.13 238.53,-391.37"/>
<text text-anchor="middle" x="239.95" y="-405.8" font-family="Times,serif" font-size="14.00">Dpd</text>
</g>
</g>
</svg>
